<svg width="41" height="43" viewBox="0 0 41 43" fill="none" xmlns="http://www.w3.org/2000/svg">
<g id="artificial-intelligence-ai-icon 1" clip-path="url(#clip0_848_1337)">
<g id="Group">
<path id="Vector" d="M29.3462 35.7745C29.1885 35.71 29.0174 35.6727 28.8363 35.6727C28.6552 35.6727 28.4841 35.71 28.3264 35.7745C28.1688 35.8424 28.0246 35.9374 27.9072 36.0596L27.8971 36.0664C27.83 36.1343 27.7663 36.2123 27.716 36.2972C27.6891 36.3413 27.6623 36.3888 27.6388 36.4397H25.5223V34.5799C25.1969 34.7326 24.8581 34.848 24.5126 34.9193C24.4522 34.9328 24.3952 34.943 24.3348 34.9532V37.0371C24.3348 37.2034 24.4019 37.3527 24.5093 37.4613C24.6166 37.5699 24.7642 37.6378 24.9285 37.6378H27.6589C27.6791 37.6785 27.7025 37.7192 27.7294 37.76C27.7763 37.8312 27.83 37.8991 27.8904 37.9602L27.9005 37.9704C28.0212 38.0926 28.1688 38.1944 28.3332 38.2623C28.4908 38.3268 28.6619 38.3641 28.843 38.3641C29.0174 38.3641 29.1885 38.3301 29.3428 38.2657L29.3529 38.2623C29.5172 38.1944 29.6615 38.0926 29.7856 37.9704C29.9063 37.8482 30.007 37.6989 30.074 37.5326C30.1378 37.3731 30.1747 37.2 30.1747 37.0167C30.1747 36.8368 30.1378 36.6637 30.074 36.5008C30.007 36.3345 29.9063 36.1852 29.7856 36.063C29.6581 35.9442 29.5105 35.8424 29.3462 35.7745ZM19.669 23.0473H17.1868L16.8313 24.2284H14.5973L17.264 17.0605H19.6589L22.3155 24.2284H20.0246L19.669 23.0473ZM19.2061 21.4929L18.4313 18.9169L17.6531 21.4929H19.2061ZM22.9327 17.0571H25.1298V24.225H22.9327V17.0571ZM21.2589 9.70922C20.8967 9.97395 20.5612 10.3303 20.2694 10.7919C20.256 10.8156 20.2359 10.836 20.2124 10.8496C20.1218 10.9073 20.0011 10.8801 19.9441 10.7919C19.6522 10.3303 19.3168 9.97395 18.9545 9.70922C18.5654 9.42413 18.1462 9.24426 17.7134 9.15602H17.7067C17.2841 9.06777 16.8514 9.06777 16.4355 9.14244C15.996 9.2205 15.5701 9.38341 15.1877 9.60741C14.8086 9.8314 14.4665 10.1199 14.1814 10.4525C13.9063 10.7749 13.6849 11.1449 13.5407 11.5419C13.5172 11.603 13.4971 11.6675 13.477 11.7354C13.4602 11.7965 13.4401 11.8644 13.4267 11.9322C13.4099 12.0205 13.3361 12.085 13.2422 12.0884C12.7927 12.1562 12.3466 12.3225 11.9306 12.5703C11.508 12.8248 11.1155 13.171 10.7768 13.5851C10.4413 13.9991 10.1596 14.4879 9.95831 15.0309C9.77047 15.54 9.65643 16.1 9.63295 16.6939C9.62959 16.772 9.62959 16.8466 9.62959 16.9247C9.62959 16.996 9.63295 17.0706 9.63295 17.1487C9.6363 17.2132 9.60947 17.2811 9.55244 17.3218C9.27739 17.522 9.02917 17.7291 8.80779 17.9429C8.58305 18.1635 8.38515 18.3909 8.21408 18.6251C7.93567 19.0086 7.73106 19.409 7.59353 19.8129C7.4493 20.2338 7.37886 20.6648 7.37215 21.089C7.3688 21.4963 7.42246 21.9002 7.53651 22.2905C7.65056 22.6876 7.82498 23.0745 8.04972 23.4342C8.17718 23.6413 8.32142 23.8449 8.47907 24.035C8.64007 24.2284 8.8145 24.4117 9.00234 24.5848C9.0493 24.6289 9.07613 24.7002 9.06272 24.768C9.00905 25.026 8.98221 25.2805 8.97215 25.5317C8.96544 25.7896 8.97886 26.0442 9.0124 26.2919C9.07613 26.7467 9.20695 27.1811 9.39144 27.5816C9.58599 28.0092 9.84091 28.3995 10.1361 28.7423C10.4212 29.0783 10.7466 29.3702 11.0954 29.6112C11.4476 29.8555 11.8199 30.0456 12.2023 30.178C12.3734 30.2357 12.5478 30.2832 12.7256 30.3171C12.8933 30.351 13.061 30.3714 13.2254 30.3782C13.316 30.3748 13.3998 30.4393 13.4199 30.5343C13.5072 30.9382 13.6682 31.3183 13.8896 31.6611C14.121 32.0209 14.4128 32.3399 14.7483 32.6046C15.1709 32.9372 15.6673 33.1884 16.1906 33.3207C16.6837 33.4463 17.2036 33.4701 17.7134 33.3615C18.1696 33.2664 18.6124 33.0696 19.0216 32.7573C19.3973 32.4688 19.7462 32.0819 20.038 31.5796C20.0547 31.5491 20.0816 31.5253 20.1151 31.5084C20.209 31.4575 20.3264 31.4948 20.3768 31.5898C20.6183 32.0446 20.9135 32.4078 21.2422 32.6827C21.5977 32.9779 21.9902 33.1782 22.4028 33.2936C22.9294 33.4395 23.4795 33.4395 24.0128 33.3275C24.5831 33.2087 25.1332 32.9576 25.6061 32.6114C25.9784 32.3433 26.3072 32.0141 26.5688 31.6407C26.817 31.2912 27.0015 30.9009 27.1088 30.4902C27.1223 30.4121 27.1826 30.3443 27.2665 30.3307C27.7596 30.2424 28.2459 30.0354 28.6921 29.7266C29.1382 29.4177 29.5441 29.0104 29.8761 28.5251C30.1814 28.0771 30.4262 27.5612 30.5839 26.9979C30.7315 26.4718 30.8019 25.9016 30.7784 25.3009C30.7717 25.233 30.8019 25.1651 30.8623 25.1244C31.1508 24.9242 31.4057 24.7137 31.6338 24.4999C31.8652 24.2759 32.0698 24.0451 32.2443 23.8042C32.5126 23.4376 32.7105 23.0575 32.848 22.6672C32.9889 22.2633 33.0627 21.8527 33.0761 21.442C33.0862 21.0449 33.0392 20.6512 32.9386 20.2643C32.838 19.874 32.6803 19.4973 32.4757 19.1409L32.469 19.1341C32.3348 18.9 32.1772 18.676 32.0028 18.4587C31.8283 18.2415 31.6304 18.0379 31.4191 17.8444C31.3688 17.8003 31.342 17.7291 31.3554 17.6578C31.4023 17.4236 31.4325 17.1894 31.4426 16.9586C31.4527 16.7245 31.4459 16.4937 31.4225 16.2663C31.3722 15.7945 31.248 15.3465 31.0669 14.9291C30.8757 14.4879 30.6208 14.0806 30.3223 13.7242C30.0338 13.3781 29.7017 13.076 29.3462 12.8248C28.9906 12.5737 28.6116 12.3768 28.2258 12.2445L28.2158 12.2411C28.0111 12.1698 27.8032 12.1189 27.5986 12.085H27.5919C27.3906 12.051 27.1893 12.0375 26.9914 12.0408C26.9009 12.0476 26.8137 11.9865 26.7902 11.8915C26.7566 11.7524 26.713 11.6166 26.6627 11.4842C26.609 11.3485 26.5487 11.2161 26.4782 11.0838C26.2971 10.7444 26.0589 10.4321 25.7805 10.164C25.4954 9.8891 25.1701 9.65492 24.8212 9.47504C24.4623 9.29177 24.0698 9.1628 23.6673 9.10511C23.2849 9.0508 22.8925 9.05759 22.5067 9.13905C22.074 9.24426 21.648 9.42413 21.2589 9.70922ZM26.7432 13.5308C26.7667 13.4561 26.8338 13.3984 26.9176 13.3916C27.0585 13.3814 27.2028 13.3882 27.347 13.412C27.4946 13.4357 27.6422 13.4731 27.7898 13.524C28.0682 13.619 28.3466 13.765 28.6049 13.9482C28.8598 14.1281 29.1013 14.3487 29.3093 14.5999L29.3126 14.6067C29.5306 14.868 29.7151 15.1599 29.8527 15.4789C29.9835 15.7776 30.0707 16.0966 30.1076 16.4326C30.1311 16.6566 30.1311 16.8908 30.1042 17.1283C30.0807 17.3489 30.0304 17.5763 29.9533 17.8037L29.9499 17.8173C29.903 17.9598 29.9063 18.1092 29.9499 18.2415C29.9969 18.3773 30.0841 18.4995 30.2082 18.5809L30.2183 18.5877C30.4531 18.7642 30.661 18.9577 30.8422 19.1613C31.03 19.3683 31.191 19.5923 31.3252 19.8231C31.4728 20.0776 31.5868 20.3424 31.6573 20.6139C31.7311 20.882 31.7646 21.1535 31.7545 21.4216C31.7478 21.6999 31.6942 21.9782 31.5969 22.2531C31.503 22.5145 31.3654 22.7724 31.1843 23.0236L31.181 23.027C31.0166 23.2544 30.8086 23.4784 30.5638 23.6922C30.329 23.8958 30.0573 24.0893 29.7453 24.2759L29.7353 24.2827C29.6111 24.354 29.5206 24.4626 29.4669 24.5882C29.4132 24.7137 29.3965 24.8529 29.4233 24.9887L29.4267 25.0158C29.4904 25.5351 29.4602 26.0306 29.3562 26.482C29.2422 26.9741 29.0443 27.4153 28.786 27.792C28.5881 28.0805 28.36 28.3283 28.1151 28.5251C27.8636 28.7287 27.5919 28.8781 27.3135 28.9697H27.3101C27.2095 29.0003 27.0988 28.9426 27.0686 28.8407C26.6895 27.5884 26.0355 27.1845 24.9285 26.6075L24.9051 26.594C24.7508 26.5193 24.583 26.5125 24.4321 26.56C24.2812 26.6075 24.1503 26.7128 24.0732 26.8655L24.0631 26.8859C23.9893 27.042 23.9826 27.2117 24.0296 27.3644C24.0799 27.5171 24.1872 27.6529 24.3415 27.7343C25.2673 28.2129 25.9516 28.576 25.9415 29.7503C25.9382 30.0999 25.8309 30.4393 25.6497 30.7447C25.4585 31.0672 25.1835 31.3556 24.8648 31.5898C24.5394 31.8274 24.1738 32.0005 23.7981 32.0853C23.4392 32.1702 23.0703 32.1736 22.7248 32.0785C22.1411 31.9156 21.7621 31.5219 21.5072 31.0434C21.2656 30.5886 21.1315 30.0592 21.0342 29.5772C21.0275 29.5603 21.0275 29.5399 21.0275 29.5229C21.0275 29.2786 20.8397 29.1191 20.5948 29.0478C20.4875 29.0138 20.3701 29.0003 20.256 29.0003C20.1386 29.0003 20.0246 29.0172 19.9172 29.0478C19.6757 29.1224 19.4879 29.282 19.4879 29.5229C19.4879 29.5399 19.4845 29.5535 19.4812 29.5704C19.2933 30.3239 19.0216 30.8907 18.703 31.2979C18.3306 31.7765 17.8946 32.0378 17.4451 32.1329C17.1164 32.2007 16.7776 32.1838 16.4556 32.0989C16.1168 32.0073 15.7948 31.841 15.513 31.6238C15.2346 31.4032 15.0032 31.135 14.8422 30.833C14.6879 30.5445 14.5973 30.2255 14.5973 29.8997C14.5973 28.6643 15.3353 28.2502 16.3114 27.7445C16.4657 27.6631 16.573 27.5273 16.6233 27.3746C16.6736 27.2185 16.6636 27.0454 16.5864 26.8859C16.5059 26.7297 16.3717 26.6211 16.2208 26.5702C16.0698 26.5227 15.9021 26.5295 15.7478 26.6042L15.7378 26.6075C14.5872 27.2015 13.8996 27.6359 13.487 28.929C13.4636 29.0138 13.3831 29.0783 13.2925 29.0749C13.1784 29.0715 13.0644 29.058 12.947 29.0342C12.8329 29.0104 12.7189 28.9799 12.6116 28.9392C12.3399 28.8441 12.0682 28.705 11.8132 28.5285C11.5617 28.352 11.3269 28.1416 11.1189 27.8972C10.9042 27.6461 10.7197 27.3644 10.5789 27.0555C10.4447 26.7671 10.3508 26.4582 10.3038 26.1358V26.129C10.2703 25.8914 10.2636 25.6437 10.2904 25.3891C10.3139 25.1516 10.3642 24.9038 10.448 24.6594L10.4514 24.6493C10.4984 24.5101 10.495 24.3642 10.4547 24.2352L10.4514 24.2284C10.4078 24.0927 10.3206 23.9739 10.1998 23.889L10.1931 23.8822C9.97844 23.7193 9.78389 23.5462 9.61282 23.3562C9.4384 23.1661 9.2841 22.9625 9.15664 22.7521C9.00234 22.4975 8.88158 22.226 8.80108 21.9477C8.72393 21.6762 8.68368 21.3979 8.68703 21.1128C8.69039 20.8243 8.7407 20.529 8.84133 20.2406C8.93861 19.9656 9.07949 19.6907 9.27404 19.4226C9.4384 19.1952 9.63966 18.9712 9.88116 18.7574C10.1126 18.5504 10.3742 18.3535 10.6761 18.1669C10.7868 18.099 10.8673 18.004 10.921 17.8954L10.9244 17.8852C10.978 17.7732 10.9981 17.6476 10.9814 17.522C10.978 17.5085 10.978 17.4949 10.978 17.4813V17.4745C10.9612 17.3557 10.9512 17.2369 10.9445 17.1215C10.9378 16.996 10.9378 16.8704 10.9411 16.7482C10.9579 16.3036 11.0418 15.8862 11.1793 15.5094C11.3269 15.1056 11.5348 14.7424 11.7831 14.4336C11.9877 14.179 12.2225 13.9652 12.4673 13.7989C12.7122 13.6326 12.9705 13.5138 13.2355 13.4459C13.3361 13.4154 13.4468 13.4731 13.477 13.5749C13.6849 14.2401 13.9466 14.6576 14.4464 15.1293L14.4665 15.1463C14.5906 15.2617 14.7516 15.316 14.9093 15.3092C15.0669 15.3024 15.2212 15.2379 15.3353 15.1123L15.3453 15.0988C15.4594 14.9732 15.513 14.8103 15.5063 14.6508C15.4996 14.4913 15.4325 14.3317 15.3051 14.2096C14.9025 13.8328 14.812 13.5987 14.6912 13.2185C14.5503 12.7807 14.5738 12.3531 14.7114 11.973C14.8053 11.7116 14.9529 11.4673 15.1407 11.2535C15.3252 11.0396 15.5499 10.8496 15.7981 10.7036L15.8082 10.6969C16.0631 10.5475 16.3382 10.4389 16.6233 10.3846C16.895 10.3337 17.1734 10.3303 17.4451 10.388C17.8275 10.4695 18.2032 10.6731 18.5353 11.0261C18.8271 11.3349 19.0854 11.7625 19.29 12.3259L19.2933 12.3327C19.3638 12.5533 19.5919 12.6823 19.8602 12.7332C19.981 12.757 20.1084 12.7638 20.2325 12.757H20.2359C20.3633 12.7502 20.4841 12.7264 20.5981 12.6891C20.7994 12.6212 20.9571 12.5126 20.994 12.3735V12.2954C20.994 11.9017 21.2254 11.4842 21.5441 11.1415C21.8929 10.7681 22.3592 10.4729 22.7516 10.3914C22.9998 10.3405 23.2514 10.3371 23.4963 10.3744C23.7512 10.4152 23.9994 10.4966 24.2342 10.6154L24.2543 10.6222C24.4925 10.7444 24.7105 10.9005 24.9017 11.0838C25.0896 11.267 25.2506 11.4741 25.3713 11.7015C25.5625 12.0578 25.6497 12.4651 25.5893 12.8961C25.5357 13.2728 25.5223 13.5104 25.2103 13.8871L25.207 13.8905C25.0963 14.0229 25.0493 14.1892 25.0627 14.3521C25.0761 14.5082 25.1466 14.661 25.2707 14.7696L25.2908 14.7865C25.4216 14.8951 25.5826 14.9393 25.7403 14.9257C25.8946 14.9121 26.0455 14.8408 26.1529 14.7153L26.1696 14.6915C26.4916 14.3046 26.5956 14.0195 26.7432 13.5308ZM34.1093 30.1406C34.0455 29.9811 34.0086 29.808 34.0086 29.6247C34.0086 29.4415 34.0455 29.2684 34.1093 29.1089C34.1763 28.9494 34.2703 28.8034 34.391 28.6846L34.3977 28.6744C34.4648 28.6066 34.542 28.5421 34.6258 28.4912C34.6694 28.464 34.7164 28.4369 34.7667 28.4131V26.2716H32.1638C32.1671 26.1324 32.1671 25.9933 32.1604 25.8507C32.1537 25.7726 32.1872 25.6946 32.2543 25.6505C32.5227 25.4638 32.7675 25.2703 32.9889 25.0701H35.3571C35.5214 25.0701 35.669 25.138 35.7763 25.2466C35.8837 25.3552 35.9508 25.5045 35.9508 25.6708V28.4335C35.991 28.4538 36.0313 28.4776 36.0715 28.5048C36.142 28.5523 36.209 28.6066 36.2694 28.6677L36.2795 28.6778C36.4002 28.8 36.5009 28.9494 36.568 29.1157C36.6317 29.2752 36.6686 29.4483 36.6686 29.6315C36.6686 29.808 36.635 29.9777 36.5713 30.1372L36.568 30.1474C36.5009 30.3137 36.4002 30.4597 36.2795 30.5852C36.1587 30.7074 36.0111 30.8092 35.8468 30.8771C35.6891 30.9416 35.5181 30.9789 35.3369 30.9789C35.1592 30.9789 34.9881 30.9416 34.8271 30.8771C34.6627 30.8092 34.5151 30.7074 34.3944 30.5852C34.277 30.4563 34.1763 30.3069 34.1093 30.1406ZM37.8795 23.2679H34.3407C34.4011 23.1356 34.4548 23.0032 34.5017 22.8675C34.5956 22.6027 34.6627 22.3346 34.703 22.0665H37.8795C37.903 22.0224 37.9264 21.9782 37.9533 21.9341C38.0036 21.8527 38.064 21.778 38.1277 21.7135C38.2518 21.5879 38.396 21.4895 38.5604 21.4216C38.7181 21.3572 38.8891 21.3198 39.0703 21.3198C39.2447 21.3198 39.4124 21.3538 39.5701 21.4182L39.5801 21.4216C39.7445 21.4895 39.8887 21.5913 40.0128 21.7135C40.1336 21.8357 40.2342 21.985 40.3013 22.1513C40.365 22.3108 40.4019 22.4839 40.4019 22.6672C40.4019 22.8471 40.365 23.0202 40.3013 23.1831C40.2342 23.3494 40.1336 23.4987 40.0128 23.6209C39.8921 23.7431 39.7445 23.8449 39.5801 23.9128C39.4225 23.9773 39.2514 24.0146 39.0703 24.0146C38.8958 24.0146 38.7281 23.9807 38.5705 23.9162L38.5604 23.9128C38.396 23.8449 38.2518 23.7431 38.1277 23.6209C38.064 23.5564 38.007 23.4851 37.9566 23.4071L37.9499 23.3969C37.9264 23.3562 37.903 23.3121 37.8795 23.2679ZM39.0065 19.9826H34.5554C34.4413 19.6025 34.2803 19.2326 34.0791 18.8796L34.0724 18.8694C34.0556 18.8389 34.0388 18.8117 34.022 18.7812H38.4162V14.8612C38.3826 14.8408 38.3491 14.8205 38.3155 14.7967C38.2485 14.7492 38.1881 14.6983 38.1311 14.6406C38.0103 14.5184 37.9097 14.3691 37.8426 14.2028C37.7789 14.0433 37.742 13.8702 37.742 13.6869C37.742 13.507 37.7789 13.3305 37.8426 13.171C37.9097 13.0047 38.0103 12.8588 38.1311 12.7332C38.2518 12.611 38.3994 12.5092 38.5638 12.4413C38.7214 12.3768 38.8925 12.3395 39.0736 12.3395C39.2514 12.3395 39.4225 12.3768 39.5835 12.4413C39.7478 12.5092 39.8954 12.611 40.0162 12.7332C40.1369 12.8554 40.2376 13.0047 40.3046 13.171C40.3684 13.3305 40.4053 13.5036 40.4053 13.6869C40.4053 13.8634 40.3717 14.0331 40.308 14.1926L40.3046 14.2028C40.2376 14.3691 40.1369 14.515 40.0162 14.6406C39.9424 14.7153 39.8552 14.7831 39.7646 14.8408C39.7143 14.8714 39.6573 14.9019 39.6036 14.9257V19.3785C39.6036 19.5448 39.5365 19.6941 39.4292 19.8027C39.3185 19.9147 39.1709 19.9826 39.0065 19.9826ZM34.3541 17.0842H32.838C32.8782 16.8602 32.9017 16.6362 32.9118 16.4122C32.9185 16.2323 32.9185 16.0559 32.9084 15.8828H33.7604V14.1111C33.7135 14.0874 33.6698 14.0636 33.6262 14.0331C33.5457 13.9822 33.4719 13.9211 33.4015 13.8498C33.2807 13.7276 33.1801 13.5783 33.113 13.412C33.0493 13.2525 33.0124 13.0794 33.0124 12.8995C33.0124 12.7196 33.0493 12.5465 33.113 12.3836C33.1801 12.2241 33.274 12.0782 33.3914 11.956L33.4015 11.9458C33.5223 11.8236 33.6698 11.7218 33.8342 11.6539C33.9919 11.5895 34.1629 11.5521 34.3441 11.5521C34.5252 11.5521 34.6963 11.5895 34.8539 11.6539C35.0116 11.7218 35.1558 11.8168 35.2766 11.939L35.2866 11.9458C35.4074 12.068 35.5046 12.2105 35.5717 12.3735L35.5751 12.3836C35.6388 12.5431 35.6757 12.7162 35.6757 12.8995C35.6757 13.0794 35.6388 13.2559 35.5751 13.4154C35.508 13.5749 35.4141 13.7208 35.2967 13.843L35.2866 13.8532C35.2229 13.9177 35.1524 13.9754 35.0719 14.0297C35.0317 14.0568 34.9914 14.0806 34.9478 14.101V16.4835C34.9478 16.6498 34.8807 16.7991 34.7734 16.9077C34.6661 17.0163 34.5151 17.0842 34.3541 17.0842ZM10.8472 6.81082C11.0049 6.8753 11.1759 6.91263 11.3571 6.91263C11.5382 6.91263 11.7093 6.8753 11.8669 6.81082C12.0246 6.74294 12.1688 6.64791 12.2862 6.52573L12.2963 6.51894C12.3633 6.45106 12.4271 6.373 12.4774 6.28815C12.5042 6.24403 12.5311 6.19652 12.5545 6.14561H14.6711V7.9953C15.0434 7.79505 15.4459 7.64912 15.8585 7.56427V5.54488C15.8585 5.37858 15.7914 5.22925 15.6841 5.12064C15.5768 5.01204 15.4292 4.94416 15.2648 4.94416H12.5344C12.5143 4.90343 12.4908 4.86271 12.464 4.82198C12.417 4.75071 12.3633 4.68283 12.303 4.62174L12.2929 4.61156C12.1721 4.48938 12.0246 4.38756 11.8602 4.31968C11.7025 4.2552 11.5315 4.21786 11.3503 4.21786C11.1759 4.21786 11.0049 4.2518 10.8506 4.31629L10.8405 4.31968C10.6761 4.38756 10.5319 4.48938 10.4078 4.61156C10.287 4.73374 10.1864 4.88307 10.1193 5.04937C10.0556 5.20889 10.0187 5.38198 10.0187 5.56525C10.0187 5.74513 10.0556 5.91822 10.1193 6.08112C10.1864 6.24743 10.287 6.39676 10.4078 6.51894C10.5386 6.64112 10.6828 6.74294 10.8472 6.81082ZM17.643 2.99605V7.63215C18.0388 7.74754 18.4246 7.93081 18.7868 8.19554L18.8271 8.22608C18.8271 8.2159 18.8304 8.20572 18.8304 8.19554V2.99605C18.874 2.97229 18.9176 2.94854 18.9612 2.92138C19.0418 2.87048 19.1155 2.80939 19.1793 2.7449C19.3 2.61933 19.4007 2.47339 19.4677 2.30709C19.5315 2.14757 19.5684 1.97448 19.5684 1.79121C19.5684 1.61473 19.5348 1.44503 19.4711 1.28552L19.4677 1.27533C19.4007 1.10903 19.3 0.963093 19.1793 0.837518C19.0585 0.715337 18.9109 0.61352 18.7466 0.545641C18.5889 0.481157 18.4179 0.443824 18.2367 0.443824C18.0589 0.443824 17.8879 0.481157 17.7269 0.545641C17.5625 0.61352 17.4149 0.715337 17.2942 0.837518C17.1734 0.959699 17.0728 1.10903 17.0057 1.27533C16.942 1.43485 16.9051 1.60794 16.9051 1.79121C16.9051 1.96769 16.9386 2.13739 17.0023 2.2969L17.0057 2.30709C17.0728 2.47339 17.1734 2.61933 17.2942 2.7449C17.3579 2.80939 17.4283 2.86708 17.5055 2.91799L17.5122 2.92138C17.5558 2.94854 17.596 2.97229 17.643 2.99605ZM20.8866 1.85569V8.63675C21.0476 8.47044 21.2187 8.3245 21.3931 8.19554C21.6111 8.03602 21.8392 7.90366 22.074 7.80184V2.45302H25.9483C25.9684 2.48696 25.9885 2.5209 26.012 2.55484C26.0589 2.62272 26.1093 2.68381 26.1663 2.74151C26.287 2.86369 26.4346 2.96551 26.599 3.03338C26.7566 3.09787 26.9277 3.1352 27.1088 3.1352C27.2866 3.1352 27.461 3.09787 27.6187 3.03338C27.7831 2.96551 27.9306 2.86369 28.0514 2.74151C28.1721 2.61933 28.2728 2.46999 28.3399 2.30369C28.4036 2.14418 28.4405 1.97109 28.4405 1.78782C28.4405 1.60794 28.4036 1.43485 28.3399 1.27194C28.2728 1.10564 28.1721 0.956305 28.0514 0.834124C27.9239 0.711943 27.7763 0.610126 27.612 0.542247C27.4543 0.477763 27.2833 0.44043 27.1055 0.44043C26.9311 0.44043 26.7633 0.474369 26.6057 0.538853L26.5956 0.542247C26.4313 0.610126 26.287 0.711943 26.1629 0.834124C26.0891 0.908791 26.022 0.997033 25.965 1.08867C25.9348 1.13958 25.9046 1.19727 25.8812 1.25158H21.4803C21.316 1.25158 21.1684 1.31945 21.061 1.42806C20.9537 1.54006 20.8866 1.68939 20.8866 1.85569ZM23.7512 6.56306V7.49299C23.8719 7.49978 23.996 7.50996 24.1168 7.53033C24.3986 7.57105 24.6736 7.64233 24.9386 7.74075V7.16718H26.6896C26.713 7.21469 26.7365 7.25881 26.7667 7.30293C26.817 7.38439 26.8774 7.45906 26.9478 7.53033C27.0686 7.65251 27.2162 7.75433 27.3805 7.8222C27.5382 7.88669 27.7093 7.92402 27.887 7.92402C28.0648 7.92402 28.2359 7.88669 28.3969 7.8222C28.5545 7.75433 28.6988 7.6593 28.8195 7.54051L28.8296 7.53033C28.9503 7.40815 29.051 7.25881 29.1181 7.09251C29.1818 6.933 29.2187 6.75991 29.2187 6.57664C29.2187 6.39336 29.1818 6.22027 29.1181 6.06076C29.051 5.90125 28.9571 5.75531 28.8363 5.63313L28.8296 5.62294C28.7088 5.50076 28.568 5.40234 28.407 5.33446L28.3969 5.33107C28.2392 5.26658 28.0682 5.22925 27.887 5.22925C27.7093 5.22925 27.5348 5.26658 27.3772 5.33107C27.2195 5.39895 27.0753 5.49398 26.9545 5.61276L26.9445 5.62294C26.8807 5.68743 26.8237 5.7587 26.7701 5.84016C26.7432 5.88088 26.7197 5.92161 26.6996 5.96573H24.3449C24.1805 5.96573 24.0329 6.03361 23.9256 6.14221C23.8183 6.24743 23.7512 6.39676 23.7512 6.56306ZM6.70129 12.387C6.76502 12.5465 6.80192 12.7196 6.80192 12.9029C6.80192 13.0862 6.76502 13.2593 6.70129 13.4188C6.6342 13.5783 6.54028 13.7242 6.41953 13.843L6.41282 13.8532C6.34573 13.9211 6.26859 13.9856 6.18473 14.0365C6.14112 14.0636 6.09416 14.0908 6.04385 14.1145V16.2561H8.24091V16.3613C8.24091 16.4428 8.24427 16.5276 8.24762 16.6159C8.25433 16.6905 8.22079 16.7652 8.15706 16.8127C7.86859 17.0197 7.61031 17.2369 7.3755 17.4575H5.45685C5.29249 17.4575 5.1449 17.3897 5.03756 17.2811C4.93022 17.1725 4.86313 17.0231 4.86313 16.8568V14.0942C4.82288 14.0738 4.78263 14.05 4.74238 14.0229C4.67194 13.9754 4.60485 13.9211 4.54448 13.86L4.53441 13.8498C4.41366 13.7276 4.31303 13.5783 4.24594 13.412C4.18221 13.2525 4.14532 13.0794 4.14532 12.8961C4.14532 12.7196 4.17886 12.5499 4.24259 12.3904L4.24594 12.3802C4.31303 12.2139 4.41366 12.068 4.53441 11.9424C4.65517 11.8202 4.80276 11.7184 4.96712 11.6505C5.12477 11.5861 5.29584 11.5487 5.47697 11.5487C5.65475 11.5487 5.82582 11.5861 5.98682 11.6505C6.15119 11.7184 6.29877 11.8202 6.41953 11.9424C6.53358 12.0714 6.6342 12.2207 6.70129 12.387ZM2.93106 19.2597H6.0841C6.03043 19.3819 5.98347 19.5075 5.93986 19.6297C5.84594 19.9046 5.77886 20.1795 5.73861 20.4578H2.93106C2.90758 20.5019 2.8841 20.546 2.85726 20.5901C2.80695 20.6716 2.74657 20.7463 2.68284 20.8107C2.55873 20.9363 2.4145 21.0347 2.25014 21.1026C2.09249 21.1671 1.92142 21.2044 1.74028 21.2044C1.56586 21.2044 1.39815 21.1705 1.24049 21.106L1.23043 21.1026C1.06607 21.0347 0.921835 20.9329 0.797726 20.8107C0.676972 20.6886 0.576343 20.5392 0.509257 20.3729C0.445525 20.2134 0.408628 20.0403 0.408628 19.857C0.408628 19.6772 0.445525 19.5041 0.509257 19.3412C0.576343 19.1749 0.676972 19.0255 0.797726 18.9034C0.918481 18.7812 1.06607 18.6794 1.23043 18.6115C1.38808 18.547 1.55915 18.5097 1.74028 18.5097C1.91471 18.5097 2.08242 18.5436 2.24007 18.6081L2.25014 18.6115C2.4145 18.6794 2.55873 18.7812 2.68284 18.9034C2.74657 18.9678 2.8036 19.0391 2.85391 19.1172L2.86062 19.1274C2.8841 19.1715 2.90758 19.2156 2.93106 19.2597ZM1.80402 22.545H5.90632C6.03378 22.9557 6.21827 23.3528 6.45307 23.7295V23.7329L6.45978 23.7465H2.39437V27.6665C2.42791 27.6868 2.46146 27.7072 2.495 27.7309C2.56209 27.7785 2.62246 27.8294 2.67949 27.8871C2.80024 28.0092 2.90087 28.1586 2.96796 28.3249C3.03169 28.4844 3.06859 28.6575 3.06859 28.8407C3.06859 29.0206 3.03169 29.1971 2.96796 29.3566C2.90087 29.5229 2.80024 29.6689 2.67949 29.7944C2.55873 29.9166 2.41114 30.0184 2.24678 30.0863C2.08913 30.1508 1.91806 30.1881 1.73693 30.1881C1.55915 30.1881 1.38808 30.1508 1.22708 30.0863C1.06272 30.0184 0.915127 29.9166 0.794372 29.7944C0.673617 29.6621 0.572988 29.5127 0.505902 29.3498C0.442171 29.1903 0.405273 29.0172 0.405273 28.834C0.405273 28.6575 0.438816 28.4878 0.502548 28.3283L0.505902 28.3181C0.572988 28.1518 0.673617 28.0058 0.794372 27.8803C0.868167 27.8056 0.955378 27.7377 1.04594 27.68C1.09626 27.6495 1.15328 27.6189 1.20695 27.5952V23.1424C1.20695 22.9761 1.27404 22.8267 1.38137 22.7181C1.49207 22.6129 1.63965 22.545 1.80402 22.545ZM6.45643 25.4434H7.56335C7.52645 25.6674 7.50632 25.888 7.49961 26.1053C7.4929 26.2885 7.49626 26.4684 7.50968 26.6449H7.05014V28.4165C7.0971 28.4403 7.1407 28.464 7.18431 28.4946C7.26481 28.5455 7.33861 28.6066 7.40905 28.6778C7.5298 28.8 7.63043 28.9494 7.69752 29.1157C7.76125 29.2752 7.79815 29.4483 7.79815 29.6315C7.79815 29.8148 7.76125 29.9845 7.69752 30.1474C7.63043 30.3069 7.53651 30.4529 7.41911 30.575L7.40905 30.5852C7.28829 30.7074 7.1407 30.8092 6.97634 30.8771C6.81869 30.9416 6.64762 30.9789 6.46649 30.9789C6.28536 30.9789 6.11429 30.9416 5.95664 30.8771C5.79898 30.8092 5.65475 30.7142 5.534 30.592L5.52393 30.5852C5.40318 30.463 5.3059 30.3205 5.23882 30.1576L5.23546 30.1474C5.17173 29.9879 5.13483 29.8148 5.13483 29.6315C5.13483 29.4517 5.17173 29.2752 5.23546 29.1157C5.30255 28.9561 5.39647 28.8102 5.51387 28.688L5.52393 28.6778C5.58766 28.6134 5.6581 28.5557 5.73861 28.5014C5.77886 28.4742 5.81911 28.4504 5.86272 28.4301V26.0476C5.86272 25.8813 5.9298 25.7319 6.03714 25.6233C6.14448 25.5079 6.29207 25.4434 6.45643 25.4434ZM22.5537 39.5893V34.8412C22.1344 34.7088 21.7386 34.495 21.3763 34.193L21.3696 34.1862V39.5927C21.326 39.6164 21.2824 39.6402 21.2388 39.6674C21.1583 39.7183 21.0845 39.7794 21.0208 39.8438C20.9 39.9694 20.7994 40.1154 20.7323 40.2817C20.6686 40.4412 20.6317 40.6143 20.6317 40.7975C20.6317 40.974 20.6652 41.1437 20.729 41.3032L20.7323 41.3134C20.7994 41.4797 20.9 41.6256 21.0208 41.7512C21.1415 41.8734 21.2891 41.9752 21.4535 42.0431C21.6111 42.1076 21.7822 42.1449 21.9633 42.1449C22.1411 42.1449 22.3122 42.1076 22.4732 42.0431C22.6376 41.9752 22.7852 41.8734 22.9059 41.7512C23.0267 41.629 23.1273 41.4797 23.1944 41.3134C23.2581 41.1539 23.295 40.9808 23.295 40.7975C23.295 40.621 23.2615 40.4513 23.1977 40.2918L23.1944 40.2817C23.1273 40.1154 23.0267 39.9694 22.9059 39.8438C22.8422 39.7794 22.7717 39.7217 22.6946 39.6707L22.6845 39.664C22.6409 39.6368 22.5973 39.613 22.5537 39.5893ZM19.3067 40.7296V33.8875C19.1659 34.0334 19.0183 34.1624 18.864 34.2812C18.6258 34.4645 18.3776 34.6104 18.1193 34.7258V40.1357H14.2451C14.225 40.1018 14.2049 40.0678 14.1814 40.0339C14.1344 39.966 14.0841 39.9049 14.0271 39.8472C13.9063 39.725 13.7587 39.6232 13.5944 39.5554C13.4367 39.4909 13.2657 39.4535 13.0845 39.4535C12.9067 39.4535 12.7323 39.4909 12.5747 39.5554C12.4103 39.6232 12.2661 39.725 12.142 39.8472C12.0212 39.9694 11.9206 40.1187 11.8535 40.285C11.7898 40.4446 11.7529 40.6176 11.7529 40.8009C11.7529 40.9808 11.7898 41.1539 11.8535 41.3168C11.9206 41.4831 12.0212 41.6324 12.142 41.7546C12.2627 41.8768 12.4103 41.9786 12.5747 42.0465C12.7323 42.111 12.9034 42.1483 13.0845 42.1483C13.2589 42.1483 13.4267 42.1144 13.5843 42.0499L13.5944 42.0465C13.7587 41.9786 13.903 41.8768 14.0271 41.7546C14.1009 41.6799 14.168 41.5917 14.225 41.5001C14.2552 41.4492 14.2854 41.3915 14.3088 41.3372H18.7097C18.874 41.3372 19.0216 41.2693 19.129 41.1607C19.2397 41.0453 19.3067 40.896 19.3067 40.7296ZM16.4422 36.0223V35.0347C16.1805 35.0211 15.9189 34.9804 15.664 34.9159C15.5264 34.8819 15.3889 34.8378 15.2547 34.7903V35.425H13.5038C13.4803 35.3774 13.4568 35.3333 13.4267 35.2892C13.3763 35.2077 13.316 35.1331 13.2455 35.0618C13.1248 34.9396 12.9772 34.8378 12.8128 34.7699C12.6552 34.7054 12.4841 34.6681 12.3063 34.6681C12.1285 34.6681 11.9575 34.7054 11.7965 34.7699C11.6388 34.8378 11.4946 34.9328 11.3738 35.0516L11.3638 35.0584C11.243 35.1806 11.1424 35.3299 11.0753 35.4962C11.0116 35.6557 10.9747 35.8288 10.9747 36.0121C10.9747 36.1954 11.0116 36.3685 11.0753 36.528C11.1424 36.6875 11.2363 36.8334 11.3571 36.9556L11.3638 36.9658C11.4845 37.088 11.6254 37.1864 11.7864 37.2543L11.7965 37.2577C11.9541 37.3222 12.1252 37.3595 12.3063 37.3595C12.4841 37.3595 12.6552 37.3222 12.8162 37.2577C12.9738 37.1898 13.1181 37.0948 13.2388 36.976L13.2489 36.9658C13.3126 36.9013 13.3696 36.83 13.4233 36.7486C13.4501 36.7079 13.4736 36.6671 13.4937 36.623H15.8485C16.0128 36.623 16.1604 36.5551 16.2677 36.4465C16.3751 36.3379 16.4422 36.1886 16.4422 36.0223Z" fill="#94C136"/>
</g>
</g>
<defs>
<clipPath id="clip0_848_1337">
<rect width="40" height="41.7045" fill="white" transform="translate(0.405273 0.44043)"/>
</clipPath>
</defs>
</svg>
