<svg width="360" height="372" viewBox="0 0 360 372" fill="none" xmlns="http://www.w3.org/2000/svg">
<path d="M246.163 292.932C244.996 292.455 243.73 292.18 242.39 292.18C241.049 292.18 239.783 292.455 238.617 292.932C237.45 293.433 236.383 294.135 235.514 295.037L235.439 295.087C234.943 295.588 234.471 296.165 234.099 296.791C233.901 297.117 233.702 297.468 233.528 297.844H217.866V284.109C215.458 285.237 212.951 286.089 210.394 286.616C209.948 286.716 209.526 286.791 209.079 286.866V302.255C209.079 303.483 209.575 304.586 210.369 305.388C211.164 306.19 212.256 306.691 213.472 306.691H233.677C233.826 306.992 234 307.293 234.198 307.593C234.546 308.12 234.943 308.621 235.39 309.072L235.464 309.147C236.358 310.05 237.45 310.802 238.666 311.303C239.833 311.779 241.099 312.055 242.439 312.055C243.73 312.055 244.996 311.804 246.138 311.328L246.212 311.303C247.428 310.802 248.496 310.05 249.414 309.147C250.308 308.245 251.052 307.142 251.549 305.914C252.02 304.736 252.294 303.458 252.294 302.105C252.294 300.776 252.02 299.498 251.549 298.295C251.052 297.067 250.308 295.964 249.414 295.062C248.471 294.185 247.379 293.433 246.163 292.932ZM174.552 198.945H156.183L153.552 207.667H137.021L156.754 154.734H174.477L194.136 207.667H177.183L174.552 198.945ZM171.126 187.466L165.392 168.443L159.634 187.466H171.126ZM198.703 154.709H214.962V207.642H198.703V154.709ZM186.317 100.447C183.636 102.402 181.154 105.034 178.995 108.442C178.895 108.618 178.746 108.768 178.573 108.868C177.903 109.294 177.009 109.094 176.587 108.442C174.428 105.034 171.945 102.402 169.265 100.447C166.385 98.3419 163.283 97.0136 160.081 96.362H160.031C156.903 95.7103 153.701 95.7103 150.623 96.2617C147.372 96.8382 144.219 98.0412 141.39 99.6953C138.585 101.349 136.053 103.48 133.943 105.936C131.908 108.317 130.27 111.049 129.202 113.981C129.028 114.432 128.88 114.909 128.731 115.41C128.606 115.861 128.458 116.362 128.358 116.864C128.234 117.515 127.688 117.991 126.993 118.016C123.667 118.518 120.366 119.746 117.288 121.575C114.16 123.455 111.256 126.012 108.749 129.069C106.267 132.127 104.182 135.736 102.692 139.746C101.302 143.506 100.459 147.641 100.285 152.027C100.26 152.603 100.26 153.155 100.26 153.731C100.26 154.258 100.285 154.809 100.285 155.385C100.31 155.862 100.111 156.363 99.6891 156.664C97.6537 158.142 95.8169 159.671 94.1786 161.25C92.5156 162.879 91.0511 164.559 89.7852 166.288C87.725 169.12 86.2108 172.077 85.1931 175.06C84.1258 178.168 83.6045 181.351 83.5549 184.484C83.5301 187.491 83.9272 190.474 84.7712 193.356C85.6151 196.288 86.9058 199.146 88.5689 201.802C89.5121 203.331 90.5795 204.835 91.7461 206.238C92.9375 207.667 94.2283 209.02 95.6183 210.299C95.9658 210.624 96.1644 211.151 96.0651 211.652C95.6679 213.557 95.4694 215.437 95.3949 217.291C95.3452 219.196 95.4445 221.076 95.6927 222.905C96.1644 226.264 97.1324 229.472 98.4976 232.429C99.9373 235.587 101.824 238.47 104.008 241.001C106.118 243.482 108.526 245.638 111.107 247.417C113.713 249.222 116.469 250.625 119.298 251.603C120.564 252.029 121.855 252.38 123.17 252.63C124.412 252.881 125.653 253.031 126.869 253.081C127.539 253.056 128.16 253.532 128.309 254.234C128.954 257.217 130.145 260.024 131.784 262.555C133.496 265.212 135.656 267.568 138.138 269.523C141.266 271.979 144.939 273.834 148.811 274.811C152.46 275.738 156.308 275.914 160.081 275.112C163.456 274.41 166.733 272.956 169.761 270.651C172.541 268.52 175.123 265.663 177.282 261.954C177.406 261.728 177.605 261.553 177.853 261.427C178.548 261.051 179.417 261.327 179.789 262.029C181.576 265.387 183.76 268.069 186.193 270.099C188.824 272.28 191.728 273.758 194.781 274.61C198.678 275.688 202.749 275.688 206.696 274.861C210.916 273.984 214.986 272.129 218.486 269.573C221.241 267.593 223.674 265.162 225.61 262.405C227.447 259.823 228.812 256.941 229.606 253.908C229.706 253.332 230.152 252.831 230.773 252.73C234.422 252.079 238.021 250.55 241.322 248.269C244.624 245.988 247.627 242.981 250.084 239.397C252.343 236.089 254.155 232.279 255.322 228.118C256.414 224.234 256.935 220.023 256.761 215.587C256.712 215.086 256.935 214.584 257.382 214.284C259.517 212.805 261.403 211.251 263.091 209.672C264.804 208.018 266.318 206.314 267.609 204.534C269.594 201.827 271.059 199.02 272.076 196.138C273.119 193.156 273.665 190.123 273.764 187.09C273.839 184.158 273.491 181.251 272.747 178.393C272.002 175.511 270.835 172.729 269.321 170.097L269.272 170.047C268.279 168.318 267.112 166.664 265.821 165.06C264.531 163.456 263.066 161.952 261.502 160.523C261.13 160.198 260.931 159.671 261.031 159.145C261.378 157.416 261.602 155.686 261.676 153.982C261.751 152.253 261.701 150.548 261.527 148.869C261.155 145.385 260.236 142.077 258.896 138.994C257.481 135.736 255.595 132.728 253.386 130.097C251.251 127.54 248.794 125.31 246.163 123.455C243.531 121.6 240.727 120.147 237.872 119.169L237.798 119.144C236.283 118.618 234.744 118.242 233.23 117.991H233.181C231.691 117.741 230.202 117.64 228.738 117.666C228.067 117.716 227.422 117.265 227.248 116.563C227 115.535 226.677 114.533 226.305 113.555C225.908 112.553 225.461 111.575 224.94 110.598C223.6 108.091 221.837 105.786 219.777 103.806C217.667 101.776 215.259 100.046 212.678 98.7179C210.022 97.3645 207.118 96.4121 204.139 95.986C201.31 95.585 198.405 95.6351 195.551 96.2366C192.349 97.0136 189.196 98.3419 186.317 100.447ZM226.901 128.668C227.075 128.117 227.571 127.691 228.192 127.641C229.234 127.565 230.301 127.616 231.369 127.791C232.461 127.966 233.553 128.242 234.645 128.618C236.705 129.32 238.766 130.398 240.677 131.751C242.563 133.079 244.351 134.708 245.889 136.563L245.914 136.613C247.528 138.543 248.893 140.699 249.911 143.054C250.879 145.26 251.524 147.616 251.797 150.097C251.971 151.751 251.971 153.481 251.772 155.235C251.598 156.864 251.226 158.543 250.655 160.223L250.63 160.323C250.283 161.376 250.308 162.478 250.63 163.456C250.978 164.458 251.623 165.361 252.542 165.962L252.616 166.012C254.354 167.315 255.893 168.744 257.233 170.248C258.623 171.777 259.814 173.431 260.807 175.135C261.9 177.015 262.743 178.97 263.265 180.975C263.811 182.955 264.059 184.96 263.985 186.94C263.935 188.995 263.538 191.05 262.818 193.08C262.123 195.01 261.105 196.915 259.765 198.77L259.74 198.795C258.524 200.474 256.985 202.128 255.173 203.707C253.435 205.211 251.425 206.639 249.116 208.018L249.042 208.068C248.123 208.594 247.453 209.396 247.056 210.324C246.659 211.251 246.535 212.279 246.733 213.281L246.758 213.482C247.23 217.316 247.006 220.976 246.237 224.309C245.393 227.943 243.929 231.201 242.017 233.983C240.553 236.114 238.865 237.943 237.053 239.397C235.191 240.901 233.181 242.003 231.121 242.68H231.096C230.351 242.906 229.532 242.48 229.309 241.728C226.504 232.479 221.663 229.497 213.472 225.236L213.298 225.136C212.157 224.585 210.916 224.534 209.799 224.885C208.682 225.236 207.714 226.013 207.143 227.141L207.068 227.291C206.522 228.444 206.472 229.697 206.82 230.825C207.192 231.953 207.987 232.956 209.128 233.557C215.979 237.091 221.043 239.773 220.968 248.445C220.944 251.026 220.149 253.532 218.809 255.788C217.394 258.169 215.359 260.299 213.001 262.029C210.593 263.783 207.887 265.061 205.107 265.688C202.451 266.315 199.721 266.34 197.164 265.638C192.845 264.435 190.04 261.528 188.154 257.994C186.367 254.635 185.374 250.725 184.654 247.166C184.604 247.041 184.604 246.891 184.604 246.765C184.604 244.961 183.214 243.783 181.402 243.257C180.608 243.006 179.739 242.906 178.895 242.906C178.027 242.906 177.183 243.031 176.388 243.257C174.601 243.808 173.211 244.986 173.211 246.765C173.211 246.891 173.186 246.991 173.162 247.116C171.772 252.68 169.761 256.866 167.403 259.873C164.648 263.407 161.421 265.337 158.095 266.039C155.662 266.54 153.155 266.415 150.772 265.788C148.265 265.112 145.882 263.883 143.797 262.279C141.737 260.65 140.024 258.67 138.833 256.44C137.691 254.309 137.021 251.953 137.021 249.547C137.021 240.424 142.482 237.367 149.705 233.632C150.847 233.031 151.641 232.028 152.013 230.9C152.386 229.748 152.311 228.469 151.74 227.291C151.145 226.138 150.152 225.336 149.035 224.961C147.918 224.61 146.677 224.66 145.535 225.211L145.46 225.236C136.947 229.622 131.858 232.83 128.805 242.379C128.631 243.006 128.036 243.482 127.365 243.457C126.521 243.432 125.677 243.332 124.809 243.156C123.965 242.981 123.121 242.755 122.327 242.455C120.316 241.753 118.305 240.725 116.419 239.422C114.557 238.119 112.82 236.565 111.281 234.76C109.692 232.906 108.327 230.825 107.285 228.545C106.292 226.414 105.597 224.133 105.249 221.752V221.702C105.001 219.948 104.951 218.118 105.15 216.239C105.324 214.484 105.696 212.655 106.316 210.85L106.341 210.775C106.689 209.747 106.664 208.67 106.366 207.717L106.341 207.667C106.019 206.664 105.373 205.787 104.48 205.161L104.43 205.111C102.841 203.908 101.402 202.629 100.136 201.226C98.8451 199.822 97.7033 198.318 96.7601 196.765C95.6183 194.885 94.7247 192.88 94.129 190.825C93.5581 188.82 93.2602 186.764 93.285 184.659C93.3099 182.529 93.6822 180.348 94.4268 178.218C95.1467 176.188 96.1892 174.158 97.6289 172.178C98.8451 170.498 100.334 168.844 102.122 167.265C103.834 165.737 105.77 164.283 108.004 162.904C108.823 162.403 109.419 161.701 109.816 160.899L109.841 160.824C110.238 159.997 110.387 159.07 110.263 158.142C110.238 158.042 110.238 157.942 110.238 157.842V157.792C110.114 156.914 110.04 156.037 109.99 155.185C109.94 154.258 109.94 153.33 109.965 152.428C110.089 149.145 110.71 146.062 111.728 143.28C112.82 140.298 114.359 137.616 116.196 135.335C117.71 133.455 119.447 131.876 121.259 130.648C123.071 129.42 124.982 128.543 126.943 128.042C127.688 127.816 128.507 128.242 128.731 128.994C130.27 133.906 132.206 136.989 135.904 140.473L136.053 140.598C136.971 141.45 138.163 141.851 139.329 141.801C140.496 141.751 141.638 141.275 142.482 140.348L142.556 140.247C143.4 139.32 143.797 138.117 143.748 136.939C143.698 135.761 143.202 134.583 142.258 133.681C139.28 130.899 138.61 129.17 137.716 126.362C136.674 123.129 136.847 119.971 137.865 117.164C138.56 115.234 139.652 113.43 141.042 111.851C142.407 110.272 144.07 108.868 145.907 107.791L145.982 107.741C147.868 106.638 149.904 105.836 152.013 105.435C154.024 105.059 156.084 105.034 158.095 105.46C160.924 106.061 163.704 107.565 166.162 110.172C168.321 112.452 170.233 115.61 171.747 119.771L171.772 119.821C172.293 121.45 173.981 122.402 175.966 122.778C176.86 122.954 177.803 123.004 178.722 122.954H178.746C179.69 122.904 180.583 122.728 181.427 122.453C182.917 121.951 184.083 121.149 184.356 120.122V119.545C184.356 116.638 186.069 113.555 188.427 111.024C191.008 108.267 194.459 106.086 197.363 105.485C199.2 105.109 201.061 105.084 202.873 105.36C204.76 105.66 206.597 106.262 208.334 107.139L208.483 107.189C210.245 108.091 211.859 109.244 213.274 110.598C214.664 111.951 215.855 113.48 216.749 115.159C218.164 117.791 218.809 120.798 218.362 123.981C217.965 126.763 217.866 128.518 215.557 131.3L215.532 131.325C214.713 132.302 214.366 133.53 214.465 134.734C214.564 135.886 215.086 137.014 216.004 137.816L216.153 137.942C217.121 138.744 218.312 139.069 219.479 138.969C220.621 138.869 221.738 138.343 222.532 137.415L222.656 137.24C225.039 134.383 225.809 132.277 226.901 128.668ZM281.41 251.327C280.938 250.149 280.665 248.871 280.665 247.517C280.665 246.164 280.938 244.886 281.41 243.708C281.906 242.53 282.601 241.452 283.495 240.575L283.544 240.5C284.041 239.998 284.611 239.522 285.232 239.146C285.555 238.946 285.902 238.745 286.275 238.57V222.755H267.013C267.038 221.727 267.038 220.7 266.988 219.647C266.938 219.071 267.187 218.494 267.683 218.168C269.669 216.79 271.481 215.361 273.119 213.883H290.643C291.859 213.883 292.952 214.384 293.746 215.186C294.54 215.988 295.037 217.091 295.037 218.319V238.72C295.335 238.871 295.632 239.046 295.93 239.246C296.452 239.597 296.948 239.998 297.395 240.45L297.469 240.525C298.363 241.427 299.107 242.53 299.604 243.758C300.075 244.936 300.349 246.214 300.349 247.567C300.349 248.871 300.1 250.124 299.629 251.302L299.604 251.377C299.107 252.605 298.363 253.683 297.469 254.61C296.576 255.512 295.483 256.264 294.267 256.766C293.101 257.242 291.835 257.517 290.494 257.517C289.179 257.517 287.913 257.242 286.721 256.766C285.505 256.264 284.413 255.512 283.519 254.61C282.651 253.658 281.906 252.555 281.41 251.327ZM309.309 200.574H283.122C283.569 199.597 283.966 198.619 284.314 197.617C285.009 195.662 285.505 193.682 285.803 191.702H309.309C309.483 191.376 309.657 191.05 309.855 190.724C310.228 190.123 310.674 189.571 311.146 189.095C312.064 188.168 313.132 187.441 314.348 186.94C315.515 186.464 316.781 186.188 318.121 186.188C319.412 186.188 320.653 186.439 321.819 186.915L321.894 186.94C323.11 187.441 324.177 188.193 325.096 189.095C325.989 189.998 326.734 191.1 327.231 192.328C327.702 193.506 327.975 194.785 327.975 196.138C327.975 197.466 327.702 198.745 327.231 199.948C326.734 201.176 325.989 202.278 325.096 203.181C324.202 204.083 323.11 204.835 321.894 205.336C320.727 205.812 319.461 206.088 318.121 206.088C316.83 206.088 315.589 205.837 314.422 205.361L314.348 205.336C313.132 204.835 312.064 204.083 311.146 203.181C310.674 202.705 310.252 202.178 309.88 201.602L309.83 201.527C309.657 201.226 309.483 200.9 309.309 200.574ZM317.649 176.313H284.711C283.867 173.506 282.675 170.774 281.186 168.168L281.136 168.092C281.012 167.867 280.888 167.666 280.764 167.441H313.281V138.493C313.032 138.343 312.784 138.192 312.536 138.017C312.04 137.666 311.593 137.29 311.171 136.864C310.277 135.962 309.533 134.859 309.036 133.631C308.565 132.453 308.291 131.175 308.291 129.821C308.291 128.493 308.565 127.19 309.036 126.012C309.533 124.783 310.277 123.706 311.171 122.778C312.064 121.876 313.157 121.124 314.373 120.623C315.539 120.147 316.805 119.871 318.146 119.871C319.461 119.871 320.727 120.147 321.919 120.623C323.135 121.124 324.227 121.876 325.121 122.778C326.014 123.681 326.759 124.783 327.255 126.012C327.727 127.19 328 128.468 328 129.821C328 131.124 327.752 132.378 327.28 133.556L327.255 133.631C326.759 134.859 326.014 135.937 325.121 136.864C324.575 137.415 323.929 137.917 323.259 138.343C322.887 138.568 322.465 138.794 322.068 138.969V171.852C322.068 173.08 321.571 174.183 320.777 174.985C319.958 175.812 318.866 176.313 317.649 176.313ZM283.221 154.909H272.002C272.3 153.255 272.474 151.601 272.548 149.947C272.598 148.618 272.598 147.315 272.523 146.037H278.828V132.954C278.481 132.779 278.158 132.603 277.835 132.378C277.239 132.002 276.693 131.55 276.172 131.024C275.279 130.122 274.534 129.019 274.037 127.791C273.566 126.613 273.293 125.335 273.293 124.007C273.293 122.678 273.566 121.4 274.037 120.197C274.534 119.019 275.229 117.941 276.098 117.039L276.172 116.964C277.066 116.062 278.158 115.31 279.374 114.808C280.541 114.332 281.807 114.056 283.147 114.056C284.487 114.056 285.753 114.332 286.92 114.808C288.087 115.31 289.154 116.011 290.047 116.914L290.122 116.964C291.016 117.866 291.735 118.919 292.232 120.122L292.257 120.197C292.728 121.375 293.001 122.653 293.001 124.007C293.001 125.335 292.728 126.638 292.257 127.816C291.76 128.994 291.065 130.072 290.196 130.974L290.122 131.049C289.65 131.525 289.129 131.952 288.533 132.353C288.235 132.553 287.938 132.728 287.615 132.879V150.473C287.615 151.701 287.118 152.804 286.324 153.606C285.53 154.408 284.413 154.909 283.221 154.909ZM109.27 79.0434C110.437 79.5196 111.703 79.7953 113.043 79.7953C114.384 79.7953 115.649 79.5196 116.816 79.0434C117.983 78.5421 119.05 77.8403 119.919 76.9381L119.993 76.888C120.49 76.3867 120.961 75.8102 121.334 75.1837C121.532 74.8578 121.731 74.507 121.905 74.131H137.567V87.7904C140.322 86.3117 143.301 85.234 146.354 84.6074V69.6949C146.354 68.4668 145.858 67.364 145.063 66.562C144.269 65.7599 143.177 65.2587 141.961 65.2587H121.756C121.607 64.9579 121.433 64.6572 121.234 64.3564C120.887 63.8301 120.49 63.3288 120.043 62.8777L119.968 62.8025C119.075 61.9002 117.983 61.1483 116.766 60.6471C115.6 60.1709 114.334 59.8952 112.994 59.8952C111.703 59.8952 110.437 60.1458 109.295 60.622L109.221 60.6471C108.004 61.1483 106.937 61.9002 106.019 62.8025C105.125 63.7048 104.38 64.8075 103.884 66.0356C103.412 67.2136 103.139 68.4918 103.139 69.8452C103.139 71.1736 103.412 72.4518 103.884 73.6548C104.38 74.8829 105.125 75.9857 106.019 76.888C106.987 77.7902 108.054 78.5421 109.27 79.0434ZM159.559 50.8725V85.1086C162.488 85.9608 165.343 87.3142 168.023 89.2691L168.321 89.4947C168.321 89.4195 168.346 89.3443 168.346 89.2691V50.8725C168.669 50.697 168.992 50.5216 169.314 50.3211C169.91 49.9452 170.456 49.494 170.928 49.0178C171.821 48.0905 172.566 47.0128 173.062 45.7847C173.534 44.6067 173.807 43.3285 173.807 41.9751C173.807 40.6718 173.559 39.4187 173.087 38.2407L173.062 38.1655C172.566 36.9374 171.821 35.8597 170.928 34.9324C170.034 34.0301 168.942 33.2782 167.726 32.777C166.559 32.3008 165.293 32.0251 163.953 32.0251C162.637 32.0251 161.371 32.3008 160.18 32.777C158.964 33.2782 157.871 34.0301 156.978 34.9324C156.084 35.8346 155.34 36.9374 154.843 38.1655C154.371 39.3435 154.098 40.6217 154.098 41.9751C154.098 43.2784 154.347 44.5315 154.818 45.7095L154.843 45.7847C155.34 47.0128 156.084 48.0905 156.978 49.0178C157.449 49.494 157.971 49.9201 158.542 50.296L158.591 50.3211C158.914 50.5216 159.212 50.697 159.559 50.8725ZM183.562 42.4513V92.5273C184.753 91.2992 186.019 90.2215 187.31 89.2691C188.923 88.0911 190.611 87.1137 192.349 86.3618V46.8624H221.018C221.167 47.113 221.316 47.3637 221.49 47.6143C221.837 48.1156 222.21 48.5667 222.631 48.9928C223.525 49.895 224.617 50.6469 225.833 51.1482C227 51.6244 228.266 51.9001 229.606 51.9001C230.922 51.9001 232.213 51.6244 233.379 51.1482C234.596 50.6469 235.688 49.895 236.581 48.9928C237.475 48.0905 238.22 46.9877 238.716 45.7596C239.188 44.5817 239.461 43.3034 239.461 41.95C239.461 40.6217 239.188 39.3435 238.716 38.1405C238.22 36.9124 237.475 35.8096 236.581 34.9073C235.638 34.005 234.546 33.2532 233.33 32.7519C232.163 32.2757 230.897 32 229.582 32C228.291 32 227.05 32.2506 225.883 32.7268L225.809 32.7519C224.592 33.2532 223.525 34.005 222.607 34.9073C222.061 35.4587 221.564 36.1103 221.142 36.787C220.919 37.163 220.695 37.5891 220.522 37.9901H187.955C186.739 37.9901 185.647 38.4913 184.853 39.2934C184.058 40.1204 183.562 41.2232 183.562 42.4513ZM204.76 77.2138V84.0811C205.653 84.1312 206.572 84.2064 207.465 84.3567C209.55 84.6575 211.586 85.1838 213.547 85.9107V81.675H226.504C226.677 82.0259 226.851 82.3517 227.075 82.6775C227.447 83.279 227.894 83.8304 228.415 84.3567C229.309 85.259 230.401 86.0109 231.617 86.5122C232.784 86.9884 234.049 87.2641 235.365 87.2641C236.681 87.2641 237.947 86.9884 239.138 86.5122C240.305 86.0109 241.372 85.3091 242.266 84.4319L242.34 84.3567C243.234 83.4545 243.978 82.3517 244.475 81.1236C244.946 79.9456 245.219 78.6674 245.219 77.314C245.219 75.9606 244.946 74.6824 244.475 73.5044C243.978 72.3265 243.283 71.2488 242.39 70.3465L242.34 70.2713C241.446 69.369 240.404 68.6422 239.212 68.1409L239.138 68.1159C237.971 67.6397 236.705 67.364 235.365 67.364C234.049 67.364 232.759 67.6397 231.592 68.1159C230.426 68.6171 229.358 69.3189 228.465 70.1961L228.39 70.2713C227.919 70.7475 227.497 71.2738 227.099 71.8753C226.901 72.1761 226.727 72.4769 226.578 72.8027H209.153C207.937 72.8027 206.845 73.3039 206.05 74.1059C205.256 74.8829 204.76 75.9857 204.76 77.2138ZM78.5905 120.222C79.0621 121.4 79.3352 122.678 79.3352 124.032C79.3352 125.385 79.0621 126.663 78.5905 127.841C78.0941 129.019 77.3991 130.097 76.5055 130.974L76.4558 131.049C75.9594 131.55 75.3885 132.027 74.768 132.403C74.4453 132.603 74.0978 132.804 73.7255 132.979V148.794H89.9837V149.571C89.9837 150.172 90.0086 150.799 90.0334 151.451C90.083 152.002 89.8348 152.553 89.3632 152.904C87.2285 154.433 85.3172 156.037 83.5797 157.666H69.3816C68.1654 157.666 67.0732 157.165 66.2789 156.363C65.4846 155.561 64.9882 154.458 64.9882 153.23V132.829C64.6903 132.678 64.3925 132.503 64.0946 132.302C63.5733 131.952 63.0769 131.55 62.6301 131.099L62.5556 131.024C61.6621 130.122 60.9174 129.019 60.421 127.791C59.9493 126.613 59.6763 125.335 59.6763 123.981C59.6763 122.678 59.9245 121.425 60.3961 120.247L60.421 120.172C60.9174 118.944 61.6621 117.866 62.5556 116.939C63.4492 116.036 64.5414 115.285 65.7577 114.783C66.9243 114.307 68.1902 114.031 69.5306 114.031C70.8461 114.031 72.112 114.307 73.3035 114.783C74.5197 115.285 75.6119 116.036 76.5055 116.939C77.3494 117.891 78.0941 118.994 78.5905 120.222ZM50.6908 170.975H74.0233C73.6262 171.877 73.2787 172.804 72.956 173.707C72.261 175.737 71.7645 177.767 71.4667 179.822H50.6908C50.5171 180.148 50.3433 180.474 50.1447 180.799C49.7724 181.401 49.3256 181.952 48.854 182.429C47.9356 183.356 46.8683 184.083 45.652 184.584C44.4854 185.06 43.2195 185.336 41.8791 185.336C40.5883 185.336 39.3473 185.085 38.1806 184.609L38.1062 184.584C36.8899 184.083 35.8226 183.331 34.9042 182.429C34.0106 181.526 33.2659 180.423 32.7695 179.195C32.2979 178.017 32.0248 176.739 32.0248 175.386C32.0248 174.057 32.2979 172.779 32.7695 171.576C33.2659 170.348 34.0106 169.245 34.9042 168.343C35.7977 167.441 36.8899 166.689 38.1062 166.188C39.2728 165.711 40.5387 165.436 41.8791 165.436C43.1698 165.436 44.4109 165.686 45.5775 166.163L45.652 166.188C46.8683 166.689 47.9356 167.441 48.854 168.343C49.3256 168.819 49.7476 169.346 50.1199 169.922L50.1696 169.997C50.3433 170.323 50.5171 170.649 50.6908 170.975ZM42.3507 195.236H72.7078C73.651 198.268 75.0162 201.201 76.7537 203.983V204.008L76.8034 204.108H46.7193V233.056C46.9675 233.206 47.2158 233.357 47.464 233.532C47.9604 233.883 48.4072 234.259 48.8292 234.685C49.7228 235.587 50.4674 236.69 50.9639 237.918C51.4355 239.096 51.7085 240.374 51.7085 241.728C51.7085 243.056 51.4355 244.359 50.9639 245.537C50.4674 246.765 49.7228 247.843 48.8292 248.77C47.9356 249.673 46.8434 250.425 45.6272 250.926C44.4605 251.402 43.1946 251.678 41.8543 251.678C40.5387 251.678 39.2728 251.402 38.0813 250.926C36.8651 250.425 35.7729 249.673 34.8793 248.77C33.9857 247.793 33.2411 246.69 32.7447 245.487C32.273 244.309 32 243.031 32 241.678C32 240.374 32.2482 239.121 32.7198 237.943L32.7447 237.868C33.2411 236.64 33.9857 235.562 34.8793 234.635C35.4254 234.083 36.0708 233.582 36.741 233.156C37.1133 232.931 37.5353 232.705 37.9324 232.53V199.647C37.9324 198.419 38.4288 197.316 39.2231 196.514C40.0423 195.737 41.1344 195.236 42.3507 195.236ZM76.7785 216.64H84.9697C84.6967 218.294 84.5478 219.923 84.4981 221.527C84.4485 222.88 84.4733 224.209 84.5726 225.512H81.172V238.595C81.5195 238.77 81.8422 238.946 82.1649 239.171C82.7606 239.547 83.3067 239.998 83.8279 240.525C84.7215 241.427 85.4662 242.53 85.9626 243.758C86.4342 244.936 86.7073 246.214 86.7073 247.567C86.7073 248.921 86.4342 250.174 85.9626 251.377C85.4662 252.555 84.7712 253.633 83.9024 254.535L83.8279 254.61C82.9343 255.512 81.8422 256.264 80.6259 256.766C79.4593 257.242 78.1934 257.517 76.853 257.517C75.5126 257.517 74.2467 257.242 73.0801 256.766C71.9135 256.264 70.8461 255.563 69.9525 254.66L69.8781 254.61C68.9845 253.708 68.2647 252.655 67.7682 251.452L67.7434 251.377C67.2718 250.199 66.9987 248.921 66.9987 247.567C66.9987 246.239 67.2718 244.936 67.7434 243.758C68.2398 242.58 68.9348 241.502 69.8036 240.6L69.8781 240.525C70.3497 240.049 70.8709 239.622 71.4667 239.221C71.7645 239.021 72.0624 238.845 72.3851 238.695V221.101C72.3851 219.873 72.8815 218.77 73.6758 217.968C74.4701 217.116 75.5623 216.64 76.7785 216.64ZM195.898 321.102V286.039C192.796 285.062 189.867 283.483 187.186 281.252L187.136 281.202V321.128C186.814 321.303 186.491 321.478 186.168 321.679C185.573 322.055 185.026 322.506 184.555 322.982C183.661 323.91 182.917 324.987 182.42 326.215C181.949 327.393 181.675 328.672 181.675 330.025C181.675 331.328 181.924 332.581 182.395 333.759L182.42 333.834C182.917 335.063 183.661 336.14 184.555 337.068C185.448 337.97 186.541 338.722 187.757 339.223C188.923 339.699 190.189 339.975 191.53 339.975C192.845 339.975 194.111 339.699 195.303 339.223C196.519 338.722 197.611 337.97 198.505 337.068C199.398 336.165 200.143 335.063 200.639 333.834C201.111 332.656 201.384 331.378 201.384 330.025C201.384 328.722 201.136 327.468 200.664 326.29L200.639 326.215C200.143 324.987 199.398 323.91 198.505 322.982C198.033 322.506 197.512 322.08 196.941 321.704L196.866 321.654C196.544 321.453 196.221 321.278 195.898 321.102ZM171.871 329.524V278.997C170.828 280.074 169.736 281.027 168.594 281.904C166.832 283.257 164.995 284.335 163.084 285.187V325.138H134.415C134.266 324.887 134.117 324.636 133.943 324.386C133.596 323.884 133.223 323.433 132.801 323.007C131.908 322.105 130.816 321.353 129.599 320.852C128.433 320.376 127.167 320.1 125.826 320.1C124.511 320.1 123.22 320.376 122.054 320.852C120.837 321.353 119.77 322.105 118.851 323.007C117.958 323.91 117.213 325.012 116.717 326.24C116.245 327.418 115.972 328.697 115.972 330.05C115.972 331.378 116.245 332.657 116.717 333.86C117.213 335.088 117.958 336.19 118.851 337.093C119.745 337.995 120.837 338.747 122.054 339.248C123.22 339.724 124.486 340 125.826 340C127.117 340 128.358 339.749 129.525 339.273L129.599 339.248C130.816 338.747 131.883 337.995 132.801 337.093C133.347 336.541 133.844 335.89 134.266 335.213C134.489 334.837 134.713 334.411 134.886 334.01H167.453C168.669 334.01 169.761 333.509 170.555 332.707C171.374 331.855 171.871 330.752 171.871 329.524ZM150.673 294.761V287.468C148.737 287.368 146.801 287.067 144.914 286.591C143.897 286.34 142.879 286.014 141.886 285.663V290.35H128.929C128.755 289.999 128.582 289.673 128.358 289.348C127.986 288.746 127.539 288.195 127.018 287.668C126.124 286.766 125.032 286.014 123.816 285.513C122.649 285.037 121.383 284.761 120.068 284.761C118.752 284.761 117.486 285.037 116.295 285.513C115.128 286.014 114.061 286.716 113.167 287.593L113.093 287.643C112.199 288.546 111.455 289.648 110.958 290.876C110.487 292.054 110.214 293.333 110.214 294.686C110.214 296.039 110.487 297.318 110.958 298.496C111.455 299.674 112.15 300.751 113.043 301.654L113.093 301.729C113.986 302.631 115.029 303.358 116.22 303.859L116.295 303.884C117.461 304.36 118.727 304.636 120.068 304.636C121.383 304.636 122.649 304.36 123.841 303.884C125.007 303.383 126.075 302.681 126.968 301.804L127.043 301.729C127.514 301.253 127.936 300.726 128.333 300.125C128.532 299.824 128.706 299.523 128.855 299.197H146.28C147.496 299.197 148.588 298.696 149.382 297.894C150.177 297.092 150.673 295.989 150.673 294.761Z" fill="#94C136"/>
</svg>
