<svg width="22" height="21" viewBox="0 0 22 21" fill="none" xmlns="http://www.w3.org/2000/svg">
<g id="circle 1">
<path id="Union" fill-rule="evenodd" clip-rule="evenodd" d="M2.51175 9.58447C2.51175 5.19292 6.13369 1.61234 10.6271 1.61234C15.1205 1.61234 18.7425 5.19292 18.7425 9.58447C18.7425 13.976 15.1205 17.5566 10.6271 17.5566C6.13369 17.5566 2.51175 13.976 2.51175 9.58447ZM10.6271 0.130859C5.33835 0.130859 1.03027 4.35205 1.03027 9.58447C1.03027 14.8169 5.33835 19.0381 10.6271 19.0381C15.9159 19.0381 20.2239 14.8169 20.2239 9.58447C20.2239 4.35205 15.9159 0.130859 10.6271 0.130859ZM10.5625 12.8207L15.6898 7.59302L14.4205 6.3482L9.84361 11.0148L6.73901 8.64075L5.6591 10.0529L9.38798 12.9044L10.0123 13.3818L10.5625 12.8207Z" fill="#94C136"/>
</g>
</svg>
