<svg width="93" height="92" viewBox="0 0 93 92" fill="none" xmlns="http://www.w3.org/2000/svg">
<g id="Dot - Section 1">
<rect id="Rectangle 3 Copy 19" width="2.51293" height="2.51293" rx="1.25646" fill="#EB5C2B"/>
<rect id="Rectangle 3 Copy 18" x="10.0527" width="2.51293" height="2.51293" rx="1.25646" fill="#EB5C2B"/>
<rect id="Rectangle 3 Copy 17" x="20.1035" width="2.51293" height="2.51293" rx="1.25646" fill="#EB5C2B"/>
<rect id="Rectangle 3 Copy 16" x="30.1543" width="2.51293" height="2.51293" rx="1.25646" fill="#EB5C2B"/>
<rect id="Rectangle 3 Copy 15" x="40.207" width="2.51293" height="2.51293" rx="1.25646" fill="#EB5C2B"/>
<rect id="Rectangle 3 Copy 14" x="50.2578" width="2.51293" height="2.51293" rx="1.25646" fill="#EB5C2B"/>
<rect id="Rectangle 3 Copy 13" x="60.3105" width="2.51293" height="2.51293" rx="1.25646" fill="#EB5C2B"/>
<rect id="Rectangle 3 Copy 12" x="70.3613" width="2.51293" height="2.51293" rx="1.25646" fill="#EB5C2B"/>
<rect id="Rectangle 3 Copy 11" x="80.4141" width="2.51293" height="2.51293" rx="1.25646" fill="#EB5C2B"/>
<rect id="Rectangle 3 Copy 10" x="90.4648" width="2.51293" height="2.51293" rx="1.25646" fill="#EB5C2B"/>
<rect id="Rectangle 3 Copy 29" y="10.0527" width="2.51293" height="2.51293" rx="1.25646" fill="#EB5C2B"/>
<rect id="Rectangle 3 Copy 28" x="10.0527" y="10.0527" width="2.51293" height="2.51293" rx="1.25646" fill="#EB5C2B"/>
<rect id="Rectangle 3 Copy 27" x="20.1035" y="10.0527" width="2.51293" height="2.51293" rx="1.25646" fill="#EB5C2B"/>
<rect id="Rectangle 3 Copy 26" x="30.1543" y="10.0527" width="2.51293" height="2.51293" rx="1.25646" fill="#EB5C2B"/>
<rect id="Rectangle 3 Copy 25" x="40.207" y="10.0527" width="2.51293" height="2.51293" rx="1.25646" fill="#EB5C2B"/>
<rect id="Rectangle 3 Copy 24" x="50.2578" y="10.0527" width="2.51293" height="2.51293" rx="1.25646" fill="#EB5C2B"/>
<rect id="Rectangle 3 Copy 23" x="60.3105" y="10.0527" width="2.51293" height="2.51293" rx="1.25646" fill="#EB5C2B"/>
<rect id="Rectangle 3 Copy 22" x="70.3613" y="10.0527" width="2.51293" height="2.51293" rx="1.25646" fill="#EB5C2B"/>
<rect id="Rectangle 3 Copy 21" x="80.4141" y="10.0527" width="2.51293" height="2.51293" rx="1.25646" fill="#EB5C2B"/>
<rect id="Rectangle 3 Copy 20" x="90.4648" y="10.0527" width="2.51293" height="2.51293" rx="1.25646" fill="#EB5C2B"/>
<rect id="Rectangle 3 Copy 39" y="20.1035" width="2.51293" height="2.51293" rx="1.25646" fill="#EB5C2B"/>
<rect id="Rectangle 3 Copy 38" x="10.0527" y="20.1035" width="2.51293" height="2.51293" rx="1.25646" fill="#EB5C2B"/>
<rect id="Rectangle 3 Copy 37" x="20.1035" y="20.1035" width="2.51293" height="2.51293" rx="1.25646" fill="#EB5C2B"/>
<rect id="Rectangle 3 Copy 36" x="30.1543" y="20.1035" width="2.51293" height="2.51293" rx="1.25646" fill="#EB5C2B"/>
<rect id="Rectangle 3 Copy 35" x="40.207" y="20.1035" width="2.51293" height="2.51293" rx="1.25646" fill="#EB5C2B"/>
<rect id="Rectangle 3 Copy 34" x="50.2578" y="20.1035" width="2.51293" height="2.51293" rx="1.25646" fill="#EB5C2B"/>
<rect id="Rectangle 3 Copy 33" x="60.3105" y="20.1035" width="2.51293" height="2.51293" rx="1.25646" fill="#EB5C2B"/>
<rect id="Rectangle 3 Copy 32" x="70.3613" y="20.1035" width="2.51293" height="2.51293" rx="1.25646" fill="#EB5C2B"/>
<rect id="Rectangle 3 Copy 31" x="80.4141" y="20.1035" width="2.51293" height="2.51293" rx="1.25646" fill="#EB5C2B"/>
<rect id="Rectangle 3 Copy 30" x="90.4648" y="20.1035" width="2.51293" height="2.51293" rx="1.25646" fill="#EB5C2B"/>
<rect id="Rectangle 3 Copy 49" y="30.1543" width="2.51293" height="2.51293" rx="1.25646" fill="#EB5C2B"/>
<rect id="Rectangle 3 Copy 48" x="10.0527" y="30.1543" width="2.51293" height="2.51293" rx="1.25646" fill="#EB5C2B"/>
<rect id="Rectangle 3 Copy 47" x="20.1035" y="30.1543" width="2.51293" height="2.51293" rx="1.25646" fill="#EB5C2B"/>
<rect id="Rectangle 3 Copy 46" x="30.1543" y="30.1543" width="2.51293" height="2.51293" rx="1.25646" fill="#EB5C2B"/>
<rect id="Rectangle 3 Copy 45" x="40.207" y="30.1543" width="2.51293" height="2.51293" rx="1.25646" fill="#EB5C2B"/>
<rect id="Rectangle 3 Copy 44" x="50.2578" y="30.1543" width="2.51293" height="2.51293" rx="1.25646" fill="#EB5C2B"/>
<rect id="Rectangle 3 Copy 43" x="60.3105" y="30.1543" width="2.51293" height="2.51293" rx="1.25646" fill="#EB5C2B"/>
<rect id="Rectangle 3 Copy 42" x="70.3613" y="30.1543" width="2.51293" height="2.51293" rx="1.25646" fill="#EB5C2B"/>
<rect id="Rectangle 3 Copy 41" x="80.4141" y="30.1543" width="2.51293" height="2.51293" rx="1.25646" fill="#EB5C2B"/>
<rect id="Rectangle 3 Copy 40" x="90.4648" y="30.1543" width="2.51293" height="2.51293" rx="1.25646" fill="#EB5C2B"/>
<rect id="Rectangle 3 Copy 59" y="40.207" width="2.51293" height="2.51293" rx="1.25646" fill="#EB5C2B"/>
<rect id="Rectangle 3 Copy 58" x="10.0527" y="40.207" width="2.51293" height="2.51293" rx="1.25646" fill="#EB5C2B"/>
<rect id="Rectangle 3 Copy 57" x="20.1035" y="40.207" width="2.51293" height="2.51293" rx="1.25646" fill="#EB5C2B"/>
<rect id="Rectangle 3 Copy 56" x="30.1543" y="40.207" width="2.51293" height="2.51293" rx="1.25646" fill="#EB5C2B"/>
<rect id="Rectangle 3 Copy 55" x="40.207" y="40.207" width="2.51293" height="2.51293" rx="1.25646" fill="#EB5C2B"/>
<rect id="Rectangle 3 Copy 54" x="50.2578" y="40.207" width="2.51293" height="2.51293" rx="1.25646" fill="#EB5C2B"/>
<rect id="Rectangle 3 Copy 53" x="60.3105" y="40.207" width="2.51293" height="2.51293" rx="1.25646" fill="#EB5C2B"/>
<rect id="Rectangle 3 Copy 52" x="70.3613" y="40.207" width="2.51293" height="2.51293" rx="1.25646" fill="#EB5C2B"/>
<rect id="Rectangle 3 Copy 51" x="80.4141" y="40.207" width="2.51293" height="2.51293" rx="1.25646" fill="#EB5C2B"/>
<rect id="Rectangle 3 Copy 50" x="90.4648" y="40.207" width="2.51293" height="2.51293" rx="1.25646" fill="#EB5C2B"/>
<rect id="Rectangle 3 Copy 69" y="50.2578" width="2.51293" height="2.51293" rx="1.25646" fill="#EB5C2B"/>
<rect id="Rectangle 3 Copy 68" x="10.0527" y="50.2578" width="2.51293" height="2.51293" rx="1.25646" fill="#EB5C2B"/>
<rect id="Rectangle 3 Copy 67" x="20.1035" y="50.2578" width="2.51293" height="2.51293" rx="1.25646" fill="#EB5C2B"/>
<rect id="Rectangle 3 Copy 66" x="30.1543" y="50.2578" width="2.51293" height="2.51293" rx="1.25646" fill="#EB5C2B"/>
<rect id="Rectangle 3 Copy 65" x="40.207" y="50.2578" width="2.51293" height="2.51293" rx="1.25646" fill="#EB5C2B"/>
<rect id="Rectangle 3 Copy 64" x="50.2578" y="50.2578" width="2.51293" height="2.51293" rx="1.25646" fill="#EB5C2B"/>
<rect id="Rectangle 3 Copy 63" x="60.3105" y="50.2578" width="2.51293" height="2.51293" rx="1.25646" fill="#EB5C2B"/>
<rect id="Rectangle 3 Copy 62" x="70.3613" y="50.2578" width="2.51293" height="2.51293" rx="1.25646" fill="#EB5C2B"/>
<rect id="Rectangle 3 Copy 61" x="80.4141" y="50.2578" width="2.51293" height="2.51293" rx="1.25646" fill="#EB5C2B"/>
<rect id="Rectangle 3 Copy 60" x="90.4648" y="50.2578" width="2.51293" height="2.51293" rx="1.25646" fill="#EB5C2B"/>
<rect id="Rectangle 3 Copy 79" y="60.3105" width="2.51293" height="2.51293" rx="1.25646" fill="#EB5C2B"/>
<rect id="Rectangle 3 Copy 80" y="70.0059" width="2.51293" height="2.51293" rx="1.25646" fill="#EB5C2B"/>
<rect id="Rectangle 3 Copy 90" y="79.6992" width="2.51293" height="2.51293" rx="1.25646" fill="#EB5C2B"/>
<rect id="Rectangle 3 Copy 100" y="89.3926" width="2.51293" height="2.51293" rx="1.25646" fill="#EB5C2B"/>
<rect id="Rectangle 3 Copy 78" x="10.0527" y="60.3105" width="2.51293" height="2.51293" rx="1.25646" fill="#EB5C2B"/>
<rect id="Rectangle 3 Copy 81" x="10.0527" y="70.0059" width="2.51293" height="2.51293" rx="1.25646" fill="#EB5C2B"/>
<rect id="Rectangle 3 Copy 91" x="10.0527" y="79.6992" width="2.51293" height="2.51293" rx="1.25646" fill="#EB5C2B"/>
<rect id="Rectangle 3 Copy 101" x="10.0527" y="89.3926" width="2.51293" height="2.51293" rx="1.25646" fill="#EB5C2B"/>
<rect id="Rectangle 3 Copy 77" x="20.1035" y="60.3105" width="2.51293" height="2.51293" rx="1.25646" fill="#EB5C2B"/>
<rect id="Rectangle 3 Copy 82" x="20.1035" y="70.0059" width="2.51293" height="2.51293" rx="1.25646" fill="#EB5C2B"/>
<rect id="Rectangle 3 Copy 92" x="20.1035" y="79.6992" width="2.51293" height="2.51293" rx="1.25646" fill="#EB5C2B"/>
<rect id="Rectangle 3 Copy 102" x="20.1035" y="89.3926" width="2.51293" height="2.51293" rx="1.25646" fill="#EB5C2B"/>
<rect id="Rectangle 3 Copy 76" x="30.1543" y="60.3105" width="2.51293" height="2.51293" rx="1.25646" fill="#EB5C2B"/>
<rect id="Rectangle 3 Copy 83" x="30.1543" y="70.0059" width="2.51293" height="2.51293" rx="1.25646" fill="#EB5C2B"/>
<rect id="Rectangle 3 Copy 93" x="30.1543" y="79.6992" width="2.51293" height="2.51293" rx="1.25646" fill="#EB5C2B"/>
<rect id="Rectangle 3 Copy 103" x="30.1543" y="89.3926" width="2.51293" height="2.51293" rx="1.25646" fill="#EB5C2B"/>
<rect id="Rectangle 3 Copy 75" x="40.207" y="60.3105" width="2.51293" height="2.51293" rx="1.25646" fill="#EB5C2B"/>
<rect id="Rectangle 3 Copy 84" x="40.207" y="70.0059" width="2.51293" height="2.51293" rx="1.25646" fill="#EB5C2B"/>
<rect id="Rectangle 3 Copy 94" x="40.207" y="79.6992" width="2.51293" height="2.51293" rx="1.25646" fill="#EB5C2B"/>
<rect id="Rectangle 3 Copy 104" x="40.207" y="89.3926" width="2.51293" height="2.51293" rx="1.25646" fill="#EB5C2B"/>
<rect id="Rectangle 3 Copy 74" x="50.2578" y="60.3105" width="2.51293" height="2.51293" rx="1.25646" fill="#EB5C2B"/>
<rect id="Rectangle 3 Copy 85" x="50.2578" y="70.0059" width="2.51293" height="2.51293" rx="1.25646" fill="#EB5C2B"/>
<rect id="Rectangle 3 Copy 95" x="50.2578" y="79.6992" width="2.51293" height="2.51293" rx="1.25646" fill="#EB5C2B"/>
<rect id="Rectangle 3 Copy 105" x="50.2578" y="89.3926" width="2.51293" height="2.51293" rx="1.25646" fill="#EB5C2B"/>
<rect id="Rectangle 3 Copy 73" x="60.3105" y="60.3105" width="2.51293" height="2.51293" rx="1.25646" fill="#EB5C2B"/>
<rect id="Rectangle 3 Copy 86" x="60.3105" y="70.0059" width="2.51293" height="2.51293" rx="1.25646" fill="#EB5C2B"/>
<rect id="Rectangle 3 Copy 96" x="60.3105" y="79.6992" width="2.51293" height="2.51293" rx="1.25646" fill="#EB5C2B"/>
<rect id="Rectangle 3 Copy 106" x="60.3105" y="89.3926" width="2.51293" height="2.51293" rx="1.25646" fill="#EB5C2B"/>
<rect id="Rectangle 3 Copy 72" x="70.3613" y="60.3105" width="2.51293" height="2.51293" rx="1.25646" fill="#EB5C2B"/>
<rect id="Rectangle 3 Copy 87" x="70.3613" y="70.0059" width="2.51293" height="2.51293" rx="1.25646" fill="#EB5C2B"/>
<rect id="Rectangle 3 Copy 97" x="70.3613" y="79.6992" width="2.51293" height="2.51293" rx="1.25646" fill="#EB5C2B"/>
<rect id="Rectangle 3 Copy 107" x="70.3613" y="89.3926" width="2.51293" height="2.51293" rx="1.25646" fill="#EB5C2B"/>
<rect id="Rectangle 3 Copy 71" x="80.4141" y="60.3105" width="2.51293" height="2.51293" rx="1.25646" fill="#EB5C2B"/>
<rect id="Rectangle 3 Copy 88" x="80.4141" y="70.0059" width="2.51293" height="2.51293" rx="1.25646" fill="#EB5C2B"/>
<rect id="Rectangle 3 Copy 98" x="80.4141" y="79.6992" width="2.51293" height="2.51293" rx="1.25646" fill="#EB5C2B"/>
<rect id="Rectangle 3 Copy 108" x="80.4141" y="89.3926" width="2.51293" height="2.51293" rx="1.25646" fill="#EB5C2B"/>
<rect id="Rectangle 3 Copy 70" x="90.4648" y="60.3105" width="2.51293" height="2.51293" rx="1.25646" fill="#EB5C2B"/>
<rect id="Rectangle 3 Copy 89" x="90.4648" y="70.0059" width="2.51293" height="2.51293" rx="1.25646" fill="#EB5C2B"/>
<rect id="Rectangle 3 Copy 99" x="90.4648" y="79.6992" width="2.51293" height="2.51293" rx="1.25646" fill="#EB5C2B"/>
<rect id="Rectangle 3 Copy 109" x="90.4648" y="89.3926" width="2.51293" height="2.51293" rx="1.25646" fill="#EB5C2B"/>
</g>
</svg>
