<svg width="638" height="386" viewBox="0 0 638 386" fill="none" xmlns="http://www.w3.org/2000/svg">
<rect x="0.5" y="145.5" width="553" height="240" rx="15.5" stroke="#E4E7EC"/>
<rect opacity="0.5" x="70.5" y="23.5" width="430" height="240" rx="15.5" stroke="#F1B99B"/>
<rect x="531" width="2.89131" height="2.89131" rx="1.44565" fill="url(#paint0_linear_1501_3490)"/>
<rect x="542.564" width="2.89131" height="2.89131" rx="1.44565" fill="url(#paint1_linear_1501_3490)"/>
<rect x="554.131" width="2.89131" height="2.89131" rx="1.44565" fill="url(#paint2_linear_1501_3490)"/>
<rect x="565.695" width="2.89131" height="2.89131" rx="1.44565" fill="url(#paint3_linear_1501_3490)"/>
<rect x="577.262" width="2.89131" height="2.89131" rx="1.44565" fill="url(#paint4_linear_1501_3490)"/>
<rect x="588.826" width="2.89131" height="2.89131" rx="1.44565" fill="url(#paint5_linear_1501_3490)"/>
<rect x="600.391" width="2.89131" height="2.89131" rx="1.44565" fill="url(#paint6_linear_1501_3490)"/>
<rect x="611.957" width="2.89131" height="2.89131" rx="1.44565" fill="url(#paint7_linear_1501_3490)"/>
<rect x="623.521" width="2.89131" height="2.89131" rx="1.44565" fill="url(#paint8_linear_1501_3490)"/>
<rect x="635.088" width="2.89131" height="2.89131" rx="1.44565" fill="url(#paint9_linear_1501_3490)"/>
<rect x="531" y="11.5654" width="2.89131" height="2.89131" rx="1.44565" fill="url(#paint10_linear_1501_3490)"/>
<rect x="542.564" y="11.5654" width="2.89131" height="2.89131" rx="1.44565" fill="url(#paint11_linear_1501_3490)"/>
<rect x="554.131" y="11.5654" width="2.89131" height="2.89131" rx="1.44565" fill="url(#paint12_linear_1501_3490)"/>
<rect x="565.695" y="11.5654" width="2.89131" height="2.89131" rx="1.44565" fill="url(#paint13_linear_1501_3490)"/>
<rect x="577.262" y="11.5654" width="2.89131" height="2.89131" rx="1.44565" fill="url(#paint14_linear_1501_3490)"/>
<rect x="588.826" y="11.5654" width="2.89131" height="2.89131" rx="1.44565" fill="url(#paint15_linear_1501_3490)"/>
<rect x="600.391" y="11.5654" width="2.89131" height="2.89131" rx="1.44565" fill="url(#paint16_linear_1501_3490)"/>
<rect x="611.957" y="11.5654" width="2.89131" height="2.89131" rx="1.44565" fill="url(#paint17_linear_1501_3490)"/>
<rect x="623.521" y="11.5654" width="2.89131" height="2.89131" rx="1.44565" fill="url(#paint18_linear_1501_3490)"/>
<rect x="635.088" y="11.5654" width="2.89131" height="2.89131" rx="1.44565" fill="url(#paint19_linear_1501_3490)"/>
<rect x="531" y="23.1309" width="2.89131" height="2.89131" rx="1.44565" fill="url(#paint20_linear_1501_3490)"/>
<rect x="542.564" y="23.1309" width="2.89131" height="2.89131" rx="1.44565" fill="url(#paint21_linear_1501_3490)"/>
<rect x="554.131" y="23.1309" width="2.89131" height="2.89131" rx="1.44565" fill="url(#paint22_linear_1501_3490)"/>
<rect x="565.695" y="23.1309" width="2.89131" height="2.89131" rx="1.44565" fill="url(#paint23_linear_1501_3490)"/>
<rect x="577.262" y="23.1309" width="2.89131" height="2.89131" rx="1.44565" fill="url(#paint24_linear_1501_3490)"/>
<rect x="588.826" y="23.1309" width="2.89131" height="2.89131" rx="1.44565" fill="url(#paint25_linear_1501_3490)"/>
<rect x="600.391" y="23.1309" width="2.89131" height="2.89131" rx="1.44565" fill="url(#paint26_linear_1501_3490)"/>
<rect x="611.957" y="23.1309" width="2.89131" height="2.89131" rx="1.44565" fill="url(#paint27_linear_1501_3490)"/>
<rect x="623.521" y="23.1309" width="2.89131" height="2.89131" rx="1.44565" fill="url(#paint28_linear_1501_3490)"/>
<rect x="635.088" y="23.1309" width="2.89131" height="2.89131" rx="1.44565" fill="url(#paint29_linear_1501_3490)"/>
<rect x="531" y="34.6953" width="2.89131" height="2.89131" rx="1.44565" fill="url(#paint30_linear_1501_3490)"/>
<rect x="542.564" y="34.6953" width="2.89131" height="2.89131" rx="1.44565" fill="url(#paint31_linear_1501_3490)"/>
<rect x="554.131" y="34.6953" width="2.89131" height="2.89131" rx="1.44565" fill="url(#paint32_linear_1501_3490)"/>
<rect x="565.695" y="34.6953" width="2.89131" height="2.89131" rx="1.44565" fill="url(#paint33_linear_1501_3490)"/>
<rect x="577.262" y="34.6953" width="2.89131" height="2.89131" rx="1.44565" fill="url(#paint34_linear_1501_3490)"/>
<rect x="588.826" y="34.6953" width="2.89131" height="2.89131" rx="1.44565" fill="url(#paint35_linear_1501_3490)"/>
<rect x="600.391" y="34.6953" width="2.89131" height="2.89131" rx="1.44565" fill="url(#paint36_linear_1501_3490)"/>
<rect x="611.957" y="34.6953" width="2.89131" height="2.89131" rx="1.44565" fill="url(#paint37_linear_1501_3490)"/>
<rect x="623.521" y="34.6953" width="2.89131" height="2.89131" rx="1.44565" fill="url(#paint38_linear_1501_3490)"/>
<rect x="635.088" y="34.6953" width="2.89131" height="2.89131" rx="1.44565" fill="url(#paint39_linear_1501_3490)"/>
<rect x="531" y="46.2607" width="2.89131" height="2.89131" rx="1.44565" fill="url(#paint40_linear_1501_3490)"/>
<rect x="542.564" y="46.2607" width="2.89131" height="2.89131" rx="1.44565" fill="url(#paint41_linear_1501_3490)"/>
<rect x="554.131" y="46.2607" width="2.89131" height="2.89131" rx="1.44565" fill="url(#paint42_linear_1501_3490)"/>
<rect x="565.695" y="46.2607" width="2.89131" height="2.89131" rx="1.44565" fill="url(#paint43_linear_1501_3490)"/>
<rect x="577.262" y="46.2607" width="2.89131" height="2.89131" rx="1.44565" fill="url(#paint44_linear_1501_3490)"/>
<rect x="588.826" y="46.2607" width="2.89131" height="2.89131" rx="1.44565" fill="url(#paint45_linear_1501_3490)"/>
<rect x="600.391" y="46.2607" width="2.89131" height="2.89131" rx="1.44565" fill="url(#paint46_linear_1501_3490)"/>
<rect x="611.957" y="46.2607" width="2.89131" height="2.89131" rx="1.44565" fill="url(#paint47_linear_1501_3490)"/>
<rect x="623.521" y="46.2607" width="2.89131" height="2.89131" rx="1.44565" fill="url(#paint48_linear_1501_3490)"/>
<rect x="635.088" y="46.2607" width="2.89131" height="2.89131" rx="1.44565" fill="url(#paint49_linear_1501_3490)"/>
<rect x="531" y="57.8262" width="2.89131" height="2.89131" rx="1.44565" fill="url(#paint50_linear_1501_3490)"/>
<rect x="542.564" y="57.8262" width="2.89131" height="2.89131" rx="1.44565" fill="url(#paint51_linear_1501_3490)"/>
<rect x="554.131" y="57.8262" width="2.89131" height="2.89131" rx="1.44565" fill="url(#paint52_linear_1501_3490)"/>
<rect x="565.695" y="57.8262" width="2.89131" height="2.89131" rx="1.44565" fill="url(#paint53_linear_1501_3490)"/>
<rect x="577.262" y="57.8262" width="2.89131" height="2.89131" rx="1.44565" fill="url(#paint54_linear_1501_3490)"/>
<rect x="588.826" y="57.8262" width="2.89131" height="2.89131" rx="1.44565" fill="url(#paint55_linear_1501_3490)"/>
<rect x="600.391" y="57.8262" width="2.89131" height="2.89131" rx="1.44565" fill="url(#paint56_linear_1501_3490)"/>
<rect x="611.957" y="57.8262" width="2.89131" height="2.89131" rx="1.44565" fill="url(#paint57_linear_1501_3490)"/>
<rect x="623.521" y="57.8262" width="2.89131" height="2.89131" rx="1.44565" fill="url(#paint58_linear_1501_3490)"/>
<rect x="635.088" y="57.8262" width="2.89131" height="2.89131" rx="1.44565" fill="url(#paint59_linear_1501_3490)"/>
<rect x="531" y="69.3916" width="2.89131" height="2.89131" rx="1.44565" fill="url(#paint60_linear_1501_3490)"/>
<rect x="531" y="80.5459" width="2.89131" height="2.89131" rx="1.44565" fill="url(#paint61_linear_1501_3490)"/>
<rect x="531" y="91.7002" width="2.89131" height="2.89131" rx="1.44565" fill="url(#paint62_linear_1501_3490)"/>
<rect x="531" y="102.854" width="2.89131" height="2.89131" rx="1.44565" fill="url(#paint63_linear_1501_3490)"/>
<rect x="542.564" y="69.3916" width="2.89131" height="2.89131" rx="1.44565" fill="url(#paint64_linear_1501_3490)"/>
<rect x="542.564" y="80.5459" width="2.89131" height="2.89131" rx="1.44565" fill="url(#paint65_linear_1501_3490)"/>
<rect x="542.564" y="91.7002" width="2.89131" height="2.89131" rx="1.44565" fill="url(#paint66_linear_1501_3490)"/>
<rect x="542.564" y="102.854" width="2.89131" height="2.89131" rx="1.44565" fill="url(#paint67_linear_1501_3490)"/>
<rect x="554.131" y="69.3916" width="2.89131" height="2.89131" rx="1.44565" fill="url(#paint68_linear_1501_3490)"/>
<rect x="554.131" y="80.5459" width="2.89131" height="2.89131" rx="1.44565" fill="url(#paint69_linear_1501_3490)"/>
<rect x="554.131" y="91.7002" width="2.89131" height="2.89131" rx="1.44565" fill="url(#paint70_linear_1501_3490)"/>
<rect x="554.131" y="102.854" width="2.89131" height="2.89131" rx="1.44565" fill="url(#paint71_linear_1501_3490)"/>
<rect x="565.695" y="69.3916" width="2.89131" height="2.89131" rx="1.44565" fill="url(#paint72_linear_1501_3490)"/>
<rect x="565.695" y="80.5459" width="2.89131" height="2.89131" rx="1.44565" fill="url(#paint73_linear_1501_3490)"/>
<rect x="565.695" y="91.7002" width="2.89131" height="2.89131" rx="1.44565" fill="url(#paint74_linear_1501_3490)"/>
<rect x="565.695" y="102.854" width="2.89131" height="2.89131" rx="1.44565" fill="url(#paint75_linear_1501_3490)"/>
<rect x="577.262" y="69.3916" width="2.89131" height="2.89131" rx="1.44565" fill="url(#paint76_linear_1501_3490)"/>
<rect x="577.262" y="80.5459" width="2.89131" height="2.89131" rx="1.44565" fill="url(#paint77_linear_1501_3490)"/>
<rect x="577.262" y="91.7002" width="2.89131" height="2.89131" rx="1.44565" fill="url(#paint78_linear_1501_3490)"/>
<rect x="577.262" y="102.854" width="2.89131" height="2.89131" rx="1.44565" fill="url(#paint79_linear_1501_3490)"/>
<rect x="588.826" y="69.3916" width="2.89131" height="2.89131" rx="1.44565" fill="url(#paint80_linear_1501_3490)"/>
<rect x="588.826" y="80.5459" width="2.89131" height="2.89131" rx="1.44565" fill="url(#paint81_linear_1501_3490)"/>
<rect x="588.826" y="91.7002" width="2.89131" height="2.89131" rx="1.44565" fill="url(#paint82_linear_1501_3490)"/>
<rect x="588.826" y="102.854" width="2.89131" height="2.89131" rx="1.44565" fill="url(#paint83_linear_1501_3490)"/>
<rect x="600.391" y="69.3916" width="2.89131" height="2.89131" rx="1.44565" fill="url(#paint84_linear_1501_3490)"/>
<rect x="600.391" y="80.5459" width="2.89131" height="2.89131" rx="1.44565" fill="url(#paint85_linear_1501_3490)"/>
<rect x="600.391" y="91.7002" width="2.89131" height="2.89131" rx="1.44565" fill="url(#paint86_linear_1501_3490)"/>
<rect x="600.391" y="102.854" width="2.89131" height="2.89131" rx="1.44565" fill="url(#paint87_linear_1501_3490)"/>
<rect x="611.957" y="69.3916" width="2.89131" height="2.89131" rx="1.44565" fill="url(#paint88_linear_1501_3490)"/>
<rect x="611.957" y="80.5459" width="2.89131" height="2.89131" rx="1.44565" fill="url(#paint89_linear_1501_3490)"/>
<rect x="611.957" y="91.7002" width="2.89131" height="2.89131" rx="1.44565" fill="url(#paint90_linear_1501_3490)"/>
<rect x="611.957" y="102.854" width="2.89131" height="2.89131" rx="1.44565" fill="url(#paint91_linear_1501_3490)"/>
<rect x="623.521" y="69.3916" width="2.89131" height="2.89131" rx="1.44565" fill="url(#paint92_linear_1501_3490)"/>
<rect x="623.521" y="80.5459" width="2.89131" height="2.89131" rx="1.44565" fill="url(#paint93_linear_1501_3490)"/>
<rect x="623.521" y="91.7002" width="2.89131" height="2.89131" rx="1.44565" fill="url(#paint94_linear_1501_3490)"/>
<rect x="623.521" y="102.854" width="2.89131" height="2.89131" rx="1.44565" fill="url(#paint95_linear_1501_3490)"/>
<rect x="635.088" y="69.3916" width="2.89131" height="2.89131" rx="1.44565" fill="url(#paint96_linear_1501_3490)"/>
<rect x="635.088" y="80.5459" width="2.89131" height="2.89131" rx="1.44565" fill="url(#paint97_linear_1501_3490)"/>
<rect x="635.088" y="91.7002" width="2.89131" height="2.89131" rx="1.44565" fill="url(#paint98_linear_1501_3490)"/>
<rect x="635.088" y="102.854" width="2.89131" height="2.89131" rx="1.44565" fill="url(#paint99_linear_1501_3490)"/>
<defs>
<linearGradient id="paint0_linear_1501_3490" x1="530.661" y1="0.449647" x2="533.438" y2="3.22639" gradientUnits="userSpaceOnUse">
<stop stop-color="#FF9900"/>
<stop offset="1" stop-color="#FFB800"/>
</linearGradient>
<linearGradient id="paint1_linear_1501_3490" x1="542.226" y1="0.449647" x2="545.003" y2="3.22639" gradientUnits="userSpaceOnUse">
<stop stop-color="#FF9900"/>
<stop offset="1" stop-color="#FFB800"/>
</linearGradient>
<linearGradient id="paint2_linear_1501_3490" x1="553.792" y1="0.449647" x2="556.569" y2="3.22639" gradientUnits="userSpaceOnUse">
<stop stop-color="#FF9900"/>
<stop offset="1" stop-color="#FFB800"/>
</linearGradient>
<linearGradient id="paint3_linear_1501_3490" x1="565.357" y1="0.449647" x2="568.134" y2="3.22639" gradientUnits="userSpaceOnUse">
<stop stop-color="#FF9900"/>
<stop offset="1" stop-color="#FFB800"/>
</linearGradient>
<linearGradient id="paint4_linear_1501_3490" x1="576.923" y1="0.449647" x2="579.7" y2="3.22639" gradientUnits="userSpaceOnUse">
<stop stop-color="#FF9900"/>
<stop offset="1" stop-color="#FFB800"/>
</linearGradient>
<linearGradient id="paint5_linear_1501_3490" x1="588.488" y1="0.449647" x2="591.264" y2="3.22639" gradientUnits="userSpaceOnUse">
<stop stop-color="#FF9900"/>
<stop offset="1" stop-color="#FFB800"/>
</linearGradient>
<linearGradient id="paint6_linear_1501_3490" x1="600.052" y1="0.449647" x2="602.829" y2="3.22639" gradientUnits="userSpaceOnUse">
<stop stop-color="#FF9900"/>
<stop offset="1" stop-color="#FFB800"/>
</linearGradient>
<linearGradient id="paint7_linear_1501_3490" x1="611.619" y1="0.449647" x2="614.395" y2="3.22639" gradientUnits="userSpaceOnUse">
<stop stop-color="#FF9900"/>
<stop offset="1" stop-color="#FFB800"/>
</linearGradient>
<linearGradient id="paint8_linear_1501_3490" x1="623.183" y1="0.449647" x2="625.96" y2="3.22639" gradientUnits="userSpaceOnUse">
<stop stop-color="#FF9900"/>
<stop offset="1" stop-color="#FFB800"/>
</linearGradient>
<linearGradient id="paint9_linear_1501_3490" x1="634.749" y1="0.449647" x2="637.526" y2="3.22639" gradientUnits="userSpaceOnUse">
<stop stop-color="#FF9900"/>
<stop offset="1" stop-color="#FFB800"/>
</linearGradient>
<linearGradient id="paint10_linear_1501_3490" x1="530.661" y1="12.0151" x2="533.438" y2="14.7918" gradientUnits="userSpaceOnUse">
<stop stop-color="#FF9900"/>
<stop offset="1" stop-color="#FFB800"/>
</linearGradient>
<linearGradient id="paint11_linear_1501_3490" x1="542.226" y1="12.0151" x2="545.003" y2="14.7918" gradientUnits="userSpaceOnUse">
<stop stop-color="#FF9900"/>
<stop offset="1" stop-color="#FFB800"/>
</linearGradient>
<linearGradient id="paint12_linear_1501_3490" x1="553.792" y1="12.0151" x2="556.569" y2="14.7918" gradientUnits="userSpaceOnUse">
<stop stop-color="#FF9900"/>
<stop offset="1" stop-color="#FFB800"/>
</linearGradient>
<linearGradient id="paint13_linear_1501_3490" x1="565.357" y1="12.0151" x2="568.134" y2="14.7918" gradientUnits="userSpaceOnUse">
<stop stop-color="#FF9900"/>
<stop offset="1" stop-color="#FFB800"/>
</linearGradient>
<linearGradient id="paint14_linear_1501_3490" x1="576.923" y1="12.0151" x2="579.7" y2="14.7918" gradientUnits="userSpaceOnUse">
<stop stop-color="#FF9900"/>
<stop offset="1" stop-color="#FFB800"/>
</linearGradient>
<linearGradient id="paint15_linear_1501_3490" x1="588.488" y1="12.0151" x2="591.264" y2="14.7918" gradientUnits="userSpaceOnUse">
<stop stop-color="#FF9900"/>
<stop offset="1" stop-color="#FFB800"/>
</linearGradient>
<linearGradient id="paint16_linear_1501_3490" x1="600.052" y1="12.0151" x2="602.829" y2="14.7918" gradientUnits="userSpaceOnUse">
<stop stop-color="#FF9900"/>
<stop offset="1" stop-color="#FFB800"/>
</linearGradient>
<linearGradient id="paint17_linear_1501_3490" x1="611.619" y1="12.0151" x2="614.395" y2="14.7918" gradientUnits="userSpaceOnUse">
<stop stop-color="#FF9900"/>
<stop offset="1" stop-color="#FFB800"/>
</linearGradient>
<linearGradient id="paint18_linear_1501_3490" x1="623.183" y1="12.0151" x2="625.96" y2="14.7918" gradientUnits="userSpaceOnUse">
<stop stop-color="#FF9900"/>
<stop offset="1" stop-color="#FFB800"/>
</linearGradient>
<linearGradient id="paint19_linear_1501_3490" x1="634.749" y1="12.0151" x2="637.526" y2="14.7918" gradientUnits="userSpaceOnUse">
<stop stop-color="#FF9900"/>
<stop offset="1" stop-color="#FFB800"/>
</linearGradient>
<linearGradient id="paint20_linear_1501_3490" x1="530.661" y1="23.5805" x2="533.438" y2="26.3572" gradientUnits="userSpaceOnUse">
<stop stop-color="#FF9900"/>
<stop offset="1" stop-color="#FFB800"/>
</linearGradient>
<linearGradient id="paint21_linear_1501_3490" x1="542.226" y1="23.5805" x2="545.003" y2="26.3572" gradientUnits="userSpaceOnUse">
<stop stop-color="#FF9900"/>
<stop offset="1" stop-color="#FFB800"/>
</linearGradient>
<linearGradient id="paint22_linear_1501_3490" x1="553.792" y1="23.5805" x2="556.569" y2="26.3572" gradientUnits="userSpaceOnUse">
<stop stop-color="#FF9900"/>
<stop offset="1" stop-color="#FFB800"/>
</linearGradient>
<linearGradient id="paint23_linear_1501_3490" x1="565.357" y1="23.5805" x2="568.134" y2="26.3572" gradientUnits="userSpaceOnUse">
<stop stop-color="#FF9900"/>
<stop offset="1" stop-color="#FFB800"/>
</linearGradient>
<linearGradient id="paint24_linear_1501_3490" x1="576.923" y1="23.5805" x2="579.7" y2="26.3572" gradientUnits="userSpaceOnUse">
<stop stop-color="#FF9900"/>
<stop offset="1" stop-color="#FFB800"/>
</linearGradient>
<linearGradient id="paint25_linear_1501_3490" x1="588.488" y1="23.5805" x2="591.264" y2="26.3572" gradientUnits="userSpaceOnUse">
<stop stop-color="#FF9900"/>
<stop offset="1" stop-color="#FFB800"/>
</linearGradient>
<linearGradient id="paint26_linear_1501_3490" x1="600.052" y1="23.5805" x2="602.829" y2="26.3572" gradientUnits="userSpaceOnUse">
<stop stop-color="#FF9900"/>
<stop offset="1" stop-color="#FFB800"/>
</linearGradient>
<linearGradient id="paint27_linear_1501_3490" x1="611.619" y1="23.5805" x2="614.395" y2="26.3572" gradientUnits="userSpaceOnUse">
<stop stop-color="#FF9900"/>
<stop offset="1" stop-color="#FFB800"/>
</linearGradient>
<linearGradient id="paint28_linear_1501_3490" x1="623.183" y1="23.5805" x2="625.96" y2="26.3572" gradientUnits="userSpaceOnUse">
<stop stop-color="#FF9900"/>
<stop offset="1" stop-color="#FFB800"/>
</linearGradient>
<linearGradient id="paint29_linear_1501_3490" x1="634.749" y1="23.5805" x2="637.526" y2="26.3572" gradientUnits="userSpaceOnUse">
<stop stop-color="#FF9900"/>
<stop offset="1" stop-color="#FFB800"/>
</linearGradient>
<linearGradient id="paint30_linear_1501_3490" x1="530.661" y1="35.145" x2="533.438" y2="37.9217" gradientUnits="userSpaceOnUse">
<stop stop-color="#FF9900"/>
<stop offset="1" stop-color="#FFB800"/>
</linearGradient>
<linearGradient id="paint31_linear_1501_3490" x1="542.226" y1="35.145" x2="545.003" y2="37.9217" gradientUnits="userSpaceOnUse">
<stop stop-color="#FF9900"/>
<stop offset="1" stop-color="#FFB800"/>
</linearGradient>
<linearGradient id="paint32_linear_1501_3490" x1="553.792" y1="35.145" x2="556.569" y2="37.9217" gradientUnits="userSpaceOnUse">
<stop stop-color="#FF9900"/>
<stop offset="1" stop-color="#FFB800"/>
</linearGradient>
<linearGradient id="paint33_linear_1501_3490" x1="565.357" y1="35.145" x2="568.134" y2="37.9217" gradientUnits="userSpaceOnUse">
<stop stop-color="#FF9900"/>
<stop offset="1" stop-color="#FFB800"/>
</linearGradient>
<linearGradient id="paint34_linear_1501_3490" x1="576.923" y1="35.145" x2="579.7" y2="37.9217" gradientUnits="userSpaceOnUse">
<stop stop-color="#FF9900"/>
<stop offset="1" stop-color="#FFB800"/>
</linearGradient>
<linearGradient id="paint35_linear_1501_3490" x1="588.488" y1="35.145" x2="591.264" y2="37.9217" gradientUnits="userSpaceOnUse">
<stop stop-color="#FF9900"/>
<stop offset="1" stop-color="#FFB800"/>
</linearGradient>
<linearGradient id="paint36_linear_1501_3490" x1="600.052" y1="35.145" x2="602.829" y2="37.9217" gradientUnits="userSpaceOnUse">
<stop stop-color="#FF9900"/>
<stop offset="1" stop-color="#FFB800"/>
</linearGradient>
<linearGradient id="paint37_linear_1501_3490" x1="611.619" y1="35.145" x2="614.395" y2="37.9217" gradientUnits="userSpaceOnUse">
<stop stop-color="#FF9900"/>
<stop offset="1" stop-color="#FFB800"/>
</linearGradient>
<linearGradient id="paint38_linear_1501_3490" x1="623.183" y1="35.145" x2="625.96" y2="37.9217" gradientUnits="userSpaceOnUse">
<stop stop-color="#FF9900"/>
<stop offset="1" stop-color="#FFB800"/>
</linearGradient>
<linearGradient id="paint39_linear_1501_3490" x1="634.749" y1="35.145" x2="637.526" y2="37.9217" gradientUnits="userSpaceOnUse">
<stop stop-color="#FF9900"/>
<stop offset="1" stop-color="#FFB800"/>
</linearGradient>
<linearGradient id="paint40_linear_1501_3490" x1="530.661" y1="46.7104" x2="533.438" y2="49.4871" gradientUnits="userSpaceOnUse">
<stop stop-color="#FF9900"/>
<stop offset="1" stop-color="#FFB800"/>
</linearGradient>
<linearGradient id="paint41_linear_1501_3490" x1="542.226" y1="46.7104" x2="545.003" y2="49.4871" gradientUnits="userSpaceOnUse">
<stop stop-color="#FF9900"/>
<stop offset="1" stop-color="#FFB800"/>
</linearGradient>
<linearGradient id="paint42_linear_1501_3490" x1="553.792" y1="46.7104" x2="556.569" y2="49.4871" gradientUnits="userSpaceOnUse">
<stop stop-color="#FF9900"/>
<stop offset="1" stop-color="#FFB800"/>
</linearGradient>
<linearGradient id="paint43_linear_1501_3490" x1="565.357" y1="46.7104" x2="568.134" y2="49.4871" gradientUnits="userSpaceOnUse">
<stop stop-color="#FF9900"/>
<stop offset="1" stop-color="#FFB800"/>
</linearGradient>
<linearGradient id="paint44_linear_1501_3490" x1="576.923" y1="46.7104" x2="579.7" y2="49.4871" gradientUnits="userSpaceOnUse">
<stop stop-color="#FF9900"/>
<stop offset="1" stop-color="#FFB800"/>
</linearGradient>
<linearGradient id="paint45_linear_1501_3490" x1="588.488" y1="46.7104" x2="591.264" y2="49.4871" gradientUnits="userSpaceOnUse">
<stop stop-color="#FF9900"/>
<stop offset="1" stop-color="#FFB800"/>
</linearGradient>
<linearGradient id="paint46_linear_1501_3490" x1="600.052" y1="46.7104" x2="602.829" y2="49.4871" gradientUnits="userSpaceOnUse">
<stop stop-color="#FF9900"/>
<stop offset="1" stop-color="#FFB800"/>
</linearGradient>
<linearGradient id="paint47_linear_1501_3490" x1="611.619" y1="46.7104" x2="614.395" y2="49.4871" gradientUnits="userSpaceOnUse">
<stop stop-color="#FF9900"/>
<stop offset="1" stop-color="#FFB800"/>
</linearGradient>
<linearGradient id="paint48_linear_1501_3490" x1="623.183" y1="46.7104" x2="625.96" y2="49.4871" gradientUnits="userSpaceOnUse">
<stop stop-color="#FF9900"/>
<stop offset="1" stop-color="#FFB800"/>
</linearGradient>
<linearGradient id="paint49_linear_1501_3490" x1="634.749" y1="46.7104" x2="637.526" y2="49.4871" gradientUnits="userSpaceOnUse">
<stop stop-color="#FF9900"/>
<stop offset="1" stop-color="#FFB800"/>
</linearGradient>
<linearGradient id="paint50_linear_1501_3490" x1="530.661" y1="58.2758" x2="533.438" y2="61.0526" gradientUnits="userSpaceOnUse">
<stop stop-color="#FF9900"/>
<stop offset="1" stop-color="#FFB800"/>
</linearGradient>
<linearGradient id="paint51_linear_1501_3490" x1="542.226" y1="58.2758" x2="545.003" y2="61.0526" gradientUnits="userSpaceOnUse">
<stop stop-color="#FF9900"/>
<stop offset="1" stop-color="#FFB800"/>
</linearGradient>
<linearGradient id="paint52_linear_1501_3490" x1="553.792" y1="58.2758" x2="556.569" y2="61.0526" gradientUnits="userSpaceOnUse">
<stop stop-color="#FF9900"/>
<stop offset="1" stop-color="#FFB800"/>
</linearGradient>
<linearGradient id="paint53_linear_1501_3490" x1="565.357" y1="58.2758" x2="568.134" y2="61.0526" gradientUnits="userSpaceOnUse">
<stop stop-color="#FF9900"/>
<stop offset="1" stop-color="#FFB800"/>
</linearGradient>
<linearGradient id="paint54_linear_1501_3490" x1="576.923" y1="58.2758" x2="579.7" y2="61.0526" gradientUnits="userSpaceOnUse">
<stop stop-color="#FF9900"/>
<stop offset="1" stop-color="#FFB800"/>
</linearGradient>
<linearGradient id="paint55_linear_1501_3490" x1="588.488" y1="58.2758" x2="591.264" y2="61.0526" gradientUnits="userSpaceOnUse">
<stop stop-color="#FF9900"/>
<stop offset="1" stop-color="#FFB800"/>
</linearGradient>
<linearGradient id="paint56_linear_1501_3490" x1="600.052" y1="58.2758" x2="602.829" y2="61.0526" gradientUnits="userSpaceOnUse">
<stop stop-color="#FF9900"/>
<stop offset="1" stop-color="#FFB800"/>
</linearGradient>
<linearGradient id="paint57_linear_1501_3490" x1="611.619" y1="58.2758" x2="614.395" y2="61.0526" gradientUnits="userSpaceOnUse">
<stop stop-color="#FF9900"/>
<stop offset="1" stop-color="#FFB800"/>
</linearGradient>
<linearGradient id="paint58_linear_1501_3490" x1="623.183" y1="58.2758" x2="625.96" y2="61.0526" gradientUnits="userSpaceOnUse">
<stop stop-color="#FF9900"/>
<stop offset="1" stop-color="#FFB800"/>
</linearGradient>
<linearGradient id="paint59_linear_1501_3490" x1="634.749" y1="58.2758" x2="637.526" y2="61.0526" gradientUnits="userSpaceOnUse">
<stop stop-color="#FF9900"/>
<stop offset="1" stop-color="#FFB800"/>
</linearGradient>
<linearGradient id="paint60_linear_1501_3490" x1="530.661" y1="69.8412" x2="533.438" y2="72.618" gradientUnits="userSpaceOnUse">
<stop stop-color="#FF9900"/>
<stop offset="1" stop-color="#FFB800"/>
</linearGradient>
<linearGradient id="paint61_linear_1501_3490" x1="530.661" y1="80.9955" x2="533.438" y2="83.7723" gradientUnits="userSpaceOnUse">
<stop stop-color="#FF9900"/>
<stop offset="1" stop-color="#FFB800"/>
</linearGradient>
<linearGradient id="paint62_linear_1501_3490" x1="530.661" y1="92.1498" x2="533.438" y2="94.9266" gradientUnits="userSpaceOnUse">
<stop stop-color="#FF9900"/>
<stop offset="1" stop-color="#FFB800"/>
</linearGradient>
<linearGradient id="paint63_linear_1501_3490" x1="530.661" y1="103.303" x2="533.438" y2="106.08" gradientUnits="userSpaceOnUse">
<stop stop-color="#FF9900"/>
<stop offset="1" stop-color="#FFB800"/>
</linearGradient>
<linearGradient id="paint64_linear_1501_3490" x1="542.226" y1="69.8412" x2="545.003" y2="72.618" gradientUnits="userSpaceOnUse">
<stop stop-color="#FF9900"/>
<stop offset="1" stop-color="#FFB800"/>
</linearGradient>
<linearGradient id="paint65_linear_1501_3490" x1="542.226" y1="80.9955" x2="545.003" y2="83.7723" gradientUnits="userSpaceOnUse">
<stop stop-color="#FF9900"/>
<stop offset="1" stop-color="#FFB800"/>
</linearGradient>
<linearGradient id="paint66_linear_1501_3490" x1="542.226" y1="92.1498" x2="545.003" y2="94.9266" gradientUnits="userSpaceOnUse">
<stop stop-color="#FF9900"/>
<stop offset="1" stop-color="#FFB800"/>
</linearGradient>
<linearGradient id="paint67_linear_1501_3490" x1="542.226" y1="103.303" x2="545.003" y2="106.08" gradientUnits="userSpaceOnUse">
<stop stop-color="#FF9900"/>
<stop offset="1" stop-color="#FFB800"/>
</linearGradient>
<linearGradient id="paint68_linear_1501_3490" x1="553.792" y1="69.8412" x2="556.569" y2="72.618" gradientUnits="userSpaceOnUse">
<stop stop-color="#FF9900"/>
<stop offset="1" stop-color="#FFB800"/>
</linearGradient>
<linearGradient id="paint69_linear_1501_3490" x1="553.792" y1="80.9955" x2="556.569" y2="83.7723" gradientUnits="userSpaceOnUse">
<stop stop-color="#FF9900"/>
<stop offset="1" stop-color="#FFB800"/>
</linearGradient>
<linearGradient id="paint70_linear_1501_3490" x1="553.792" y1="92.1498" x2="556.569" y2="94.9266" gradientUnits="userSpaceOnUse">
<stop stop-color="#FF9900"/>
<stop offset="1" stop-color="#FFB800"/>
</linearGradient>
<linearGradient id="paint71_linear_1501_3490" x1="553.792" y1="103.303" x2="556.569" y2="106.08" gradientUnits="userSpaceOnUse">
<stop stop-color="#FF9900"/>
<stop offset="1" stop-color="#FFB800"/>
</linearGradient>
<linearGradient id="paint72_linear_1501_3490" x1="565.357" y1="69.8412" x2="568.134" y2="72.618" gradientUnits="userSpaceOnUse">
<stop stop-color="#FF9900"/>
<stop offset="1" stop-color="#FFB800"/>
</linearGradient>
<linearGradient id="paint73_linear_1501_3490" x1="565.357" y1="80.9955" x2="568.134" y2="83.7723" gradientUnits="userSpaceOnUse">
<stop stop-color="#FF9900"/>
<stop offset="1" stop-color="#FFB800"/>
</linearGradient>
<linearGradient id="paint74_linear_1501_3490" x1="565.357" y1="92.1498" x2="568.134" y2="94.9266" gradientUnits="userSpaceOnUse">
<stop stop-color="#FF9900"/>
<stop offset="1" stop-color="#FFB800"/>
</linearGradient>
<linearGradient id="paint75_linear_1501_3490" x1="565.357" y1="103.303" x2="568.134" y2="106.08" gradientUnits="userSpaceOnUse">
<stop stop-color="#FF9900"/>
<stop offset="1" stop-color="#FFB800"/>
</linearGradient>
<linearGradient id="paint76_linear_1501_3490" x1="576.923" y1="69.8412" x2="579.7" y2="72.618" gradientUnits="userSpaceOnUse">
<stop stop-color="#FF9900"/>
<stop offset="1" stop-color="#FFB800"/>
</linearGradient>
<linearGradient id="paint77_linear_1501_3490" x1="576.923" y1="80.9955" x2="579.7" y2="83.7723" gradientUnits="userSpaceOnUse">
<stop stop-color="#FF9900"/>
<stop offset="1" stop-color="#FFB800"/>
</linearGradient>
<linearGradient id="paint78_linear_1501_3490" x1="576.923" y1="92.1498" x2="579.7" y2="94.9266" gradientUnits="userSpaceOnUse">
<stop stop-color="#FF9900"/>
<stop offset="1" stop-color="#FFB800"/>
</linearGradient>
<linearGradient id="paint79_linear_1501_3490" x1="576.923" y1="103.303" x2="579.7" y2="106.08" gradientUnits="userSpaceOnUse">
<stop stop-color="#FF9900"/>
<stop offset="1" stop-color="#FFB800"/>
</linearGradient>
<linearGradient id="paint80_linear_1501_3490" x1="588.488" y1="69.8412" x2="591.264" y2="72.618" gradientUnits="userSpaceOnUse">
<stop stop-color="#FF9900"/>
<stop offset="1" stop-color="#FFB800"/>
</linearGradient>
<linearGradient id="paint81_linear_1501_3490" x1="588.488" y1="80.9955" x2="591.264" y2="83.7723" gradientUnits="userSpaceOnUse">
<stop stop-color="#FF9900"/>
<stop offset="1" stop-color="#FFB800"/>
</linearGradient>
<linearGradient id="paint82_linear_1501_3490" x1="588.488" y1="92.1498" x2="591.264" y2="94.9266" gradientUnits="userSpaceOnUse">
<stop stop-color="#FF9900"/>
<stop offset="1" stop-color="#FFB800"/>
</linearGradient>
<linearGradient id="paint83_linear_1501_3490" x1="588.488" y1="103.303" x2="591.264" y2="106.08" gradientUnits="userSpaceOnUse">
<stop stop-color="#FF9900"/>
<stop offset="1" stop-color="#FFB800"/>
</linearGradient>
<linearGradient id="paint84_linear_1501_3490" x1="600.052" y1="69.8412" x2="602.829" y2="72.618" gradientUnits="userSpaceOnUse">
<stop stop-color="#FF9900"/>
<stop offset="1" stop-color="#FFB800"/>
</linearGradient>
<linearGradient id="paint85_linear_1501_3490" x1="600.052" y1="80.9955" x2="602.829" y2="83.7723" gradientUnits="userSpaceOnUse">
<stop stop-color="#FF9900"/>
<stop offset="1" stop-color="#FFB800"/>
</linearGradient>
<linearGradient id="paint86_linear_1501_3490" x1="600.052" y1="92.1498" x2="602.829" y2="94.9266" gradientUnits="userSpaceOnUse">
<stop stop-color="#FF9900"/>
<stop offset="1" stop-color="#FFB800"/>
</linearGradient>
<linearGradient id="paint87_linear_1501_3490" x1="600.052" y1="103.303" x2="602.829" y2="106.08" gradientUnits="userSpaceOnUse">
<stop stop-color="#FF9900"/>
<stop offset="1" stop-color="#FFB800"/>
</linearGradient>
<linearGradient id="paint88_linear_1501_3490" x1="611.619" y1="69.8412" x2="614.395" y2="72.618" gradientUnits="userSpaceOnUse">
<stop stop-color="#FF9900"/>
<stop offset="1" stop-color="#FFB800"/>
</linearGradient>
<linearGradient id="paint89_linear_1501_3490" x1="611.619" y1="80.9955" x2="614.395" y2="83.7723" gradientUnits="userSpaceOnUse">
<stop stop-color="#FF9900"/>
<stop offset="1" stop-color="#FFB800"/>
</linearGradient>
<linearGradient id="paint90_linear_1501_3490" x1="611.619" y1="92.1498" x2="614.395" y2="94.9266" gradientUnits="userSpaceOnUse">
<stop stop-color="#FF9900"/>
<stop offset="1" stop-color="#FFB800"/>
</linearGradient>
<linearGradient id="paint91_linear_1501_3490" x1="611.619" y1="103.303" x2="614.395" y2="106.08" gradientUnits="userSpaceOnUse">
<stop stop-color="#FF9900"/>
<stop offset="1" stop-color="#FFB800"/>
</linearGradient>
<linearGradient id="paint92_linear_1501_3490" x1="623.183" y1="69.8412" x2="625.96" y2="72.618" gradientUnits="userSpaceOnUse">
<stop stop-color="#FF9900"/>
<stop offset="1" stop-color="#FFB800"/>
</linearGradient>
<linearGradient id="paint93_linear_1501_3490" x1="623.183" y1="80.9955" x2="625.96" y2="83.7723" gradientUnits="userSpaceOnUse">
<stop stop-color="#FF9900"/>
<stop offset="1" stop-color="#FFB800"/>
</linearGradient>
<linearGradient id="paint94_linear_1501_3490" x1="623.183" y1="92.1498" x2="625.96" y2="94.9266" gradientUnits="userSpaceOnUse">
<stop stop-color="#FF9900"/>
<stop offset="1" stop-color="#FFB800"/>
</linearGradient>
<linearGradient id="paint95_linear_1501_3490" x1="623.183" y1="103.303" x2="625.96" y2="106.08" gradientUnits="userSpaceOnUse">
<stop stop-color="#FF9900"/>
<stop offset="1" stop-color="#FFB800"/>
</linearGradient>
<linearGradient id="paint96_linear_1501_3490" x1="634.749" y1="69.8412" x2="637.526" y2="72.618" gradientUnits="userSpaceOnUse">
<stop stop-color="#FF9900"/>
<stop offset="1" stop-color="#FFB800"/>
</linearGradient>
<linearGradient id="paint97_linear_1501_3490" x1="634.749" y1="80.9955" x2="637.526" y2="83.7723" gradientUnits="userSpaceOnUse">
<stop stop-color="#FF9900"/>
<stop offset="1" stop-color="#FFB800"/>
</linearGradient>
<linearGradient id="paint98_linear_1501_3490" x1="634.749" y1="92.1498" x2="637.526" y2="94.9266" gradientUnits="userSpaceOnUse">
<stop stop-color="#FF9900"/>
<stop offset="1" stop-color="#FFB800"/>
</linearGradient>
<linearGradient id="paint99_linear_1501_3490" x1="634.749" y1="103.303" x2="637.526" y2="106.08" gradientUnits="userSpaceOnUse">
<stop stop-color="#FF9900"/>
<stop offset="1" stop-color="#FFB800"/>
</linearGradient>
</defs>
</svg>
