<svg width="79" height="3" viewBox="0 0 79 3" fill="none" xmlns="http://www.w3.org/2000/svg">
<g id="Underline marker brush">
<path id="Vector" fill-rule="evenodd" clip-rule="evenodd" d="M78.9113 2.13048C78.9446 2.04239 78.9845 1.94577 78.9402 1.852C79.0334 1.69571 79.009 1.58773 78.9268 1.44281C78.8936 1.43713 78.8625 1.43997 78.8336 1.44565L78.8314 1.44281C78.7981 1.43713 78.7671 1.43997 78.7382 1.44565L78.736 1.44281C78.7027 1.43713 78.6716 1.43997 78.6428 1.44565L78.6406 1.44281C78.6339 1.44281 78.6273 1.44281 78.6206 1.43997C78.6406 1.39166 78.6583 1.33767 78.6827 1.29505C78.6894 1.31778 78.7005 1.33483 78.7183 1.34336C78.7316 1.30926 78.7515 1.28368 78.7715 1.25811C78.7737 1.30073 78.787 1.32915 78.8137 1.34336C78.8581 1.23253 78.9734 1.19275 78.9557 1.05067C78.9402 0.937011 78.8004 0.811982 78.6739 0.848922C78.6428 0.840398 78.6095 0.840398 78.5784 0.848922C78.5518 0.840398 78.523 0.840397 78.4963 0.84608C78.5141 0.678426 78.4808 0.496565 78.4031 0.382902C78.463 0.382902 78.4031 0.32323 78.4453 0.309022C78.3832 0.263556 78.4364 0.158418 78.392 0.101587C78.3432 0.0873787 78.3232 0.0419133 78.2966 0.00213119C78.2678 -0.000710396 78.2433 -0.000710396 78.2189 0.00213119C78.1945 -0.000710396 78.1701 -0.000710396 78.1479 0.00213119C78.1235 -0.000710396 78.0991 -0.000710396 78.0769 0.00213119C78.0525 -0.000710396 78.0281 -0.000710396 78.0059 0.00213119C77.9815 -0.000710396 77.9571 -0.000710396 77.9349 0.00213119C77.9105 -0.000710396 77.8861 -0.000710396 77.8639 0.00213119C77.8395 -0.000710396 77.8151 -0.000710396 77.7929 0.00213119C77.7685 -0.000710396 77.744 -0.000710396 77.7218 0.00213119C77.6974 -0.000710396 77.673 -0.000710396 77.6508 0.00213119C77.6264 -0.000710396 77.602 -0.000710396 77.5798 0.00213119C77.5554 -0.000710396 77.531 -0.000710396 77.5088 0.00213119C77.4844 -0.000710396 77.46 -0.000710396 77.4378 0.00213119C77.4134 -0.000710396 77.389 -0.000710396 77.3668 0.00213119C77.3424 -0.000710396 77.318 -0.000710396 77.2958 0.00213119C77.2714 -0.000710396 77.2469 -0.000710396 77.2248 0.00213119C77.2003 -0.000710396 77.1759 -0.000710396 77.1537 0.00213119C77.1293 -0.000710396 77.1049 -0.000710396 77.0827 0.00213119C77.0583 -0.000710396 77.0339 -0.000710396 77.0117 0.00213119C76.9873 -0.000710396 76.9629 -0.000710396 76.9407 0.00213119C76.9163 -0.000710396 76.8919 -0.000710396 76.8697 0.00213119C76.8453 -0.000710396 76.8209 -0.000710396 76.7987 0.00213119C76.7743 -0.000710396 76.7499 -0.000710396 76.7277 0.00213119C76.7033 -0.000710396 76.6788 -0.000710396 76.6567 0.00213119C76.6322 -0.000710396 76.6078 -0.000710396 76.5856 0.00213119C76.5612 -0.000710396 76.5368 -0.000710396 76.5146 0.00213119C76.4902 -0.000710396 76.4658 -0.000710396 76.4436 0.00213119C76.4192 -0.000710396 76.3948 -0.000710396 76.3726 0.00213119C76.3482 -0.000710396 76.3238 -0.000710396 76.3016 0.00213119C76.2772 -0.000710396 76.2528 -0.000710396 76.2306 0.00213119C76.2062 -0.000710396 76.1817 -0.000710396 76.1596 0.00213119C76.1351 -0.000710396 76.1107 -0.000710396 76.0885 0.00213119C76.0641 -0.000710396 76.0397 -0.000710396 76.0175 0.00213119C75.9931 -0.000710396 75.9687 -0.000710396 75.9465 0.00213119C75.9221 -0.000710396 75.8977 -0.000710396 75.8755 0.00213119C75.8511 -0.000710396 75.8267 -0.000710396 75.8045 0.00213119C75.7801 -0.000710396 75.7557 -0.000710396 75.7335 0.00213119C75.7091 -0.000710396 75.6847 -0.000710396 75.6625 0.00213119C75.6381 -0.000710396 75.6136 -0.000710396 75.5915 0.00213119C75.567 -0.000710396 75.5426 -0.000710396 75.5204 0.00213119C75.496 -0.000710396 75.4716 -0.000710396 75.4494 0.00213119C75.425 -0.000710396 75.4006 -0.000710396 75.3784 0.00213119C75.354 -0.000710396 75.3296 -0.000710396 75.3074 0.00213119C75.283 -0.000710396 75.2586 -0.000710396 75.2364 0.00213119C75.212 -0.000710396 75.1876 -0.000710396 75.1654 0.00213119C75.141 -0.000710396 75.1166 -0.000710396 75.0944 0.00213119C75.07 -0.000710396 75.0455 -0.000710396 75.0234 0.00213119C74.9989 -0.000710396 74.9745 -0.000710396 74.9523 0.00213119C74.9279 -0.000710396 74.9035 -0.000710396 74.8813 0.00213119C74.8569 -0.000710396 74.8325 -0.000710396 74.8103 0.00213119C74.7859 -0.000710396 74.7615 -0.000710396 74.7393 0.00213119C74.7149 -0.000710396 74.6905 -0.000710396 74.6683 0.00213119C74.6439 -0.000710396 74.6195 -0.000710396 74.5973 0.00213119C74.5729 -0.000710396 74.5485 -0.000710396 74.5263 0.00213119C74.5019 -0.000710396 74.4774 -0.000710396 74.4552 0.00213119C74.4308 -0.000710396 74.4064 -0.000710396 74.3842 0.00213119C74.3598 -0.000710396 74.3354 -0.000710396 74.3132 0.00213119C74.2888 -0.000710396 74.2644 -0.000710396 74.2422 0.00213119C74.2178 -0.000710396 74.1934 -0.000710396 74.1712 0.00213119C74.1468 -0.000710396 74.1224 -0.000710396 74.1002 0.00213119C74.0758 -0.000710396 74.0514 -0.000710396 74.0292 0.00213119C74.0048 -0.000710396 73.9803 -0.000710396 73.9582 0.00213119C73.9337 -0.000710396 73.9093 -0.000710396 73.8871 0.00213119C73.8627 -0.000710396 73.8383 -0.000710396 73.8161 0.00213119C73.7917 -0.000710396 73.7673 -0.000710396 73.7451 0.00213119C73.7207 -0.000710396 73.6963 -0.000710396 73.6741 0.00213119C73.6497 -0.000710396 73.6253 -0.000710396 73.6031 0.00213119C73.5787 -0.000710396 73.5543 -0.000710396 73.5321 0.00213119C73.5077 -0.000710396 73.4833 -0.000710396 73.4611 0.00213119C73.4367 -0.000710396 73.4122 -0.000710396 73.39 0.00213119C73.3656 -0.000710396 73.3412 -0.000710396 73.319 0.00213119C73.2946 -0.000710396 73.2702 -0.000710396 73.248 0.00213119C73.2236 -0.000710396 73.1992 -0.000710396 73.177 0.00213119C73.1526 -0.000710396 73.1282 -0.000710396 73.106 0.00213119C73.0816 -0.000710396 73.0572 -0.000710396 73.035 0.00213119C73.0106 -0.000710396 72.9862 -0.000710396 72.964 0.00213119C72.9396 -0.000710396 72.9151 -0.000710396 72.893 0.00213119C72.8685 -0.000710396 72.8441 -0.000710396 72.8219 0.00213119C72.7975 -0.000710396 72.7731 -0.000710396 72.7509 0.00213119C72.7265 -0.000710396 72.7021 -0.000710396 72.6799 0.00213119C72.6555 -0.000710396 72.6311 -0.000710396 72.6089 0.00213119C72.5845 -0.000710396 72.5601 -0.000710396 72.5379 0.00213119C72.5135 -0.000710396 72.4891 -0.000710396 72.4669 0.00213119C72.4425 -0.000710396 72.4181 -0.000710396 72.3959 0.00213119C72.3715 -0.000710396 72.347 -0.000710396 72.3249 0.00213119C72.3004 -0.000710396 72.276 -0.000710396 72.2538 0.00213119C72.2294 -0.000710396 72.205 -0.000710396 72.1828 0.00213119C72.1584 -0.000710396 72.134 -0.000710396 72.1118 0.00213119C72.0874 -0.000710396 72.063 -0.000710396 72.0408 0.00213119C72.0164 -0.000710396 71.992 -0.000710396 71.9698 0.00213119C71.9454 -0.000710396 71.921 -0.000710396 71.8988 0.00213119C71.8744 -0.000710396 71.85 -0.000710396 71.8278 0.00213119C71.8034 -0.000710396 71.7789 -0.000710396 71.7568 0.00213119C71.7323 -0.000710396 71.7079 -0.000710396 71.6857 0.00213119C71.6613 -0.000710396 71.6369 -0.000710396 71.6147 0.00213119C71.5903 -0.000710396 71.5659 -0.000710396 71.5437 0.00213119C71.5193 -0.000710396 71.4949 -0.000710396 71.4727 0.00213119C71.4483 -0.000710396 71.4239 -0.000710396 71.4017 0.00213119C71.3773 -0.000710396 71.3529 -0.000710396 71.3307 0.00213119C71.3063 -0.000710396 71.2818 -0.000710396 71.2597 0.00213119C71.2352 -0.000710396 71.2108 -0.000710396 71.1886 0.00213119C71.1642 -0.000710396 71.1398 -0.000710396 71.1176 0.00213119C71.0932 -0.000710396 71.0688 -0.000710396 71.0466 0.00213119C71.0222 -0.000710396 70.9978 -0.000710396 70.9756 0.00213119C70.9512 -0.000710396 70.9268 -0.000710396 70.9046 0.00213119C70.8802 -0.000710396 70.8558 -0.000710396 70.8336 0.00213119C70.8092 -0.000710396 70.7848 -0.000710396 70.7626 0.00213119C70.7382 -0.000710396 70.7137 -0.000710396 70.6916 0.00213119C70.6671 -0.000710396 7.85361 -0.000710396 7.83141 0.00213119C7.807 -0.000710396 7.78259 -0.000710396 7.7604 0.00213119C7.73599 -0.000710396 7.71158 -0.000710396 7.68939 0.00213119C7.66498 -0.000710396 7.64057 -0.000710396 7.61838 0.00213119C7.59397 -0.000710396 7.56955 -0.000710396 7.54736 0.00213119C7.52295 -0.000710396 7.49854 -0.000710396 7.47635 0.00213119C7.45194 -0.000710396 7.42753 -0.000710396 7.40533 0.00213119C7.38092 -0.000710396 7.35651 -0.000710396 7.33432 0.00213119C7.30991 -0.000710396 7.2855 -0.000710396 7.26331 0.00213119C7.2389 -0.000710396 7.21449 -0.000710396 7.1923 0.00213119C7.16788 -0.000710396 7.14348 -0.000710396 7.12128 0.00213119C7.09687 -0.000710396 7.07246 -0.000710396 7.05027 0.00213119C7.02586 -0.000710396 7.00145 -0.000710396 6.97926 0.00213119C6.95485 -0.000710396 6.93044 -0.000710396 6.90825 0.00213119C6.88383 -0.000710396 6.85942 -0.000710396 6.83723 0.00213119C6.81282 -0.000710396 6.78841 -0.000710396 6.76622 0.00213119C6.74181 -0.000710396 6.7174 -0.000710396 6.6952 0.00213119C6.67079 -0.000710396 6.64638 -0.000710396 6.62419 0.00213119C6.59978 -0.000710396 6.57537 -0.000710396 6.55318 0.00213119C6.52877 -0.000710396 6.50436 -0.000710396 6.48216 0.00213119C6.45775 -0.000710396 6.43334 -0.000710396 6.41115 0.00213119C6.38674 -0.000710396 6.36233 -0.000710396 6.34014 0.00213119C6.31573 -0.000710396 6.29132 -0.000710396 6.26913 0.00213119C6.24471 -0.000710396 6.22031 -0.000710396 6.19811 0.00213119C6.1737 -0.000710396 6.14929 -0.000710396 6.1271 0.00213119C6.10269 -0.000710396 6.07828 -0.000710396 6.05609 0.00213119C6.03168 -0.000710396 6.00726 -0.000710396 5.98507 0.00213119C5.96066 -0.000710396 5.93625 -0.000710396 5.91406 0.00213119C5.88965 -0.000710396 5.86524 -0.000710396 5.84305 0.00213119C5.81864 -0.000710396 5.79423 -0.000710396 5.77203 0.00213119C5.74762 -0.000710396 5.72321 -0.000710396 5.70102 0.00213119C5.67661 -0.000710396 5.6522 -0.000710396 5.63001 0.00213119C5.6056 -0.000710396 5.58119 -0.000710396 5.55899 0.00213119C5.53458 -0.000710396 5.51017 -0.000710396 5.48798 0.00213119C5.46357 -0.000710396 5.43916 -0.000710396 5.41697 0.00213119C5.39256 -0.000710396 5.36815 -0.000710396 5.34596 0.00213119C5.32155 -0.000710396 5.29713 -0.000710396 5.27494 0.00213119C5.25053 -0.000710396 5.22612 -0.000710396 5.20393 0.00213119C5.17952 -0.000710396 5.15511 -0.000710396 5.13292 0.00213119C5.10851 -0.000710396 5.08409 -0.000710396 5.0619 0.00213119C5.03749 -0.000710396 5.01308 -0.000710396 4.99089 0.00213119C4.96648 -0.000710396 4.94207 -0.000710396 4.91988 0.00213119C4.89546 -0.000710396 4.87106 -0.000710396 4.84886 0.00213119C4.82445 -0.000710396 4.80004 -0.000710396 4.77785 0.00213119C4.75344 -0.000710396 4.72903 -0.000710396 4.70684 0.00213119C4.68243 -0.000710396 4.65802 -0.000710396 4.63583 0.00213119C4.61141 -0.000710396 4.587 -0.000710396 4.56481 0.00213119C4.5404 -0.000710396 4.51599 -0.000710396 4.4938 0.00213119C4.46939 -0.000710396 4.44498 -0.000710396 4.42279 0.00213119C4.39838 -0.000710396 4.37396 -0.000710396 4.35177 0.00213119C4.32736 -0.000710396 4.30295 -0.000710396 4.28076 0.00213119C4.25635 -0.000710396 4.23194 -0.000710396 4.20974 0.00213119C4.18533 -0.000710396 4.16092 -0.000710396 4.13873 0.00213119C4.11432 -0.000710396 4.08991 -0.000710396 4.06772 0.00213119C4.04331 -0.000710396 4.0189 -0.000710396 3.99671 0.00213119C3.97229 -0.000710396 3.94789 -0.000710396 3.92569 0.00213119C3.90128 -0.000710396 3.87687 -0.000710396 3.85468 0.00213119C3.83027 -0.000710396 3.80586 -0.000710396 3.78367 0.00213119C3.75926 -0.000710396 3.73485 -0.000710396 3.71266 0.00213119C3.68824 -0.000710396 3.66383 -0.000710396 3.64164 0.00213119C3.61723 -0.000710396 3.59282 -0.000710396 3.57063 0.00213119C3.54622 -0.000710396 3.52181 -0.000710396 3.49961 0.00213119C3.4752 -0.000710396 3.45079 -0.000710396 3.4286 0.00213119C3.40419 -0.000710396 3.37978 -0.000710396 3.35759 0.00213119C3.33318 -0.000710396 3.30877 -0.000710396 3.28657 0.00213119C3.26216 -0.000710396 3.23775 -0.000710396 3.21556 0.00213119C3.19115 -0.000710396 3.16674 -0.000710396 3.14455 0.00213119C3.12014 -0.000710396 3.09573 -0.000710396 3.07354 0.00213119C3.04913 -0.000710396 3.02472 -0.000710396 3.00252 0.00213119C2.97811 -0.000710396 2.9537 -0.000710396 2.93151 0.00213119C2.9071 -0.000710396 2.88269 -0.000710396 2.8605 0.00213119C2.83609 -0.000710396 2.81167 -0.000710396 2.78948 0.00213119C2.76507 -0.000710396 2.74066 -0.000710396 2.71847 0.00213119C2.69406 -0.000710396 2.66965 -0.000710396 2.64746 0.00213119C2.62305 -0.000710396 2.59864 -0.000710396 2.57644 0.00213119C2.55203 -0.000710396 2.52762 -0.000710396 2.50543 0.00213119C2.48102 -0.000710396 2.45661 -0.000710396 2.43442 0.00213119C2.41001 -0.000710396 2.3856 -0.000710396 2.3634 0.00213119C2.33899 -0.000710396 2.31458 -0.000710396 2.29239 0.00213119C2.26798 -0.000710396 2.24357 -0.000710396 2.22138 0.00213119C2.19697 -0.000710396 2.17256 -0.000710396 2.15037 0.00213119C2.12596 -0.000710396 2.10154 -0.000710396 2.07935 0.00213119C2.05494 -0.000710396 2.03053 -0.000710396 2.00834 0.00213119C1.98393 -0.000710396 1.95952 -0.000710396 1.93733 0.00213119C1.91292 -0.000710396 1.8885 -0.000710396 1.86631 0.00213119C1.8419 -0.000710396 1.81749 -0.000710396 1.7953 0.00213119C1.77089 -0.000710396 1.74648 -0.000710396 1.72429 0.00213119C1.69988 -0.000710396 1.67547 -0.000710396 1.65327 0.00213119C1.62886 -0.000710396 1.60445 -0.000710396 1.58226 0.00213119C1.55785 -0.000710396 1.53344 -0.000710396 1.51125 0.00213119C1.48684 -0.000710396 1.46243 -0.000710396 1.44024 0.00213119C1.41582 -0.000710396 1.39141 -0.000710396 1.36922 0.00213119C1.34481 -0.000710396 1.3204 -0.000710396 1.29821 0.00213119C1.2738 -0.000710396 1.24939 -0.000710396 1.22719 0.00213119C1.20278 -0.000710396 1.17837 -0.000710396 1.15618 0.00213119C1.13177 -0.000710396 1.10736 -0.000710396 1.08517 0.00213119C1.06076 -0.000710396 1.03635 -0.000710396 1.01416 0.00213119C0.989745 -0.000710396 0.965334 -0.000710396 0.943143 0.00213119C0.918732 -0.000710396 0.894321 -0.000710396 0.872129 0.00213119C0.847719 -0.000710396 0.823308 -0.000710396 0.801116 0.00213119C0.776705 -0.000710396 0.752296 -0.000710396 0.730104 0.00213119C0.705693 -0.000710396 0.681282 -0.000710396 0.659091 0.00213119C0.63468 -0.000710396 0.610269 -0.000710396 0.588077 0.00213119C0.563667 -0.000710396 0.539255 -0.000710396 0.517064 0.00213119C0.492653 -0.000710396 0.468242 -0.000710396 0.446051 0.00213119C0.42164 -0.000710396 0.39723 -0.000710396 0.375039 0.00213119C0.252985 -0.0120767 0.177533 0.0504367 0.0532604 0.0646446C0.0221921 0.135684 0.0377257 0.203882 0 0.249347C0.0110958 0.317545 0.0554787 0.348803 0.0954236 0.382902C0.0798895 0.399952 0.0887661 0.439735 0.073232 0.456784C0.110958 0.476675 0.124272 0.453942 0.15756 0.46815C0.15756 0.465308 0.15756 0.462466 0.15756 0.462466C0.181971 0.470991 0.195286 0.459626 0.215259 0.465309C0.21304 0.482358 0.21082 0.499407 0.21082 0.519298C0.139807 0.470991 0.126492 0.627279 0.126492 0.63012C0.126492 0.632962 0.104301 0.615912 0.104301 0.618753C0.0843283 0.769357 0.248546 0.88018 0.199724 1.04783C0.213039 1.06204 0.237451 1.06204 0.264081 1.0592C0.268519 1.11887 0.255203 1.21833 0.221916 1.26664C0.235231 1.29789 0.264081 1.30642 0.264081 1.35188C0.237451 1.43429 0.168656 1.39735 0.15756 1.49964C0.195285 1.51385 0.235231 1.52522 0.221916 1.59626C0.26408 1.61899 0.308463 1.62183 0.348408 1.61615C0.372819 1.61899 0.395011 1.61899 0.419422 1.61615C0.443832 1.61899 0.466023 1.61899 0.490434 1.61615C0.514844 1.61899 0.537036 1.61899 0.561447 1.61615C0.585858 1.61899 0.60805 1.61899 0.63246 1.61615C0.656871 1.61899 0.679063 1.61899 0.703474 1.61615C0.727885 1.61899 0.750076 1.61899 0.774487 1.61615C0.798898 1.61899 0.821088 1.61899 0.845499 1.61615C0.86991 1.61899 0.892102 1.61899 0.916513 1.61615C0.940923 1.61899 0.963115 1.61899 0.987526 1.61615C1.01194 1.61899 1.03413 1.61899 1.05854 1.61615C1.08295 1.61899 1.10514 1.61899 1.12955 1.61615C1.14731 1.61899 1.16284 1.61899 1.18059 1.61899C1.15618 1.64456 1.13843 1.67582 1.13843 1.72697C1.12733 1.76107 1.19613 1.79517 1.19613 1.84063C1.19391 1.92872 1.18725 1.88042 1.23829 1.9543C1.24717 1.9685 1.22941 2.00829 1.23829 2.01965C1.25826 2.04807 1.28267 2.02534 1.3093 2.06796C1.34925 2.13616 1.36034 2.2555 1.46465 2.28108C1.40473 2.3578 1.38697 2.40611 1.36478 2.55955C1.32706 2.54535 1.25826 2.61639 1.19391 2.62491C1.2161 2.69879 1.19391 2.73573 1.19391 2.82098C1.30487 2.85224 1.38254 2.90339 1.46243 3C1.49128 3 1.51791 2.99147 1.5401 2.98011C1.54675 2.98579 1.55119 2.99148 1.55785 3C1.5867 3 1.61333 2.99147 1.63552 2.98011C1.64218 2.98579 1.64662 2.99148 1.65327 3C1.68212 3 1.70875 2.99147 1.73094 2.98011C1.7376 2.98579 1.74204 2.99148 1.7487 3C1.77755 3 1.80418 2.99147 1.82637 2.98011C1.83303 2.98579 1.83746 2.99148 1.84412 3C1.87297 3 1.8996 2.99147 1.92179 2.98011C1.92845 2.98579 1.93289 2.99148 1.93955 3C1.9684 3 1.99502 2.99147 2.01722 2.98011C2.02387 2.98579 2.02831 2.99148 2.03497 3C2.06382 3 2.09045 2.99147 2.11264 2.98011C2.1193 2.98579 2.12374 2.99148 2.13039 3C2.15924 3 2.18587 2.99147 2.20806 2.98011C2.21472 2.98579 2.21916 2.99148 2.22582 3C2.25467 3 2.2813 2.99147 2.30349 2.98011C2.31015 2.98579 2.31458 2.99148 2.32124 3C2.35009 3 2.37672 2.99147 2.39891 2.98011C2.40557 2.98579 2.41001 2.99148 2.41667 3C2.44551 3 2.47214 2.99147 2.49434 2.98011C2.50099 2.98579 2.50543 2.99148 2.51209 3C2.54094 3 2.56757 2.99147 2.58976 2.98011C2.59642 2.98579 2.60086 2.99148 2.60751 3C2.63636 3 2.66299 2.99147 2.68518 2.98011C2.69184 2.98579 2.69628 2.99148 2.70294 3C2.73179 3 2.75842 2.99147 2.78061 2.98011C2.78727 2.98579 2.7917 2.99148 2.79836 3C2.82721 3 2.85384 2.99147 2.87603 2.98011C2.88269 2.98579 2.88713 2.99148 2.89378 3C2.92263 3 2.94926 2.99147 2.97146 2.98011C2.97811 2.98579 2.98255 2.99148 2.98921 3C3.01806 3 3.04469 2.99147 3.06688 2.98011C3.07353 2.98579 3.07797 2.99148 3.08463 3C3.11348 3 3.14011 2.99147 3.1623 2.98011C3.16896 2.98579 3.1734 2.99148 3.18006 3C3.20891 3 3.23554 2.99147 3.25773 2.98011C3.26438 2.98579 3.26882 2.99148 3.27548 3C3.30433 3 3.33096 2.99147 3.35315 2.98011C3.35981 2.98579 3.36425 2.99148 3.3709 3C3.39975 3 3.42638 2.99147 3.44857 2.98011C3.45523 2.98579 3.45967 2.99148 3.46633 3C3.49518 3 3.52181 2.99147 3.544 2.98011C3.55065 2.98579 3.55509 2.99148 3.56175 3C3.5906 3 3.61723 2.99147 3.63942 2.98011C3.64608 2.98579 3.65052 2.99148 3.65718 3C3.68603 3 3.71266 2.99147 3.73485 2.98011C3.7415 2.98579 3.74594 2.99148 3.7526 3C3.78145 3 3.80808 2.99147 3.83027 2.98011C3.83693 2.98579 3.84137 2.99148 3.84802 3C3.87687 3 3.9035 2.99147 3.92569 2.98011C3.93235 2.98579 3.93679 2.99148 3.94345 3C3.97229 3 3.99892 2.99147 4.02112 2.98011C4.02777 2.98579 4.03221 2.99148 4.03887 3C4.06772 3 4.09435 2.99147 4.11654 2.98011C4.1232 2.98579 4.12764 2.99148 4.1343 3C4.16314 3 4.18977 2.99147 4.21197 2.98011C4.21862 2.98579 4.22306 2.99148 4.22972 3C4.25857 3 4.2852 2.99147 4.30739 2.98011C4.31405 2.98579 4.31848 2.99148 4.32514 3C4.35399 3 4.38062 2.99147 4.40281 2.98011C4.40947 2.98579 4.41391 2.99148 4.42056 3C4.44941 3 4.47604 2.99147 4.49824 2.98011C4.50489 2.98579 4.50933 2.99148 4.51599 3C4.54484 3 4.57147 2.99147 4.59366 2.98011C4.60032 2.98579 4.60476 2.99148 4.61141 3C4.64026 3 4.66689 2.99147 4.68909 2.98011C4.69574 2.98579 4.70018 2.99148 4.70684 3C4.73569 3 4.76232 2.99147 4.78451 2.98011C4.79116 2.98579 4.7956 2.99148 4.80226 3C4.83111 3 4.85774 2.99147 4.87993 2.98011C4.88659 2.98579 4.89103 2.99148 4.89768 3C4.92653 3 4.95316 2.99147 4.97535 2.98011C4.98201 2.98579 4.98645 2.99148 4.99311 3C5.02196 3 5.04859 2.99147 5.07078 2.98011C5.07744 2.98579 5.08188 2.99148 5.08853 3C5.11738 3 5.14401 2.99147 5.1662 2.98011C5.17286 2.98579 5.1773 2.99148 5.18396 3C5.21281 3 5.23944 2.99147 5.26163 2.98011C5.26828 2.98579 5.27272 2.99148 5.27938 3C5.30823 3 5.33486 2.99147 5.35705 2.98011C5.36371 2.98579 5.36815 2.99148 5.3748 3C5.40365 3 5.43028 2.99147 5.45247 2.98011C5.45913 2.98579 5.46357 2.99148 5.47023 3C5.49908 3 5.52571 2.99147 5.5479 2.98011C5.55456 2.98579 5.559 2.99148 5.56565 3C5.5945 3 5.62113 2.99147 5.64332 2.98011C5.64998 2.98579 5.65442 2.99148 5.66108 3C5.68992 3 5.71655 2.99147 5.73875 2.98011C5.7454 2.98579 5.74984 2.99148 5.7565 3C5.78535 3 5.81198 2.99147 5.83417 2.98011C5.84083 2.98579 5.84526 2.99148 5.85192 3C5.88077 3 5.9074 2.99147 5.92959 2.98011C5.93625 2.98579 5.94069 2.99148 5.94735 3C5.9762 3 6.00283 2.99147 6.02502 2.98011C6.03168 2.98579 6.03612 2.99148 6.04277 3C6.07162 3 6.09825 2.99147 6.12044 2.98011C6.1271 2.98579 6.13154 2.99148 6.1382 3C6.16704 3 6.19367 2.99147 6.21587 2.98011C6.22252 2.98579 6.22696 2.99148 6.23362 3C6.26247 3 6.2891 2.99147 6.31129 2.98011C6.31795 2.98579 6.32238 2.99148 6.32904 3C6.35789 3 6.38452 2.99147 6.40671 2.98011C6.41337 2.98579 6.41781 2.99148 6.42447 3C6.45332 3 6.47995 2.99147 6.50214 2.98011C6.5088 2.98579 6.51323 2.99148 6.51989 3C6.54874 3 6.57537 2.99147 6.59756 2.98011C6.60422 2.98579 6.60866 2.99148 6.61531 3C6.64416 3 6.67079 2.99147 6.69298 2.98011C6.69964 2.98579 6.70408 2.99148 6.71074 3C6.73959 3 6.76622 2.99147 6.78841 2.98011C6.79507 2.98579 6.7995 2.99148 6.80616 3C6.83501 3 6.86164 2.99147 6.88383 2.98011C6.89049 2.98579 6.89493 2.99148 6.90159 3C6.93044 3 6.95707 2.99147 6.97926 2.98011C6.98591 2.98579 6.99035 2.99148 6.99701 3C7.02586 3 7.05249 2.99147 7.07468 2.98011C7.08134 2.98579 7.08578 2.99148 7.09243 3C7.12128 3 7.14791 2.99147 7.1701 2.98011C7.17676 2.98579 7.1812 2.99148 7.18786 3C7.21671 3 7.24334 2.99147 7.26553 2.98011C7.27219 2.98579 7.27662 2.99148 7.28328 3C7.31213 3 7.33876 2.99147 7.36095 2.98011C7.36761 2.98579 7.37205 2.99148 7.37871 3C7.40755 3 7.43418 2.99147 7.45638 2.98011C7.46303 2.98579 7.46747 2.99148 7.47413 3C7.50298 3 7.52961 2.99147 7.5518 2.98011C7.55846 2.98579 7.5629 2.99148 7.56955 3C7.5984 3 7.62503 2.99147 7.64722 2.98011C7.65388 2.98579 7.65832 2.99148 7.66498 3C7.69383 3 7.72046 2.99147 7.74265 2.98011C7.74931 2.98579 7.75374 2.99148 7.7604 3C7.78925 3 7.81588 2.99147 7.83807 2.98011C7.84473 2.98579 70.6383 2.99148 70.645 3C70.6738 3 70.7004 2.99147 70.7226 2.98011C70.7293 2.98579 70.7824 2.97158 70.7891 2.98011C70.8179 2.98011 70.7958 2.99147 70.818 2.98011C70.8247 2.98579 70.8633 2.98011 70.8358 3C70.8646 3 70.8913 2.99147 70.9135 2.98011C70.9201 2.98579 70.9246 2.99148 70.9312 3C70.9601 3 70.9867 2.99147 71.0089 2.98011C71.0155 2.98579 71.02 2.99148 71.0266 3C71.0555 3 71.0821 2.99147 71.1043 2.98011C71.111 2.98579 71.1154 2.99148 71.1221 3C71.1509 3 71.1775 2.99147 71.1997 2.98011C71.2064 2.98579 71.2108 2.99148 71.2175 3C71.2463 3 71.273 2.99147 71.2952 2.98011C71.3018 2.98579 71.3063 2.99148 71.3129 3C71.3418 3 71.3684 2.99147 71.3906 2.98011C71.3972 2.98579 71.4017 2.99148 71.4083 3C71.4372 3 71.4638 2.99147 71.486 2.98011C71.4927 2.98579 71.4971 2.99148 71.5038 3C71.5326 3 71.5592 2.99147 71.5814 2.98011C71.5881 2.98579 71.5925 2.99148 71.5992 3C71.628 3 71.6547 2.99147 71.6769 2.98011C71.6835 2.98579 71.688 2.99148 71.6946 3C71.7235 3 71.7501 2.99147 71.7723 2.98011C71.7789 2.98579 71.7834 2.99148 71.79 3C71.8189 3 71.8455 2.99147 71.8677 2.98011C71.8744 2.98579 71.8788 2.99148 71.8855 3C71.9143 3 71.9409 2.99147 71.9631 2.98011C71.9698 2.98579 71.9742 2.99148 71.9809 3C72.0097 3 72.0364 2.99147 72.0585 2.98011C72.0652 2.98579 72.0696 2.99148 72.0763 3C72.1052 3 72.1318 2.99147 72.154 2.98011C72.1606 2.98579 72.1651 2.99148 72.1717 3C72.2006 3 72.2272 2.99147 72.2494 2.98011C72.2561 2.98579 72.2605 2.99148 72.2672 3C72.296 3 72.3226 2.99147 72.3448 2.98011C72.3515 2.98579 72.3559 2.99148 72.3626 3C72.3914 3 72.4181 2.99147 72.4403 2.98011C72.4469 2.98579 72.4513 2.99148 72.458 3C72.4868 3 72.5135 2.99147 72.5357 2.98011C72.5423 2.98579 72.5468 2.99148 72.5534 3C72.5823 3 72.6089 2.99147 72.6311 2.98011C72.6378 2.98579 72.6422 2.99148 72.6488 3C72.6777 3 72.7043 2.99147 72.7265 2.98011C72.7332 2.98579 72.7376 2.99148 72.7443 3C72.7731 3 72.7998 2.99147 72.8219 2.98011C72.8286 2.98579 72.833 2.99148 72.8397 3C72.8685 3 72.8952 2.99147 72.9174 2.98011C72.924 2.98579 72.9285 2.99148 72.9351 3C72.964 3 72.9906 2.99147 73.0128 2.98011C73.0194 2.98579 73.0239 2.99148 73.0305 3C73.0594 3 73.086 2.99147 73.1082 2.98011C73.1149 2.98579 73.1193 2.99148 73.126 3C73.1548 3 73.1814 2.99147 73.2036 2.98011C73.2103 2.98579 73.2147 2.99148 73.2214 3C73.2502 3 73.2769 2.99147 73.2991 2.98011C73.3057 2.98579 73.3102 2.99148 73.3168 3C73.3457 3 73.3723 2.99147 73.3945 2.98011C73.4011 2.98579 73.4056 2.99148 73.4122 3C73.4411 3 73.4677 2.99147 73.4899 2.98011C73.4966 2.98579 73.501 2.99148 73.5077 3C73.5365 3 73.5631 2.99147 73.5853 2.98011C73.592 2.98579 73.5964 2.99148 73.6031 3C73.6319 3 73.6586 2.99147 73.6808 2.98011C73.6874 2.98579 73.6919 2.99148 73.6985 3C73.7274 3 73.754 2.99147 73.7762 2.98011C73.7828 2.98579 73.7873 2.99148 73.7939 3C73.8228 3 73.8494 2.99147 73.8716 2.98011C73.8783 2.98579 73.8827 2.99148 73.8894 3C73.9182 3 73.9448 2.99147 73.967 2.98011C73.9737 2.98579 73.9781 2.99148 73.9848 3C74.0136 3 74.0403 2.99147 74.0625 2.98011C74.0691 2.98579 74.0735 2.99148 74.0802 3C74.1091 3 74.1357 2.99147 74.1579 2.98011C74.1645 2.98579 74.169 2.99148 74.1756 3C74.2045 3 74.2311 2.99147 74.2533 2.98011C74.26 2.98579 74.2644 2.99148 74.271 3C74.2999 3 74.3265 2.99147 74.3487 2.98011C74.3554 2.98579 74.3598 2.99148 74.3665 3C74.3953 3 74.422 2.99147 74.4441 2.98011C74.4508 2.98579 74.4552 2.99148 74.4619 3C74.4907 3 74.5174 2.99147 74.5396 2.98011C74.5462 2.98579 74.5507 2.99148 74.5573 3C74.5862 3 74.6128 2.99147 74.635 2.98011C74.6417 2.98579 74.6461 2.99148 74.6527 3C74.6816 3 74.7082 2.99147 74.7304 2.98011C74.7371 2.98579 74.7415 2.99148 74.7482 3C74.777 3 74.8036 2.99147 74.8258 2.98011C74.8325 2.98579 74.8369 2.99148 74.8436 3C74.8724 3 74.8991 2.99147 74.9213 2.98011C74.9279 2.98579 74.9324 2.99148 74.939 3C74.9679 3 74.9945 2.99147 75.0167 2.98011C75.0233 2.98579 75.0278 2.99148 75.0344 3C75.0633 3 75.0899 2.99147 75.1121 2.98011C75.1188 2.98579 75.1232 2.99148 75.1299 3C75.1587 3 75.1853 2.99147 75.2075 2.98011C75.2142 2.98579 75.2186 2.99148 75.2253 3C75.2541 3 75.2808 2.99147 75.303 2.98011C75.3096 2.98579 75.3141 2.99148 75.3207 3C75.3496 3 75.3762 2.99147 75.3984 2.98011C75.405 2.98579 75.4095 2.99148 75.4161 3C75.445 3 75.4716 2.99147 75.4938 2.98011C75.5005 2.98579 75.5049 2.99148 75.5116 3C75.5404 3 75.567 2.99147 75.5892 2.98011C75.5959 2.98579 75.6003 2.99148 75.607 3C75.6358 3 75.6625 2.99147 75.6847 2.98011C75.6913 2.98579 75.6958 2.99148 75.7024 3C75.7313 3 75.7579 2.99147 75.7801 2.98011C75.7867 2.98579 75.7912 2.99148 75.7978 3C75.8267 3 75.8533 2.99147 75.8755 2.98011C75.8822 2.98579 75.8866 2.99148 75.8933 3C75.9221 3 75.9487 2.99147 75.9709 2.98011C75.9776 2.98579 75.982 2.99148 75.9887 3C76.0175 3 76.0442 2.99147 76.0664 2.98011C76.073 2.98579 76.0775 2.99148 76.0841 3C76.113 3 76.1396 2.99147 76.1618 2.98011C76.1684 2.98579 76.1729 2.99148 76.1795 3C76.2084 3 76.235 2.99147 76.2572 2.98011C76.2639 2.98579 76.2683 2.99148 76.275 3C76.3038 3 76.3304 2.99147 76.3526 2.98011C76.3593 2.98579 76.3637 2.99148 76.3704 3C76.3992 3 76.4259 2.99147 76.4481 2.98011C76.4547 2.98579 76.4591 2.99148 76.4658 3C76.4947 3 76.5213 2.99147 76.5435 2.98011C76.5501 2.98579 76.5546 2.99148 76.5612 3C76.5901 3 76.6167 2.99147 76.6389 2.98011C76.6456 2.98579 76.65 2.99148 76.6567 3C76.6855 3 76.7121 2.99147 76.7343 2.98011C76.741 2.98579 76.7454 2.99148 76.7521 3C76.7809 3 76.8075 2.99147 76.8297 2.98011C76.8364 2.98579 76.8408 2.99148 76.8475 3C76.8763 3 76.903 2.99147 76.9252 2.98011C76.9318 2.98579 76.9363 2.99148 76.9429 3C76.9718 3 76.9984 2.99147 77.0206 2.98011C77.0273 2.98579 77.0317 2.99148 77.0383 3C77.0672 3 77.0938 2.99147 77.116 2.98011C77.1227 2.98579 77.1271 2.99148 77.1338 3C77.1626 3 77.1892 2.99147 77.2114 2.98011C77.2181 2.98579 77.2225 2.99148 77.2292 3C77.258 3 77.2847 2.99147 77.3069 2.98011C77.3135 2.98579 77.318 2.99148 77.3246 3C77.3535 3 77.3801 2.99147 77.4023 2.98011C77.409 2.98579 77.4134 2.99148 77.42 3C77.4489 3 77.4755 2.99147 77.4977 2.98011C77.5044 2.98579 77.5088 2.99148 77.5155 3C77.5443 3 77.5709 2.99147 77.5931 2.98011C77.5998 2.98579 77.6042 2.99148 77.6109 3C77.6397 3 77.6664 2.99147 77.6886 2.98011C77.6952 2.98579 77.6997 2.99148 77.7063 3C77.7352 3 77.7618 2.99147 77.784 2.98011C77.7906 2.98579 77.7951 2.99148 77.8017 3C77.8306 3 77.8572 2.99147 77.8794 2.98011C77.8861 2.98579 77.8905 2.99148 77.8972 3C77.926 3 77.9526 2.99147 77.9748 2.98011C77.9815 2.98579 77.9859 2.99148 77.9926 3C78.0214 3 78.0481 2.99147 78.0703 2.98011C78.0769 2.98579 78.0814 2.99148 78.088 3C78.1169 3 78.1435 2.99147 78.1657 2.98011C78.1723 2.98579 78.1768 2.99148 78.1834 3C78.2123 3 78.2389 2.99147 78.2611 2.98011C78.2678 2.98579 78.2722 2.99148 78.2789 3C78.3077 3 78.3343 2.99147 78.3565 2.98011C78.3632 2.98579 78.3676 2.99148 78.3743 3C78.4963 3 78.5562 2.87213 78.6716 2.82098C78.6761 2.76131 78.7027 2.68458 78.6428 2.64196C78.7116 2.68742 78.7493 2.61639 78.7848 2.5766C78.9624 2.46294 79.0201 2.30097 78.9113 2.13048Z" fill="#94C136"/>
</g>
</svg>
