<svg width="37" height="30" viewBox="0 0 37 30" fill="none" xmlns="http://www.w3.org/2000/svg">
<rect width="37" height="30" fill="#1E1E1E"/>
<path d="M-1956 -1085C-1956 -1086.1 -1955.1 -1087 -1954 -1087H13594C13595.1 -1087 13596 -1086.1 13596 -1085V5375C13596 5376.1 13595.1 5377 13594 5377H-1954C-1955.1 5377 -1956 5376.1 -1956 5375V-1085Z" fill="#404040"/>
<g clip-path="url(#clip0_205_7588)">
<rect width="1440" height="3476" transform="translate(-140 -15)" fill="white"/>
<mask id="path-3-inside-1_205_7588" fill="white">
<path d="M-140 -15H1300V65H-140V-15Z"/>
</mask>
<path d="M-140 -15H1300V65H-140V-15Z" fill="white"/>
<path d="M7.02233 21.3177H6.87865C6.12432 21.3177 5.51367 20.707 5.51367 19.9527V5.54857C5.51367 4.79424 6.12432 4.18359 6.87865 4.18359H7.02233C7.77666 4.18359 8.38731 4.79424 8.38731 5.54857V19.9527C8.38731 20.6711 7.77666 21.3177 7.02233 21.3177Z" fill="#F1B99B"/>
<path d="M11.6208 19.7728H11.4411C10.6868 19.7728 10.0762 19.1621 10.0762 18.4078V2.85424C10.0762 2.09991 10.6868 1.48926 11.4411 1.48926H11.6208C12.3751 1.48926 12.9857 2.09991 12.9857 2.85424V18.4078C12.9857 19.1621 12.3751 19.7728 11.6208 19.7728Z" fill="#94C136"/>
<path d="M16.2536 21.3177H16.074C15.3196 21.3177 14.709 20.7071 14.709 19.9528V1.5974C14.709 0.843071 15.3196 0.232422 16.074 0.232422H16.2536C17.0079 0.232422 17.6185 0.843071 17.6185 1.5974V19.9528C17.6185 20.7071 17.0079 21.3177 16.2536 21.3177Z" fill="#BED392"/>
<path d="M30.0836 24.8021H29.904C29.1497 24.8021 28.5391 24.1915 28.5391 23.4371V5.08178C28.5391 4.32745 29.1497 3.7168 29.904 3.7168H30.0836C30.838 3.7168 31.4486 4.32745 31.4486 5.08178V23.4371C31.4486 24.1915 30.838 24.8021 30.0836 24.8021Z" fill="#A02C77"/>
<path d="M20.8512 23.6522H20.6716C19.9173 23.6522 19.3066 23.0415 19.3066 22.2872V2.85424C19.3066 2.09991 19.9173 1.48926 20.6716 1.48926H20.8512C21.6056 1.48926 22.2162 2.09991 22.2162 2.85424V22.2872C22.2162 23.0415 21.6056 23.6522 20.8512 23.6522Z" fill="#4E81C2"/>
<path d="M25.486 29.5435H25.3064C24.5521 29.5435 23.9414 28.9329 23.9414 28.1785V1.5974C23.9414 0.843071 24.5521 0.232422 25.3064 0.232422H25.486C26.2403 0.232422 26.851 0.843071 26.851 1.5974V28.1785C26.815 28.9329 26.2403 29.5435 25.486 29.5435Z" fill="#90B7E2"/>
<path d="M2.42425 17.5106H2.20873C1.4544 17.5106 0.84375 16.8999 0.84375 16.1456V9.42845C0.84375 8.67412 1.4544 8.06348 2.20873 8.06348H2.38833C3.14266 8.06348 3.75331 8.67412 3.75331 9.42845V16.1456C3.75331 16.8999 3.17858 17.5106 2.42425 17.5106Z" fill="#EB5C2B"/>
<path d="M34.6813 18.3367H34.5017C33.7474 18.3367 33.1367 17.7261 33.1367 16.9718V10.2546C33.1367 9.5003 33.7474 8.88965 34.5017 8.88965H34.6813C35.4356 8.88965 36.0463 9.5003 36.0463 10.2546V16.9718C36.0463 17.7261 35.4356 18.3367 34.6813 18.3367Z" fill="#C387AE"/>
<path d="M34.7887 40.0084C33.9985 40.0084 33.2082 39.9006 32.4898 39.6492C31.8792 39.4337 31.3404 39.1104 30.8734 38.6793C30.0113 37.7813 29.5443 36.596 29.5802 35.3387V28.7653H32.4898V35.231C32.4539 35.8416 32.6694 36.4164 33.0645 36.8474C33.5315 37.2785 34.1781 37.5299 34.7887 37.494C35.4353 37.5299 36.0459 37.3144 36.5129 36.8474C36.908 36.4164 37.1235 35.8416 37.0876 35.231V28.7653H39.9613V35.3028C39.9613 35.9494 39.8535 36.596 39.638 37.2066C39.4225 37.7813 39.0992 38.2842 38.6681 38.6793C38.2012 39.1104 37.6624 39.4337 37.0517 39.6492C36.3333 39.9006 35.579 40.0084 34.7887 40.0084ZM-20.0978 40.0084C-21.6783 40.0443 -23.1869 39.4696 -24.3364 38.4279C-24.8752 37.925 -25.3062 37.3144 -25.5936 36.6319C-25.9169 35.9135 -26.0605 35.1232 -26.0605 34.2971C-26.0605 33.5068 -25.9169 32.7166 -25.5936 31.9622C-25.3062 31.2797 -24.8752 30.6691 -24.3364 30.1662C-23.1869 29.1245 -21.6423 28.5498 -20.0978 28.5857C-18.9842 28.5498 -17.8707 28.8731 -16.9727 29.5196C-16.2543 30.0225 -15.6795 30.7409 -15.2844 31.5312L-17.727 32.7166C-17.9066 32.2496 -18.2299 31.8545 -18.6609 31.603C-19.092 31.3157 -19.5949 31.1361 -20.0978 31.1361C-20.9239 31.1361 -21.7142 31.4593 -22.3248 32.0341C-22.8995 32.6447 -23.1869 33.4709 -23.1869 34.2971C-23.1869 35.1232 -22.8995 35.9494 -22.3248 36.56C-21.7501 37.1707 -20.9598 37.494 -20.0978 37.494C-19.5949 37.494 -19.092 37.3144 -18.6609 37.027C-18.2658 36.7397 -17.9425 36.3445 -17.727 35.9135L-15.2844 37.0629C-15.6795 37.8532 -16.2543 38.5357 -16.9727 39.0745C-17.8707 39.6851 -18.9483 40.0084 -20.0978 40.0084ZM45.6367 39.7929H42.799V28.7653H46.7502L49.0491 34.8359L51.3481 28.7653H55.2993V39.7929H52.4616V32.501L49.6957 39.7929H48.4385L45.6367 32.501V39.7929ZM13.7034 39.7929H10.8657V28.7653H13.7752L18.2294 34.8359V28.7653H21.103V39.7929H18.3731L13.7034 33.399V39.7929ZM-10.3992 39.7929H-13.2369V28.7653H-7.70519C-6.6635 28.7294 -5.6218 29.0886 -4.86747 29.8429C-4.2209 30.5613 -3.8617 31.4953 -3.8617 32.4292C-3.82578 33.2194 -4.07722 34.0097 -4.58011 34.6563C-4.97523 35.1591 -5.47812 35.5184 -6.05285 35.7339L-3.78986 39.7929H-7.05862L-8.92649 36.0931H-10.3633L-10.3992 39.7929ZM-10.3992 31.2438V33.6146H-8.13623C-7.77703 33.6146 -7.45375 33.5068 -7.16638 33.3272C-6.91494 33.1117 -6.77126 32.7884 -6.77126 32.4292C-6.77126 32.1059 -6.91494 31.7826 -7.16638 31.5671C-7.45375 31.3516 -7.77703 31.2438 -8.13623 31.2797L-10.3992 31.2438ZM0.556517 39.7929H-2.67632L1.45453 28.7653H5.04658L9.17743 39.7929H5.94459L5.40578 38.2124H1.0594L0.556517 39.7929ZM3.28647 31.5671L1.88557 35.698H4.68737L3.28647 31.5671ZM26.7425 39.7929H23.9048V30.7409C24.0485 31.2079 24.4436 31.4953 24.9465 31.4953H25.7008C25.9523 31.4953 26.2037 31.3875 26.4193 31.2438C26.5989 31.0642 26.7425 30.8487 26.7785 30.5972L26.7425 39.7929Z" fill="#050607"/>
<path d="M1300 64H-140V66H1300V64Z" fill="#E4E7EC" mask="url(#path-3-inside-1_205_7588)"/>
</g>
<path d="M-1954 -1086H13594V-1088H-1954V-1086ZM13595 -1085V5375H13597V-1085H13595ZM13594 5376H-1954V5378H13594V5376ZM-1955 5375V-1085H-1957V5375H-1955ZM-1954 5376C-1954.55 5376 -1955 5375.55 -1955 5375H-1957C-1957 5376.66 -1955.66 5378 -1954 5378V5376ZM13595 5375C13595 5375.55 13594.6 5376 13594 5376V5378C13595.7 5378 13597 5376.66 13597 5375H13595ZM13594 -1086C13594.6 -1086 13595 -1085.55 13595 -1085H13597C13597 -1086.66 13595.7 -1088 13594 -1088V-1086ZM-1954 -1088C-1955.66 -1088 -1957 -1086.66 -1957 -1085H-1955C-1955 -1085.55 -1954.55 -1086 -1954 -1086V-1088Z" fill="white" fill-opacity="0.1"/>
<defs>
<clipPath id="clip0_205_7588">
<rect width="1440" height="3476" fill="white" transform="translate(-140 -15)"/>
</clipPath>
</defs>
</svg>
