<svg width="33" height="32" viewBox="0 0 33 32" fill="none" xmlns="http://www.w3.org/2000/svg">
<rect x="0.333984" width="32" height="32" rx="8" fill="#90B7E2"/>
<path d="M11.1515 22.2237C10.2963 22.2204 9.56055 22.0099 8.94407 21.5923C8.33091 21.1747 7.85861 20.5698 7.52717 19.7777C7.19904 18.9856 7.03664 18.0327 7.03995 16.919C7.03995 15.8087 7.20401 14.8625 7.53214 14.0803C7.86358 13.2981 8.33588 12.7031 8.94904 12.2955C9.56552 11.8845 10.2997 11.679 11.1515 11.679C12.0033 11.679 12.7357 11.8845 13.3489 12.2955C13.9654 12.7064 14.4393 13.303 14.7708 14.0852C15.1022 14.8641 15.2663 15.8087 15.263 16.919C15.263 18.036 15.0972 18.9905 14.7658 19.7827C14.4377 20.5748 13.967 21.1797 13.3539 21.5973C12.7407 22.0149 12.0066 22.2237 11.1515 22.2237ZM11.1515 20.4389C11.7348 20.4389 12.2005 20.1456 12.5485 19.5589C12.8965 18.9723 13.0688 18.0923 13.0655 16.919C13.0655 16.1468 12.986 15.5038 12.8269 14.9901C12.6711 14.4763 12.449 14.0902 12.1607 13.8317C11.8757 13.5732 11.5392 13.4439 11.1515 13.4439C10.5714 13.4439 10.1074 13.7339 9.75941 14.3139C9.4114 14.8939 9.23574 15.7623 9.23242 16.919C9.23242 17.7012 9.31031 18.3542 9.46609 18.8778C9.62518 19.3982 9.8489 19.7893 10.1373 20.0511C10.4256 20.3097 10.7637 20.4389 11.1515 20.4389ZM17.0479 22V20.4489L20.6722 17.093C20.9805 16.7947 21.239 16.5263 21.4478 16.2876C21.6599 16.049 21.8207 15.8153 21.93 15.5866C22.0394 15.3546 22.0941 15.1044 22.0941 14.8359C22.0941 14.5376 22.0262 14.2808 21.8903 14.0653C21.7544 13.8466 21.5688 13.6792 21.3335 13.5632C21.0981 13.4439 20.8313 13.3842 20.533 13.3842C20.2215 13.3842 19.9497 13.4472 19.7177 13.5732C19.4857 13.6991 19.3067 13.8797 19.1808 14.1151C19.0548 14.3504 18.9918 14.6304 18.9918 14.9553H16.9485C16.9485 14.2891 17.0993 13.7107 17.4009 13.2202C17.7025 12.7296 18.1251 12.3501 18.6687 12.0817C19.2122 11.8132 19.8387 11.679 20.5479 11.679C21.2771 11.679 21.9118 11.8082 22.4521 12.0668C22.9956 12.322 23.4182 12.6766 23.7198 13.1307C24.0214 13.5848 24.1722 14.1051 24.1722 14.6918C24.1722 15.0762 24.096 15.4557 23.9435 15.8303C23.7944 16.2048 23.5276 16.6207 23.1431 17.0781C22.7586 17.5322 22.2167 18.0774 21.5174 18.7138L20.0309 20.1705V20.2401H24.3065V22H17.0479Z" fill="white"/>
</svg>
