<svg width="33" height="32" viewBox="0 0 33 32" fill="none" xmlns="http://www.w3.org/2000/svg">
<rect x="0.666016" width="32" height="32" rx="8" fill="#90B7E2"/>
<path d="M10.9835 22.2237C10.1284 22.2204 9.39258 22.0099 8.7761 21.5923C8.16294 21.1747 7.69064 20.5698 7.3592 19.7777C7.03107 18.9856 6.86867 18.0327 6.87198 16.919C6.87198 15.8087 7.03604 14.8625 7.36417 14.0803C7.69561 13.2981 8.16791 12.7031 8.78107 12.2955C9.39755 11.8845 10.1317 11.679 10.9835 11.679C11.8353 11.679 12.5678 11.8845 13.1809 12.2955C13.7974 12.7064 14.2714 13.303 14.6028 14.0852C14.9342 14.8641 15.0983 15.8087 15.095 16.919C15.095 18.036 14.9293 18.9905 14.5978 19.7827C14.2697 20.5748 13.7991 21.1797 13.1859 21.5973C12.5727 22.0149 11.8386 22.2237 10.9835 22.2237ZM10.9835 20.4389C11.5668 20.4389 12.0325 20.1456 12.3805 19.5589C12.7285 18.9723 12.9009 18.0923 12.8975 16.919C12.8975 16.1468 12.818 15.5038 12.6589 14.9901C12.5031 14.4763 12.2811 14.0902 11.9927 13.8317C11.7077 13.5732 11.3713 13.4439 10.9835 13.4439C10.4035 13.4439 9.93945 13.7339 9.59144 14.3139C9.24343 14.8939 9.06777 15.7623 9.06445 16.919C9.06445 17.7012 9.14234 18.3542 9.29812 18.8778C9.45721 19.3982 9.68093 19.7893 9.96928 20.0511C10.2576 20.3097 10.5957 20.4389 10.9835 20.4389ZM20.6435 22.1392C19.901 22.1392 19.2398 22.0116 18.6598 21.7564C18.0831 21.4979 17.6274 21.1432 17.2926 20.6925C16.9612 20.2384 16.7905 19.7147 16.7805 19.1214H18.9482C18.9614 19.37 19.0426 19.5888 19.1918 19.7777C19.3442 19.9633 19.5464 20.1075 19.7983 20.2102C20.0502 20.313 20.3336 20.3643 20.6484 20.3643C20.9766 20.3643 21.2666 20.3063 21.5185 20.1903C21.7704 20.0743 21.9676 19.9136 22.1101 19.7081C22.2526 19.5026 22.3239 19.2656 22.3239 18.9972C22.3239 18.7254 22.2476 18.4851 22.0952 18.2763C21.946 18.0642 21.7306 17.8984 21.4489 17.7791C21.1705 17.6598 20.839 17.6001 20.4545 17.6001H19.505V16.0192H20.4545C20.7794 16.0192 21.0661 15.9628 21.3146 15.8501C21.5665 15.7375 21.7621 15.5817 21.9013 15.3828C22.0405 15.1806 22.1101 14.9453 22.1101 14.6768C22.1101 14.4216 22.0488 14.1979 21.9261 14.0057C21.8068 13.8101 21.6378 13.6577 21.419 13.5483C21.2036 13.4389 20.9517 13.3842 20.6634 13.3842C20.3717 13.3842 20.1049 13.4373 19.8629 13.5433C19.621 13.6461 19.4271 13.7936 19.2812 13.9858C19.1354 14.178 19.0575 14.4034 19.0476 14.6619H16.9844C16.9943 14.0753 17.1617 13.5582 17.4865 13.1108C17.8113 12.6634 18.2488 12.3137 18.799 12.0618C19.3525 11.8066 19.9773 11.679 20.6733 11.679C21.3759 11.679 21.9908 11.8066 22.5178 12.0618C23.0447 12.317 23.4541 12.6617 23.7457 13.0959C24.0407 13.5268 24.1866 14.0107 24.1832 14.5476C24.1866 15.1177 24.0092 15.5933 23.6513 15.9744C23.2966 16.3556 22.8343 16.5975 22.2642 16.7003V16.7798C23.0133 16.8759 23.5833 17.1361 23.9744 17.5604C24.3688 17.9813 24.5644 18.5083 24.5611 19.1413C24.5644 19.7214 24.397 20.2367 24.0589 20.6875C23.7242 21.1383 23.2618 21.4929 22.6719 21.7514C22.0819 22.0099 21.4058 22.1392 20.6435 22.1392Z" fill="white"/>
</svg>
