<svg width="32" height="32" viewBox="0 0 32 32" fill="none" xmlns="http://www.w3.org/2000/svg">
<rect width="32" height="32" rx="8" fill="#90B7E2"/>
<path d="M11.8175 22.2237C10.9624 22.2204 10.2266 22.0099 9.61009 21.5923C8.99692 21.1747 8.52462 20.5698 8.19318 19.7777C7.86506 18.9856 7.70265 18.0327 7.70597 16.919C7.70597 15.8087 7.87003 14.8625 8.19815 14.0803C8.52959 13.2981 9.00189 12.7031 9.61506 12.2955C10.2315 11.8845 10.9657 11.679 11.8175 11.679C12.6693 11.679 13.4018 11.8845 14.0149 12.2955C14.6314 12.7064 15.1054 13.303 15.4368 14.0852C15.7682 14.8641 15.9323 15.8087 15.929 16.919C15.929 18.036 15.7633 18.9905 15.4318 19.7827C15.1037 20.5748 14.633 21.1797 14.0199 21.5973C13.4067 22.0149 12.6726 22.2237 11.8175 22.2237ZM11.8175 20.4389C12.4008 20.4389 12.8665 20.1456 13.2145 19.5589C13.5625 18.9723 13.7348 18.0923 13.7315 16.919C13.7315 16.1468 13.652 15.5038 13.4929 14.9901C13.3371 14.4763 13.1151 14.0902 12.8267 13.8317C12.5417 13.5732 12.2053 13.4439 11.8175 13.4439C11.2375 13.4439 10.7734 13.7339 10.4254 14.3139C10.0774 14.8939 9.90175 15.7623 9.89844 16.919C9.89844 17.7012 9.97633 18.3542 10.1321 18.8778C10.2912 19.3982 10.5149 19.7893 10.8033 20.0511C11.0916 20.3097 11.4297 20.4389 11.8175 20.4389ZM22.1436 11.8182V22H19.9909V13.8615H19.9313L17.5996 15.3232V13.4141L20.1202 11.8182H22.1436Z" fill="white"/>
</svg>
