<svg width="25" height="25" viewBox="0 0 25 25" fill="none" xmlns="http://www.w3.org/2000/svg">
<g clip-path="url(#clip0_834_1213)">
<path d="M16.1876 3.71334L4.91847 6.72759C4.02936 6.96541 3.50172 7.8777 3.73996 8.76526L6.75951 20.0146C6.99775 20.9022 7.91165 21.4289 8.80076 21.1911L20.0699 18.1768C20.959 17.939 21.4866 17.0267 21.2484 16.1391L18.2288 4.88978C17.9906 4.00223 17.0767 3.47552 16.1876 3.71334Z" stroke="white" stroke-width="1.66667" stroke-linecap="round" stroke-linejoin="round"/>
<path d="M9.24606 11.5984C9.91289 11.42 10.3086 10.7358 10.1299 10.0701C9.95126 9.40446 9.26584 9.00942 8.59901 9.18779C7.93218 9.36615 7.53645 10.0504 7.71513 10.716C7.8938 11.3817 8.57922 11.7767 9.24606 11.5984Z" stroke="white" stroke-width="1.66667" stroke-linecap="round" stroke-linejoin="round"/>
<path d="M20.3861 12.9253L15.283 9.98419L8.80122 21.1913" stroke="white" stroke-width="1.66667" stroke-linecap="round" stroke-linejoin="round"/>
</g>
<defs>
<clipPath id="clip0_834_1213">
<rect width="19.9977" height="19.9673" fill="white" transform="matrix(0.966039 -0.258395 0.259243 0.965812 0.24707 5.39355)"/>
</clipPath>
</defs>
</svg>
