<svg width="159" height="6" viewBox="0 0 159 6" fill="none" xmlns="http://www.w3.org/2000/svg">
<g id="Underline marker brush">
<path id="Vector" fill-rule="evenodd" clip-rule="evenodd" d="M158.822 4.26095C158.889 4.08477 158.969 3.89155 158.88 3.704C159.067 3.39143 159.018 3.17547 158.853 2.88562C158.786 2.87426 158.723 2.87994 158.665 2.89131L158.661 2.88562C158.594 2.87426 158.531 2.87994 158.473 2.89131L158.469 2.88562C158.402 2.87426 158.339 2.87994 158.281 2.89131L158.277 2.88562C158.263 2.88562 158.25 2.88563 158.236 2.87994C158.277 2.78333 158.312 2.67535 158.361 2.5901C158.375 2.63557 158.397 2.66966 158.433 2.68671C158.46 2.61852 158.5 2.56737 158.54 2.51622C158.545 2.60147 158.571 2.6583 158.625 2.68671C158.714 2.46507 158.947 2.38551 158.911 2.10135C158.88 1.87402 158.598 1.62396 158.344 1.69784C158.281 1.6808 158.214 1.6808 158.152 1.69784C158.098 1.6808 158.04 1.68079 157.986 1.69216C158.022 1.35685 157.955 0.993131 157.799 0.765804C157.919 0.765804 157.799 0.646459 157.884 0.618043C157.758 0.527113 157.866 0.316836 157.776 0.203173C157.678 0.174757 157.638 0.0838267 157.584 0.00426237C157.526 -0.00142079 157.477 -0.00142079 157.428 0.00426237C157.379 -0.00142079 157.33 -0.00142079 157.285 0.00426237C157.236 -0.00142079 157.187 -0.00142079 157.142 0.00426237C157.093 -0.00142079 157.044 -0.00142079 156.999 0.00426237C156.95 -0.00142079 156.901 -0.00142079 156.856 0.00426237C156.807 -0.00142079 156.758 -0.00142079 156.713 0.00426237C156.664 -0.00142079 156.615 -0.00142079 156.57 0.00426237C156.521 -0.00142079 156.472 -0.00142079 156.428 0.00426237C156.378 -0.00142079 156.329 -0.00142079 156.285 0.00426237C156.235 -0.00142079 156.186 -0.00142079 156.142 0.00426237C156.093 -0.00142079 156.043 -0.00142079 155.999 0.00426237C155.95 -0.00142079 155.9 -0.00142079 155.856 0.00426237C155.807 -0.00142079 155.758 -0.00142079 155.713 0.00426237C155.664 -0.00142079 155.615 -0.00142079 155.57 0.00426237C155.521 -0.00142079 155.472 -0.00142079 155.427 0.00426237C155.378 -0.00142079 155.329 -0.00142079 155.284 0.00426237C155.235 -0.00142079 155.186 -0.00142079 155.141 0.00426237C155.092 -0.00142079 155.043 -0.00142079 154.998 0.00426237C154.949 -0.00142079 154.9 -0.00142079 154.855 0.00426237C154.806 -0.00142079 154.757 -0.00142079 154.712 0.00426237C154.663 -0.00142079 154.614 -0.00142079 154.569 0.00426237C154.52 -0.00142079 154.471 -0.00142079 154.427 0.00426237C154.377 -0.00142079 154.328 -0.00142079 154.284 0.00426237C154.235 -0.00142079 154.185 -0.00142079 154.141 0.00426237C154.092 -0.00142079 154.042 -0.00142079 153.998 0.00426237C153.949 -0.00142079 153.9 -0.00142079 153.855 0.00426237C153.806 -0.00142079 153.757 -0.00142079 153.712 0.00426237C153.663 -0.00142079 153.614 -0.00142079 153.569 0.00426237C153.52 -0.00142079 153.471 -0.00142079 153.426 0.00426237C153.377 -0.00142079 153.328 -0.00142079 153.283 0.00426237C153.234 -0.00142079 153.185 -0.00142079 153.14 0.00426237C153.091 -0.00142079 153.042 -0.00142079 152.997 0.00426237C152.948 -0.00142079 152.899 -0.00142079 152.854 0.00426237C152.805 -0.00142079 152.756 -0.00142079 152.711 0.00426237C152.662 -0.00142079 152.613 -0.00142079 152.569 0.00426237C152.519 -0.00142079 152.47 -0.00142079 152.426 0.00426237C152.376 -0.00142079 152.327 -0.00142079 152.283 0.00426237C152.234 -0.00142079 152.184 -0.00142079 152.14 0.00426237C152.091 -0.00142079 152.041 -0.00142079 151.997 0.00426237C151.948 -0.00142079 151.899 -0.00142079 151.854 0.00426237C151.805 -0.00142079 151.756 -0.00142079 151.711 0.00426237C151.662 -0.00142079 151.613 -0.00142079 151.568 0.00426237C151.519 -0.00142079 151.47 -0.00142079 151.425 0.00426237C151.376 -0.00142079 151.327 -0.00142079 151.282 0.00426237C151.233 -0.00142079 151.184 -0.00142079 151.139 0.00426237C151.09 -0.00142079 151.041 -0.00142079 150.996 0.00426237C150.947 -0.00142079 150.898 -0.00142079 150.853 0.00426237C150.804 -0.00142079 150.755 -0.00142079 150.711 0.00426237C150.661 -0.00142079 150.612 -0.00142079 150.568 0.00426237C150.518 -0.00142079 150.469 -0.00142079 150.425 0.00426237C150.376 -0.00142079 150.326 -0.00142079 150.282 0.00426237C150.233 -0.00142079 150.183 -0.00142079 150.139 0.00426237C150.09 -0.00142079 150.041 -0.00142079 149.996 0.00426237C149.947 -0.00142079 149.898 -0.00142079 149.853 0.00426237C149.804 -0.00142079 149.755 -0.00142079 149.71 0.00426237C149.661 -0.00142079 149.612 -0.00142079 149.567 0.00426237C149.518 -0.00142079 149.469 -0.00142079 149.424 0.00426237C149.375 -0.00142079 149.326 -0.00142079 149.281 0.00426237C149.232 -0.00142079 149.183 -0.00142079 149.138 0.00426237C149.089 -0.00142079 149.04 -0.00142079 148.995 0.00426237C148.946 -0.00142079 148.897 -0.00142079 148.852 0.00426237C148.803 -0.00142079 148.754 -0.00142079 148.71 0.00426237C148.66 -0.00142079 148.611 -0.00142079 148.567 0.00426237C148.518 -0.00142079 148.468 -0.00142079 148.424 0.00426237C148.375 -0.00142079 148.325 -0.00142079 148.281 0.00426237C148.232 -0.00142079 148.183 -0.00142079 148.138 0.00426237C148.089 -0.00142079 148.04 -0.00142079 147.995 0.00426237C147.946 -0.00142079 147.897 -0.00142079 147.852 0.00426237C147.803 -0.00142079 147.754 -0.00142079 147.709 0.00426237C147.66 -0.00142079 147.611 -0.00142079 147.566 0.00426237C147.517 -0.00142079 147.468 -0.00142079 147.423 0.00426237C147.374 -0.00142079 147.325 -0.00142079 147.28 0.00426237C147.231 -0.00142079 147.182 -0.00142079 147.137 0.00426237C147.088 -0.00142079 147.039 -0.00142079 146.994 0.00426237C146.945 -0.00142079 146.896 -0.00142079 146.852 0.00426237C146.802 -0.00142079 146.753 -0.00142079 146.709 0.00426237C146.659 -0.00142079 146.61 -0.00142079 146.566 0.00426237C146.517 -0.00142079 146.467 -0.00142079 146.423 0.00426237C146.374 -0.00142079 146.324 -0.00142079 146.28 0.00426237C146.231 -0.00142079 146.182 -0.00142079 146.137 0.00426237C146.088 -0.00142079 146.039 -0.00142079 145.994 0.00426237C145.945 -0.00142079 145.896 -0.00142079 145.851 0.00426237C145.802 -0.00142079 145.753 -0.00142079 145.708 0.00426237C145.659 -0.00142079 145.61 -0.00142079 145.565 0.00426237C145.516 -0.00142079 145.467 -0.00142079 145.422 0.00426237C145.373 -0.00142079 145.324 -0.00142079 145.279 0.00426237C145.23 -0.00142079 145.181 -0.00142079 145.136 0.00426237C145.087 -0.00142079 145.038 -0.00142079 144.993 0.00426237C144.944 -0.00142079 144.895 -0.00142079 144.851 0.00426237C144.801 -0.00142079 144.752 -0.00142079 144.708 0.00426237C144.659 -0.00142079 144.609 -0.00142079 144.565 0.00426237C144.516 -0.00142079 144.466 -0.00142079 144.422 0.00426237C144.373 -0.00142079 144.324 -0.00142079 144.279 0.00426237C144.23 -0.00142079 144.181 -0.00142079 144.136 0.00426237C144.087 -0.00142079 144.038 -0.00142079 143.993 0.00426237C143.944 -0.00142079 143.895 -0.00142079 143.85 0.00426237C143.801 -0.00142079 143.752 -0.00142079 143.707 0.00426237C143.658 -0.00142079 143.609 -0.00142079 143.564 0.00426237C143.515 -0.00142079 143.466 -0.00142079 143.421 0.00426237C143.372 -0.00142079 143.323 -0.00142079 143.278 0.00426237C143.229 -0.00142079 143.18 -0.00142079 143.135 0.00426237C143.086 -0.00142079 143.037 -0.00142079 142.993 0.00426237C142.943 -0.00142079 142.894 -0.00142079 142.85 0.00426237C142.8 -0.00142079 142.751 -0.00142079 142.707 0.00426237C142.658 -0.00142079 142.608 -0.00142079 142.564 0.00426237C142.515 -0.00142079 142.466 -0.00142079 142.421 0.00426237C142.372 -0.00142079 142.323 -0.00142079 142.278 0.00426237C142.229 -0.00142079 15.8066 -0.00142079 15.762 0.00426237C15.7128 -0.00142079 15.6637 -0.00142079 15.619 0.00426237C15.5699 -0.00142079 15.5208 -0.00142079 15.4761 0.00426237C15.427 -0.00142079 15.3779 -0.00142079 15.3332 0.00426237C15.2841 -0.00142079 15.2349 -0.00142079 15.1903 0.00426237C15.1411 -0.00142079 15.092 -0.00142079 15.0473 0.00426237C14.9982 -0.00142079 14.9491 -0.00142079 14.9044 0.00426237C14.8553 -0.00142079 14.8061 -0.00142079 14.7615 0.00426237C14.7124 -0.00142079 14.6632 -0.00142079 14.6186 0.00426237C14.5694 -0.00142079 14.5203 -0.00142079 14.4756 0.00426237C14.4265 -0.00142079 14.3774 -0.00142079 14.3327 0.00426237C14.2836 -0.00142079 14.2344 -0.00142079 14.1898 0.00426237C14.1407 -0.00142079 14.0915 -0.00142079 14.0469 0.00426237C13.9977 -0.00142079 13.9486 -0.00142079 13.9039 0.00426237C13.8548 -0.00142079 13.8057 -0.00142079 13.761 0.00426237C13.7119 -0.00142079 13.6627 -0.00142079 13.6181 0.00426237C13.569 -0.00142079 13.5198 -0.00142079 13.4752 0.00426237C13.426 -0.00142079 13.3769 -0.00142079 13.3322 0.00426237C13.2831 -0.00142079 13.234 -0.00142079 13.1893 0.00426237C13.1402 -0.00142079 13.091 -0.00142079 13.0464 0.00426237C12.9973 -0.00142079 12.9481 -0.00142079 12.9035 0.00426237C12.8543 -0.00142079 12.8052 -0.00142079 12.7605 0.00426237C12.7114 -0.00142079 12.6623 -0.00142079 12.6176 0.00426237C12.5685 -0.00142079 12.5193 -0.00142079 12.4747 0.00426237C12.4256 -0.00142079 12.3764 -0.00142079 12.3318 0.00426237C12.2826 -0.00142079 12.2335 -0.00142079 12.1888 0.00426237C12.1397 -0.00142079 12.0906 -0.00142079 12.0459 0.00426237C11.9968 -0.00142079 11.9476 -0.00142079 11.903 0.00426237C11.8539 -0.00142079 11.8047 -0.00142079 11.7601 0.00426237C11.7109 -0.00142079 11.6618 -0.00142079 11.6171 0.00426237C11.568 -0.00142079 11.5189 -0.00142079 11.4742 0.00426237C11.4251 -0.00142079 11.3759 -0.00142079 11.3313 0.00426237C11.2821 -0.00142079 11.233 -0.00142079 11.1884 0.00426237C11.1392 -0.00142079 11.0901 -0.00142079 11.0454 0.00426237C10.9963 -0.00142079 10.9472 -0.00142079 10.9025 0.00426237C10.8534 -0.00142079 10.8042 -0.00142079 10.7596 0.00426237C10.7105 -0.00142079 10.6613 -0.00142079 10.6167 0.00426237C10.5675 -0.00142079 10.5184 -0.00142079 10.4737 0.00426237C10.4246 -0.00142079 10.3755 -0.00142079 10.3308 0.00426237C10.2817 -0.00142079 10.2325 -0.00142079 10.1879 0.00426237C10.1387 -0.00142079 10.0896 -0.00142079 10.045 0.00426237C9.99583 -0.00142079 9.94669 -0.00142079 9.90203 0.00426237C9.8529 -0.00142079 9.80377 -0.00142079 9.75911 0.00426237C9.70997 -0.00142079 9.66085 -0.00142079 9.61618 0.00426237C9.56705 -0.00142079 9.51792 -0.00142079 9.47325 0.00426237C9.42412 -0.00142079 9.375 -0.00142079 9.33033 0.00426237C9.2812 -0.00142079 9.23207 -0.00142079 9.1874 0.00426237C9.13827 -0.00142079 9.08914 -0.00142079 9.04448 0.00426237C8.99535 -0.00142079 8.94622 -0.00142079 8.90156 0.00426237C8.85243 -0.00142079 8.80329 -0.00142079 8.75863 0.00426237C8.7095 -0.00142079 8.66037 -0.00142079 8.61571 0.00426237C8.56658 -0.00142079 8.51744 -0.00142079 8.47278 0.00426237C8.42365 -0.00142079 8.37452 -0.00142079 8.32985 0.00426237C8.28072 -0.00142079 8.2316 -0.00142079 8.18693 0.00426237C8.1378 -0.00142079 8.08867 -0.00142079 8.044 0.00426237C7.99487 -0.00142079 7.94574 -0.00142079 7.90108 0.00426237C7.85195 -0.00142079 7.80282 -0.00142079 7.75815 0.00426237C7.70902 -0.00142079 7.65989 -0.00142079 7.61523 0.00426237C7.5661 -0.00142079 7.51697 -0.00142079 7.47231 0.00426237C7.42318 -0.00142079 7.37404 -0.00142079 7.32938 0.00426237C7.28025 -0.00142079 7.23112 -0.00142079 7.18645 0.00426237C7.13732 -0.00142079 7.08819 -0.00142079 7.04353 0.00426237C6.9944 -0.00142079 6.94527 -0.00142079 6.9006 0.00426237C6.85147 -0.00142079 6.80234 -0.00142079 6.75768 0.00426237C6.70855 -0.00142079 6.65942 -0.00142079 6.61475 0.00426237C6.56562 -0.00142079 6.51649 -0.00142079 6.47183 0.00426237C6.4227 -0.00142079 6.37356 -0.00142079 6.3289 0.00426237C6.27977 -0.00142079 6.23064 -0.00142079 6.18598 0.00426237C6.13685 -0.00142079 6.08772 -0.00142079 6.04305 0.00426237C5.99392 -0.00142079 5.94479 -0.00142079 5.90013 0.00426237C5.851 -0.00142079 5.80187 -0.00142079 5.7572 0.00426237C5.70807 -0.00142079 5.65894 -0.00142079 5.61427 0.00426237C5.56514 -0.00142079 5.51602 -0.00142079 5.47135 0.00426237C5.42222 -0.00142079 5.37309 -0.00142079 5.32843 0.00426237C5.2793 -0.00142079 5.23016 -0.00142079 5.1855 0.00426237C5.13637 -0.00142079 5.08724 -0.00142079 5.04258 0.00426237C4.99345 -0.00142079 4.94431 -0.00142079 4.89965 0.00426237C4.85052 -0.00142079 4.80139 -0.00142079 4.75673 0.00426237C4.7076 -0.00142079 4.65847 -0.00142079 4.6138 0.00426237C4.56467 -0.00142079 4.51554 -0.00142079 4.47087 0.00426237C4.42174 -0.00142079 4.37262 -0.00142079 4.32795 0.00426237C4.27882 -0.00142079 4.22969 -0.00142079 4.18503 0.00426237C4.1359 -0.00142079 4.08676 -0.00142079 4.0421 0.00426237C3.99297 -0.00142079 3.94384 -0.00142079 3.89918 0.00426237C3.85004 -0.00142079 3.80091 -0.00142079 3.75625 0.00426237C3.70712 -0.00142079 3.65799 -0.00142079 3.61333 0.00426237C3.5642 -0.00142079 3.51506 -0.00142079 3.4704 0.00426237C3.42127 -0.00142079 3.37214 -0.00142079 3.32748 0.00426237C3.27834 -0.00142079 3.22921 -0.00142079 3.18455 0.00426237C3.13542 -0.00142079 3.08629 -0.00142079 3.04162 0.00426237C2.99249 -0.00142079 2.94337 -0.00142079 2.8987 0.00426237C2.84957 -0.00142079 2.80044 -0.00142079 2.75578 0.00426237C2.70664 -0.00142079 2.65751 -0.00142079 2.61285 0.00426237C2.56372 -0.00142079 2.51459 -0.00142079 2.46992 0.00426237C2.42079 -0.00142079 2.37166 -0.00142079 2.327 0.00426237C2.27787 -0.00142079 2.22874 -0.00142079 2.18408 0.00426237C2.13494 -0.00142079 2.08581 -0.00142079 2.04115 0.00426237C1.99202 -0.00142079 1.94289 -0.00142079 1.89822 0.00426237C1.84909 -0.00142079 1.79996 -0.00142079 1.7553 0.00426237C1.70617 -0.00142079 1.65704 -0.00142079 1.61237 0.00426237C1.56324 -0.00142079 1.51411 -0.00142079 1.46945 0.00426237C1.42032 -0.00142079 1.37119 -0.00142079 1.32652 0.00426237C1.27739 -0.00142079 1.22826 -0.00142079 1.1836 0.00426237C1.13447 -0.00142079 1.08534 -0.00142079 1.04067 0.00426237C0.991542 -0.00142079 0.942411 -0.00142079 0.897747 0.00426237C0.848617 -0.00142079 0.799488 -0.00142079 0.754824 0.00426237C0.509172 -0.0241534 0.357314 0.100873 0.107195 0.129289C0.0446652 0.271368 0.075929 0.407764 0 0.498695C0.022332 0.635091 0.11166 0.697606 0.192055 0.765804C0.16079 0.799903 0.178656 0.87947 0.147391 0.913569C0.22332 0.953351 0.250118 0.907883 0.317114 0.936299C0.317114 0.930616 0.317114 0.924932 0.317114 0.924932C0.366244 0.941982 0.393045 0.919251 0.433242 0.930617C0.428776 0.964716 0.424309 0.998813 0.424309 1.0386C0.281384 0.941982 0.254586 1.25456 0.254586 1.26024C0.254586 1.26592 0.209922 1.23182 0.209922 1.23751C0.169724 1.53871 0.500238 1.76036 0.401977 2.09567C0.428775 2.12408 0.477907 2.12408 0.531504 2.1184C0.540437 2.23774 0.513637 2.43666 0.446641 2.53327C0.473439 2.59579 0.531504 2.61283 0.531504 2.70377C0.477907 2.86858 0.339446 2.79469 0.317114 2.99929C0.393043 3.0277 0.473439 3.05044 0.446641 3.19252C0.531503 3.23798 0.620832 3.24367 0.701227 3.2323C0.750357 3.23798 0.795022 3.23798 0.844153 3.2323C0.893283 3.23798 0.937945 3.23798 0.987075 3.2323C1.03621 3.23798 1.08087 3.23798 1.13 3.2323C1.17913 3.23798 1.2238 3.23798 1.27293 3.2323C1.32206 3.23798 1.36672 3.23798 1.41585 3.2323C1.46498 3.23798 1.50965 3.23798 1.55878 3.2323C1.60791 3.23798 1.65257 3.23798 1.7017 3.2323C1.75083 3.23798 1.7955 3.23798 1.84463 3.2323C1.89376 3.23798 1.93842 3.23798 1.98755 3.2323C2.03668 3.23798 2.08135 3.23798 2.13048 3.2323C2.17961 3.23798 2.22427 3.23798 2.2734 3.2323C2.30913 3.23798 2.3404 3.23798 2.37613 3.23798C2.327 3.28913 2.29127 3.35164 2.29127 3.45394C2.26894 3.52214 2.4074 3.59034 2.4074 3.68127C2.40293 3.85744 2.38953 3.76083 2.49226 3.90859C2.51012 3.93701 2.47439 4.01658 2.49226 4.03931C2.53245 4.09614 2.58158 4.05067 2.63518 4.13592C2.71558 4.27232 2.73791 4.51101 2.94783 4.56216C2.82724 4.7156 2.79151 4.81222 2.74684 5.11911C2.67091 5.09069 2.53245 5.23277 2.40293 5.24982C2.44759 5.39758 2.40293 5.47146 2.40293 5.64196C2.62625 5.70447 2.78257 5.80677 2.94337 6C3.00143 6 3.05503 5.98295 3.09969 5.96022C3.11309 5.97158 3.12202 5.98295 3.13542 6C3.19348 6 3.24708 5.98295 3.29174 5.96022C3.30514 5.97158 3.31408 5.98295 3.32748 6C3.38554 6 3.43914 5.98295 3.4838 5.96022C3.4972 5.97158 3.50613 5.98295 3.51953 6C3.57759 6 3.63119 5.98295 3.67585 5.96022C3.68925 5.97158 3.69819 5.98295 3.71159 6C3.76965 6 3.82325 5.98295 3.86791 5.96022C3.88131 5.97158 3.89024 5.98295 3.90364 6C3.96171 6 4.0153 5.98295 4.05997 5.96022C4.07337 5.97158 4.0823 5.98295 4.0957 6C4.15376 6 4.20736 5.98295 4.25202 5.96022C4.26542 5.97158 4.27435 5.98295 4.28775 6C4.34582 6 4.39941 5.98295 4.44408 5.96022C4.45748 5.97158 4.46641 5.98295 4.47981 6C4.53787 6 4.59147 5.98295 4.63614 5.96022C4.64953 5.97158 4.65846 5.98295 4.67186 6C4.72993 6 4.78352 5.98295 4.82819 5.96022C4.84159 5.97158 4.85052 5.98295 4.86392 6C4.92198 6 4.97558 5.98295 5.02025 5.96022C5.03364 5.97158 5.04257 5.98295 5.05597 6C5.11404 6 5.16763 5.98295 5.2123 5.96022C5.2257 5.97158 5.23463 5.98295 5.24803 6C5.30609 6 5.35969 5.98295 5.40436 5.96022C5.41776 5.97158 5.42669 5.98295 5.44009 6C5.49815 6 5.55175 5.98295 5.59641 5.96022C5.60981 5.97158 5.61874 5.98295 5.63214 6C5.69021 6 5.7438 5.98295 5.78847 5.96022C5.80187 5.97158 5.8108 5.98295 5.8242 6C5.88226 6 5.93586 5.98295 5.98052 5.96022C5.99392 5.97158 6.00285 5.98295 6.01625 6C6.07431 6 6.12791 5.98295 6.17258 5.96022C6.18598 5.97158 6.19491 5.98295 6.20831 6C6.26637 6 6.31997 5.98295 6.36463 5.96022C6.37803 5.97158 6.38697 5.98295 6.40037 6C6.45843 6 6.51203 5.98295 6.55669 5.96022C6.57009 5.97158 6.57902 5.98295 6.59242 6C6.65048 6 6.70408 5.98295 6.74874 5.96022C6.76214 5.97158 6.77108 5.98295 6.78448 6C6.84254 6 6.89614 5.98295 6.9408 5.96022C6.9542 5.97158 6.96313 5.98295 6.97653 6C7.03459 6 7.08819 5.98295 7.13285 5.96022C7.14625 5.97158 7.15519 5.98295 7.16859 6C7.22665 6 7.28025 5.98295 7.32491 5.96022C7.33831 5.97158 7.34725 5.98295 7.36065 6C7.41871 6 7.47231 5.98295 7.51697 5.96022C7.53037 5.97158 7.5393 5.98295 7.5527 6C7.61076 6 7.66436 5.98295 7.70902 5.96022C7.72242 5.97158 7.73136 5.98295 7.74476 6C7.80282 6 7.85642 5.98295 7.90108 5.96022C7.91448 5.97158 7.92341 5.98295 7.93681 6C7.99487 6 8.04847 5.98295 8.09313 5.96022C8.10653 5.97158 8.11547 5.98295 8.12887 6C8.18693 6 8.24053 5.98295 8.28519 5.96022C8.29859 5.97158 8.30752 5.98295 8.32092 6C8.37899 6 8.43258 5.98295 8.47725 5.96022C8.49065 5.97158 8.49958 5.98295 8.51298 6C8.57104 6 8.62464 5.98295 8.6693 5.96022C8.6827 5.97158 8.69163 5.98295 8.70503 6C8.7631 6 8.81669 5.98295 8.86136 5.96022C8.87476 5.97158 8.88369 5.98295 8.89709 6C8.95515 6 9.00875 5.98295 9.05341 5.96022C9.06681 5.97158 9.07574 5.98295 9.08914 6C9.14721 6 9.2008 5.98295 9.24547 5.96022C9.25887 5.97158 9.2678 5.98295 9.2812 6C9.33926 6 9.39286 5.98295 9.43753 5.96022C9.45093 5.97158 9.45985 5.98295 9.47325 6C9.53132 6 9.58491 5.98295 9.62958 5.96022C9.64298 5.97158 9.65191 5.98295 9.66531 6C9.72338 6 9.77697 5.98295 9.82164 5.96022C9.83503 5.97158 9.84396 5.98295 9.85736 6C9.91543 6 9.96902 5.98295 10.0137 5.96022C10.0271 5.97158 10.036 5.98295 10.0494 6C10.1075 6 10.1611 5.98295 10.2057 5.96022C10.2191 5.97158 10.2281 5.98295 10.2415 6C10.2995 6 10.3531 5.98295 10.3978 5.96022C10.4112 5.97158 10.4201 5.98295 10.4335 6C10.4916 6 10.5452 5.98295 10.5899 5.96022C10.6033 5.97158 10.6122 5.98295 10.6256 6C10.6837 6 10.7373 5.98295 10.7819 5.96022C10.7953 5.97158 10.8042 5.98295 10.8176 6C10.8757 6 10.9293 5.98295 10.974 5.96022C10.9874 5.97158 10.9963 5.98295 11.0097 6C11.0678 6 11.1214 5.98295 11.166 5.96022C11.1794 5.97158 11.1884 5.98295 11.2018 6C11.2598 6 11.3134 5.98295 11.3581 5.96022C11.3715 5.97158 11.3804 5.98295 11.3938 6C11.4519 6 11.5055 5.98295 11.5501 5.96022C11.5635 5.97158 11.5725 5.98295 11.5859 6C11.6439 6 11.6975 5.98295 11.7422 5.96022C11.7556 5.97158 11.7645 5.98295 11.7779 6C11.836 6 11.8896 5.98295 11.9342 5.96022C11.9476 5.97158 11.9566 5.98295 11.97 6C12.028 6 12.0816 5.98295 12.1263 5.96022C12.1397 5.97158 12.1486 5.98295 12.162 6C12.2201 6 12.2737 5.98295 12.3184 5.96022C12.3318 5.97158 12.3407 5.98295 12.3541 6C12.4122 6 12.4657 5.98295 12.5104 5.96022C12.5238 5.97158 12.5327 5.98295 12.5461 6C12.6042 6 12.6578 5.98295 12.7025 5.96022C12.7159 5.97158 12.7248 5.98295 12.7382 6C12.7963 6 12.8499 5.98295 12.8945 5.96022C12.9079 5.97158 12.9169 5.98295 12.9303 6C12.9883 6 13.0419 5.98295 13.0866 5.96022C13.1 5.97158 13.1089 5.98295 13.1223 6C13.1804 6 13.234 5.98295 13.2786 5.96022C13.292 5.97158 13.301 5.98295 13.3144 6C13.3724 6 13.426 5.98295 13.4707 5.96022C13.4841 5.97158 13.493 5.98295 13.5064 6C13.5645 6 13.6181 5.98295 13.6627 5.96022C13.6761 5.97158 13.6851 5.98295 13.6985 6C13.7565 6 13.8101 5.98295 13.8548 5.96022C13.8682 5.97158 13.8771 5.98295 13.8905 6C13.9486 6 14.0022 5.98295 14.0469 5.96022C14.0603 5.97158 14.0692 5.98295 14.0826 6C14.1407 6 14.1943 5.98295 14.2389 5.96022C14.2523 5.97158 14.2612 5.98295 14.2746 6C14.3327 6 14.3863 5.98295 14.431 5.96022C14.4444 5.97158 14.4533 5.98295 14.4667 6C14.5248 6 14.5784 5.98295 14.623 5.96022C14.6364 5.97158 14.6454 5.98295 14.6588 6C14.7168 6 14.7704 5.98295 14.8151 5.96022C14.8285 5.97158 14.8374 5.98295 14.8508 6C14.9089 6 14.9625 5.98295 15.0071 5.96022C15.0205 5.97158 15.0295 5.98295 15.0429 6C15.1009 6 15.1545 5.98295 15.1992 5.96022C15.2126 5.97158 15.2215 5.98295 15.2349 6C15.293 6 15.3466 5.98295 15.3912 5.96022C15.4046 5.97158 15.4136 5.98295 15.427 6C15.485 6 15.5386 5.98295 15.5833 5.96022C15.5967 5.97158 15.6056 5.98295 15.619 6C15.6771 6 15.7307 5.98295 15.7754 5.96022C15.7888 5.97158 142.171 5.98295 142.184 6C142.242 6 142.296 5.98295 142.34 5.96022C142.354 5.97158 142.461 5.94317 142.474 5.96022C142.532 5.96022 142.488 5.98295 142.533 5.96022C142.546 5.97158 142.624 5.96022 142.568 6C142.626 6 142.68 5.98295 142.725 5.96022C142.738 5.97158 142.747 5.98295 142.76 6C142.818 6 142.872 5.98295 142.917 5.96022C142.93 5.97158 142.939 5.98295 142.952 6C143.01 6 143.064 5.98295 143.109 5.96022C143.122 5.97158 143.131 5.98295 143.144 6C143.202 6 143.256 5.98295 143.301 5.96022C143.314 5.97158 143.323 5.98295 143.336 6C143.395 6 143.448 5.98295 143.493 5.96022C143.506 5.97158 143.515 5.98295 143.529 6C143.587 6 143.64 5.98295 143.685 5.96022C143.698 5.97158 143.707 5.98295 143.721 6C143.779 6 143.832 5.98295 143.877 5.96022C143.89 5.97158 143.899 5.98295 143.913 6C143.971 6 144.024 5.98295 144.069 5.96022C144.082 5.97158 144.091 5.98295 144.105 6C144.163 6 144.216 5.98295 144.261 5.96022C144.274 5.97158 144.283 5.98295 144.297 6C144.355 6 144.408 5.98295 144.453 5.96022C144.466 5.97158 144.475 5.98295 144.489 6C144.547 6 144.6 5.98295 144.645 5.96022C144.659 5.97158 144.667 5.98295 144.681 6C144.739 6 144.793 5.98295 144.837 5.96022C144.851 5.97158 144.86 5.98295 144.873 6C144.931 6 144.985 5.98295 145.029 5.96022C145.043 5.97158 145.052 5.98295 145.065 6C145.123 6 145.177 5.98295 145.221 5.96022C145.235 5.97158 145.244 5.98295 145.257 6C145.315 6 145.369 5.98295 145.413 5.96022C145.427 5.97158 145.436 5.98295 145.449 6C145.507 6 145.561 5.98295 145.605 5.96022C145.619 5.97158 145.628 5.98295 145.641 6C145.699 6 145.753 5.98295 145.797 5.96022C145.811 5.97158 145.82 5.98295 145.833 6C145.891 6 145.945 5.98295 145.99 5.96022C146.003 5.97158 146.012 5.98295 146.025 6C146.083 6 146.137 5.98295 146.182 5.96022C146.195 5.97158 146.204 5.98295 146.217 6C146.275 6 146.329 5.98295 146.374 5.96022C146.387 5.97158 146.396 5.98295 146.409 6C146.467 6 146.521 5.98295 146.566 5.96022C146.579 5.97158 146.588 5.98295 146.601 6C146.659 6 146.713 5.98295 146.758 5.96022C146.771 5.97158 146.78 5.98295 146.793 6C146.852 6 146.905 5.98295 146.95 5.96022C146.963 5.97158 146.972 5.98295 146.986 6C147.044 6 147.097 5.98295 147.142 5.96022C147.155 5.97158 147.164 5.98295 147.178 6C147.236 6 147.289 5.98295 147.334 5.96022C147.347 5.97158 147.356 5.98295 147.37 6C147.428 6 147.481 5.98295 147.526 5.96022C147.539 5.97158 147.548 5.98295 147.562 6C147.62 6 147.673 5.98295 147.718 5.96022C147.731 5.97158 147.74 5.98295 147.754 6C147.812 6 147.865 5.98295 147.91 5.96022C147.923 5.97158 147.932 5.98295 147.946 6C148.004 6 148.057 5.98295 148.102 5.96022C148.116 5.97158 148.124 5.98295 148.138 6C148.196 6 148.25 5.98295 148.294 5.96022C148.308 5.97158 148.317 5.98295 148.33 6C148.388 6 148.442 5.98295 148.486 5.96022C148.5 5.97158 148.509 5.98295 148.522 6C148.58 6 148.634 5.98295 148.678 5.96022C148.692 5.97158 148.701 5.98295 148.714 6C148.772 6 148.826 5.98295 148.87 5.96022C148.884 5.97158 148.893 5.98295 148.906 6C148.964 6 149.018 5.98295 149.062 5.96022C149.076 5.97158 149.085 5.98295 149.098 6C149.156 6 149.21 5.98295 149.254 5.96022C149.268 5.97158 149.277 5.98295 149.29 6C149.348 6 149.402 5.98295 149.447 5.96022C149.46 5.97158 149.469 5.98295 149.482 6C149.54 6 149.594 5.98295 149.639 5.96022C149.652 5.97158 149.661 5.98295 149.674 6C149.732 6 149.786 5.98295 149.831 5.96022C149.844 5.97158 149.853 5.98295 149.866 6C149.924 6 149.978 5.98295 150.023 5.96022C150.036 5.97158 150.045 5.98295 150.058 6C150.116 6 150.17 5.98295 150.215 5.96022C150.228 5.97158 150.237 5.98295 150.25 6C150.309 6 150.362 5.98295 150.407 5.96022C150.42 5.97158 150.429 5.98295 150.443 6C150.501 6 150.554 5.98295 150.599 5.96022C150.612 5.97158 150.621 5.98295 150.635 6C150.693 6 150.746 5.98295 150.791 5.96022C150.804 5.97158 150.813 5.98295 150.827 6C150.885 6 150.938 5.98295 150.983 5.96022C150.996 5.97158 151.005 5.98295 151.019 6C151.077 6 151.13 5.98295 151.175 5.96022C151.188 5.97158 151.197 5.98295 151.211 6C151.269 6 151.322 5.98295 151.367 5.96022C151.38 5.97158 151.389 5.98295 151.403 6C151.461 6 151.514 5.98295 151.559 5.96022C151.573 5.97158 151.581 5.98295 151.595 6C151.653 6 151.707 5.98295 151.751 5.96022C151.765 5.97158 151.774 5.98295 151.787 6C151.845 6 151.899 5.98295 151.943 5.96022C151.957 5.97158 151.966 5.98295 151.979 6C152.037 6 152.091 5.98295 152.135 5.96022C152.149 5.97158 152.158 5.98295 152.171 6C152.229 6 152.283 5.98295 152.327 5.96022C152.341 5.97158 152.35 5.98295 152.363 6C152.421 6 152.475 5.98295 152.519 5.96022C152.533 5.97158 152.542 5.98295 152.555 6C152.613 6 152.667 5.98295 152.711 5.96022C152.725 5.97158 152.734 5.98295 152.747 6C152.805 6 152.859 5.98295 152.904 5.96022C152.917 5.97158 152.926 5.98295 152.939 6C152.997 6 153.051 5.98295 153.096 5.96022C153.109 5.97158 153.118 5.98295 153.131 6C153.189 6 153.243 5.98295 153.288 5.96022C153.301 5.97158 153.31 5.98295 153.323 6C153.381 6 153.435 5.98295 153.48 5.96022C153.493 5.97158 153.502 5.98295 153.515 6C153.573 6 153.627 5.98295 153.672 5.96022C153.685 5.97158 153.694 5.98295 153.707 6C153.766 6 153.819 5.98295 153.864 5.96022C153.877 5.97158 153.886 5.98295 153.9 6C153.958 6 154.011 5.98295 154.056 5.96022C154.069 5.97158 154.078 5.98295 154.092 6C154.15 6 154.203 5.98295 154.248 5.96022C154.261 5.97158 154.27 5.98295 154.284 6C154.342 6 154.395 5.98295 154.44 5.96022C154.453 5.97158 154.462 5.98295 154.476 6C154.534 6 154.587 5.98295 154.632 5.96022C154.645 5.97158 154.654 5.98295 154.668 6C154.726 6 154.779 5.98295 154.824 5.96022C154.837 5.97158 154.846 5.98295 154.86 6C154.918 6 154.971 5.98295 155.016 5.96022C155.03 5.97158 155.038 5.98295 155.052 6C155.11 6 155.164 5.98295 155.208 5.96022C155.222 5.97158 155.231 5.98295 155.244 6C155.302 6 155.356 5.98295 155.4 5.96022C155.414 5.97158 155.423 5.98295 155.436 6C155.494 6 155.548 5.98295 155.592 5.96022C155.606 5.97158 155.615 5.98295 155.628 6C155.686 6 155.74 5.98295 155.784 5.96022C155.798 5.97158 155.807 5.98295 155.82 6C155.878 6 155.932 5.98295 155.976 5.96022C155.99 5.97158 155.999 5.98295 156.012 6C156.07 6 156.124 5.98295 156.168 5.96022C156.182 5.97158 156.191 5.98295 156.204 6C156.262 6 156.316 5.98295 156.361 5.96022C156.374 5.97158 156.383 5.98295 156.396 6C156.454 6 156.508 5.98295 156.553 5.96022C156.566 5.97158 156.575 5.98295 156.588 6C156.646 6 156.7 5.98295 156.745 5.96022C156.758 5.97158 156.767 5.98295 156.78 6C156.838 6 156.892 5.98295 156.937 5.96022C156.95 5.97158 156.959 5.98295 156.972 6C157.03 6 157.084 5.98295 157.129 5.96022C157.142 5.97158 157.151 5.98295 157.164 6C157.223 6 157.276 5.98295 157.321 5.96022C157.334 5.97158 157.343 5.98295 157.357 6C157.415 6 157.468 5.98295 157.513 5.96022C157.526 5.97158 157.535 5.98295 157.549 6C157.607 6 157.66 5.98295 157.705 5.96022C157.718 5.97158 157.727 5.98295 157.741 6C157.986 6 158.107 5.74426 158.339 5.64196C158.348 5.52261 158.402 5.36917 158.281 5.28392C158.42 5.37485 158.495 5.23277 158.567 5.15321C158.924 4.92588 159.04 4.60194 158.822 4.26095Z" fill="#F1B99B"/>
</g>
</svg>
