<svg width="228" height="4" viewBox="0 0 228 4" fill="none" xmlns="http://www.w3.org/2000/svg">
<g id="Underline marker brush">
<path id="Vector" fill-rule="evenodd" clip-rule="evenodd" d="M227.744 2.75645C227.84 2.66836 227.955 2.57175 227.827 2.47798C228.096 2.32169 228.026 2.21371 227.789 2.06879C227.693 2.06311 227.603 2.06595 227.52 2.07163L227.513 2.06879C227.417 2.06311 227.328 2.06595 227.244 2.07163L227.238 2.06879C227.142 2.06311 227.052 2.06595 226.969 2.07163L226.963 2.06879C226.943 2.06879 226.924 2.06879 226.905 2.06595C226.963 2.01764 227.014 1.96365 227.084 1.92103C227.104 1.94376 227.136 1.96081 227.187 1.96933C227.225 1.93523 227.283 1.90966 227.341 1.88409C227.347 1.92671 227.385 1.95513 227.462 1.96933C227.59 1.85851 227.923 1.81873 227.872 1.67665C227.827 1.56299 227.424 1.43796 227.059 1.4749C226.969 1.46637 226.873 1.46637 226.783 1.4749C226.707 1.46637 226.623 1.46637 226.546 1.47206C226.598 1.3044 226.502 1.12254 226.277 1.00888C226.45 1.00888 226.277 0.949206 226.399 0.934998C226.22 0.889533 226.373 0.784395 226.245 0.727563C226.104 0.713355 226.047 0.66789 225.97 0.628108C225.887 0.625266 225.816 0.625266 225.746 0.628108C225.675 0.625266 225.605 0.625266 225.541 0.628108C225.47 0.625266 225.4 0.625266 225.336 0.628108C225.265 0.625266 225.195 0.625266 225.131 0.628108C225.061 0.625266 224.99 0.625266 224.926 0.628108C224.856 0.625266 224.785 0.625266 224.721 0.628108C224.651 0.625266 224.58 0.625266 224.516 0.628108C224.446 0.625266 224.375 0.625266 224.311 0.628108C224.241 0.625266 224.17 0.625266 224.106 0.628108C224.036 0.625266 223.965 0.625266 223.901 0.628108C223.831 0.625266 223.76 0.625266 223.696 0.628108C223.626 0.625266 223.555 0.625266 223.491 0.628108C223.421 0.625266 223.35 0.625266 223.286 0.628108C223.216 0.625266 223.146 0.625266 223.081 0.628108C223.011 0.625266 222.941 0.625266 222.877 0.628108C222.806 0.625266 222.736 0.625266 222.672 0.628108C222.601 0.625266 222.531 0.625266 222.467 0.628108C222.396 0.625266 222.326 0.625266 222.262 0.628108C222.191 0.625266 222.121 0.625266 222.057 0.628108C221.986 0.625266 221.916 0.625266 221.852 0.628108C221.781 0.625266 221.711 0.625266 221.647 0.628108C221.576 0.625266 221.506 0.625266 221.442 0.628108C221.371 0.625266 221.301 0.625266 221.237 0.628108C221.166 0.625266 221.096 0.625266 221.032 0.628108C220.962 0.625266 220.891 0.625266 220.827 0.628108C220.757 0.625266 220.686 0.625266 220.622 0.628108C220.552 0.625266 220.481 0.625266 220.417 0.628108C220.347 0.625266 220.276 0.625266 220.212 0.628108C220.142 0.625266 220.071 0.625266 220.007 0.628108C219.937 0.625266 219.866 0.625266 219.802 0.628108C219.732 0.625266 219.661 0.625266 219.597 0.628108C219.527 0.625266 219.456 0.625266 219.392 0.628108C219.322 0.625266 219.251 0.625266 219.187 0.628108C219.117 0.625266 219.047 0.625266 218.982 0.628108C218.912 0.625266 218.842 0.625266 218.778 0.628108C218.707 0.625266 218.637 0.625266 218.573 0.628108C218.502 0.625266 218.432 0.625266 218.368 0.628108C218.297 0.625266 218.227 0.625266 218.163 0.628108C218.092 0.625266 218.022 0.625266 217.958 0.628108C217.887 0.625266 217.817 0.625266 217.753 0.628108C217.682 0.625266 217.612 0.625266 217.548 0.628108C217.477 0.625266 217.407 0.625266 217.343 0.628108C217.272 0.625266 217.202 0.625266 217.138 0.628108C217.067 0.625266 216.997 0.625266 216.933 0.628108C216.863 0.625266 216.792 0.625266 216.728 0.628108C216.658 0.625266 216.587 0.625266 216.523 0.628108C216.453 0.625266 216.382 0.625266 216.318 0.628108C216.248 0.625266 216.177 0.625266 216.113 0.628108C216.043 0.625266 215.972 0.625266 215.908 0.628108C215.838 0.625266 215.767 0.625266 215.703 0.628108C215.633 0.625266 215.562 0.625266 215.498 0.628108C215.428 0.625266 215.357 0.625266 215.293 0.628108C215.223 0.625266 215.153 0.625266 215.088 0.628108C215.018 0.625266 214.948 0.625266 214.883 0.628108C214.813 0.625266 214.743 0.625266 214.679 0.628108C214.608 0.625266 214.538 0.625266 214.474 0.628108C214.403 0.625266 214.333 0.625266 214.269 0.628108C214.198 0.625266 214.128 0.625266 214.064 0.628108C213.993 0.625266 213.923 0.625266 213.859 0.628108C213.788 0.625266 213.718 0.625266 213.654 0.628108C213.583 0.625266 213.513 0.625266 213.449 0.628108C213.378 0.625266 213.308 0.625266 213.244 0.628108C213.173 0.625266 213.103 0.625266 213.039 0.628108C212.969 0.625266 212.898 0.625266 212.834 0.628108C212.764 0.625266 212.693 0.625266 212.629 0.628108C212.559 0.625266 212.488 0.625266 212.424 0.628108C212.354 0.625266 212.283 0.625266 212.219 0.628108C212.149 0.625266 212.078 0.625266 212.014 0.628108C211.944 0.625266 211.873 0.625266 211.809 0.628108C211.739 0.625266 211.668 0.625266 211.604 0.628108C211.534 0.625266 211.463 0.625266 211.399 0.628108C211.329 0.625266 211.258 0.625266 211.194 0.628108C211.124 0.625266 211.053 0.625266 210.989 0.628108C210.919 0.625266 210.849 0.625266 210.785 0.628108C210.714 0.625266 210.644 0.625266 210.58 0.628108C210.509 0.625266 210.439 0.625266 210.375 0.628108C210.304 0.625266 210.234 0.625266 210.17 0.628108C210.099 0.625266 210.029 0.625266 209.965 0.628108C209.894 0.625266 209.824 0.625266 209.76 0.628108C209.689 0.625266 209.619 0.625266 209.555 0.628108C209.484 0.625266 209.414 0.625266 209.35 0.628108C209.279 0.625266 209.209 0.625266 209.145 0.628108C209.074 0.625266 209.004 0.625266 208.94 0.628108C208.87 0.625266 208.799 0.625266 208.735 0.628108C208.665 0.625266 208.594 0.625266 208.53 0.628108C208.46 0.625266 208.389 0.625266 208.325 0.628108C208.255 0.625266 208.184 0.625266 208.12 0.628108C208.05 0.625266 207.979 0.625266 207.915 0.628108C207.845 0.625266 207.774 0.625266 207.71 0.628108C207.64 0.625266 207.569 0.625266 207.505 0.628108C207.435 0.625266 207.364 0.625266 207.3 0.628108C207.23 0.625266 207.159 0.625266 207.095 0.628108C207.025 0.625266 206.955 0.625266 206.89 0.628108C206.82 0.625266 206.75 0.625266 206.686 0.628108C206.615 0.625266 206.545 0.625266 206.481 0.628108C206.41 0.625266 206.34 0.625266 206.276 0.628108C206.205 0.625266 206.135 0.625266 206.071 0.628108C206 0.625266 205.93 0.625266 205.866 0.628108C205.795 0.625266 205.725 0.625266 205.661 0.628108C205.59 0.625266 205.52 0.625266 205.456 0.628108C205.385 0.625266 205.315 0.625266 205.251 0.628108C205.18 0.625266 205.11 0.625266 205.046 0.628108C204.975 0.625266 204.905 0.625266 204.841 0.628108C204.771 0.625266 204.7 0.625266 204.636 0.628108C204.566 0.625266 204.495 0.625266 204.431 0.628108C204.361 0.625266 204.29 0.625266 204.226 0.628108C204.156 0.625266 204.085 0.625266 204.021 0.628108C203.951 0.625266 22.6661 0.625266 22.6021 0.628108C22.5316 0.625266 22.4612 0.625266 22.3971 0.628108C22.3267 0.625266 22.2562 0.625266 22.1922 0.628108C22.1217 0.625266 22.0513 0.625266 21.9872 0.628108C21.9168 0.625266 21.8463 0.625266 21.7823 0.628108C21.7118 0.625266 21.6414 0.625266 21.5773 0.628108C21.5069 0.625266 21.4364 0.625266 21.3724 0.628108C21.3019 0.625266 21.2315 0.625266 21.1674 0.628108C21.097 0.625266 21.0265 0.625266 20.9625 0.628108C20.892 0.625266 20.8216 0.625266 20.7575 0.628108C20.6871 0.625266 20.6166 0.625266 20.5526 0.628108C20.4821 0.625266 20.4117 0.625266 20.3476 0.628108C20.2772 0.625266 20.2067 0.625266 20.1427 0.628108C20.0722 0.625266 20.0018 0.625266 19.9377 0.628108C19.8673 0.625266 19.7968 0.625266 19.7328 0.628108C19.6623 0.625266 19.5919 0.625266 19.5278 0.628108C19.4574 0.625266 19.3869 0.625266 19.3229 0.628108C19.2524 0.625266 19.182 0.625266 19.1179 0.628108C19.0475 0.625266 18.977 0.625266 18.913 0.628108C18.8425 0.625266 18.7721 0.625266 18.708 0.628108C18.6376 0.625266 18.5671 0.625266 18.5031 0.628108C18.4326 0.625266 18.3622 0.625266 18.2981 0.628108C18.2277 0.625266 18.1572 0.625266 18.0932 0.628108C18.0227 0.625266 17.9523 0.625266 17.8882 0.628108C17.8178 0.625266 17.7473 0.625266 17.6833 0.628108C17.6128 0.625266 17.5424 0.625266 17.4783 0.628108C17.4079 0.625266 17.3374 0.625266 17.2734 0.628108C17.2029 0.625266 17.1325 0.625266 17.0684 0.628108C16.998 0.625266 16.9275 0.625266 16.8635 0.628108C16.793 0.625266 16.7226 0.625266 16.6585 0.628108C16.5881 0.625266 16.5176 0.625266 16.4536 0.628108C16.3831 0.625266 16.3127 0.625266 16.2486 0.628108C16.1782 0.625266 16.1077 0.625266 16.0437 0.628108C15.9732 0.625266 15.9028 0.625266 15.8387 0.628108C15.7683 0.625266 15.6978 0.625266 15.6338 0.628108C15.5633 0.625266 15.4929 0.625266 15.4288 0.628108C15.3584 0.625266 15.2879 0.625266 15.2239 0.628108C15.1534 0.625266 15.083 0.625266 15.0189 0.628108C14.9485 0.625266 14.878 0.625266 14.814 0.628108C14.7435 0.625266 14.6731 0.625266 14.609 0.628108C14.5386 0.625266 14.4681 0.625266 14.4041 0.628108C14.3336 0.625266 14.2632 0.625266 14.1991 0.628108C14.1287 0.625266 14.0582 0.625266 13.9942 0.628108C13.9237 0.625266 13.8533 0.625266 13.7892 0.628108C13.7188 0.625266 13.6483 0.625266 13.5843 0.628108C13.5138 0.625266 13.4434 0.625266 13.3793 0.628108C13.3089 0.625266 13.2384 0.625266 13.1744 0.628108C13.1039 0.625266 13.0335 0.625266 12.9694 0.628108C12.899 0.625266 12.8285 0.625266 12.7645 0.628108C12.694 0.625266 12.6236 0.625266 12.5595 0.628108C12.4891 0.625266 12.4186 0.625266 12.3546 0.628108C12.2841 0.625266 12.2137 0.625266 12.1496 0.628108C12.0792 0.625266 12.0087 0.625266 11.9447 0.628108C11.8742 0.625266 11.8038 0.625266 11.7398 0.628108C11.6693 0.625266 11.5988 0.625266 11.5348 0.628108C11.4643 0.625266 11.3939 0.625266 11.3299 0.628108C11.2594 0.625266 11.1889 0.625266 11.1249 0.628108C11.0544 0.625266 10.984 0.625266 10.92 0.628108C10.8495 0.625266 10.7791 0.625266 10.715 0.628108C10.6446 0.625266 10.5741 0.625266 10.5101 0.628108C10.4396 0.625266 10.3692 0.625266 10.3051 0.628108C10.2347 0.625266 10.1642 0.625266 10.1002 0.628108C10.0297 0.625266 9.95925 0.625266 9.8952 0.628108C9.82475 0.625266 9.7543 0.625266 9.69026 0.628108C9.61981 0.625266 9.54935 0.625266 9.4853 0.628108C9.41485 0.625266 9.34441 0.625266 9.28036 0.628108C9.20991 0.625266 9.13945 0.625266 9.07541 0.628108C9.00495 0.625266 8.93451 0.625266 8.87046 0.628108C8.80001 0.625266 8.72956 0.625266 8.66551 0.628108C8.59506 0.625266 8.52461 0.625266 8.46056 0.628108C8.39011 0.625266 8.31966 0.625266 8.25561 0.628108C8.18516 0.625266 8.11471 0.625266 8.05066 0.628108C7.98021 0.625266 7.90976 0.625266 7.84571 0.628108C7.77526 0.625266 7.70481 0.625266 7.64077 0.628108C7.57032 0.625266 7.49986 0.625266 7.43581 0.628108C7.36536 0.625266 7.29491 0.625266 7.23087 0.628108C7.16042 0.625266 7.08996 0.625266 7.02591 0.628108C6.95546 0.625266 6.88501 0.625266 6.82097 0.628108C6.75052 0.625266 6.68007 0.625266 6.61602 0.628108C6.54557 0.625266 6.47511 0.625266 6.41107 0.628108C6.34061 0.625266 6.27017 0.625266 6.20612 0.628108C6.13567 0.625266 6.06522 0.625266 6.00117 0.628108C5.93072 0.625266 5.86027 0.625266 5.79622 0.628108C5.72577 0.625266 5.65532 0.625266 5.59127 0.628108C5.52082 0.625266 5.45037 0.625266 5.38632 0.628108C5.31587 0.625266 5.24542 0.625266 5.18137 0.628108C5.11092 0.625266 5.04047 0.625266 4.97642 0.628108C4.90597 0.625266 4.83552 0.625266 4.77147 0.628108C4.70102 0.625266 4.63057 0.625266 4.56652 0.628108C4.49607 0.625266 4.42562 0.625266 4.36157 0.628108C4.29112 0.625266 4.22067 0.625266 4.15663 0.628108C4.08618 0.625266 4.01572 0.625266 3.95168 0.628108C3.88123 0.625266 3.81077 0.625266 3.74673 0.628108C3.67628 0.625266 3.60582 0.625266 3.54178 0.628108C3.47133 0.625266 3.40087 0.625266 3.33683 0.628108C3.26638 0.625266 3.19593 0.625266 3.13188 0.628108C3.06143 0.625266 2.99098 0.625266 2.92693 0.628108C2.85648 0.625266 2.78603 0.625266 2.72198 0.628108C2.65153 0.625266 2.58108 0.625266 2.51703 0.628108C2.44658 0.625266 2.37613 0.625266 2.31208 0.628108C2.24163 0.625266 2.17118 0.625266 2.10714 0.628108C2.03668 0.625266 1.96623 0.625266 1.90219 0.628108C1.83173 0.625266 1.76128 0.625266 1.69724 0.628108C1.62678 0.625266 1.55633 0.625266 1.49229 0.628108C1.42183 0.625266 1.35138 0.625266 1.28734 0.628108C1.21688 0.625266 1.14644 0.625266 1.08239 0.628108C0.730133 0.6139 0.512375 0.676413 0.153713 0.690621C0.0640482 0.761661 0.108879 0.829859 0 0.875324C0.0320233 0.943522 0.160116 0.97478 0.2754 1.00888C0.230567 1.02593 0.256186 1.06571 0.211353 1.08276C0.320232 1.10265 0.35866 1.07992 0.45473 1.09413C0.45473 1.09128 0.45473 1.08844 0.45473 1.08844C0.525181 1.09697 0.563611 1.0856 0.621253 1.09129C0.614848 1.10833 0.608443 1.12538 0.608443 1.14527C0.403494 1.09697 0.365067 1.25326 0.365067 1.2561C0.365067 1.25894 0.30102 1.24189 0.30102 1.24473C0.243378 1.39533 0.717322 1.50616 0.57642 1.67381C0.614848 1.68802 0.685301 1.68802 0.762157 1.68517C0.774966 1.74485 0.736536 1.8443 0.640466 1.89261C0.678894 1.92387 0.762157 1.93239 0.762157 1.97786C0.685301 2.06027 0.486753 2.02332 0.45473 2.12562C0.563609 2.13983 0.678894 2.1512 0.640466 2.22223C0.762155 2.24497 0.890249 2.24781 1.00553 2.24213C1.07598 2.24497 1.14003 2.24497 1.21048 2.24213C1.28093 2.24497 1.34498 2.24497 1.41543 2.24213C1.48588 2.24497 1.54993 2.24497 1.62038 2.24213C1.69083 2.24497 1.75488 2.24497 1.82533 2.24213C1.89578 2.24497 1.95983 2.24497 2.03028 2.24213C2.10073 2.24497 2.16478 2.24497 2.23523 2.24213C2.30568 2.24497 2.36972 2.24497 2.44018 2.24213C2.51063 2.24497 2.57467 2.24497 2.64513 2.24213C2.71558 2.24497 2.77962 2.24497 2.85008 2.24213C2.92053 2.24497 2.98457 2.24497 3.05503 2.24213C3.12548 2.24497 3.18952 2.24497 3.25998 2.24213C3.31121 2.24497 3.35604 2.24497 3.40728 2.24497C3.33683 2.27054 3.28559 2.3018 3.28559 2.35295C3.25357 2.38705 3.45212 2.42114 3.45212 2.46661C3.44571 2.5547 3.42649 2.50639 3.5738 2.58027C3.59942 2.59448 3.54818 2.63426 3.5738 2.64563C3.63144 2.67405 3.7019 2.65131 3.77875 2.69394C3.89404 2.76213 3.92606 2.88148 4.22708 2.90705C4.05415 2.98378 4.00291 3.03209 3.93887 3.18553C3.82999 3.17132 3.63144 3.24236 3.44571 3.25089C3.50975 3.32477 3.44571 3.36171 3.44571 3.44696C3.76594 3.47821 3.99011 3.52936 4.22067 3.62598C4.30394 3.62598 4.38079 3.61745 4.44484 3.60609C4.46405 3.61177 4.47686 3.61745 4.49607 3.62598C4.57933 3.62598 4.65619 3.61745 4.72024 3.60609C4.73945 3.61177 4.75226 3.61745 4.77147 3.62598C4.85473 3.62598 4.93159 3.61745 4.99564 3.60609C5.01485 3.61177 5.02766 3.61745 5.04687 3.62598C5.13013 3.62598 5.20699 3.61745 5.27104 3.60609C5.29025 3.61177 5.30306 3.61745 5.32227 3.62598C5.40553 3.62598 5.48239 3.61745 5.54644 3.60609C5.56565 3.61177 5.57846 3.61745 5.59768 3.62598C5.68094 3.62598 5.75779 3.61745 5.82184 3.60609C5.84105 3.61177 5.85386 3.61745 5.87308 3.62598C5.95634 3.62598 6.03319 3.61745 6.09724 3.60609C6.11645 3.61177 6.12926 3.61745 6.14848 3.62598C6.23174 3.62598 6.30859 3.61745 6.37264 3.60609C6.39185 3.61177 6.40467 3.61745 6.42388 3.62598C6.50714 3.62598 6.584 3.61745 6.64804 3.60609C6.66726 3.61177 6.68006 3.61745 6.69928 3.62598C6.78254 3.62598 6.85939 3.61745 6.92344 3.60609C6.94265 3.61177 6.95547 3.61745 6.97468 3.62598C7.05794 3.62598 7.1348 3.61745 7.19884 3.60609C7.21806 3.61177 7.23086 3.61745 7.25008 3.62598C7.33334 3.62598 7.41019 3.61745 7.47424 3.60609C7.49345 3.61177 7.50627 3.61745 7.52548 3.62598C7.60874 3.62598 7.6856 3.61745 7.74964 3.60609C7.76886 3.61177 7.78167 3.61745 7.80088 3.62598C7.88414 3.62598 7.961 3.61745 8.02505 3.60609C8.04426 3.61177 8.05707 3.61745 8.07628 3.62598C8.15954 3.62598 8.23639 3.61745 8.30044 3.60609C8.31966 3.61177 8.33247 3.61745 8.35168 3.62598C8.43494 3.62598 8.5118 3.61745 8.57585 3.60609C8.59506 3.61177 8.60786 3.61745 8.62708 3.62598C8.71034 3.62598 8.7872 3.61745 8.85124 3.60609C8.87046 3.61177 8.88327 3.61745 8.90248 3.62598C8.98574 3.62598 9.0626 3.61745 9.12665 3.60609C9.14586 3.61177 9.15867 3.61745 9.17789 3.62598C9.26115 3.62598 9.338 3.61745 9.40205 3.60609C9.42126 3.61177 9.43407 3.61745 9.45328 3.62598C9.53654 3.62598 9.6134 3.61745 9.67744 3.60609C9.69666 3.61177 9.70947 3.61745 9.72869 3.62598C9.81195 3.62598 9.8888 3.61745 9.95285 3.60609C9.97206 3.61177 9.98487 3.61745 10.0041 3.62598C10.0873 3.62598 10.1642 3.61745 10.2282 3.60609C10.2475 3.61177 10.2603 3.61745 10.2795 3.62598C10.3627 3.62598 10.4396 3.61745 10.5036 3.60609C10.5229 3.61177 10.5357 3.61745 10.5549 3.62598C10.6381 3.62598 10.715 3.61745 10.7791 3.60609C10.7983 3.61177 10.8111 3.61745 10.8303 3.62598C10.9135 3.62598 10.9904 3.61745 11.0544 3.60609C11.0737 3.61177 11.0865 3.61745 11.1057 3.62598C11.1889 3.62598 11.2658 3.61745 11.3299 3.60609C11.3491 3.61177 11.3619 3.61745 11.3811 3.62598C11.4643 3.62598 11.5412 3.61745 11.6052 3.60609C11.6245 3.61177 11.6373 3.61745 11.6565 3.62598C11.7397 3.62598 11.8166 3.61745 11.8807 3.60609C11.8999 3.61177 11.9127 3.61745 11.9319 3.62598C12.0152 3.62598 12.092 3.61745 12.1561 3.60609C12.1753 3.61177 12.1881 3.61745 12.2073 3.62598C12.2905 3.62598 12.3674 3.61745 12.4314 3.60609C12.4507 3.61177 12.4635 3.61745 12.4827 3.62598C12.566 3.62598 12.6428 3.61745 12.7069 3.60609C12.7261 3.61177 12.7389 3.61745 12.7581 3.62598C12.8413 3.62598 12.9182 3.61745 12.9823 3.60609C13.0015 3.61177 13.0143 3.61745 13.0335 3.62598C13.1167 3.62598 13.1936 3.61745 13.2577 3.60609C13.2769 3.61177 13.2897 3.61745 13.3089 3.62598C13.3922 3.62598 13.469 3.61745 13.5331 3.60609C13.5523 3.61177 13.5651 3.61745 13.5843 3.62598C13.6676 3.62598 13.7444 3.61745 13.8085 3.60609C13.8277 3.61177 13.8405 3.61745 13.8597 3.62598C13.943 3.62598 14.0198 3.61745 14.0839 3.60609C14.1031 3.61177 14.1159 3.61745 14.1351 3.62598C14.2183 3.62598 14.2952 3.61745 14.3593 3.60609C14.3785 3.61177 14.3913 3.61745 14.4105 3.62598C14.4938 3.62598 14.5706 3.61745 14.6347 3.60609C14.6539 3.61177 14.6667 3.61745 14.6859 3.62598C14.7692 3.62598 14.846 3.61745 14.9101 3.60609C14.9293 3.61177 14.9421 3.61745 14.9613 3.62598C15.0446 3.62598 15.1214 3.61745 15.1855 3.60609C15.2047 3.61177 15.2175 3.61745 15.2367 3.62598C15.32 3.62598 15.3968 3.61745 15.4609 3.60609C15.4801 3.61177 15.4929 3.61745 15.5121 3.62598C15.5954 3.62598 15.6722 3.61745 15.7363 3.60609C15.7555 3.61177 15.7683 3.61745 15.7875 3.62598C15.8708 3.62598 15.9476 3.61745 16.0117 3.60609C16.0309 3.61177 16.0437 3.61745 16.0629 3.62598C16.1462 3.62598 16.223 3.61745 16.2871 3.60609C16.3063 3.61177 16.3191 3.61745 16.3383 3.62598C16.4216 3.62598 16.4984 3.61745 16.5625 3.60609C16.5817 3.61177 16.5945 3.61745 16.6137 3.62598C16.697 3.62598 16.7738 3.61745 16.8379 3.60609C16.8571 3.61177 16.8699 3.61745 16.8891 3.62598C16.9724 3.62598 17.0492 3.61745 17.1133 3.60609C17.1325 3.61177 17.1453 3.61745 17.1645 3.62598C17.2478 3.62598 17.3246 3.61745 17.3887 3.60609C17.4079 3.61177 17.4207 3.61745 17.4399 3.62598C17.5232 3.62598 17.6 3.61745 17.6641 3.60609C17.6833 3.61177 17.6961 3.61745 17.7153 3.62598C17.7986 3.62598 17.8754 3.61745 17.9395 3.60609C17.9587 3.61177 17.9715 3.61745 17.9907 3.62598C18.074 3.62598 18.1508 3.61745 18.2149 3.60609C18.2341 3.61177 18.2469 3.61745 18.2661 3.62598C18.3494 3.62598 18.4262 3.61745 18.4903 3.60609C18.5095 3.61177 18.5223 3.61745 18.5415 3.62598C18.6248 3.62598 18.7016 3.61745 18.7657 3.60609C18.7849 3.61177 18.7977 3.61745 18.8169 3.62598C18.9002 3.62598 18.977 3.61745 19.0411 3.60609C19.0603 3.61177 19.0731 3.61745 19.0923 3.62598C19.1756 3.62598 19.2524 3.61745 19.3165 3.60609C19.3357 3.61177 19.3485 3.61745 19.3677 3.62598C19.451 3.62598 19.5278 3.61745 19.5919 3.60609C19.6111 3.61177 19.6239 3.61745 19.6431 3.62598C19.7264 3.62598 19.8032 3.61745 19.8673 3.60609C19.8865 3.61177 19.8993 3.61745 19.9185 3.62598C20.0018 3.62598 20.0786 3.61745 20.1427 3.60609C20.1619 3.61177 20.1747 3.61745 20.1939 3.62598C20.2772 3.62598 20.354 3.61745 20.4181 3.60609C20.4373 3.61177 20.4501 3.61745 20.4693 3.62598C20.5526 3.62598 20.6294 3.61745 20.6935 3.60609C20.7127 3.61177 20.7255 3.61745 20.7447 3.62598C20.828 3.62598 20.9048 3.61745 20.9689 3.60609C20.9881 3.61177 21.0009 3.61745 21.0201 3.62598C21.1034 3.62598 21.1802 3.61745 21.2443 3.60609C21.2635 3.61177 21.2763 3.61745 21.2955 3.62598C21.3788 3.62598 21.4556 3.61745 21.5197 3.60609C21.5389 3.61177 21.5517 3.61745 21.5709 3.62598C21.6542 3.62598 21.731 3.61745 21.7951 3.60609C21.8143 3.61177 21.8271 3.61745 21.8463 3.62598C21.9296 3.62598 22.0064 3.61745 22.0705 3.60609C22.0897 3.61177 22.1025 3.61745 22.1217 3.62598C22.205 3.62598 22.2818 3.61745 22.3459 3.60609C22.3651 3.61177 22.3779 3.61745 22.3971 3.62598C22.4804 3.62598 22.5572 3.61745 22.6213 3.60609C22.6405 3.61177 203.867 3.61745 203.887 3.62598C203.97 3.62598 204.047 3.61745 204.111 3.60609C204.13 3.61177 204.283 3.59756 204.303 3.60609C204.386 3.60609 204.322 3.61745 204.386 3.60609C204.405 3.61177 204.517 3.60609 204.437 3.62598C204.521 3.62598 204.598 3.61745 204.662 3.60609C204.681 3.61177 204.694 3.61745 204.713 3.62598C204.796 3.62598 204.873 3.61745 204.937 3.60609C204.956 3.61177 204.969 3.61745 204.988 3.62598C205.072 3.62598 205.148 3.61745 205.212 3.60609C205.232 3.61177 205.244 3.61745 205.264 3.62598C205.347 3.62598 205.424 3.61745 205.488 3.60609C205.507 3.61177 205.52 3.61745 205.539 3.62598C205.622 3.62598 205.699 3.61745 205.763 3.60609C205.782 3.61177 205.795 3.61745 205.814 3.62598C205.898 3.62598 205.975 3.61745 206.039 3.60609C206.058 3.61177 206.071 3.61745 206.09 3.62598C206.173 3.62598 206.25 3.61745 206.314 3.60609C206.333 3.61177 206.346 3.61745 206.365 3.62598C206.449 3.62598 206.525 3.61745 206.589 3.60609C206.609 3.61177 206.621 3.61745 206.641 3.62598C206.724 3.62598 206.801 3.61745 206.865 3.60609C206.884 3.61177 206.897 3.61745 206.916 3.62598C206.999 3.62598 207.076 3.61745 207.14 3.60609C207.159 3.61177 207.172 3.61745 207.191 3.62598C207.275 3.62598 207.352 3.61745 207.416 3.60609C207.435 3.61177 207.448 3.61745 207.467 3.62598C207.55 3.62598 207.627 3.61745 207.691 3.60609C207.71 3.61177 207.723 3.61745 207.742 3.62598C207.826 3.62598 207.902 3.61745 207.966 3.60609C207.986 3.61177 207.998 3.61745 208.018 3.62598C208.101 3.62598 208.178 3.61745 208.242 3.60609C208.261 3.61177 208.274 3.61745 208.293 3.62598C208.376 3.62598 208.453 3.61745 208.517 3.60609C208.536 3.61177 208.549 3.61745 208.568 3.62598C208.652 3.62598 208.729 3.61745 208.793 3.60609C208.812 3.61177 208.825 3.61745 208.844 3.62598C208.927 3.62598 209.004 3.61745 209.068 3.60609C209.087 3.61177 209.1 3.61745 209.119 3.62598C209.203 3.62598 209.279 3.61745 209.343 3.60609C209.363 3.61177 209.375 3.61745 209.395 3.62598C209.478 3.62598 209.555 3.61745 209.619 3.60609C209.638 3.61177 209.651 3.61745 209.67 3.62598C209.753 3.62598 209.83 3.61745 209.894 3.60609C209.913 3.61177 209.926 3.61745 209.945 3.62598C210.029 3.62598 210.106 3.61745 210.17 3.60609C210.189 3.61177 210.202 3.61745 210.221 3.62598C210.304 3.62598 210.381 3.61745 210.445 3.60609C210.464 3.61177 210.477 3.61745 210.496 3.62598C210.58 3.62598 210.656 3.61745 210.72 3.60609C210.74 3.61177 210.753 3.61745 210.772 3.62598C210.855 3.62598 210.932 3.61745 210.996 3.60609C211.015 3.61177 211.028 3.61745 211.047 3.62598C211.13 3.62598 211.207 3.61745 211.271 3.60609C211.29 3.61177 211.303 3.61745 211.323 3.62598C211.406 3.62598 211.483 3.61745 211.547 3.60609C211.566 3.61177 211.579 3.61745 211.598 3.62598C211.681 3.62598 211.758 3.61745 211.822 3.60609C211.841 3.61177 211.854 3.61745 211.873 3.62598C211.957 3.62598 212.033 3.61745 212.097 3.60609C212.117 3.61177 212.129 3.61745 212.149 3.62598C212.232 3.62598 212.309 3.61745 212.373 3.60609C212.392 3.61177 212.405 3.61745 212.424 3.62598C212.507 3.62598 212.584 3.61745 212.648 3.60609C212.667 3.61177 212.68 3.61745 212.7 3.62598C212.783 3.62598 212.86 3.61745 212.924 3.60609C212.943 3.61177 212.956 3.61745 212.975 3.62598C213.058 3.62598 213.135 3.61745 213.199 3.60609C213.218 3.61177 213.231 3.61745 213.25 3.62598C213.334 3.62598 213.41 3.61745 213.474 3.60609C213.494 3.61177 213.507 3.61745 213.526 3.62598C213.609 3.62598 213.686 3.61745 213.75 3.60609C213.769 3.61177 213.782 3.61745 213.801 3.62598C213.884 3.62598 213.961 3.61745 214.025 3.60609C214.044 3.61177 214.057 3.61745 214.077 3.62598C214.16 3.62598 214.237 3.61745 214.301 3.60609C214.32 3.61177 214.333 3.61745 214.352 3.62598C214.435 3.62598 214.512 3.61745 214.576 3.60609C214.595 3.61177 214.608 3.61745 214.627 3.62598C214.711 3.62598 214.787 3.61745 214.851 3.60609C214.871 3.61177 214.883 3.61745 214.903 3.62598C214.986 3.62598 215.063 3.61745 215.127 3.60609C215.146 3.61177 215.159 3.61745 215.178 3.62598C215.261 3.62598 215.338 3.61745 215.402 3.60609C215.421 3.61177 215.434 3.61745 215.454 3.62598C215.537 3.62598 215.614 3.61745 215.678 3.60609C215.697 3.61177 215.71 3.61745 215.729 3.62598C215.812 3.62598 215.889 3.61745 215.953 3.60609C215.972 3.61177 215.985 3.61745 216.004 3.62598C216.088 3.62598 216.164 3.61745 216.228 3.60609C216.248 3.61177 216.261 3.61745 216.28 3.62598C216.363 3.62598 216.44 3.61745 216.504 3.60609C216.523 3.61177 216.536 3.61745 216.555 3.62598C216.638 3.62598 216.715 3.61745 216.779 3.60609C216.798 3.61177 216.811 3.61745 216.831 3.62598C216.914 3.62598 216.991 3.61745 217.055 3.60609C217.074 3.61177 217.087 3.61745 217.106 3.62598C217.189 3.62598 217.266 3.61745 217.33 3.60609C217.349 3.61177 217.362 3.61745 217.381 3.62598C217.465 3.62598 217.541 3.61745 217.605 3.60609C217.625 3.61177 217.637 3.61745 217.657 3.62598C217.74 3.62598 217.817 3.61745 217.881 3.60609C217.9 3.61177 217.913 3.61745 217.932 3.62598C218.015 3.62598 218.092 3.61745 218.156 3.60609C218.175 3.61177 218.188 3.61745 218.208 3.62598C218.291 3.62598 218.368 3.61745 218.432 3.60609C218.451 3.61177 218.464 3.61745 218.483 3.62598C218.566 3.62598 218.643 3.61745 218.707 3.60609C218.726 3.61177 218.739 3.61745 218.758 3.62598C218.842 3.62598 218.918 3.61745 218.982 3.60609C219.002 3.61177 219.015 3.61745 219.034 3.62598C219.117 3.62598 219.194 3.61745 219.258 3.60609C219.277 3.61177 219.29 3.61745 219.309 3.62598C219.392 3.62598 219.469 3.61745 219.533 3.60609C219.553 3.61177 219.565 3.61745 219.585 3.62598C219.668 3.62598 219.745 3.61745 219.809 3.60609C219.828 3.61177 219.841 3.61745 219.86 3.62598C219.943 3.62598 220.02 3.61745 220.084 3.60609C220.103 3.61177 220.116 3.61745 220.135 3.62598C220.219 3.62598 220.295 3.61745 220.359 3.60609C220.379 3.61177 220.391 3.61745 220.411 3.62598C220.494 3.62598 220.571 3.61745 220.635 3.60609C220.654 3.61177 220.667 3.61745 220.686 3.62598C220.769 3.62598 220.846 3.61745 220.91 3.60609C220.93 3.61177 220.942 3.61745 220.962 3.62598C221.045 3.62598 221.122 3.61745 221.186 3.60609C221.205 3.61177 221.218 3.61745 221.237 3.62598C221.32 3.62598 221.397 3.61745 221.461 3.60609C221.48 3.61177 221.493 3.61745 221.512 3.62598C221.596 3.62598 221.672 3.61745 221.736 3.60609C221.756 3.61177 221.769 3.61745 221.788 3.62598C221.871 3.62598 221.948 3.61745 222.012 3.60609C222.031 3.61177 222.044 3.61745 222.063 3.62598C222.146 3.62598 222.223 3.61745 222.287 3.60609C222.307 3.61177 222.319 3.61745 222.339 3.62598C222.422 3.62598 222.499 3.61745 222.563 3.60609C222.582 3.61177 222.595 3.61745 222.614 3.62598C222.697 3.62598 222.774 3.61745 222.838 3.60609C222.857 3.61177 222.87 3.61745 222.889 3.62598C222.973 3.62598 223.049 3.61745 223.113 3.60609C223.133 3.61177 223.146 3.61745 223.165 3.62598C223.248 3.62598 223.325 3.61745 223.389 3.60609C223.408 3.61177 223.421 3.61745 223.44 3.62598C223.523 3.62598 223.6 3.61745 223.664 3.60609C223.684 3.61177 223.696 3.61745 223.716 3.62598C223.799 3.62598 223.876 3.61745 223.94 3.60609C223.959 3.61177 223.972 3.61745 223.991 3.62598C224.074 3.62598 224.151 3.61745 224.215 3.60609C224.234 3.61177 224.247 3.61745 224.266 3.62598C224.35 3.62598 224.426 3.61745 224.49 3.60609C224.51 3.61177 224.523 3.61745 224.542 3.62598C224.625 3.62598 224.702 3.61745 224.766 3.60609C224.785 3.61177 224.798 3.61745 224.817 3.62598C224.9 3.62598 224.977 3.61745 225.041 3.60609C225.061 3.61177 225.073 3.61745 225.093 3.62598C225.176 3.62598 225.253 3.61745 225.317 3.60609C225.336 3.61177 225.349 3.61745 225.368 3.62598C225.451 3.62598 225.528 3.61745 225.592 3.60609C225.611 3.61177 225.624 3.61745 225.643 3.62598C225.727 3.62598 225.803 3.61745 225.867 3.60609C225.887 3.61177 225.9 3.61745 225.919 3.62598C226.002 3.62598 226.079 3.61745 226.143 3.60609C226.162 3.61177 226.175 3.61745 226.194 3.62598C226.546 3.62598 226.719 3.4981 227.052 3.44696C227.065 3.38728 227.142 3.31056 226.969 3.26794C227.168 3.3134 227.277 3.24236 227.379 3.20258C227.891 3.08892 228.058 2.92695 227.744 2.75645Z" fill="#EB5C2B"/>
</g>
</svg>
