<svg width="96" height="6" viewBox="0 0 96 6" fill="none" xmlns="http://www.w3.org/2000/svg">
<g id="Underline marker brush">
<path id="Vector" fill-rule="evenodd" clip-rule="evenodd" d="M95.8922 4.26095C95.9327 4.08477 95.9812 3.89155 95.9273 3.704C96.0406 3.39143 96.0109 3.17547 95.9111 2.88562C95.8707 2.87426 95.8329 2.87994 95.7978 2.89131L95.7952 2.88562C95.7547 2.87426 95.7169 2.87994 95.6819 2.89131L95.6792 2.88562C95.6387 2.87426 95.601 2.87994 95.5659 2.89131L95.5632 2.88562C95.5551 2.88562 95.5471 2.88563 95.539 2.87994C95.5632 2.78333 95.5848 2.67535 95.6145 2.5901C95.6226 2.63557 95.636 2.66966 95.6576 2.68671C95.6738 2.61852 95.6981 2.56737 95.7223 2.51622C95.725 2.60147 95.7412 2.6583 95.7736 2.68671C95.8275 2.46507 95.9677 2.38551 95.9462 2.10135C95.9273 1.87402 95.7574 1.62396 95.6037 1.69784C95.5659 1.6808 95.5255 1.6808 95.4877 1.69784C95.4554 1.6808 95.4203 1.68079 95.3879 1.69216C95.4095 1.35685 95.3691 0.993131 95.2747 0.765804C95.3475 0.765804 95.2747 0.646459 95.3259 0.618043C95.2504 0.527113 95.3151 0.316836 95.2612 0.203173C95.2019 0.174757 95.1776 0.0838267 95.1452 0.00426237C95.1102 -0.00142079 95.0805 -0.00142079 95.0509 0.00426237C95.0212 -0.00142079 94.9915 -0.00142079 94.9646 0.00426237C94.9349 -0.00142079 94.9052 -0.00142079 94.8783 0.00426237C94.8486 -0.00142079 94.8189 -0.00142079 94.792 0.00426237C94.7623 -0.00142079 94.7327 -0.00142079 94.7057 0.00426237C94.676 -0.00142079 94.6464 -0.00142079 94.6194 0.00426237C94.5897 -0.00142079 94.5601 -0.00142079 94.5331 0.00426237C94.5034 -0.00142079 94.4738 -0.00142079 94.4468 0.00426237C94.4171 -0.00142079 94.3875 -0.00142079 94.3605 0.00426237C94.3308 -0.00142079 94.3012 -0.00142079 94.2742 0.00426237C94.2446 -0.00142079 94.2149 -0.00142079 94.1879 0.00426237C94.1583 -0.00142079 94.1286 -0.00142079 94.1016 0.00426237C94.072 -0.00142079 94.0423 -0.00142079 94.0153 0.00426237C93.9857 -0.00142079 93.956 -0.00142079 93.929 0.00426237C93.8994 -0.00142079 93.8697 -0.00142079 93.8427 0.00426237C93.8131 -0.00142079 93.7834 -0.00142079 93.7565 0.00426237C93.7268 -0.00142079 93.6971 -0.00142079 93.6702 0.00426237C93.6405 -0.00142079 93.6108 -0.00142079 93.5839 0.00426237C93.5542 -0.00142079 93.5245 -0.00142079 93.4976 0.00426237C93.4679 -0.00142079 93.4382 -0.00142079 93.4113 0.00426237C93.3816 -0.00142079 93.3519 -0.00142079 93.325 0.00426237C93.2953 -0.00142079 93.2656 -0.00142079 93.2387 0.00426237C93.209 -0.00142079 93.1794 -0.00142079 93.1524 0.00426237C93.1227 -0.00142079 93.093 -0.00142079 93.0661 0.00426237C93.0364 -0.00142079 93.0068 -0.00142079 92.9798 0.00426237C92.9501 -0.00142079 92.9205 -0.00142079 92.8935 0.00426237C92.8638 -0.00142079 92.8342 -0.00142079 92.8072 0.00426237C92.7775 -0.00142079 92.7479 -0.00142079 92.7209 0.00426237C92.6912 -0.00142079 92.6616 -0.00142079 92.6346 0.00426237C92.6049 -0.00142079 92.5753 -0.00142079 92.5483 0.00426237C92.5187 -0.00142079 92.489 -0.00142079 92.462 0.00426237C92.4324 -0.00142079 92.4027 -0.00142079 92.3757 0.00426237C92.3461 -0.00142079 92.3164 -0.00142079 92.2894 0.00426237C92.2598 -0.00142079 92.2301 -0.00142079 92.2031 0.00426237C92.1735 -0.00142079 92.1438 -0.00142079 92.1169 0.00426237C92.0872 -0.00142079 92.0575 -0.00142079 92.0306 0.00426237C92.0009 -0.00142079 91.9712 -0.00142079 91.9443 0.00426237C91.9146 -0.00142079 91.8849 -0.00142079 91.858 0.00426237C91.8283 -0.00142079 91.7986 -0.00142079 91.7717 0.00426237C91.742 -0.00142079 91.7123 -0.00142079 91.6854 0.00426237C91.6557 -0.00142079 91.6261 -0.00142079 91.5991 0.00426237C91.5694 -0.00142079 91.5398 -0.00142079 91.5128 0.00426237C91.4831 -0.00142079 91.4535 -0.00142079 91.4265 0.00426237C91.3968 -0.00142079 91.3672 -0.00142079 91.3402 0.00426237C91.3105 -0.00142079 91.2809 -0.00142079 91.2539 0.00426237C91.2242 -0.00142079 91.1946 -0.00142079 91.1676 0.00426237C91.1379 -0.00142079 91.1083 -0.00142079 91.0813 0.00426237C91.0517 -0.00142079 91.022 -0.00142079 90.995 0.00426237C90.9654 -0.00142079 90.9357 -0.00142079 90.9087 0.00426237C90.8791 -0.00142079 90.8494 -0.00142079 90.8224 0.00426237C90.7928 -0.00142079 90.7631 -0.00142079 90.7361 0.00426237C90.7065 -0.00142079 90.6768 -0.00142079 90.6498 0.00426237C90.6202 -0.00142079 90.5905 -0.00142079 90.5636 0.00426237C90.5339 -0.00142079 90.5042 -0.00142079 90.4773 0.00426237C90.4476 -0.00142079 90.4179 -0.00142079 90.391 0.00426237C90.3613 -0.00142079 90.3316 -0.00142079 90.3047 0.00426237C90.275 -0.00142079 90.2453 -0.00142079 90.2184 0.00426237C90.1887 -0.00142079 90.159 -0.00142079 90.1321 0.00426237C90.1024 -0.00142079 90.0728 -0.00142079 90.0458 0.00426237C90.0161 -0.00142079 89.9865 -0.00142079 89.9595 0.00426237C89.9298 -0.00142079 89.9002 -0.00142079 89.8732 0.00426237C89.8435 -0.00142079 89.8139 -0.00142079 89.7869 0.00426237C89.7572 -0.00142079 89.7276 -0.00142079 89.7006 0.00426237C89.6709 -0.00142079 89.6413 -0.00142079 89.6143 0.00426237C89.5846 -0.00142079 89.555 -0.00142079 89.528 0.00426237C89.4984 -0.00142079 89.4687 -0.00142079 89.4417 0.00426237C89.4121 -0.00142079 89.3824 -0.00142079 89.3554 0.00426237C89.3258 -0.00142079 89.2961 -0.00142079 89.2691 0.00426237C89.2395 -0.00142079 89.2098 -0.00142079 89.1828 0.00426237C89.1532 -0.00142079 89.1235 -0.00142079 89.0965 0.00426237C89.0669 -0.00142079 89.0372 -0.00142079 89.0102 0.00426237C88.9806 -0.00142079 88.9509 -0.00142079 88.924 0.00426237C88.8943 -0.00142079 88.8646 -0.00142079 88.8377 0.00426237C88.808 -0.00142079 88.7783 -0.00142079 88.7514 0.00426237C88.7217 -0.00142079 88.692 -0.00142079 88.6651 0.00426237C88.6354 -0.00142079 88.6057 -0.00142079 88.5788 0.00426237C88.5491 -0.00142079 88.5194 -0.00142079 88.4925 0.00426237C88.4628 -0.00142079 88.4332 -0.00142079 88.4062 0.00426237C88.3765 -0.00142079 88.3469 -0.00142079 88.3199 0.00426237C88.2902 -0.00142079 88.2606 -0.00142079 88.2336 0.00426237C88.2039 -0.00142079 88.1743 -0.00142079 88.1473 0.00426237C88.1176 -0.00142079 88.088 -0.00142079 88.061 0.00426237C88.0313 -0.00142079 88.0017 -0.00142079 87.9747 0.00426237C87.9451 -0.00142079 87.9154 -0.00142079 87.8884 0.00426237C87.8588 -0.00142079 87.8291 -0.00142079 87.8021 0.00426237C87.7725 -0.00142079 87.7428 -0.00142079 87.7158 0.00426237C87.6862 -0.00142079 87.6565 -0.00142079 87.6295 0.00426237C87.5999 -0.00142079 87.5702 -0.00142079 87.5433 0.00426237C87.5136 -0.00142079 87.4839 -0.00142079 87.457 0.00426237C87.4273 -0.00142079 87.3976 -0.00142079 87.3707 0.00426237C87.341 -0.00142079 87.3113 -0.00142079 87.2844 0.00426237C87.2547 -0.00142079 87.225 -0.00142079 87.1981 0.00426237C87.1684 -0.00142079 87.1387 -0.00142079 87.1118 0.00426237C87.0821 -0.00142079 87.0524 -0.00142079 87.0255 0.00426237C86.9958 -0.00142079 86.9662 -0.00142079 86.9392 0.00426237C86.9095 -0.00142079 86.8799 -0.00142079 86.8529 0.00426237C86.8232 -0.00142079 86.7936 -0.00142079 86.7666 0.00426237C86.7369 -0.00142079 86.7073 -0.00142079 86.6803 0.00426237C86.6506 -0.00142079 86.621 -0.00142079 86.594 0.00426237C86.5643 -0.00142079 86.5347 -0.00142079 86.5077 0.00426237C86.4781 -0.00142079 86.4484 -0.00142079 86.4214 0.00426237C86.3918 -0.00142079 86.3621 -0.00142079 86.3351 0.00426237C86.3055 -0.00142079 86.2758 -0.00142079 86.2488 0.00426237C86.2192 -0.00142079 86.1895 -0.00142079 86.1625 0.00426237C86.1329 -0.00142079 86.1032 -0.00142079 86.0762 0.00426237C86.0466 -0.00142079 86.0169 -0.00142079 85.99 0.00426237C85.9603 -0.00142079 85.9306 -0.00142079 85.9037 0.00426237C85.874 -0.00142079 9.54362 -0.00142079 9.51665 0.00426237C9.48699 -0.00142079 9.45733 -0.00142079 9.43036 0.00426237C9.4007 -0.00142079 9.37103 -0.00142079 9.34407 0.00426237C9.3144 -0.00142079 9.28474 -0.00142079 9.25777 0.00426237C9.22811 -0.00142079 9.19844 -0.00142079 9.17148 0.00426237C9.14181 -0.00142079 9.11215 -0.00142079 9.08518 0.00426237C9.05552 -0.00142079 9.02585 -0.00142079 8.99889 0.00426237C8.96922 -0.00142079 8.93956 -0.00142079 8.91259 0.00426237C8.88293 -0.00142079 8.85327 -0.00142079 8.8263 0.00426237C8.79664 -0.00142079 8.76697 -0.00142079 8.74 0.00426237C8.71034 -0.00142079 8.68068 -0.00142079 8.65371 0.00426237C8.62405 -0.00142079 8.59438 -0.00142079 8.56742 0.00426237C8.53775 -0.00142079 8.50809 -0.00142079 8.48112 0.00426237C8.45146 -0.00142079 8.4218 -0.00142079 8.39483 0.00426237C8.36517 -0.00142079 8.3355 -0.00142079 8.30853 0.00426237C8.27887 -0.00142079 8.24921 -0.00142079 8.22224 0.00426237C8.19258 -0.00142079 8.16291 -0.00142079 8.13594 0.00426237C8.10628 -0.00142079 8.07662 -0.00142079 8.04965 0.00426237C8.01999 -0.00142079 7.99032 -0.00142079 7.96336 0.00426237C7.93369 -0.00142079 7.90403 -0.00142079 7.87706 0.00426237C7.8474 -0.00142079 7.81773 -0.00142079 7.79077 0.00426237C7.7611 -0.00142079 7.73144 -0.00142079 7.70447 0.00426237C7.67481 -0.00142079 7.64514 -0.00142079 7.61818 0.00426237C7.58851 -0.00142079 7.55885 -0.00142079 7.53189 0.00426237C7.50222 -0.00142079 7.47256 -0.00142079 7.44559 0.00426237C7.41593 -0.00142079 7.38626 -0.00142079 7.3593 0.00426237C7.32963 -0.00142079 7.29997 -0.00142079 7.273 0.00426237C7.24334 -0.00142079 7.21367 -0.00142079 7.18671 0.00426237C7.15704 -0.00142079 7.12738 -0.00142079 7.10041 0.00426237C7.07075 -0.00142079 7.04108 -0.00142079 7.01412 0.00426237C6.98445 -0.00142079 6.95479 -0.00142079 6.92782 0.00426237C6.89816 -0.00142079 6.86849 -0.00142079 6.84153 0.00426237C6.81186 -0.00142079 6.7822 -0.00142079 6.75523 0.00426237C6.72557 -0.00142079 6.69591 -0.00142079 6.66894 0.00426237C6.63928 -0.00142079 6.60961 -0.00142079 6.58264 0.00426237C6.55298 -0.00142079 6.52332 -0.00142079 6.49635 0.00426237C6.46669 -0.00142079 6.43702 -0.00142079 6.41006 0.00426237C6.38039 -0.00142079 6.35073 -0.00142079 6.32376 0.00426237C6.2941 -0.00142079 6.26444 -0.00142079 6.23747 0.00426237C6.2078 -0.00142079 6.17814 -0.00142079 6.15117 0.00426237C6.12151 -0.00142079 6.09185 -0.00142079 6.06488 0.00426237C6.03522 -0.00142079 6.00555 -0.00142079 5.97858 0.00426237C5.94892 -0.00142079 5.91926 -0.00142079 5.89229 0.00426237C5.86263 -0.00142079 5.83296 -0.00142079 5.806 0.00426237C5.77633 -0.00142079 5.74667 -0.00142079 5.7197 0.00426237C5.69004 -0.00142079 5.66037 -0.00142079 5.63341 0.00426237C5.60374 -0.00142079 5.57408 -0.00142079 5.54711 0.00426237C5.51745 -0.00142079 5.48778 -0.00142079 5.46082 0.00426237C5.43115 -0.00142079 5.40149 -0.00142079 5.37453 0.00426237C5.34486 -0.00142079 5.3152 -0.00142079 5.28823 0.00426237C5.25856 -0.00142079 5.2289 -0.00142079 5.20194 0.00426237C5.17227 -0.00142079 5.14261 -0.00142079 5.11564 0.00426237C5.08598 -0.00142079 5.05631 -0.00142079 5.02935 0.00426237C4.99968 -0.00142079 4.97002 -0.00142079 4.94305 0.00426237C4.91339 -0.00142079 4.88372 -0.00142079 4.85676 0.00426237C4.82709 -0.00142079 4.79743 -0.00142079 4.77046 0.00426237C4.7408 -0.00142079 4.71113 -0.00142079 4.68417 0.00426237C4.6545 -0.00142079 4.62484 -0.00142079 4.59787 0.00426237C4.56821 -0.00142079 4.53855 -0.00142079 4.51158 0.00426237C4.48192 -0.00142079 4.45225 -0.00142079 4.42528 0.00426237C4.39562 -0.00142079 4.36596 -0.00142079 4.33899 0.00426237C4.30933 -0.00142079 4.27966 -0.00142079 4.2527 0.00426237C4.22303 -0.00142079 4.19337 -0.00142079 4.1664 0.00426237C4.13674 -0.00142079 4.10708 -0.00142079 4.08011 0.00426237C4.05045 -0.00142079 4.02078 -0.00142079 3.99381 0.00426237C3.96415 -0.00142079 3.93449 -0.00142079 3.90752 0.00426237C3.87786 -0.00142079 3.84819 -0.00142079 3.82122 0.00426237C3.79156 -0.00142079 3.7619 -0.00142079 3.73493 0.00426237C3.70527 -0.00142079 3.6756 -0.00142079 3.64864 0.00426237C3.61897 -0.00142079 3.58931 -0.00142079 3.56234 0.00426237C3.53268 -0.00142079 3.50301 -0.00142079 3.47605 0.00426237C3.44638 -0.00142079 3.41672 -0.00142079 3.38975 0.00426237C3.36009 -0.00142079 3.33042 -0.00142079 3.30346 0.00426237C3.27379 -0.00142079 3.24413 -0.00142079 3.21716 0.00426237C3.1875 -0.00142079 3.15784 -0.00142079 3.13087 0.00426237C3.1012 -0.00142079 3.07154 -0.00142079 3.04458 0.00426237C3.01491 -0.00142079 2.98525 -0.00142079 2.95828 0.00426237C2.92862 -0.00142079 2.89895 -0.00142079 2.87199 0.00426237C2.84232 -0.00142079 2.81266 -0.00142079 2.78569 0.00426237C2.75603 -0.00142079 2.72636 -0.00142079 2.6994 0.00426237C2.66973 -0.00142079 2.64007 -0.00142079 2.6131 0.00426237C2.58344 -0.00142079 2.55378 -0.00142079 2.52681 0.00426237C2.49714 -0.00142079 2.46748 -0.00142079 2.44051 0.00426237C2.41085 -0.00142079 2.38119 -0.00142079 2.35422 0.00426237C2.32456 -0.00142079 2.29489 -0.00142079 2.26792 0.00426237C2.23826 -0.00142079 2.2086 -0.00142079 2.18163 0.00426237C2.15197 -0.00142079 2.1223 -0.00142079 2.09534 0.00426237C2.06567 -0.00142079 2.03601 -0.00142079 2.00904 0.00426237C1.97938 -0.00142079 1.94971 -0.00142079 1.92275 0.00426237C1.89308 -0.00142079 1.86342 -0.00142079 1.83645 0.00426237C1.80679 -0.00142079 1.77713 -0.00142079 1.75016 0.00426237C1.7205 -0.00142079 1.69083 -0.00142079 1.66386 0.00426237C1.6342 -0.00142079 1.60454 -0.00142079 1.57757 0.00426237C1.54791 -0.00142079 1.51824 -0.00142079 1.49127 0.00426237C1.46161 -0.00142079 1.43195 -0.00142079 1.40498 0.00426237C1.37532 -0.00142079 1.34565 -0.00142079 1.31869 0.00426237C1.28902 -0.00142079 1.25936 -0.00142079 1.23239 0.00426237C1.20273 -0.00142079 1.17306 -0.00142079 1.1461 0.00426237C1.11643 -0.00142079 1.08677 -0.00142079 1.0598 0.00426237C1.03014 -0.00142079 1.00048 -0.00142079 0.973508 0.00426237C0.943844 -0.00142079 0.914182 -0.00142079 0.887215 0.00426237C0.857551 -0.00142079 0.827887 -0.00142079 0.80092 0.00426237C0.771257 -0.00142079 0.741593 -0.00142079 0.714626 0.00426237C0.684962 -0.00142079 0.655298 -0.00142079 0.628331 0.00426237C0.598667 -0.00142079 0.569003 -0.00142079 0.542036 0.00426237C0.512372 -0.00142079 0.48271 -0.00142079 0.455743 0.00426237C0.307424 -0.0241534 0.215737 0.100873 0.0647215 0.129289C0.0269677 0.271368 0.0458439 0.407764 0 0.498695C0.0134835 0.635091 0.0674172 0.697606 0.115958 0.765804C0.0970809 0.799903 0.107868 0.87947 0.0889908 0.913569C0.134835 0.953351 0.151015 0.907883 0.191465 0.936299C0.191465 0.930616 0.191465 0.924932 0.191465 0.924932C0.221129 0.941982 0.23731 0.919251 0.26158 0.930617C0.258884 0.964716 0.256187 0.998813 0.256187 1.0386C0.169892 0.941982 0.153712 1.25456 0.153712 1.26024C0.153712 1.26592 0.126745 1.23182 0.126745 1.23751C0.102475 1.53871 0.30203 1.76036 0.242703 2.09567C0.258883 2.12408 0.288548 2.12408 0.320908 2.1184C0.326301 2.23774 0.310121 2.43666 0.26967 2.53327C0.28585 2.59579 0.320908 2.61283 0.320908 2.70377C0.288548 2.86858 0.204949 2.79469 0.191465 2.99929C0.237309 3.0277 0.28585 3.05044 0.26967 3.19252C0.320907 3.23798 0.374842 3.24367 0.423382 3.2323C0.453046 3.23798 0.480013 3.23798 0.509677 3.2323C0.539341 3.23798 0.566306 3.23798 0.59597 3.2323C0.625634 3.23798 0.652601 3.23798 0.682265 3.2323C0.711928 3.23798 0.738896 3.23798 0.76856 3.2323C0.798223 3.23798 0.825191 3.23798 0.854854 3.2323C0.884518 3.23798 0.911485 3.23798 0.941149 3.2323C0.970813 3.23798 0.997778 3.23798 1.02744 3.2323C1.05711 3.23798 1.08407 3.23798 1.11374 3.2323C1.1434 3.23798 1.17037 3.23798 1.20003 3.2323C1.2297 3.23798 1.25666 3.23798 1.28633 3.2323C1.31599 3.23798 1.34296 3.23798 1.37262 3.2323C1.39419 3.23798 1.41307 3.23798 1.43464 3.23798C1.40498 3.28913 1.38341 3.35164 1.38341 3.45394C1.36992 3.52214 1.45352 3.59034 1.45352 3.68127C1.45083 3.85744 1.44273 3.76083 1.50476 3.90859C1.51555 3.93701 1.49397 4.01658 1.50476 4.03931C1.52903 4.09614 1.55869 4.05067 1.59105 4.13592C1.63959 4.27232 1.65308 4.51101 1.77982 4.56216C1.70701 4.7156 1.68544 4.81222 1.65847 5.11911C1.61263 5.09069 1.52903 5.23277 1.45082 5.24982C1.47779 5.39758 1.45082 5.47146 1.45082 5.64196C1.58566 5.70447 1.68004 5.80677 1.77713 6C1.81218 6 1.84454 5.98295 1.87151 5.96022C1.8796 5.97158 1.88499 5.98295 1.89308 6C1.92814 6 1.9605 5.98295 1.98747 5.96022C1.99556 5.97158 2.00095 5.98295 2.00904 6C2.0441 6 2.07646 5.98295 2.10343 5.96022C2.11152 5.97158 2.11691 5.98295 2.125 6C2.16006 6 2.19242 5.98295 2.21938 5.96022C2.22747 5.97158 2.23287 5.98295 2.24096 6C2.27601 6 2.30837 5.98295 2.33534 5.96022C2.34343 5.97158 2.34883 5.98295 2.35692 6C2.39197 6 2.42433 5.98295 2.4513 5.96022C2.45939 5.97158 2.46478 5.98295 2.47287 6C2.50793 6 2.54029 5.98295 2.56726 5.96022C2.57535 5.97158 2.58074 5.98295 2.58883 6C2.62389 6 2.65625 5.98295 2.68322 5.96022C2.69131 5.97158 2.6967 5.98295 2.70479 6C2.73985 6 2.77221 5.98295 2.79918 5.96022C2.80727 5.97158 2.81266 5.98295 2.82075 6C2.8558 6 2.88817 5.98295 2.91513 5.96022C2.92322 5.97158 2.92862 5.98295 2.93671 6C2.97176 6 3.00412 5.98295 3.03109 5.96022C3.03918 5.97158 3.04457 5.98295 3.05266 6C3.08772 6 3.12008 5.98295 3.14705 5.96022C3.15514 5.97158 3.16053 5.98295 3.16862 6C3.20368 6 3.23604 5.98295 3.26301 5.96022C3.2711 5.97158 3.27649 5.98295 3.28458 6C3.31964 6 3.352 5.98295 3.37897 5.96022C3.38706 5.97158 3.39245 5.98295 3.40054 6C3.4356 6 3.46796 5.98295 3.49492 5.96022C3.50301 5.97158 3.50841 5.98295 3.5165 6C3.55155 6 3.58392 5.98295 3.61088 5.96022C3.61897 5.97158 3.62436 5.98295 3.63245 6C3.66751 6 3.69987 5.98295 3.72684 5.96022C3.73493 5.97158 3.74032 5.98295 3.74841 6C3.78347 6 3.81583 5.98295 3.8428 5.96022C3.85089 5.97158 3.85628 5.98295 3.86437 6C3.89943 6 3.93179 5.98295 3.95876 5.96022C3.96685 5.97158 3.97224 5.98295 3.98033 6C4.01539 6 4.04775 5.98295 4.07471 5.96022C4.0828 5.97158 4.0882 5.98295 4.09629 6C4.13135 6 4.16371 5.98295 4.19067 5.96022C4.19876 5.97158 4.20415 5.98295 4.21224 6C4.2473 6 4.27966 5.98295 4.30663 5.96022C4.31472 5.97158 4.32011 5.98295 4.3282 6C4.36326 6 4.39562 5.98295 4.42259 5.96022C4.43068 5.97158 4.43607 5.98295 4.44416 6C4.47922 6 4.51158 5.98295 4.53855 5.96022C4.54664 5.97158 4.55203 5.98295 4.56012 6C4.59518 6 4.62754 5.98295 4.6545 5.96022C4.66259 5.97158 4.66799 5.98295 4.67608 6C4.71114 6 4.7435 5.98295 4.77046 5.96022C4.77855 5.97158 4.78395 5.98295 4.79204 6C4.82709 6 4.85945 5.98295 4.88642 5.96022C4.89451 5.97158 4.8999 5.98295 4.90799 6C4.94305 6 4.97541 5.98295 5.00238 5.96022C5.01047 5.97158 5.01586 5.98295 5.02395 6C5.05901 6 5.09137 5.98295 5.11834 5.96022C5.12643 5.97158 5.13182 5.98295 5.13991 6C5.17497 6 5.20733 5.98295 5.23429 5.96022C5.24238 5.97158 5.24778 5.98295 5.25587 6C5.29093 6 5.32329 5.98295 5.35025 5.96022C5.35834 5.97158 5.36374 5.98295 5.37183 6C5.40688 6 5.43924 5.98295 5.46621 5.96022C5.4743 5.97158 5.47969 5.98295 5.48778 6C5.52284 6 5.5552 5.98295 5.58217 5.96022C5.59026 5.97158 5.59565 5.98295 5.60374 6C5.6388 6 5.67116 5.98295 5.69813 5.96022C5.70622 5.97158 5.71161 5.98295 5.7197 6C5.75476 6 5.78712 5.98295 5.81409 5.96022C5.82218 5.97158 5.82757 5.98295 5.83566 6C5.87072 6 5.90308 5.98295 5.93004 5.96022C5.93813 5.97158 5.94353 5.98295 5.95162 6C5.98667 6 6.01903 5.98295 6.046 5.96022C6.05409 5.97158 6.05948 5.98295 6.06757 6C6.10263 6 6.13499 5.98295 6.16196 5.96022C6.17005 5.97158 6.17544 5.98295 6.18354 6C6.21859 6 6.25095 5.98295 6.27792 5.96022C6.28601 5.97158 6.2914 5.98295 6.29949 6C6.33455 6 6.36691 5.98295 6.39388 5.96022C6.40197 5.97158 6.40736 5.98295 6.41545 6C6.45051 6 6.48287 5.98295 6.50984 5.96022C6.51793 5.97158 6.52332 5.98295 6.53141 6C6.56646 6 6.59882 5.98295 6.62579 5.96022C6.63388 5.97158 6.63928 5.98295 6.64737 6C6.68242 6 6.71478 5.98295 6.74175 5.96022C6.74984 5.97158 6.75524 5.98295 6.76333 6C6.79838 6 6.83074 5.98295 6.85771 5.96022C6.8658 5.97158 6.87119 5.98295 6.87928 6C6.91434 6 6.9467 5.98295 6.97367 5.96022C6.98176 5.97158 6.98715 5.98295 6.99524 6C7.0303 6 7.06266 5.98295 7.08963 5.96022C7.09772 5.97158 7.10311 5.98295 7.1112 6C7.14625 6 7.17861 5.98295 7.20558 5.96022C7.21367 5.97158 7.21907 5.98295 7.22716 6C7.26221 6 7.29457 5.98295 7.32154 5.96022C7.32963 5.97158 7.33503 5.98295 7.34312 6C7.37817 6 7.41053 5.98295 7.4375 5.96022C7.44559 5.97158 7.45098 5.98295 7.45907 6C7.49413 6 7.52649 5.98295 7.55346 5.96022C7.56155 5.97158 7.56694 5.98295 7.57503 6C7.61009 6 7.64245 5.98295 7.66942 5.96022C7.67751 5.97158 7.6829 5.98295 7.69099 6C7.72605 6 7.7584 5.98295 7.78537 5.96022C7.79346 5.97158 7.79886 5.98295 7.80695 6C7.842 6 7.87436 5.98295 7.90133 5.96022C7.90942 5.97158 7.91482 5.98295 7.92291 6C7.95796 6 7.99032 5.98295 8.01729 5.96022C8.02538 5.97158 8.03077 5.98295 8.03886 6C8.07392 6 8.10628 5.98295 8.13325 5.96022C8.14134 5.97158 8.14673 5.98295 8.15482 6C8.18988 6 8.22224 5.98295 8.24921 5.96022C8.2573 5.97158 8.26269 5.98295 8.27078 6C8.30584 6 8.3382 5.98295 8.36516 5.96022C8.37325 5.97158 8.37865 5.98295 8.38674 6C8.42179 6 8.45415 5.98295 8.48112 5.96022C8.48921 5.97158 8.49461 5.98295 8.5027 6C8.53775 6 8.57012 5.98295 8.59708 5.96022C8.60517 5.97158 8.61056 5.98295 8.61865 6C8.65371 6 8.68607 5.98295 8.71304 5.96022C8.72113 5.97158 8.72652 5.98295 8.73461 6C8.76967 6 8.80203 5.98295 8.829 5.96022C8.83709 5.97158 8.84248 5.98295 8.85057 6C8.88563 6 8.91799 5.98295 8.94495 5.96022C8.95304 5.97158 8.95844 5.98295 8.96653 6C9.00159 6 9.03395 5.98295 9.06091 5.96022C9.069 5.97158 9.0744 5.98295 9.08249 6C9.11755 6 9.1499 5.98295 9.17687 5.96022C9.18496 5.97158 9.19035 5.98295 9.19844 6C9.2335 6 9.26586 5.98295 9.29283 5.96022C9.30092 5.97158 9.30631 5.98295 9.3144 6C9.34946 6 9.38182 5.98295 9.40879 5.96022C9.41688 5.97158 9.42227 5.98295 9.43036 6C9.46542 6 9.49778 5.98295 9.52474 5.96022C9.53283 5.97158 85.8389 5.98295 85.847 6C85.8821 6 85.9144 5.98295 85.9414 5.96022C85.9495 5.97158 86.0141 5.94317 86.0221 5.96022C86.0572 5.96022 86.0304 5.98295 86.0574 5.96022C86.0655 5.97158 86.1124 5.96022 86.0789 6C86.114 6 86.1464 5.98295 86.1733 5.96022C86.1814 5.97158 86.1868 5.98295 86.1949 6C86.23 6 86.2623 5.98295 86.2893 5.96022C86.2974 5.97158 86.3028 5.98295 86.3109 6C86.3459 6 86.3783 5.98295 86.4052 5.96022C86.4133 5.97158 86.4187 5.98295 86.4268 6C86.4619 6 86.4942 5.98295 86.5212 5.96022C86.5293 5.97158 86.5347 5.98295 86.5428 6C86.5778 6 86.6102 5.98295 86.6372 5.96022C86.6453 5.97158 86.6506 5.98295 86.6587 6C86.6938 6 86.7261 5.98295 86.7531 5.96022C86.7612 5.97158 86.7666 5.98295 86.7747 6C86.8097 6 86.8421 5.98295 86.8691 5.96022C86.8772 5.97158 86.8826 5.98295 86.8906 6C86.9257 6 86.9581 5.98295 86.985 5.96022C86.9931 5.97158 86.9985 5.98295 87.0066 6C87.0417 6 87.074 5.98295 87.101 5.96022C87.1091 5.97158 87.1145 5.98295 87.1226 6C87.1576 6 87.19 5.98295 87.2169 5.96022C87.225 5.97158 87.2304 5.98295 87.2385 6C87.2736 6 87.3059 5.98295 87.3329 5.96022C87.341 5.97158 87.3464 5.98295 87.3545 6C87.3895 6 87.4219 5.98295 87.4489 5.96022C87.4569 5.97158 87.4623 5.98295 87.4704 6C87.5055 6 87.5378 5.98295 87.5648 5.96022C87.5729 5.97158 87.5783 5.98295 87.5864 6C87.6215 6 87.6538 5.98295 87.6808 5.96022C87.6889 5.97158 87.6943 5.98295 87.7024 6C87.7374 6 87.7698 5.98295 87.7967 5.96022C87.8048 5.97158 87.8102 5.98295 87.8183 6C87.8534 6 87.8857 5.98295 87.9127 5.96022C87.9208 5.97158 87.9262 5.98295 87.9343 6C87.9693 6 88.0017 5.98295 88.0287 5.96022C88.0368 5.97158 88.0421 5.98295 88.0502 6C88.0853 6 88.1176 5.98295 88.1446 5.96022C88.1527 5.97158 88.1581 5.98295 88.1662 6C88.2012 6 88.2336 5.98295 88.2606 5.96022C88.2687 5.97158 88.2741 5.98295 88.2821 6C88.3172 6 88.3496 5.98295 88.3765 5.96022C88.3846 5.97158 88.39 5.98295 88.3981 6C88.4332 6 88.4655 5.98295 88.4925 5.96022C88.5006 5.97158 88.506 5.98295 88.5141 6C88.5491 6 88.5815 5.98295 88.6084 5.96022C88.6165 5.97158 88.6219 5.98295 88.63 6C88.6651 6 88.6974 5.98295 88.7244 5.96022C88.7325 5.97158 88.7379 5.98295 88.746 6C88.781 6 88.8134 5.98295 88.8404 5.96022C88.8484 5.97158 88.8538 5.98295 88.8619 6C88.897 6 88.9294 5.98295 88.9563 5.96022C88.9644 5.97158 88.9698 5.98295 88.9779 6C89.0129 6 89.0453 5.98295 89.0723 5.96022C89.0804 5.97158 89.0858 5.98295 89.0938 6C89.1289 6 89.1613 5.98295 89.1882 5.96022C89.1963 5.97158 89.2017 5.98295 89.2098 6C89.2449 6 89.2772 5.98295 89.3042 5.96022C89.3123 5.97158 89.3177 5.98295 89.3258 6C89.3608 6 89.3932 5.98295 89.4202 5.96022C89.4282 5.97158 89.4336 5.98295 89.4417 6C89.4768 6 89.5091 5.98295 89.5361 5.96022C89.5442 5.97158 89.5496 5.98295 89.5577 6C89.5927 6 89.6251 5.98295 89.6521 5.96022C89.6602 5.97158 89.6656 5.98295 89.6736 6C89.7087 6 89.7411 5.98295 89.768 5.96022C89.7761 5.97158 89.7815 5.98295 89.7896 6C89.8247 6 89.857 5.98295 89.884 5.96022C89.8921 5.97158 89.8975 5.98295 89.9056 6C89.9406 6 89.973 5.98295 89.9999 5.96022C90.008 5.97158 90.0134 5.98295 90.0215 6C90.0566 6 90.0889 5.98295 90.1159 5.96022C90.124 5.97158 90.1294 5.98295 90.1375 6C90.1725 6 90.2049 5.98295 90.2319 5.96022C90.2399 5.97158 90.2453 5.98295 90.2534 6C90.2885 6 90.3209 5.98295 90.3478 5.96022C90.3559 5.97158 90.3613 5.98295 90.3694 6C90.4044 6 90.4368 5.98295 90.4638 5.96022C90.4719 5.97158 90.4772 5.98295 90.4853 6C90.5204 6 90.5528 5.98295 90.5797 5.96022C90.5878 5.97158 90.5932 5.98295 90.6013 6C90.6364 6 90.6687 5.98295 90.6957 5.96022C90.7038 5.97158 90.7092 5.98295 90.7173 6C90.7523 6 90.7847 5.98295 90.8116 5.96022C90.8197 5.97158 90.8251 5.98295 90.8332 6C90.8683 6 90.9006 5.98295 90.9276 5.96022C90.9357 5.97158 90.9411 5.98295 90.9492 6C90.9842 6 91.0166 5.98295 91.0436 5.96022C91.0517 5.97158 91.0571 5.98295 91.0651 6C91.1002 6 91.1326 5.98295 91.1595 5.96022C91.1676 5.97158 91.173 5.98295 91.1811 6C91.2162 6 91.2485 5.98295 91.2755 5.96022C91.2836 5.97158 91.289 5.98295 91.2971 6C91.3321 6 91.3645 5.98295 91.3914 5.96022C91.3995 5.97158 91.4049 5.98295 91.413 6C91.4481 6 91.4804 5.98295 91.5074 5.96022C91.5155 5.97158 91.5209 5.98295 91.529 6C91.564 6 91.5964 5.98295 91.6234 5.96022C91.6314 5.97158 91.6368 5.98295 91.6449 6C91.68 6 91.7123 5.98295 91.7393 5.96022C91.7474 5.97158 91.7528 5.98295 91.7609 6C91.7959 6 91.8283 5.98295 91.8553 5.96022C91.8634 5.97158 91.8687 5.98295 91.8768 6C91.9119 6 91.9443 5.98295 91.9712 5.96022C91.9793 5.97158 91.9847 5.98295 91.9928 6C92.0279 6 92.0602 5.98295 92.0872 5.96022C92.0953 5.97158 92.1007 5.98295 92.1088 6C92.1438 6 92.1762 5.98295 92.2031 5.96022C92.2112 5.97158 92.2166 5.98295 92.2247 6C92.2598 6 92.2921 5.98295 92.3191 5.96022C92.3272 5.97158 92.3326 5.98295 92.3407 6C92.3757 6 92.4081 5.98295 92.4351 5.96022C92.4432 5.97158 92.4485 5.98295 92.4566 6C92.4917 6 92.5241 5.98295 92.551 5.96022C92.5591 5.97158 92.5645 5.98295 92.5726 6C92.6077 6 92.64 5.98295 92.667 5.96022C92.6751 5.97158 92.6805 5.98295 92.6886 6C92.7236 6 92.756 5.98295 92.7829 5.96022C92.791 5.97158 92.7964 5.98295 92.8045 6C92.8396 6 92.8719 5.98295 92.8989 5.96022C92.907 5.97158 92.9124 5.98295 92.9205 6C92.9555 6 92.9879 5.98295 93.0149 5.96022C93.0229 5.97158 93.0283 5.98295 93.0364 6C93.0715 6 93.1038 5.98295 93.1308 5.96022C93.1389 5.97158 93.1443 5.98295 93.1524 6C93.1874 6 93.2198 5.98295 93.2468 5.96022C93.2549 5.97158 93.2603 5.98295 93.2683 6C93.3034 6 93.3358 5.98295 93.3627 5.96022C93.3708 5.97158 93.3762 5.98295 93.3843 6C93.4194 6 93.4517 5.98295 93.4787 5.96022C93.4868 5.97158 93.4922 5.98295 93.5003 6C93.5353 6 93.5677 5.98295 93.5946 5.96022C93.6027 5.97158 93.6081 5.98295 93.6162 6C93.6513 6 93.6836 5.98295 93.7106 5.96022C93.7187 5.97158 93.7241 5.98295 93.7322 6C93.7672 6 93.7996 5.98295 93.8266 5.96022C93.8346 5.97158 93.84 5.98295 93.8481 6C93.8832 6 93.9156 5.98295 93.9425 5.96022C93.9506 5.97158 93.956 5.98295 93.9641 6C93.9991 6 94.0315 5.98295 94.0585 5.96022C94.0666 5.97158 94.072 5.98295 94.08 6C94.1151 6 94.1475 5.98295 94.1744 5.96022C94.1825 5.97158 94.1879 5.98295 94.196 6C94.2311 6 94.2634 5.98295 94.2904 5.96022C94.2985 5.97158 94.3039 5.98295 94.312 6C94.347 6 94.3794 5.98295 94.4063 5.96022C94.4144 5.97158 94.4198 5.98295 94.4279 6C94.463 6 94.4953 5.98295 94.5223 5.96022C94.5304 5.97158 94.5358 5.98295 94.5439 6C94.5789 6 94.6113 5.98295 94.6383 5.96022C94.6464 5.97158 94.6518 5.98295 94.6598 6C94.6949 6 94.7273 5.98295 94.7542 5.96022C94.7623 5.97158 94.7677 5.98295 94.7758 6C94.8109 6 94.8432 5.98295 94.8702 5.96022C94.8783 5.97158 94.8837 5.98295 94.8918 6C94.9268 6 94.9592 5.98295 94.9861 5.96022C94.9942 5.97158 94.9996 5.98295 95.0077 6C95.0428 6 95.0751 5.98295 95.1021 5.96022C95.1102 5.97158 95.1156 5.98295 95.1237 6C95.1587 6 95.1911 5.98295 95.2181 5.96022C95.2261 5.97158 95.2315 5.98295 95.2396 6C95.3879 6 95.4608 5.74426 95.601 5.64196C95.6064 5.52261 95.6387 5.36917 95.5659 5.28392C95.6495 5.37485 95.6954 5.23277 95.7385 5.15321C95.9543 4.92588 96.0244 4.60194 95.8922 4.26095Z" fill="#A02C77"/>
</g>
</svg>
