<svg width="20" height="21" viewBox="0 0 20 21" fill="none" xmlns="http://www.w3.org/2000/svg">
<g id="lock">
<path id="Vector" d="M14.9997 7.08822H14.1663V5.42155C14.1663 3.12155 12.2997 1.25488 9.99967 1.25488C7.69967 1.25488 5.83301 3.12155 5.83301 5.42155V7.08822H4.99967C4.08301 7.08822 3.33301 7.83822 3.33301 8.75488V17.0882C3.33301 18.0049 4.08301 18.7549 4.99967 18.7549H14.9997C15.9163 18.7549 16.6663 18.0049 16.6663 17.0882V8.75488C16.6663 7.83822 15.9163 7.08822 14.9997 7.08822ZM7.49967 5.42155C7.49967 4.03822 8.61634 2.92155 9.99967 2.92155C11.383 2.92155 12.4997 4.03822 12.4997 5.42155V7.08822H7.49967V5.42155ZM14.9997 17.0882H4.99967V8.75488H14.9997V17.0882ZM9.99967 14.5882C10.9163 14.5882 11.6663 13.8382 11.6663 12.9215C11.6663 12.0049 10.9163 11.2549 9.99967 11.2549C9.08301 11.2549 8.33301 12.0049 8.33301 12.9215C8.33301 13.8382 9.08301 14.5882 9.99967 14.5882Z" fill="white"/>
</g>
</svg>
