<svg width="87" height="56" viewBox="0 0 87 56" fill="none" xmlns="http://www.w3.org/2000/svg">
<path d="M4.05941 45.8411L5.9983 51.3388H6.07483L8.01372 45.8411H8.84285L6.44475 52.3721H5.62838L3.23028 45.8411H4.05941ZM14.7992 52.3721V45.8411H18.7407V46.5426H15.5901V48.7494H18.5367V49.451H15.5901V51.6705H18.7918V52.3721H14.7992ZM30.2842 45.8411V52.3721H29.5188L25.9599 47.2442H25.8961V52.3721H25.1053V45.8411H25.8706L29.4423 50.9817H29.506V45.8411H30.2842ZM36.4486 46.5426V45.8411H41.3468V46.5426H39.2931V52.3721H38.5023V46.5426H36.4486ZM51.7924 45.8411H52.5833V50.1653C52.5833 50.6118 52.4781 51.0104 52.2676 51.3612C52.0592 51.7098 51.7648 51.9851 51.3842 52.1871C51.0037 52.387 50.5572 52.4869 50.0449 52.4869C49.5325 52.4869 49.0861 52.387 48.7055 52.1871C48.325 51.9851 48.0295 51.7098 47.819 51.3612C47.6106 51.0104 47.5065 50.6118 47.5065 50.1653V45.8411H48.2973V50.1015C48.2973 50.4204 48.3675 50.7042 48.5078 50.953C48.6481 51.1996 48.848 51.3941 49.1073 51.5366C49.3688 51.6769 49.6813 51.747 50.0449 51.747C50.4084 51.747 50.7209 51.6769 50.9824 51.5366C51.2439 51.3941 51.4438 51.1996 51.582 50.953C51.7223 50.7042 51.7924 50.4204 51.7924 50.1015V45.8411ZM59.1017 52.3721V45.8411H61.3084C61.8187 45.8411 62.2375 45.9282 62.5649 46.1026C62.8923 46.2748 63.1347 46.5118 63.292 46.8137C63.4493 47.1156 63.528 47.4589 63.528 47.8437C63.528 48.2285 63.4493 48.5698 63.292 48.8674C63.1347 49.165 62.8934 49.3989 62.5681 49.569C62.2428 49.7369 61.8272 49.8209 61.3212 49.8209H59.5354V49.1066H61.2957C61.6443 49.1066 61.925 49.0555 62.1376 48.9535C62.3523 48.8515 62.5075 48.7069 62.6032 48.5198C62.701 48.3306 62.7499 48.1052 62.7499 47.8437C62.7499 47.5822 62.701 47.3537 62.6032 47.1581C62.5054 46.9625 62.3491 46.8116 62.1344 46.7053C61.9197 46.5969 61.6358 46.5426 61.2829 46.5426H59.8925V52.3721H59.1017ZM62.1758 49.4382L63.7831 52.3721H62.8647L61.2829 49.4382H62.1758ZM69.7849 52.3721V45.8411H73.7264V46.5426H70.5757V48.7494H73.5223V49.451H70.5757V51.6705H73.7774V52.3721H69.7849ZM83.6626 47.4738C83.6243 47.1507 83.4691 46.8998 83.197 46.7212C82.9249 46.5426 82.5911 46.4534 82.1957 46.4534C81.9065 46.4534 81.6535 46.5001 81.4367 46.5937C81.222 46.6872 81.054 46.8158 80.9328 46.9795C80.8138 47.1432 80.7543 47.3293 80.7543 47.5376C80.7543 47.7119 80.7957 47.8618 80.8786 47.9872C80.9637 48.1106 81.0721 48.2137 81.2039 48.2966C81.3357 48.3774 81.4739 48.4443 81.6185 48.4975C81.763 48.5485 81.8959 48.59 82.0171 48.6219L82.6804 48.8004C82.8505 48.8451 83.0397 48.9067 83.248 48.9854C83.4585 49.0641 83.6594 49.1714 83.8507 49.3075C84.0442 49.4414 84.2037 49.6136 84.3291 49.8241C84.4545 50.0346 84.5172 50.2929 84.5172 50.599C84.5172 50.9519 84.4248 51.2708 84.2398 51.5557C84.057 51.8406 83.7891 52.067 83.4362 52.2349C83.0854 52.4029 82.6591 52.4869 82.1574 52.4869C81.6897 52.4869 81.2847 52.4114 80.9424 52.2605C80.6023 52.1095 80.3344 51.899 80.1388 51.629C79.9453 51.359 79.8358 51.0455 79.8103 50.6883H80.6267C80.648 50.9349 80.7309 51.139 80.8754 51.3006C81.0221 51.46 81.2071 51.5791 81.4303 51.6577C81.6557 51.7343 81.898 51.7725 82.1574 51.7725C82.4593 51.7725 82.7304 51.7236 82.9706 51.6259C83.2108 51.5259 83.4011 51.3877 83.5414 51.2113C83.6817 51.0327 83.7519 50.8244 83.7519 50.5863C83.7519 50.3694 83.6913 50.1929 83.5701 50.0569C83.4489 49.9208 83.2895 49.8103 83.0918 49.7252C82.8941 49.6402 82.6804 49.5658 82.4508 49.502L81.6472 49.2724C81.1369 49.1257 80.733 48.9163 80.4354 48.6442C80.1377 48.372 79.9889 48.0159 79.9889 47.5759C79.9889 47.2102 80.0878 46.8913 80.2855 46.6192C80.4853 46.3449 80.7532 46.1323 81.0891 45.9814C81.4271 45.8283 81.8045 45.7518 82.2212 45.7518C82.6421 45.7518 83.0163 45.8273 83.3437 45.9782C83.6711 46.127 83.9305 46.3311 84.1218 46.5905C84.3153 46.8499 84.4173 47.1443 84.4279 47.4738H83.6626Z" fill="#050607"/>
<path d="M35.0223 24.3177H34.8786C34.1243 24.3177 33.5137 23.707 33.5137 22.9527V8.54857C33.5137 7.79424 34.1243 7.18359 34.8786 7.18359H35.0223C35.7767 7.18359 36.3873 7.79424 36.3873 8.54857V22.9527C36.3873 23.6711 35.7767 24.3177 35.0223 24.3177Z" fill="#F1B99B"/>
<path d="M39.6208 22.7728H39.4411C38.6868 22.7728 38.0762 22.1621 38.0762 21.4078V5.85424C38.0762 5.09991 38.6868 4.48926 39.4411 4.48926H39.6208C40.3751 4.48926 40.9857 5.09991 40.9857 5.85424V21.4078C40.9857 22.1621 40.3751 22.7728 39.6208 22.7728Z" fill="#94C136"/>
<path d="M44.2536 24.3177H44.074C43.3196 24.3177 42.709 23.7071 42.709 22.9528V4.5974C42.709 3.84307 43.3196 3.23242 44.074 3.23242H44.2536C45.0079 3.23242 45.6185 3.84307 45.6185 4.5974V22.9528C45.6185 23.7071 45.0079 24.3177 44.2536 24.3177Z" fill="#BED392"/>
<path d="M58.0836 27.8021H57.904C57.1497 27.8021 56.5391 27.1915 56.5391 26.4371V8.08178C56.5391 7.32745 57.1497 6.7168 57.904 6.7168H58.0836C58.838 6.7168 59.4486 7.32745 59.4486 8.08178V26.4371C59.4486 27.1915 58.838 27.8021 58.0836 27.8021Z" fill="#A02C77"/>
<path d="M48.8512 26.6522H48.6716C47.9173 26.6522 47.3066 26.0415 47.3066 25.2872V5.85424C47.3066 5.09991 47.9173 4.48926 48.6716 4.48926H48.8512C49.6056 4.48926 50.2162 5.09991 50.2162 5.85424V25.2872C50.2162 26.0415 49.6056 26.6522 48.8512 26.6522Z" fill="#4E81C2"/>
<path d="M53.486 32.5435H53.3064C52.5521 32.5435 51.9414 31.9329 51.9414 31.1785V4.5974C51.9414 3.84307 52.5521 3.23242 53.3064 3.23242H53.486C54.2403 3.23242 54.851 3.84307 54.851 4.5974V31.1785C54.815 31.9329 54.2403 32.5435 53.486 32.5435Z" fill="#90B7E2"/>
<path d="M30.4242 20.5106H30.2087C29.4544 20.5106 28.8438 19.8999 28.8438 19.1456V12.4285C28.8438 11.6741 29.4544 11.0635 30.2087 11.0635H30.3883C31.1427 11.0635 31.7533 11.6741 31.7533 12.4285V19.1456C31.7533 19.8999 31.1786 20.5106 30.4242 20.5106Z" fill="#EB5C2B"/>
<path d="M62.6813 21.3367H62.5017C61.7474 21.3367 61.1367 20.7261 61.1367 19.9718V13.2546C61.1367 12.5003 61.7474 11.8896 62.5017 11.8896H62.6813C63.4356 11.8896 64.0463 12.5003 64.0463 13.2546V19.9718C64.0463 20.7261 63.4356 21.3367 62.6813 21.3367Z" fill="#C387AE"/>
<path d="M62.7887 43.0084C61.9985 43.0084 61.2082 42.9006 60.4898 42.6492C59.8792 42.4337 59.3404 42.1104 58.8734 41.6793C58.0113 40.7813 57.5443 39.596 57.5802 38.3387V31.7653H60.4898V38.231C60.4539 38.8416 60.6694 39.4164 61.0645 39.8474C61.5315 40.2785 62.1781 40.5299 62.7887 40.494C63.4353 40.5299 64.0459 40.3144 64.5129 39.8474C64.908 39.4164 65.1235 38.8416 65.0876 38.231V31.7653H67.9613V38.3028C67.9613 38.9494 67.8535 39.596 67.638 40.2066C67.4225 40.7813 67.0992 41.2842 66.6681 41.6793C66.2012 42.1104 65.6624 42.4337 65.0517 42.6492C64.3333 42.9006 63.579 43.0084 62.7887 43.0084ZM7.90225 43.0084C6.32175 43.0443 4.81309 42.4696 3.66364 41.4279C3.12483 40.925 2.69378 40.3144 2.40642 39.6319C2.08313 38.9135 1.93945 38.1232 1.93945 37.2971C1.93945 36.5068 2.08313 35.7166 2.40642 34.9622C2.69378 34.2797 3.12483 33.6691 3.66364 33.1662C4.81309 32.1245 6.35767 31.5498 7.90225 31.5857C9.01578 31.5498 10.1293 31.8731 11.0273 32.5196C11.7457 33.0225 12.3205 33.7409 12.7156 34.5312L10.273 35.7166C10.0934 35.2496 9.77011 34.8545 9.33907 34.603C8.90802 34.3157 8.40514 34.1361 7.90225 34.1361C7.07608 34.1361 6.28583 34.4593 5.67518 35.0341C5.10045 35.6447 4.81309 36.4709 4.81309 37.2971C4.81309 38.1232 5.10045 38.9494 5.67518 39.56C6.24991 40.1707 7.04016 40.494 7.90225 40.494C8.40514 40.494 8.90802 40.3144 9.33907 40.027C9.73419 39.7397 10.0575 39.3445 10.273 38.9135L12.7156 40.0629C12.3205 40.8532 11.7457 41.5357 11.0273 42.0745C10.1293 42.6851 9.0517 43.0084 7.90225 43.0084ZM73.6367 42.7929H70.799V31.7653H74.7502L77.0491 37.8359L79.3481 31.7653H83.2993V42.7929H80.4616V35.501L77.6957 42.7929H76.4385L73.6367 35.501V42.7929ZM41.7034 42.7929H38.8657V31.7653H41.7752L46.2294 37.8359V31.7653H49.103V42.7929H46.3731L41.7034 36.399V42.7929ZM17.6008 42.7929H14.7631V31.7653H20.2948C21.3365 31.7294 22.3782 32.0886 23.1325 32.8429C23.7791 33.5613 24.1383 34.4953 24.1383 35.4292C24.1742 36.2194 23.9228 37.0097 23.4199 37.6563C23.0248 38.1591 22.5219 38.5184 21.9472 38.7339L24.2101 42.7929H20.9414L19.0735 39.0931H17.6367L17.6008 42.7929ZM17.6008 34.2438V36.6146H19.8638C20.223 36.6146 20.5463 36.5068 20.8336 36.3272C21.0851 36.1117 21.2287 35.7884 21.2287 35.4292C21.2287 35.1059 21.0851 34.7826 20.8336 34.5671C20.5463 34.3516 20.223 34.2438 19.8638 34.2797L17.6008 34.2438ZM28.5565 42.7929H25.3237L29.4545 31.7653H33.0466L37.1774 42.7929H33.9446L33.4058 41.2124H29.0594L28.5565 42.7929ZM31.2865 34.5671L29.8856 38.698H32.6874L31.2865 34.5671ZM54.7425 42.7929H51.9048V33.7409C52.0485 34.2079 52.4436 34.4953 52.9465 34.4953H53.7008C53.9523 34.4953 54.2037 34.3875 54.4193 34.2438C54.5989 34.0642 54.7425 33.8487 54.7785 33.5972L54.7425 42.7929Z" fill="#050607"/>
</svg>
