<svg width="20" height="21" viewBox="0 0 20 21" fill="none" xmlns="http://www.w3.org/2000/svg">
<g id="perm_identity">
<path id="Vector" d="M9.99967 5.00505C10.9163 5.00505 11.6663 5.75505 11.6663 6.67171C11.6663 7.58838 10.9163 8.33838 9.99967 8.33838C9.08301 8.33838 8.33301 7.58838 8.33301 6.67171C8.33301 5.75505 9.08301 5.00505 9.99967 5.00505ZM9.99967 12.505C12.2497 12.505 14.833 13.58 14.9997 14.1717V15.005H4.99967V14.18C5.16634 13.58 7.74967 12.505 9.99967 12.505ZM9.99967 3.33838C8.15801 3.33838 6.66634 4.83005 6.66634 6.67171C6.66634 8.51338 8.15801 10.005 9.99967 10.005C11.8413 10.005 13.333 8.51338 13.333 6.67171C13.333 4.83005 11.8413 3.33838 9.99967 3.33838ZM9.99967 10.8384C7.77467 10.8384 3.33301 11.955 3.33301 14.1717V16.6717H16.6663V14.1717C16.6663 11.955 12.2247 10.8384 9.99967 10.8384Z" fill="white"/>
</g>
</svg>
