<svg width="83" height="13" viewBox="0 0 83 13" fill="none" xmlns="http://www.w3.org/2000/svg">
<path id="Subtraction_65-2_00000003094691106872252180000002180338616269450682_" d="M61.7887 12.0084C60.9985 12.0084 60.2082 11.9006 59.4898 11.6492C58.8792 11.4337 58.3404 11.1104 57.8734 10.6793C57.0113 9.78134 56.5443 8.59597 56.5802 7.33875V0.765309H59.4898V7.23099C59.4539 7.84164 59.6694 8.41637 60.0645 8.84741C60.5315 9.27846 61.1781 9.5299 61.7887 9.49398C62.4353 9.5299 63.0459 9.31438 63.5129 8.84741C63.908 8.41637 64.1235 7.84164 64.0876 7.23099V0.765309H66.9613V7.30283C66.9613 7.94939 66.8535 8.59597 66.638 9.20662C66.4225 9.78134 66.0992 10.2842 65.6681 10.6793C65.2012 11.1104 64.6624 11.4337 64.0517 11.6492C63.3333 11.9006 62.579 12.0084 61.7887 12.0084ZM6.90225 12.0084C5.32175 12.0443 3.81309 11.4696 2.66364 10.4279C2.12483 9.92502 1.69378 9.31438 1.40642 8.63189C1.08313 7.91348 0.939453 7.12323 0.939453 6.29706C0.939453 5.50681 1.08313 4.71656 1.40642 3.96223C1.69378 3.27974 2.12483 2.66909 2.66364 2.1662C3.81309 1.12451 5.35767 0.549786 6.90225 0.585706C8.01578 0.549786 9.12932 0.873061 10.0273 1.51963C10.7457 2.02252 11.3205 2.74093 11.7156 3.53118L9.273 4.71656C9.0934 4.24959 8.77011 3.85447 8.33907 3.60302C7.90802 3.31566 7.40514 3.13605 6.90225 3.13605C6.07608 3.13605 5.28583 3.45933 4.67518 4.03406C4.10045 4.64471 3.81309 5.47089 3.81309 6.29706C3.81309 7.12323 4.10045 7.94939 4.67518 8.56004C5.24991 9.17069 6.04016 9.49398 6.90225 9.49398C7.40514 9.49398 7.90802 9.31438 8.33907 9.02701C8.73419 8.73965 9.05748 8.34452 9.273 7.91348L11.7156 9.06293C11.3205 9.85318 10.7457 10.5357 10.0273 11.0745C9.12932 11.6851 8.0517 12.0084 6.90225 12.0084ZM72.6367 11.7929H69.799V0.765309H73.7502L76.0491 6.83586L78.3481 0.765309H82.2993V11.7929H79.4616V4.50103L76.6957 11.7929H75.4385L72.6367 4.50103V11.7929ZM40.7034 11.7929H37.8657V0.765309H40.7752L45.2294 6.83586V0.765309H48.103V11.7929H45.3731L40.7034 5.39905V11.7929ZM16.6008 11.7929H13.7631V0.765309H19.2948C20.3365 0.729388 21.3782 1.08859 22.1325 1.84292C22.7791 2.56133 23.1383 3.49526 23.1383 4.42919C23.1742 5.21944 22.9228 6.00969 22.4199 6.65626C22.0248 7.15915 21.5219 7.51835 20.9472 7.73388L23.2101 11.7929H19.9414L18.0735 8.09308H16.6367L16.6008 11.7929ZM16.6008 3.24382V5.61457H18.8638C19.223 5.61457 19.5463 5.5068 19.8336 5.3272C20.0851 5.11168 20.2287 4.78839 20.2287 4.42919C20.2287 4.10591 20.0851 3.78262 19.8336 3.5671C19.5463 3.35158 19.223 3.24382 18.8638 3.27974L16.6008 3.24382ZM27.5565 11.7929H24.3237L28.4545 0.765309H32.0466L36.1774 11.7929H32.9446L32.4058 10.2124H28.0594L27.5565 11.7929ZM30.2865 3.5671L28.8856 7.69795H31.6874L30.2865 3.5671ZM53.7425 11.7929H50.9048V2.74093C51.0485 3.2079 51.4436 3.49526 51.9465 3.49526H52.7008C52.9523 3.49526 53.2037 3.3875 53.4193 3.24382C53.5989 3.06422 53.7425 2.84869 53.7785 2.59724L53.7425 11.7929Z" fill="#050607"/>
</svg>
