<svg width="164" height="34" viewBox="0 0 164 34" fill="none" xmlns="http://www.w3.org/2000/svg">
<g id="SYNAP" clip-path="url(#clip0_811_10949)">
<g id="Group_497">
<g id="Clip path group">
<mask id="mask0_811_10949" style="mask-type:luminance" maskUnits="userSpaceOnUse" x="0" y="0" width="164" height="34">
<g id="clippath">
<path id="Vector" d="M163.089 0H0.125V33.9977H163.089V0Z" fill="white"/>
</g>
</mask>
<g mask="url(#mask0_811_10949)">
<g id="Group">
<g id="Group_441">
<path id="Path_508" d="M10.2299 0.000642622H27.106V4.86068H10.2299C7.65687 4.82782 5.54157 6.68524 5.50519 9.00937C5.50456 9.04921 5.50456 9.08906 5.50519 9.1289V10.3131C5.4685 12.6372 7.52456 14.5482 10.0975 14.5813C10.1414 14.5819 10.1854 14.5819 10.2293 14.5813H17.9723C20.6569 14.5512 23.2359 15.525 25.0983 17.2718C27.0321 18.954 28.1101 21.2836 28.0768 23.7085V24.8701C28.1101 27.2951 27.0321 29.6246 25.0983 31.3069C23.2361 33.0541 20.6571 34.0282 17.9723 33.9984H1.09564V29.1373H17.9723C20.5459 29.1693 22.661 27.3107 22.6964 24.986C22.697 24.9474 22.697 24.9088 22.6964 24.8701V23.7086C22.7299 21.3821 20.6692 19.4716 18.0937 19.4414C18.0532 19.4409 18.0128 19.4409 17.9723 19.4414H10.2299C7.54464 19.4714 4.96525 18.4968 3.10336 16.7488C1.16978 15.0668 0.0918391 12.7377 0.124786 10.3131V9.12894C0.0911901 6.70361 1.1692 4.37367 3.10336 2.69118C4.96586 0.944215 7.54503 -0.0295475 10.2299 0.000642622Z" fill="black"/>
<path id="Path_510" d="M74.1668 0.000732712H83.5371C86.218 -0.0305907 88.7932 0.943602 90.6494 2.69123C92.5765 4.37691 93.6495 6.70548 93.6154 9.12848V33.9985H88.2606V9.12899C88.2966 6.80429 86.2395 4.89337 83.6659 4.86079C83.6228 4.86025 83.5796 4.86025 83.5365 4.86079H74.1668C71.5938 4.82822 69.4788 6.68588 69.4427 9.01001C69.4421 9.04967 69.4421 9.08934 69.4427 9.12901V33.9985H64.0623V9.12901C64.0285 6.70376 65.1063 4.37382 67.0403 2.69125C68.9028 0.944286 71.482 -0.0294574 74.1668 0.000732712Z" fill="black"/>
<path id="Path_511" d="M114.034 0.000976562L130.176 33.9987H124.323L114.034 12.3309L103.772 33.9987H97.9189L114.034 0.000976562Z" fill="black"/>
<path id="Path_512" d="M134.452 0.00103806H149.649C151.44 -0.00417926 153.213 0.322617 154.858 0.96124C158.098 2.18082 160.674 4.50745 162.024 7.43445C163.442 10.4411 163.442 13.8396 162.024 16.8463C160.674 19.7731 158.098 22.0997 154.858 23.3195C153.213 23.9583 151.44 24.2853 149.649 24.2802H139.834V34.0003H134.452V19.4417H149.649C151.799 19.4811 153.871 18.7126 155.37 17.3195C156.904 15.9566 157.749 14.0831 157.706 12.1398C157.751 8.16067 154.217 4.90188 149.812 4.8611C149.758 4.86061 149.704 4.86059 149.65 4.86108H134.452V0.00103806Z" fill="black"/>
<g id="Group_499">
<path id="Path_509" d="M32.1455 0.0244141H38.6026L48.2612 13.1106L57.9466 0.0244141H64.4025L48.2606 21.8587L32.1455 0.0244141ZM45.5835 26.7208H50.9639V33.9975H45.5835V26.7208Z" fill="#23B217"/>
<path id="Rectangle_201" d="M50.9634 26.7188H45.583V33.997H50.9634V26.7188Z" fill="#23B217"/>
</g>
<path id="Rectangle_207" d="M139.835 3.35156H134.454V20.9048H139.835V3.35156Z" fill="#040506"/>
</g>
</g>
</g>
</g>
</g>
</g>
<defs>
<clipPath id="clip0_811_10949">
<rect width="162.965" height="34" fill="white" transform="translate(0.124023)"/>
</clipPath>
</defs>
</svg>
