<svg width="99" height="73" viewBox="0 0 99 73" fill="none" xmlns="http://www.w3.org/2000/svg">
<g id="undraw_programming_re_kg9v 1" clip-path="url(#clip0_811_12402)">
<path id="Vector" d="M57.2907 13.1098C59.134 13.1098 60.6283 11.6155 60.6283 9.77216C60.6283 7.92886 59.134 6.43457 57.2907 6.43457C55.4474 6.43457 53.9531 7.92886 53.9531 9.77216C53.9531 11.6155 55.4474 13.1098 57.2907 13.1098Z" fill="#F9F9F9"/>
<path id="Vector_2" d="M83.1807 62.6433C88.1417 58.8647 90.5112 52.5151 89.0278 46.458C88.9909 46.3075 88.952 46.1574 88.9111 46.0075C87.9276 42.4121 85.4946 38.995 81.9486 37.8461C78.9711 36.8815 75.7211 37.6233 72.6149 37.2397C66.5172 36.4867 61.7898 31.5529 58.4635 26.3873C55.1372 21.2216 52.5808 15.4394 48.1608 11.1718C40.8752 4.13733 28.9905 2.62282 19.9574 7.2017C10.9244 11.7806 5.17036 21.9392 5.41575 32.0636C5.66116 42.188 11.6715 51.8676 20.4001 57.0032C23.6067 58.8899 27.3153 60.2264 31.0062 59.7587C34.2087 59.3529 37.1186 57.6321 40.306 57.1213C45.3174 56.3181 50.2969 58.5839 54.6313 61.2242C58.9658 63.8646 63.1526 66.9942 68.0781 68.2183C72.8608 69.4068 78.7861 65.9906 83.1807 62.6433Z" fill="#F9F9F9"/>
<path id="Vector_3" d="M76.0527 7.41451C75.9439 7.34201 75.8339 7.27326 75.7252 7.20326C72.5816 5.19273 69.2121 3.5594 65.6864 2.33701L64.8689 13.6145H59.6864V0.690762C59.3602 0.623262 59.0314 0.559512 58.7027 0.499512V13.6145H52.5439C49.1535 13.6145 45.9019 12.2677 43.5044 9.87024C41.107 7.47283 39.7602 4.22123 39.7602 0.830776C39.4302 0.902026 39.1027 0.978265 38.7752 1.05952V13.6145H33.7589L32.9802 2.86076C29.357 4.2503 25.9173 6.07761 22.7377 8.30202C22.6827 8.33952 22.6277 8.37826 22.5739 8.41576C22.2977 8.60952 22.0252 8.80702 21.7539 9.00702V52.0308H36.5377L36.2764 48.412L34.8389 28.5433H63.7877L62.3502 48.412L62.0889 52.0308H76.7089V7.84951C76.4914 7.70202 76.2727 7.55702 76.0527 7.41451ZM38.7752 25.262H34.6014L33.8302 14.5995H38.7752V25.262ZM58.7027 25.262H51.6927V25.0508C51.6927 24.9492 51.6727 24.8487 51.6338 24.7549C51.5949 24.661 51.5378 24.5758 51.466 24.5041C51.3941 24.4323 51.3088 24.3754 51.2149 24.3367C51.1211 24.298 51.0205 24.2781 50.9189 24.2783H47.8714C47.77 24.2782 47.6695 24.2982 47.5758 24.337C47.482 24.3758 47.3968 24.4327 47.3251 24.5044C47.2534 24.5762 47.1965 24.6614 47.1576 24.7551C47.1188 24.8488 47.0989 24.9493 47.0989 25.0508V25.262H39.7602V14.5995H58.7027V25.262ZM59.6864 25.262V14.5995H64.7977L64.0264 25.262H59.6864Z" fill="#3F3D56"/>
<path id="Vector_4" d="M0 54.7856C1.08591 56.0723 2.26044 57.2815 3.515 58.4044L94.8375 58.5294C96.0921 57.4065 97.2666 56.1973 98.3525 54.9106L0 54.7856Z" fill="#3F3D56"/>
<path id="Vector_5" d="M61.9277 43.1984V53.9114C61.9278 54.0479 61.9821 54.1788 62.0787 54.2754C62.1752 54.3719 62.3061 54.4262 62.4426 54.4263H78.3182C78.4547 54.4262 78.5856 54.3719 78.6821 54.2754C78.7787 54.1788 78.833 54.0479 78.8331 53.9114V43.1984C78.8327 43.062 78.7784 42.9313 78.6819 42.8349C78.5854 42.7385 78.4546 42.6843 78.3182 42.6841H62.4426C62.3062 42.6843 62.1754 42.7385 62.0789 42.8349C61.9824 42.9313 61.9281 43.062 61.9277 43.1984Z" fill="#3F3D56"/>
<path id="Vector_6" d="M62.3008 43.3319V53.7795C62.3009 53.8524 62.3299 53.9223 62.3815 53.9739C62.4331 54.0255 62.503 54.0545 62.576 54.0546H78.1866C78.2596 54.0545 78.3295 54.0255 78.3811 53.9739C78.4327 53.9223 78.4617 53.8524 78.4618 53.7795V43.3319C78.4618 43.2589 78.4328 43.1888 78.3813 43.1371C78.3297 43.0854 78.2597 43.0563 78.1866 43.0562H62.576C62.5029 43.0563 62.4329 43.0854 62.3814 43.1371C62.3298 43.1888 62.3008 43.2589 62.3008 43.3319Z" fill="#EB5C2B"/>
<path id="Vector_7" d="M61.5977 56.0011C61.6268 56.0375 61.6637 56.0669 61.7058 56.0871C61.7479 56.1072 61.794 56.1175 61.8406 56.1173H78.8396C78.8861 56.1172 78.932 56.1068 78.9739 56.0868C79.0159 56.0668 79.0529 56.0377 79.0822 56.0015C79.1114 55.9654 79.1323 55.9233 79.1432 55.8781C79.1542 55.8329 79.1549 55.7858 79.1454 55.7403L78.8815 54.4869C78.8706 54.4358 78.847 54.3883 78.813 54.3486C78.779 54.3089 78.7356 54.2783 78.6867 54.2597C78.6514 54.2458 78.6137 54.2387 78.5757 54.2388H62.1034C62.0655 54.2387 62.0278 54.2458 61.9924 54.2597C61.9436 54.2783 61.9002 54.3089 61.8662 54.3486C61.8322 54.3883 61.8086 54.4358 61.7977 54.4869L61.5338 55.7403C61.5244 55.7858 61.5253 55.8328 61.5363 55.8779C61.5474 55.923 61.5683 55.9651 61.5977 56.0011Z" fill="#050606"/>
<path id="Vector_8" d="M77.9906 54.7783H78.3921C78.4258 54.7783 78.4531 54.751 78.4531 54.7173V54.5252C78.4531 54.4915 78.4258 54.4642 78.3921 54.4642H77.9906C77.9569 54.4642 77.9296 54.4915 77.9296 54.5252V54.7173C77.9296 54.751 77.9569 54.7783 77.9906 54.7783Z" fill="#3F3D56"/>
<path id="Vector_9" d="M76.9437 54.7783H77.3452C77.3789 54.7783 77.4062 54.751 77.4062 54.7173V54.5252C77.4062 54.4915 77.3789 54.4642 77.3452 54.4642H76.9437C76.91 54.4642 76.8827 54.4915 76.8827 54.5252V54.7173C76.8827 54.751 76.91 54.7783 76.9437 54.7783Z" fill="#3F3D56"/>
<path id="Vector_10" d="M75.8968 54.7783H76.2984C76.3321 54.7783 76.3594 54.751 76.3594 54.7173V54.5252C76.3594 54.4915 76.3321 54.4642 76.2984 54.4642H75.8968C75.8631 54.4642 75.8358 54.4915 75.8358 54.5252V54.7173C75.8358 54.751 75.8631 54.7783 75.8968 54.7783Z" fill="#3F3D56"/>
<path id="Vector_11" d="M74.85 54.7783H75.2515C75.2852 54.7783 75.3125 54.751 75.3125 54.7173V54.5252C75.3125 54.4915 75.2852 54.4642 75.2515 54.4642H74.85C74.8163 54.4642 74.7889 54.4915 74.7889 54.5252V54.7173C74.7889 54.751 74.8163 54.7783 74.85 54.7783Z" fill="#3F3D56"/>
<path id="Vector_12" d="M73.8031 54.7783H74.2046C74.2383 54.7783 74.2656 54.751 74.2656 54.7173V54.5252C74.2656 54.4915 74.2383 54.4642 74.2046 54.4642H73.8031C73.7694 54.4642 73.7421 54.4915 73.7421 54.5252V54.7173C73.7421 54.751 73.7694 54.7783 73.8031 54.7783Z" fill="#3F3D56"/>
<path id="Vector_13" d="M72.7562 54.7783H73.1577C73.1914 54.7783 73.2188 54.751 73.2188 54.7173V54.5252C73.2188 54.4915 73.1914 54.4642 73.1577 54.4642H72.7562C72.7225 54.4642 72.6952 54.4915 72.6952 54.5252V54.7173C72.6952 54.751 72.7225 54.7783 72.7562 54.7783Z" fill="#3F3D56"/>
<path id="Vector_14" d="M71.7093 54.7783H72.1109C72.1446 54.7783 72.1719 54.751 72.1719 54.7173V54.5252C72.1719 54.4915 72.1446 54.4642 72.1109 54.4642H71.7093C71.6756 54.4642 71.6483 54.4915 71.6483 54.5252V54.7173C71.6483 54.751 71.6756 54.7783 71.7093 54.7783Z" fill="#3F3D56"/>
<path id="Vector_15" d="M70.6625 54.7783H71.064C71.0977 54.7783 71.125 54.751 71.125 54.7173V54.5252C71.125 54.4915 71.0977 54.4642 71.064 54.4642H70.6625C70.6288 54.4642 70.6014 54.4915 70.6014 54.5252V54.7173C70.6014 54.751 70.6288 54.7783 70.6625 54.7783Z" fill="#3F3D56"/>
<path id="Vector_16" d="M69.6136 54.7783H70.0152C70.0489 54.7783 70.0762 54.751 70.0762 54.7173V54.5252C70.0762 54.4915 70.0489 54.4642 70.0152 54.4642H69.6136C69.5799 54.4642 69.5526 54.4915 69.5526 54.5252V54.7173C69.5526 54.751 69.5799 54.7783 69.6136 54.7783Z" fill="#3F3D56"/>
<path id="Vector_17" d="M68.5668 54.7783H68.9683C69.002 54.7783 69.0293 54.751 69.0293 54.7173V54.5252C69.0293 54.4915 69.002 54.4642 68.9683 54.4642H68.5668C68.5331 54.4642 68.5057 54.4915 68.5057 54.5252V54.7173C68.5057 54.751 68.5331 54.7783 68.5668 54.7783Z" fill="#3F3D56"/>
<path id="Vector_18" d="M67.5199 54.7783H67.9214C67.9551 54.7783 67.9824 54.751 67.9824 54.7173V54.5252C67.9824 54.4915 67.9551 54.4642 67.9214 54.4642H67.5199C67.4862 54.4642 67.4589 54.4915 67.4589 54.5252V54.7173C67.4589 54.751 67.4862 54.7783 67.5199 54.7783Z" fill="#3F3D56"/>
<path id="Vector_19" d="M66.473 54.7783H66.8745C66.9082 54.7783 66.9355 54.751 66.9355 54.7173V54.5252C66.9355 54.4915 66.9082 54.4642 66.8745 54.4642H66.473C66.4393 54.4642 66.412 54.4915 66.412 54.5252V54.7173C66.412 54.751 66.4393 54.7783 66.473 54.7783Z" fill="#3F3D56"/>
<path id="Vector_20" d="M65.4261 54.7783H65.8276C65.8613 54.7783 65.8887 54.751 65.8887 54.7173V54.5252C65.8887 54.4915 65.8613 54.4642 65.8276 54.4642H65.4261C65.3924 54.4642 65.3651 54.4915 65.3651 54.5252V54.7173C65.3651 54.751 65.3924 54.7783 65.4261 54.7783Z" fill="#3F3D56"/>
<path id="Vector_21" d="M64.3793 54.7783H64.7808C64.8145 54.7783 64.8418 54.751 64.8418 54.7173V54.5252C64.8418 54.4915 64.8145 54.4642 64.7808 54.4642H64.3793C64.3456 54.4642 64.3182 54.4915 64.3182 54.5252V54.7173C64.3182 54.751 64.3456 54.7783 64.3793 54.7783Z" fill="#3F3D56"/>
<path id="Vector_22" d="M63.3324 54.7783H63.7339C63.7676 54.7783 63.7949 54.751 63.7949 54.7173V54.5252C63.7949 54.4915 63.7676 54.4642 63.7339 54.4642H63.3324C63.2987 54.4642 63.2714 54.4915 63.2714 54.5252V54.7173C63.2714 54.751 63.2987 54.7783 63.3324 54.7783Z" fill="#3F3D56"/>
<path id="Vector_23" d="M62.2855 54.7783H62.687C62.7207 54.7783 62.748 54.751 62.748 54.7173V54.5252C62.748 54.4915 62.7207 54.4642 62.687 54.4642H62.2855C62.2518 54.4642 62.2245 54.4915 62.2245 54.5252V54.7173C62.2245 54.751 62.2518 54.7783 62.2855 54.7783Z" fill="#3F3D56"/>
<path id="Vector_24" d="M78.0043 55.3018H78.4058C78.4395 55.3018 78.4668 55.2744 78.4668 55.2407V55.0486C78.4668 55.0149 78.4395 54.9876 78.4058 54.9876H78.0043C77.9706 54.9876 77.9432 55.0149 77.9432 55.0486V55.2407C77.9432 55.2744 77.9706 55.3018 78.0043 55.3018Z" fill="#3F3D56"/>
<path id="Vector_25" d="M76.9574 55.3022H77.3589C77.3926 55.3022 77.4199 55.2749 77.4199 55.2412V55.0491C77.4199 55.0154 77.3926 54.9881 77.3589 54.9881H76.9574C76.9237 54.9881 76.8964 55.0154 76.8964 55.0491V55.2412C76.8964 55.2749 76.9237 55.3022 76.9574 55.3022Z" fill="#3F3D56"/>
<path id="Vector_26" d="M75.9105 55.3022H76.312C76.3457 55.3022 76.373 55.2749 76.373 55.2412V55.0491C76.373 55.0154 76.3457 54.9881 76.312 54.9881H75.9105C75.8768 54.9881 75.8495 55.0154 75.8495 55.0491V55.2412C75.8495 55.2749 75.8768 55.3022 75.9105 55.3022Z" fill="#3F3D56"/>
<path id="Vector_27" d="M74.8636 55.3018H75.2652C75.2989 55.3018 75.3262 55.2744 75.3262 55.2407V55.0486C75.3262 55.0149 75.2989 54.9876 75.2652 54.9876H74.8636C74.8299 54.9876 74.8026 55.0149 74.8026 55.0486V55.2407C74.8026 55.2744 74.8299 55.3018 74.8636 55.3018Z" fill="#3F3D56"/>
<path id="Vector_28" d="M73.8148 55.3018H74.2163C74.25 55.3018 74.2773 55.2744 74.2773 55.2407V55.0486C74.2773 55.0149 74.25 54.9876 74.2163 54.9876H73.8148C73.7811 54.9876 73.7538 55.0149 73.7538 55.0486V55.2407C73.7538 55.2744 73.7811 55.3018 73.8148 55.3018Z" fill="#3F3D56"/>
<path id="Vector_29" d="M72.7679 55.3018H73.1694C73.2032 55.3018 73.2305 55.2744 73.2305 55.2407V55.0486C73.2305 55.0149 73.2032 54.9876 73.1694 54.9876H72.7679C72.7342 54.9876 72.7069 55.0149 72.7069 55.0486V55.2407C72.7069 55.2744 72.7342 55.3018 72.7679 55.3018Z" fill="#3F3D56"/>
<path id="Vector_30" d="M71.7211 55.3018H72.1226C72.1563 55.3018 72.1836 55.2744 72.1836 55.2407V55.0486C72.1836 55.0149 72.1563 54.9876 72.1226 54.9876H71.7211C71.6874 54.9876 71.66 55.0149 71.66 55.0486V55.2407C71.66 55.2744 71.6874 55.3018 71.7211 55.3018Z" fill="#3F3D56"/>
<path id="Vector_31" d="M70.6742 55.3018H71.0757C71.1094 55.3018 71.1367 55.2744 71.1367 55.2407V55.0486C71.1367 55.0149 71.1094 54.9876 71.0757 54.9876H70.6742C70.6405 54.9876 70.6132 55.0149 70.6132 55.0486V55.2407C70.6132 55.2744 70.6405 55.3018 70.6742 55.3018Z" fill="#3F3D56"/>
<path id="Vector_32" d="M69.6273 55.3018H70.0288C70.0625 55.3018 70.0898 55.2744 70.0898 55.2407V55.0486C70.0898 55.0149 70.0625 54.9876 70.0288 54.9876H69.6273C69.5936 54.9876 69.5663 55.0149 69.5663 55.0486V55.2407C69.5663 55.2744 69.5936 55.3018 69.6273 55.3018Z" fill="#3F3D56"/>
<path id="Vector_33" d="M68.5804 55.3018H68.9819C69.0156 55.3018 69.043 55.2744 69.043 55.2407V55.0486C69.043 55.0149 69.0156 54.9876 68.9819 54.9876H68.5804C68.5467 54.9876 68.5194 55.0149 68.5194 55.0486V55.2407C68.5194 55.2744 68.5467 55.3018 68.5804 55.3018Z" fill="#3F3D56"/>
<path id="Vector_34" d="M67.5336 55.3018H67.9351C67.9688 55.3018 67.9961 55.2744 67.9961 55.2407V55.0486C67.9961 55.0149 67.9688 54.9876 67.9351 54.9876H67.5336C67.4999 54.9876 67.4725 55.0149 67.4725 55.0486V55.2407C67.4725 55.2744 67.4999 55.3018 67.5336 55.3018Z" fill="#3F3D56"/>
<path id="Vector_35" d="M66.4847 55.3018H66.8862C66.9199 55.3018 66.9473 55.2744 66.9473 55.2407V55.0486C66.9473 55.0149 66.9199 54.9876 66.8862 54.9876H66.4847C66.451 54.9876 66.4237 55.0149 66.4237 55.0486V55.2407C66.4237 55.2744 66.451 55.3018 66.4847 55.3018Z" fill="#3F3D56"/>
<path id="Vector_36" d="M65.4379 55.3018H65.8394C65.8731 55.3018 65.9004 55.2744 65.9004 55.2407V55.0486C65.9004 55.0149 65.8731 54.9876 65.8394 54.9876H65.4379C65.4042 54.9876 65.3768 55.0149 65.3768 55.0486V55.2407C65.3768 55.2744 65.4042 55.3018 65.4379 55.3018Z" fill="#3F3D56"/>
<path id="Vector_37" d="M64.391 55.3018H64.7925C64.8262 55.3018 64.8535 55.2744 64.8535 55.2407V55.0486C64.8535 55.0149 64.8262 54.9876 64.7925 54.9876H64.391C64.3573 54.9876 64.33 55.0149 64.33 55.0486V55.2407C64.33 55.2744 64.3573 55.3018 64.391 55.3018Z" fill="#3F3D56"/>
<path id="Vector_38" d="M63.3441 55.3018H63.7456C63.7793 55.3018 63.8066 55.2744 63.8066 55.2407V55.0486C63.8066 55.0149 63.7793 54.9876 63.7456 54.9876H63.3441C63.3104 54.9876 63.2831 55.0149 63.2831 55.0486V55.2407C63.2831 55.2744 63.3104 55.3018 63.3441 55.3018Z" fill="#3F3D56"/>
<path id="Vector_39" d="M62.2972 55.3018H62.6987C62.7324 55.3018 62.7598 55.2744 62.7598 55.2407V55.0486C62.7598 55.0149 62.7324 54.9876 62.6987 54.9876H62.2972C62.2635 54.9876 62.2362 55.0149 62.2362 55.0486V55.2407C62.2362 55.2744 62.2635 55.3018 62.2972 55.3018Z" fill="#3F3D56"/>
<path id="Vector_40" d="M69.312 55.9302H73.3784C73.4121 55.9302 73.4395 55.9029 73.4395 55.8691V55.6771C73.4395 55.6434 73.4121 55.616 73.3784 55.616H69.312C69.2783 55.616 69.251 55.6434 69.251 55.6771V55.8691C69.251 55.9029 69.2783 55.9302 69.312 55.9302Z" fill="#3F3D56"/>
<path id="Vector_41" d="M65.0037 45.3418H64.6483C64.5405 45.3418 64.4531 45.4292 64.4531 45.5369C64.4531 45.6447 64.5405 45.7321 64.6483 45.7321H65.0037C65.1115 45.7321 65.1989 45.6447 65.1989 45.5369C65.1989 45.4292 65.1115 45.3418 65.0037 45.3418Z" fill="white"/>
<path id="Vector_42" d="M69.0701 45.3418H68.7147C68.6069 45.3418 68.5195 45.4292 68.5195 45.5369C68.5195 45.6447 68.6069 45.7321 68.7147 45.7321H69.0701C69.1779 45.7321 69.2653 45.6447 69.2653 45.5369C69.2653 45.4292 69.1779 45.3418 69.0701 45.3418Z" fill="white"/>
<path id="Vector_43" d="M70.2225 45.3418H69.867C69.7592 45.3418 69.6719 45.4292 69.6719 45.5369C69.6719 45.6447 69.7592 45.7321 69.867 45.7321H70.2225C70.3302 45.7321 70.4176 45.6447 70.4176 45.5369C70.4176 45.4292 70.3302 45.3418 70.2225 45.3418Z" fill="white"/>
<path id="Vector_44" d="M67.9649 45.3091H65.7557C65.6479 45.3091 65.5605 45.3964 65.5605 45.5042C65.5605 45.612 65.6479 45.6994 65.7557 45.6994H67.9649C68.0727 45.6994 68.1601 45.612 68.1601 45.5042C68.1601 45.3964 68.0727 45.3091 67.9649 45.3091Z" fill="white"/>
<path id="Vector_45" d="M73.3849 45.3091H71.1756C71.0678 45.3091 70.9805 45.3964 70.9805 45.5042C70.9805 45.612 71.0678 45.6994 71.1756 45.6994H73.3849C73.4926 45.6994 73.58 45.612 73.58 45.5042C73.58 45.3964 73.4926 45.3091 73.3849 45.3091Z" fill="white"/>
<path id="Vector_46" d="M66.0897 46.2227H65.7342C65.6264 46.2227 65.5391 46.31 65.5391 46.4178C65.5391 46.5256 65.6264 46.6129 65.7342 46.6129H66.0897C66.1974 46.6129 66.2848 46.5256 66.2848 46.4178C66.2848 46.31 66.1974 46.2227 66.0897 46.2227Z" fill="white"/>
<path id="Vector_47" d="M70.1541 46.2227H69.7987C69.6909 46.2227 69.6035 46.31 69.6035 46.4178C69.6035 46.5256 69.6909 46.6129 69.7987 46.6129H70.1541C70.2619 46.6129 70.3493 46.5256 70.3493 46.4178C70.3493 46.31 70.2619 46.2227 70.1541 46.2227Z" fill="white"/>
<path id="Vector_48" d="M71.3065 46.2227H70.951C70.8432 46.2227 70.7559 46.31 70.7559 46.4178C70.7559 46.5256 70.8432 46.6129 70.951 46.6129H71.3065C71.4142 46.6129 71.5016 46.5256 71.5016 46.4178C71.5016 46.31 71.4142 46.2227 71.3065 46.2227Z" fill="white"/>
<path id="Vector_49" d="M69.0489 46.1899H66.8397C66.7319 46.1899 66.6445 46.2773 66.6445 46.3851C66.6445 46.4928 66.7319 46.5802 66.8397 46.5802H69.0489C69.1567 46.5802 69.2441 46.4928 69.2441 46.3851C69.2441 46.2773 69.1567 46.1899 69.0489 46.1899Z" fill="white"/>
<path id="Vector_50" d="M74.4688 46.1899H72.2596C72.1518 46.1899 72.0645 46.2773 72.0645 46.3851C72.0645 46.4928 72.1518 46.5802 72.2596 46.5802H74.4688C74.5766 46.5802 74.664 46.4928 74.664 46.3851C74.664 46.2773 74.5766 46.1899 74.4688 46.1899Z" fill="white"/>
<path id="Vector_51" d="M67.1736 47.1035H66.8182C66.7104 47.1035 66.623 47.1909 66.623 47.2986C66.623 47.4064 66.7104 47.4938 66.8182 47.4938H67.1736C67.2814 47.4938 67.3688 47.4064 67.3688 47.2986C67.3688 47.1909 67.2814 47.1035 67.1736 47.1035Z" fill="white"/>
<path id="Vector_52" d="M71.2381 47.1035H70.8826C70.7749 47.1035 70.6875 47.1909 70.6875 47.2986C70.6875 47.4064 70.7749 47.4938 70.8826 47.4938H71.2381C71.3459 47.4938 71.4332 47.4064 71.4332 47.2986C71.4332 47.1909 71.3459 47.1035 71.2381 47.1035Z" fill="white"/>
<path id="Vector_53" d="M72.3904 47.1035H72.035C71.9272 47.1035 71.8398 47.1909 71.8398 47.2986C71.8398 47.4064 71.9272 47.4938 72.035 47.4938H72.3904C72.4982 47.4938 72.5856 47.4064 72.5856 47.2986C72.5856 47.1909 72.4982 47.1035 72.3904 47.1035Z" fill="white"/>
<path id="Vector_54" d="M70.1329 47.0708H67.9236C67.8159 47.0708 67.7285 47.1582 67.7285 47.2659C67.7285 47.3737 67.8159 47.4611 67.9236 47.4611H70.1329C70.2407 47.4611 70.328 47.3737 70.328 47.2659C70.328 47.1582 70.2407 47.0708 70.1329 47.0708Z" fill="white"/>
<path id="Vector_55" d="M75.5528 47.0708H73.3436C73.2358 47.0708 73.1484 47.1582 73.1484 47.2659C73.1484 47.3737 73.2358 47.4611 73.3436 47.4611H75.5528C75.6606 47.4611 75.748 47.3737 75.748 47.2659C75.748 47.1582 75.6606 47.0708 75.5528 47.0708Z" fill="white"/>
<path id="Vector_56" d="M68.2576 47.9844H67.9022C67.7944 47.9844 67.707 48.0717 67.707 48.1795C67.707 48.2873 67.7944 48.3746 67.9022 48.3746H68.2576C68.3654 48.3746 68.4528 48.2873 68.4528 48.1795C68.4528 48.0717 68.3654 47.9844 68.2576 47.9844Z" fill="white"/>
<path id="Vector_57" d="M72.3221 47.9844H71.9666C71.8589 47.9844 71.7715 48.0717 71.7715 48.1795C71.7715 48.2873 71.8589 48.3746 71.9666 48.3746H72.3221C72.4299 48.3746 72.5172 48.2873 72.5172 48.1795C72.5172 48.0717 72.4299 47.9844 72.3221 47.9844Z" fill="white"/>
<path id="Vector_58" d="M73.4744 47.9844H73.119C73.0112 47.9844 72.9238 48.0717 72.9238 48.1795C72.9238 48.2873 73.0112 48.3746 73.119 48.3746H73.4744C73.5822 48.3746 73.6696 48.2873 73.6696 48.1795C73.6696 48.0717 73.5822 47.9844 73.4744 47.9844Z" fill="white"/>
<path id="Vector_59" d="M71.2169 47.9517H69.0076C68.8999 47.9517 68.8125 48.039 68.8125 48.1468C68.8125 48.2546 68.8999 48.3419 69.0076 48.3419H71.2169C71.3247 48.3419 71.412 48.2546 71.412 48.1468C71.412 48.039 71.3247 47.9517 71.2169 47.9517Z" fill="white"/>
<path id="Vector_60" d="M69.0701 51.4868H68.7147C68.6069 51.4868 68.5195 51.5742 68.5195 51.6819C68.5195 51.7897 68.6069 51.8771 68.7147 51.8771H69.0701C69.1779 51.8771 69.2653 51.7897 69.2653 51.6819C69.2653 51.5742 69.1779 51.4868 69.0701 51.4868Z" fill="white"/>
<path id="Vector_61" d="M70.2225 51.4868H69.867C69.7592 51.4868 69.6719 51.5742 69.6719 51.6819C69.6719 51.7897 69.7592 51.8771 69.867 51.8771H70.2225C70.3302 51.8771 70.4176 51.7897 70.4176 51.6819C70.4176 51.5742 70.3302 51.4868 70.2225 51.4868Z" fill="white"/>
<path id="Vector_62" d="M73.3849 51.5195H71.1756C71.0678 51.5195 70.9805 51.6069 70.9805 51.7147C70.9805 51.8224 71.0678 51.9098 71.1756 51.9098H73.3849C73.4926 51.9098 73.58 51.8224 73.58 51.7147C73.58 51.6069 73.4926 51.5195 73.3849 51.5195Z" fill="white"/>
<path id="Vector_63" d="M65.0037 51.4868H64.6483C64.5405 51.4868 64.4531 51.5742 64.4531 51.6819C64.4531 51.7897 64.5405 51.8771 64.6483 51.8771H65.0037C65.1115 51.8771 65.1989 51.7897 65.1989 51.6819C65.1989 51.5742 65.1115 51.4868 65.0037 51.4868Z" fill="white"/>
<path id="Vector_64" d="M67.9649 51.5195H65.7557C65.6479 51.5195 65.5605 51.6069 65.5605 51.7147C65.5605 51.8224 65.6479 51.9098 65.7557 51.9098H67.9649C68.0727 51.9098 68.1601 51.8224 68.1601 51.7147C68.1601 51.6069 68.0727 51.5195 67.9649 51.5195Z" fill="white"/>
<path id="Vector_65" d="M66.0897 50.606H65.7342C65.6264 50.606 65.5391 50.6933 65.5391 50.8011C65.5391 50.9089 65.6264 50.9962 65.7342 50.9962H66.0897C66.1974 50.9962 66.2848 50.9089 66.2848 50.8011C66.2848 50.6933 66.1974 50.606 66.0897 50.606Z" fill="white"/>
<path id="Vector_66" d="M70.1541 50.606H69.7987C69.6909 50.606 69.6035 50.6933 69.6035 50.8011C69.6035 50.9089 69.6909 50.9962 69.7987 50.9962H70.1541C70.2619 50.9962 70.3493 50.9089 70.3493 50.8011C70.3493 50.6933 70.2619 50.606 70.1541 50.606Z" fill="white"/>
<path id="Vector_67" d="M71.3065 50.606H70.951C70.8432 50.606 70.7559 50.6933 70.7559 50.8011C70.7559 50.9089 70.8432 50.9962 70.951 50.9962H71.3065C71.4142 50.9962 71.5016 50.9089 71.5016 50.8011C71.5016 50.6933 71.4142 50.606 71.3065 50.606Z" fill="white"/>
<path id="Vector_68" d="M69.0489 50.6382H66.8397C66.7319 50.6382 66.6445 50.7255 66.6445 50.8333C66.6445 50.9411 66.7319 51.0285 66.8397 51.0285H69.0489C69.1567 51.0285 69.2441 50.9411 69.2441 50.8333C69.2441 50.7255 69.1567 50.6382 69.0489 50.6382Z" fill="white"/>
<path id="Vector_69" d="M67.1717 49.7251H66.8162C66.7085 49.7251 66.6211 49.8125 66.6211 49.9202C66.6211 50.028 66.7085 50.1154 66.8162 50.1154H67.1717C67.2795 50.1154 67.3668 50.028 67.3668 49.9202C67.3668 49.8125 67.2795 49.7251 67.1717 49.7251Z" fill="white"/>
<path id="Vector_70" d="M71.2381 49.7251H70.8826C70.7749 49.7251 70.6875 49.8125 70.6875 49.9202C70.6875 50.028 70.7749 50.1154 70.8826 50.1154H71.2381C71.3459 50.1154 71.4332 50.028 71.4332 49.9202C71.4332 49.8125 71.3459 49.7251 71.2381 49.7251Z" fill="white"/>
<path id="Vector_71" d="M72.3904 49.7251H72.035C71.9272 49.7251 71.8398 49.8125 71.8398 49.9202C71.8398 50.028 71.9272 50.1154 72.035 50.1154H72.3904C72.4982 50.1154 72.5856 50.028 72.5856 49.9202C72.5856 49.8125 72.4982 49.7251 72.3904 49.7251Z" fill="white"/>
<path id="Vector_72" d="M70.1329 49.7578H67.9236C67.8159 49.7578 67.7285 49.8452 67.7285 49.9529C67.7285 50.0607 67.8159 50.1481 67.9236 50.1481H70.1329C70.2407 50.1481 70.328 50.0607 70.328 49.9529C70.328 49.8452 70.2407 49.7578 70.1329 49.7578Z" fill="white"/>
<path id="Vector_73" d="M68.2576 48.8442H67.9022C67.7944 48.8442 67.707 48.9316 67.707 49.0394C67.707 49.1471 67.7944 49.2345 67.9022 49.2345H68.2576C68.3654 49.2345 68.4528 49.1471 68.4528 49.0394C68.4528 48.9316 68.3654 48.8442 68.2576 48.8442Z" fill="white"/>
<path id="Vector_74" d="M72.3221 48.8442H71.9666C71.8589 48.8442 71.7715 48.9316 71.7715 49.0394C71.7715 49.1471 71.8589 49.2345 71.9666 49.2345H72.3221C72.4299 49.2345 72.5172 49.1471 72.5172 49.0394C72.5172 48.9316 72.4299 48.8442 72.3221 48.8442Z" fill="white"/>
<path id="Vector_75" d="M73.4744 48.8442H73.119C73.0112 48.8442 72.9238 48.9316 72.9238 49.0394C72.9238 49.1471 73.0112 49.2345 73.119 49.2345H73.4744C73.5822 49.2345 73.6696 49.1471 73.6696 49.0394C73.6696 48.9316 73.5822 48.8442 73.4744 48.8442Z" fill="white"/>
<path id="Vector_76" d="M71.2169 48.877H69.0076C68.8999 48.877 68.8125 48.9643 68.8125 49.0721C68.8125 49.1799 68.8999 49.2672 69.0076 49.2672H71.2169C71.3247 49.2672 71.412 49.1799 71.412 49.0721C71.412 48.9643 71.3247 48.877 71.2169 48.877Z" fill="white"/>
<path id="Vector_77" d="M63.114 61.81L61.4453 59.1723L66.6831 54.997L68.845 52.6018C69.1259 52.2906 69.4835 52.0586 69.8821 51.929C70.2807 51.7993 70.7064 51.7765 71.1166 51.8629C71.5268 51.9493 71.9071 52.1419 72.2196 52.4213C72.5321 52.7007 72.7657 53.0573 72.8972 53.4553C73.0921 54.0451 73.0502 54.6876 72.7804 55.2471C72.5105 55.8066 72.0339 56.2394 71.451 56.4542L68.0324 57.7136L63.114 61.81Z" fill="#FCD2BB"/>
<path id="Vector_78" d="M23.9609 42.685V55.505H32.9422V42.685C32.9423 42.5928 32.9129 42.5029 32.8582 42.4287C32.8036 42.3544 32.7265 42.2997 32.6384 42.2725C32.5969 42.2588 32.5534 42.252 32.5097 42.2525H24.3947C24.3378 42.2524 24.2814 42.2635 24.2289 42.2851C24.1763 42.3068 24.1285 42.3387 24.0882 42.3788C24.0479 42.419 24.0159 42.4667 23.9941 42.5192C23.9723 42.5718 23.961 42.6281 23.9609 42.685ZM27.4659 47.09C27.4683 46.8372 27.5703 46.5956 27.7499 46.4178C27.9294 46.2399 28.1719 46.1401 28.4247 46.1401C28.6774 46.1401 28.92 46.2399 29.0995 46.4178C29.2791 46.5956 29.3811 46.8372 29.3834 47.09V48.5775C29.3821 48.8309 29.2806 49.0735 29.1009 49.2522C28.9212 49.431 28.6781 49.5313 28.4247 49.5313C28.1713 49.5313 27.9281 49.431 27.7485 49.2522C27.5688 49.0735 27.4672 48.8309 27.4659 48.5775V47.09Z" fill="#050606"/>
<path id="Vector_79" d="M23.9336 55.0947V56.331C23.9338 56.395 23.9592 56.4564 24.0044 56.5018C24.0496 56.5472 24.1108 56.5729 24.1748 56.5735H32.7286C32.7927 56.5732 32.8541 56.5475 32.8993 56.502C32.9445 56.4566 32.9699 56.3951 32.9698 56.331V55.0947H23.9336Z" fill="#3F3D56"/>
<path id="Vector_80" d="M9.83203 23.3698V46.7773C9.83227 47.0756 9.95087 47.3616 10.1618 47.5726C10.3727 47.7835 10.6587 47.9021 10.957 47.9023H45.6445C45.9428 47.9021 46.2289 47.7835 46.4398 47.5726C46.6507 47.3616 46.7693 47.0756 46.7695 46.7773V23.3698C46.7688 23.0718 46.65 22.7862 46.4392 22.5756C46.2283 22.3649 45.9426 22.2465 45.6445 22.2461H10.957C10.659 22.2465 10.3733 22.365 10.1624 22.5756C9.95154 22.7862 9.83274 23.0718 9.83203 23.3698Z" fill="#3F3D56"/>
<path id="Vector_81" d="M10.6465 23.6611V46.4886C10.6468 46.648 10.7102 46.8007 10.8229 46.9134C10.9356 47.0261 11.0884 47.0896 11.2477 47.0898H45.3565C45.5159 47.0896 45.6687 47.0261 45.7813 46.9134C45.894 46.8007 45.9575 46.648 45.9578 46.4886V23.6611C45.9577 23.5015 45.8944 23.3485 45.7817 23.2355C45.669 23.1226 45.5161 23.0589 45.3565 23.0586H11.2477C11.0882 23.0589 10.9352 23.1226 10.8225 23.2355C10.7098 23.3485 10.6465 23.5015 10.6465 23.6611Z" fill="white"/>
<path id="Vector_82" d="M16.9765 56.49C17.0113 56.5335 17.0554 56.5686 17.1056 56.5926C17.1558 56.6167 17.2109 56.629 17.2665 56.6287H37.559C37.6145 56.6287 37.6693 56.6162 37.7194 56.5923C37.7695 56.5684 37.8136 56.5336 37.8486 56.4905C37.8835 56.4474 37.9085 56.3971 37.9215 56.3432C37.9346 56.2892 37.9354 56.233 37.924 56.1787L37.609 54.6825C37.596 54.6215 37.5679 54.5647 37.5273 54.5173C37.4867 54.4699 37.4348 54.4335 37.3765 54.4112C37.3343 54.3947 37.2894 54.3862 37.244 54.3862H17.5803C17.5349 54.3862 17.49 54.3947 17.4478 54.4112C17.3895 54.4335 17.3377 54.4699 17.2971 54.5173C17.2564 54.5647 17.2283 54.6215 17.2153 54.6825L16.9003 56.1787C16.8891 56.233 16.8901 56.2891 16.9033 56.3429C16.9165 56.3968 16.9415 56.447 16.9765 56.49Z" fill="#050606"/>
<path id="Vector_83" d="M44.2486 26.2031H12.3331C12.2999 26.2023 12.2684 26.1886 12.2452 26.1649C12.222 26.1412 12.209 26.1093 12.209 26.0761C12.209 26.043 12.222 26.0111 12.2452 25.9874C12.2684 25.9637 12.2999 25.95 12.3331 25.9492H44.2486C44.2817 25.95 44.3133 25.9637 44.3365 25.9874C44.3597 26.0111 44.3727 26.043 44.3727 26.0761C44.3727 26.1093 44.3597 26.1412 44.3365 26.1649C44.3133 26.1886 44.2817 26.2023 44.2486 26.2031Z" fill="#3F3D56"/>
<path id="Vector_84" d="M14.5055 25.3015C14.9163 25.3015 15.2493 24.9611 15.2493 24.5411C15.2493 24.1212 14.9163 23.7808 14.5055 23.7808C14.0947 23.7808 13.7617 24.1212 13.7617 24.5411C13.7617 24.9611 14.0947 25.3015 14.5055 25.3015Z" fill="#3F3D56"/>
<path id="Vector_85" d="M17.0758 25.3015C17.4866 25.3015 17.8196 24.9611 17.8196 24.5411C17.8196 24.1212 17.4866 23.7808 17.0758 23.7808C16.665 23.7808 16.332 24.1212 16.332 24.5411C16.332 24.9611 16.665 25.3015 17.0758 25.3015Z" fill="#3F3D56"/>
<path id="Vector_86" d="M19.6461 25.3015C20.0569 25.3015 20.39 24.9611 20.39 24.5411C20.39 24.1212 20.0569 23.7808 19.6461 23.7808C19.2354 23.7808 18.9023 24.1212 18.9023 24.5411C18.9023 24.9611 19.2354 25.3015 19.6461 25.3015Z" fill="#3F3D56"/>
<path id="Vector_87" d="M42.7021 23.9683H40.8771C40.8411 23.9691 40.8067 23.984 40.7815 24.0098C40.7563 24.0356 40.7422 24.0703 40.7422 24.1064C40.7422 24.1425 40.7563 24.1771 40.7815 24.2029C40.8067 24.2287 40.8411 24.2437 40.8771 24.2445H42.7021C42.7384 24.244 42.7731 24.2292 42.7986 24.2034C42.824 24.1775 42.8383 24.1427 42.8383 24.1064C42.8383 24.0701 42.824 24.0352 42.7986 24.0094C42.7731 23.9836 42.7384 23.9688 42.7021 23.9683Z" fill="#3F3D56"/>
<path id="Vector_88" d="M42.7023 24.4873H40.8773C40.8412 24.4881 40.8068 24.503 40.7816 24.5288C40.7563 24.5546 40.7422 24.5893 40.7422 24.6254C40.7422 24.6615 40.7563 24.6962 40.7816 24.722C40.8068 24.7479 40.8412 24.7628 40.8773 24.7636H42.7023C42.7386 24.7631 42.7734 24.7484 42.7989 24.7225C42.8244 24.6967 42.8388 24.6618 42.8388 24.6254C42.8388 24.5891 42.8244 24.5542 42.7989 24.5283C42.7734 24.5025 42.7386 24.4877 42.7023 24.4873Z" fill="#3F3D56"/>
<path id="Vector_89" d="M42.7021 25.0059H40.8771C40.8411 25.0067 40.8067 25.0216 40.7815 25.0474C40.7563 25.0732 40.7422 25.1079 40.7422 25.144C40.7422 25.1801 40.7563 25.2147 40.7815 25.2405C40.8067 25.2663 40.8411 25.2813 40.8771 25.2821H42.7021C42.7384 25.2816 42.7731 25.2668 42.7986 25.241C42.824 25.2151 42.8383 25.1803 42.8383 25.144C42.8383 25.1077 42.824 25.0728 42.7986 25.047C42.7731 25.0211 42.7384 25.0064 42.7021 25.0059Z" fill="#3F3D56"/>
<path id="Vector_90" d="M86.6992 55.6375C86.7543 55.7979 86.8588 55.9366 86.9976 56.0339C87.1365 56.1312 87.3026 56.1819 87.4721 56.1789L90.7836 56.0937C90.9544 56.0904 91.1195 56.0319 91.2542 55.9269C91.389 55.822 91.4861 55.6763 91.5312 55.5116L91.9998 50.5007C92.1661 50.576 92.3471 50.6132 92.5296 50.6095C92.6881 50.6055 92.8443 50.5704 92.9893 50.506C93.1342 50.4417 93.2651 50.3494 93.3744 50.2345C93.4837 50.1196 93.5693 49.9842 93.6262 49.8362C93.6832 49.6882 93.7105 49.5305 93.7066 49.3719C93.7026 49.2134 93.6674 49.0572 93.6031 48.9122C93.5387 48.7673 93.4464 48.6364 93.3315 48.5271C93.2166 48.4178 93.0813 48.3322 92.9333 48.2752C92.7853 48.2182 92.6275 48.191 92.469 48.1949C92.396 48.1947 92.3233 48.2023 92.2519 48.2175C92.1744 48.1336 92.0801 48.0668 91.9751 48.0216C91.8702 47.9763 91.757 47.9535 91.6427 47.9546L86.5489 48.0862C86.5066 48.0877 86.4646 48.093 86.4232 48.1018C86.3115 48.1226 86.2056 48.1671 86.1125 48.2323C86.0194 48.2975 85.9414 48.3819 85.8837 48.4798C85.826 48.5777 85.7899 48.6868 85.7779 48.7998C85.7659 48.9128 85.7782 49.027 85.8141 49.1348L86.6992 55.6375ZM92.0959 50.1604L92.4294 48.9663C92.4673 48.8284 92.4682 48.6829 92.4319 48.5445C92.4481 48.5445 92.4624 48.5368 92.4786 48.5368C92.7072 48.532 92.9284 48.6182 93.0936 48.7763C93.2588 48.9344 93.3546 49.1515 93.36 49.3802C93.3654 49.6088 93.2798 49.8302 93.1222 49.9959C92.9645 50.1615 92.7476 50.2579 92.519 50.2639C92.3712 50.2685 92.2249 50.2327 92.0959 50.1604Z" fill="#050606"/>
<path id="Vector_91" d="M86.4238 48.1014C86.5324 48.7219 87.7525 49.1582 89.2196 49.0823C90.5686 49.0202 91.6717 48.5465 91.8738 47.985C91.799 47.9629 91.7213 47.9525 91.6433 47.9543L86.5495 48.0858C86.5072 48.0874 86.4652 48.0926 86.4238 48.1014Z" fill="#3F3D56"/>
<path id="Vector_92" d="M89.4892 52.8838C89.4959 52.8821 89.5023 52.8793 89.508 52.8755L90.2272 52.4048C90.2359 52.3991 90.243 52.3914 90.248 52.3822C90.2529 52.3731 90.2555 52.3629 90.2555 52.3525C90.2555 52.3421 90.2529 52.3319 90.248 52.3228C90.243 52.3137 90.2359 52.3059 90.2272 52.3003L89.4798 51.8107C89.4729 51.8061 89.4652 51.803 89.4571 51.8014C89.449 51.7999 89.4407 51.7999 89.4327 51.8016C89.4246 51.8032 89.417 51.8065 89.4102 51.8111C89.4034 51.8157 89.3975 51.8216 89.393 51.8285C89.3885 51.8354 89.3854 51.8431 89.3839 51.8512C89.3824 51.8593 89.3825 51.8676 89.3841 51.8756C89.3858 51.8837 89.3891 51.8913 89.3938 51.8981C89.3984 51.9049 89.4044 51.9107 89.4113 51.9152L90.0789 52.3524L89.4396 52.7709C89.4272 52.779 89.4181 52.7912 89.4139 52.8054C89.4097 52.8196 89.4107 52.8348 89.4166 52.8483C89.4225 52.8619 89.4331 52.8729 89.4464 52.8794C89.4597 52.8858 89.4748 52.8874 89.4892 52.8838Z" fill="#EB5C2B"/>
<path id="Vector_93" d="M88.3528 52.9364C88.3649 52.9333 88.3758 52.9267 88.3841 52.9174C88.3924 52.9082 88.3977 52.8966 88.3994 52.8843C88.4011 52.8719 88.3991 52.8594 88.3936 52.8482C88.3881 52.837 88.3794 52.8278 88.3686 52.8216L87.7057 52.4415L88.3464 51.9656C88.353 51.9607 88.3585 51.9546 88.3627 51.9475C88.3669 51.9405 88.3697 51.9327 88.3709 51.9246C88.3721 51.9165 88.3717 51.9082 88.3697 51.9003C88.3677 51.8923 88.3642 51.8848 88.3593 51.8782C88.3544 51.8716 88.3482 51.8661 88.3412 51.8619C88.3342 51.8577 88.3264 51.8549 88.3182 51.8537C88.3101 51.8525 88.3019 51.8529 88.2939 51.8549C88.286 51.8569 88.2785 51.8605 88.2719 51.8654L87.5546 52.3982C87.5462 52.4044 87.5396 52.4125 87.5352 52.4219C87.5308 52.4313 87.5288 52.4417 87.5294 52.452C87.53 52.4624 87.5332 52.4724 87.5387 52.4812C87.5441 52.4901 87.5517 52.4974 87.5607 52.5025L88.3064 52.93C88.3204 52.9381 88.3371 52.9404 88.3528 52.9364Z" fill="#EB5C2B"/>
<path id="Vector_94" d="M89.4156 53.2961C89.4217 53.2946 89.4274 53.2922 89.4327 53.2889C89.4398 53.2847 89.4459 53.279 89.4507 53.2724C89.4556 53.2658 89.4591 53.2583 89.461 53.2503C89.463 53.2423 89.4633 53.234 89.4621 53.2259C89.4608 53.2178 89.4579 53.21 89.4537 53.203L88.4342 51.527C88.4256 51.5128 88.4117 51.5027 88.3956 51.4988C88.3795 51.4949 88.3625 51.4976 88.3484 51.5062C88.3342 51.5148 88.3241 51.5287 88.3201 51.5448C88.3162 51.5609 88.3188 51.5779 88.3274 51.592L89.3469 53.2681C89.3538 53.2795 89.3643 53.2884 89.3766 53.2934C89.389 53.2985 89.4027 53.2994 89.4156 53.2961Z" fill="#EB5C2B"/>
<path id="Vector_95" d="M32.1057 33.103H26.5819C26.3565 33.103 26.1738 33.2857 26.1738 33.5111V34.0507C26.1738 34.2761 26.3565 34.4587 26.5819 34.4587H32.1057C32.3311 34.4587 32.5137 34.2761 32.5137 34.0507V33.5111C32.5137 33.2857 32.3311 33.103 32.1057 33.103Z" fill="#EB5C2B"/>
<path id="Vector_96" d="M35.3246 35.8145H23.3611C23.1358 35.8145 22.9531 35.9971 22.9531 36.2225V36.7621C22.9531 36.9875 23.1358 37.1702 23.3611 37.1702H35.3246C35.55 37.1702 35.7327 36.9875 35.7327 36.7621V36.2225C35.7327 35.9971 35.55 35.8145 35.3246 35.8145Z" fill="#E4E7EC"/>
<path id="Vector_97" d="M35.3246 38.5259H23.3611C23.1358 38.5259 22.9531 38.7086 22.9531 38.9339V39.4736C22.9531 39.6989 23.1358 39.8816 23.3611 39.8816H35.3246C35.55 39.8816 35.7327 39.6989 35.7327 39.4736V38.9339C35.7327 38.7086 35.55 38.5259 35.3246 38.5259Z" fill="#E4E7EC"/>
<path id="Vector_98" d="M36.3379 47.6051L36.365 47.6906L36.3664 47.6935L37.1821 50.1732L38.1203 53.0309L39.8857 58.401L39.9028 59.2352V59.2381L40.034 65.9486L39.6704 66.8584L40.0796 68.3499C40.0796 68.3499 39.8914 66.0953 38.8818 67.3901C38.31 68.1259 37.6412 68.8788 37.0922 69.5846C37.8922 69.9083 38.705 70.2011 39.5306 70.463C39.7089 70.5201 39.8885 70.5742 40.0682 70.6284C40.1067 70.6398 40.1452 70.6512 40.1837 70.6626C42.9205 71.472 45.7499 71.9268 48.6026 72.0159C48.7509 72.0202 48.8963 72.023 49.0375 72.0259C49.0874 72.0273 49.1359 72.0287 49.1844 72.0287C49.3441 72.0301 49.5023 72.0316 49.6621 72.0316C49.9843 72.0316 50.3052 72.0268 50.6246 72.0173C52.9887 71.9507 55.3391 71.6328 57.636 71.069C57.6203 70.1208 57.5775 69.0128 57.5162 67.8293C57.4877 67.2489 56.8475 66.6201 56.809 66.0126C56.7819 65.5563 57.3565 65.1271 57.3266 64.6636C57.1327 61.8103 56.8902 62.9056 56.7106 60.885C56.692 60.6868 56.6749 60.4972 56.6592 60.3161C56.5437 59.0185 56.4639 58.2071 56.4639 58.2071L57.231 53.3717L58.436 45.7799L58.3433 45.6273L58.2392 45.5759L51.8837 42.4303L51.5386 41.5462C51.4381 41.2915 51.2636 41.0727 51.0377 40.9179C50.8118 40.7632 50.5448 40.6795 50.2709 40.6778L46.0843 40.6607C45.8671 40.6597 45.6527 40.7105 45.459 40.809C45.2653 40.9074 45.0979 41.0507 44.9706 41.2268L43.837 42.7967L36.3379 47.6051Z" fill="#3F3D56"/>
<path id="Vector_99" d="M40.8523 57.2064L39.9041 59.2355L39.2567 60.6216L38.143 66.4523L37.5855 67.0441L37.1078 64.9492L32.108 66.0593C31.944 65.1481 32.0641 66.0901 31.9629 65.0905C31.9914 65.062 32.0214 65.0335 32.0513 65.005C32.1312 64.9308 32.1982 64.8609 32.1968 64.7939C32.1397 61.346 32.3108 55.4781 33.7396 51.9232C33.9634 51.3428 34.2585 50.7924 34.618 50.2848C34.6465 50.2463 34.6736 50.2078 34.7007 50.1693C35.3595 49.2467 35.7759 48.3384 36.3663 47.6924V47.691C36.3699 47.688 36.3733 47.6847 36.3762 47.681C36.3784 47.6799 36.3803 47.6785 36.3819 47.6767L40.4374 45.5264L40.6113 50.4146L40.7354 53.9281L40.8523 57.2064Z" fill="#3F3D56"/>
<path id="Vector_100" d="M55.4746 57.7822L56.6591 60.3166L57.0725 61.1992L58.1859 67.0294L58.7416 67.6197L59.2204 65.5253L59.4454 65.4792L63.5027 64.6389L64.6853 68.3947C64.9518 67.9506 65.0568 67.4281 64.9825 66.9155C64.9083 66.4029 64.6592 65.9316 64.2776 65.5815C64.1969 65.5084 64.1296 65.4373 64.1315 65.37C64.1988 61.3146 63.9507 53.9095 61.7106 50.8617C60.9991 49.8945 60.5722 48.9311 59.9511 48.2581C59.9492 48.2562 59.9492 48.2543 59.9473 48.2543L58.4359 45.7795L58.3436 45.6276L58.2397 45.5757L55.4746 57.7822Z" fill="#3F3D56"/>
<path id="Ellipse 5" d="M48.3003 39.4696C51.3764 39.4696 53.87 36.976 53.87 33.8999C53.87 30.8238 51.3764 28.3301 48.3003 28.3301C45.2242 28.3301 42.7305 30.8238 42.7305 33.8999C42.7305 36.976 45.2242 39.4696 48.3003 39.4696Z" fill="#FCD2BB"/>
<path id="Vector_101" d="M55.8272 30.009C55.7841 29.9629 55.732 29.926 55.6742 29.9004C55.6165 29.8748 55.5541 29.8612 55.491 29.8603L55.5747 29.6278C55.6021 29.5545 55.6094 29.4754 55.5961 29.3983C55.5828 29.3213 55.5492 29.2492 55.4988 29.1894C55.4485 29.1297 55.3831 29.0843 55.3095 29.0581C55.2358 29.0319 55.1565 29.0258 55.0797 29.0403L54.7747 29.099L54.8035 28.8953C54.8145 28.8194 54.8056 28.7419 54.7776 28.6706C54.7496 28.5992 54.7035 28.5363 54.6439 28.4881C54.5842 28.4399 54.513 28.4081 54.4374 28.3958C54.3617 28.3834 54.2841 28.391 54.2122 28.4178C54.1469 28.4435 54.0765 28.4543 54.0065 28.4493C53.9364 28.4443 53.8683 28.4237 53.8072 28.389C53.7459 28.3554 53.6926 28.3088 53.6512 28.2524C53.6097 28.1961 53.5811 28.1313 53.5672 28.0628L53.461 27.5503L53.4497 27.5228C52.9322 26.6603 51.9372 26.0328 50.7197 25.8028C49.636 25.5965 48.5247 25.7015 47.4535 25.8003C47.0285 25.8403 46.5485 25.8853 46.1485 26.1303C45.8085 26.3403 45.521 26.7603 45.5797 27.184C44.5235 26.8603 43.391 27.5065 42.8297 28.3215C42.1647 29.2915 42.056 30.5065 42.0385 31.4565C41.991 33.704 42.4547 35.5428 43.4135 36.9228C43.4835 37.0228 43.501 37.2315 43.6397 37.3015L43.611 37.2553C43.766 37.3328 43.9235 37.4578 43.8647 37.5915C43.696 37.9765 44.8172 38.8278 45.6072 39.109C47.0485 39.6228 48.9647 39.579 50.3122 39.394L50.3597 39.0753C50.846 39.009 51.1885 38.8828 51.2847 38.6853C51.4547 38.5403 51.5997 38.4103 51.726 38.2903L51.7272 38.289C51.7297 38.2865 51.7347 38.2828 51.7372 38.2803C52.346 37.6965 52.4872 37.364 52.551 36.8578C52.6122 36.3615 52.5035 35.8578 52.3922 35.404C54.7347 35.7665 51.4697 32.909 53.6522 32.3565C53.6773 32.3488 53.7027 32.3426 53.7285 32.3378C53.7922 32.3228 53.856 32.3078 53.9172 32.2903C54.2125 32.2101 54.4952 32.0894 54.7572 31.9315C55.3672 31.5603 55.5685 31.0678 55.8835 30.5128C55.9289 30.4338 55.948 30.3423 55.9379 30.2517C55.9277 30.1611 55.889 30.0761 55.8272 30.009Z" fill="#050606"/>
<path id="Vector_102" d="M67.9985 58.1795C67.9973 58.3982 67.9948 58.7045 67.9848 59.0832C67.9835 59.1357 67.9823 59.1895 67.981 59.2445C67.9648 59.9407 67.9485 60.5245 67.9223 61.1732C67.921 61.2182 67.9198 61.262 67.9173 61.307C67.8823 62.212 67.8273 63.2657 67.7323 64.9345C67.556 68.017 67.2485 65.3582 66.9398 66.4395C66.9248 66.4932 66.9085 66.557 66.8935 66.632C66.8468 66.9041 66.7679 67.1697 66.6585 67.4232C66.4948 67.5207 66.326 67.6145 66.1598 67.7082C65.686 67.972 65.2048 68.2257 64.7198 68.467C64.4473 68.602 64.1735 68.7345 63.8985 68.862C63.8548 68.882 63.8123 68.902 63.7698 68.9207C62.3615 69.5721 60.9102 70.1259 59.426 70.5782C59.136 70.6657 58.8473 70.7507 58.5548 70.8295C58.2498 70.9145 57.9448 70.9945 57.636 71.0695C55.3392 71.6333 52.9889 71.9514 50.6248 72.0182C50.306 72.0282 49.9848 72.032 49.6623 72.032C49.5023 72.032 49.3448 72.0307 49.1848 72.0295C49.136 72.0295 49.0873 72.0282 49.0385 72.027C48.8973 72.0232 48.751 72.0207 48.6035 72.017C45.7509 71.928 42.9215 71.473 40.1848 70.6632L40.0685 70.6295C39.8885 70.5745 39.7098 70.5207 39.531 70.4632C38.706 70.202 37.8931 69.9095 37.0923 69.5857C36.481 69.3395 35.8768 69.0753 35.2798 68.7932C35.2743 68.7917 35.2692 68.7892 35.2648 68.7857C35.1398 68.7282 35.0135 68.6682 34.8885 68.607C34.8723 68.5982 34.8548 68.5895 34.8373 68.5807C34.371 68.3532 33.9098 68.1149 33.4535 67.8657C33.0698 66.9845 32.5298 66.8157 32.1948 66.0407C32.0973 65.8105 32.0268 65.5697 31.9848 65.3232C31.9848 65.3207 31.9835 65.3182 31.9835 65.3145C32.0185 65.7795 31.8348 64.4895 31.9823 65.3095C31.981 65.2945 31.9798 65.2782 31.9785 65.2595C31.9748 65.2145 31.9698 65.1595 31.9623 65.0907C31.5335 60.9045 31.561 56.117 31.3748 52.172C31.3623 51.917 31.3493 51.6728 31.336 51.4395C31.3323 51.362 31.3273 51.2857 31.3223 51.2107C31.331 51.1882 31.341 51.1645 31.3523 51.142C31.3547 51.1355 31.3576 51.1292 31.361 51.1232C31.3647 51.1154 31.3689 51.1079 31.3735 51.1007C31.376 51.097 31.3798 51.092 31.3823 51.0882C31.3841 51.0839 31.3862 51.0797 31.3885 51.0757C31.3998 51.0582 31.4123 51.0395 31.426 51.022C31.4323 51.0145 31.4373 51.0082 31.4435 51.002C31.4478 50.9956 31.4529 50.9897 31.4585 50.9845C31.4624 50.9785 31.467 50.973 31.4723 50.9682C31.4773 50.9632 31.4823 50.957 31.4885 50.9507C31.4912 50.9468 31.4946 50.9434 31.4985 50.9407C31.5084 50.9294 31.5193 50.9189 31.531 50.9095C31.5756 50.8684 31.6232 50.8308 31.6735 50.797C31.691 50.7857 31.7098 50.7745 31.7273 50.762C31.8532 50.6866 31.9859 50.623 32.1235 50.572C32.171 50.5545 32.2185 50.5382 32.2698 50.5207C32.2885 50.5157 32.306 50.5095 32.3248 50.5032C32.3523 50.4945 32.3798 50.4857 32.4085 50.4795C32.551 50.437 32.7048 50.4007 32.871 50.367C32.891 50.3632 32.9123 50.3595 32.9335 50.3545C32.9635 50.3482 32.9948 50.3432 33.026 50.3382C33.0685 50.3307 33.1123 50.3232 33.156 50.3157C33.5273 50.257 33.9485 50.2132 34.4135 50.1845C34.4573 50.182 34.501 50.1795 34.5448 50.177C34.596 50.1745 34.6473 50.172 34.6998 50.1695C34.7435 50.167 34.7885 50.1657 34.8335 50.1645C34.8773 50.162 34.9223 50.1607 34.9685 50.1595C35.0948 50.1557 35.2248 50.152 35.3573 50.1495C35.7348 50.142 36.1323 50.1445 36.5498 50.1532C36.7435 50.1582 36.941 50.1632 37.1435 50.172C37.1573 50.172 37.1698 50.1732 37.1823 50.1732C37.3585 50.1795 37.536 50.187 37.7185 50.197C37.846 50.2032 37.9748 50.2095 38.1035 50.217C38.2248 50.2245 38.3473 50.232 38.471 50.2407C38.5673 50.2457 38.6635 50.2532 38.761 50.2595C38.8435 50.2657 38.926 50.272 39.0085 50.277L39.121 50.2845C39.1823 50.2895 39.2435 50.2932 39.306 50.2995C39.4435 50.3107 39.581 50.322 39.721 50.3332C39.8598 50.3457 40.001 50.3582 40.1423 50.3707C40.2835 50.3832 40.426 50.397 40.5685 50.4107C40.5835 50.412 40.5973 50.4132 40.611 50.4145C40.741 50.4282 40.871 50.4407 41.0023 50.4545C41.0323 50.457 41.0635 50.4595 41.0935 50.4632C41.2187 50.4758 41.3462 50.4905 41.4725 50.5039C41.5113 50.5081 41.5498 50.5122 41.5887 50.5164C41.6876 50.5272 41.7851 50.5365 41.8848 50.5482C42.016 50.5632 42.1498 50.577 42.2798 50.5945C42.381 50.6057 42.4823 50.617 42.5835 50.6295C42.7423 50.6482 42.9035 50.6682 43.0648 50.6895C43.126 50.697 43.1873 50.7045 43.2485 50.7132C43.7085 50.7707 44.1735 50.8345 44.646 50.9007C45.3623 51.002 46.0898 51.112 46.8223 51.2307C47.556 51.3495 48.2939 51.4749 49.036 51.607C49.2235 51.6407 49.411 51.6745 49.5998 51.7095C49.6848 51.7257 49.7698 51.7419 49.8548 51.7582C49.9998 51.7845 50.1448 51.812 50.2898 51.8395C50.4348 51.867 50.5798 51.8945 50.7248 51.9232C50.8973 51.957 51.071 51.9907 51.2435 52.0245C52.3798 52.2495 53.5098 52.4895 54.6123 52.7407C54.7935 52.782 54.9748 52.8245 55.1548 52.8657C55.5148 52.9495 55.8714 53.0345 56.2248 53.1207C56.3223 53.1432 56.4185 53.167 56.5148 53.1907C56.7548 53.2507 56.9948 53.3107 57.231 53.372L57.2723 53.3832C57.446 53.4257 57.616 53.4695 57.786 53.5145C58.1873 53.6195 58.5818 53.7257 58.9698 53.8332C59.2273 53.9045 59.4818 53.9765 59.7335 54.0495C60.1098 54.1582 60.4785 54.2682 60.8373 54.3795C60.926 54.407 61.0148 54.4345 61.1023 54.4607C61.3648 54.542 61.6235 54.6245 61.8748 54.707C62.0748 54.772 62.2698 54.8382 62.4623 54.9045C62.6548 54.9707 62.8435 55.037 63.0285 55.1032C63.1473 55.1457 63.2648 55.1907 63.3823 55.2332C63.551 55.2957 63.7173 55.3582 63.8798 55.4207C63.9298 55.4395 63.9785 55.4595 64.0273 55.4782C64.0585 55.492 64.0885 55.5032 64.1185 55.5157C64.1773 55.5395 64.2373 55.562 64.2948 55.5857C64.3535 55.6082 64.411 55.632 64.4685 55.657C64.5248 55.6795 64.5823 55.7032 64.6373 55.727C64.6935 55.7495 64.7485 55.7732 64.8035 55.7982C64.8498 55.817 64.8948 55.837 64.9385 55.857C65.0273 55.8957 65.116 55.9345 65.2023 55.9745C65.2448 55.9945 65.2873 56.0132 65.3298 56.0332L65.4273 56.0782C65.441 56.0857 65.4548 56.092 65.4685 56.0982C65.4998 56.1132 65.5323 56.1295 65.5635 56.1445C65.636 56.1782 65.7073 56.2145 65.7773 56.2482C65.871 56.2957 65.9623 56.3432 66.0498 56.3895C66.1385 56.437 66.2248 56.4845 66.3073 56.5307C66.321 56.5382 66.3335 56.5457 66.3473 56.5532C66.366 56.5632 66.3848 56.5745 66.4035 56.5845C66.4673 56.6207 66.5285 56.6582 66.5898 56.6945C66.7098 56.7682 66.8235 56.8407 66.9298 56.9132C66.9535 56.9295 66.976 56.9457 66.9998 56.9607C67.0785 57.0169 67.1535 57.0719 67.2235 57.1282C67.2235 57.1294 67.2235 57.1294 67.2248 57.1294C67.2485 57.1469 67.271 57.1657 67.2935 57.1832C67.3123 57.2007 67.3323 57.2157 67.351 57.2332C67.416 57.2895 67.476 57.3432 67.531 57.3982C67.5494 57.4152 67.567 57.4331 67.5835 57.452C67.5908 57.458 67.5975 57.4647 67.6035 57.4719C67.6285 57.4969 67.651 57.5219 67.6723 57.5469C67.6756 57.5504 67.6785 57.5542 67.681 57.5582C67.711 57.5932 67.7385 57.6282 67.7648 57.6632C67.7773 57.6807 67.791 57.6982 67.8023 57.7157C67.8173 57.7369 67.8323 57.7595 67.8448 57.7807C67.856 57.7982 67.866 57.8169 67.876 57.8345C67.9025 57.8795 67.9251 57.9268 67.9435 57.9757C67.9576 58.0089 67.9688 58.0432 67.9773 58.0782C67.9867 58.1114 67.9938 58.1452 67.9985 58.1795Z" fill="#050606"/>
<path id="Vector_103" opacity="0.2" d="M67.9998 58.1795C67.9985 58.3982 67.996 58.7045 67.986 59.0832C67.9848 59.1357 67.9823 59.1895 67.981 59.2445C67.9685 59.7757 67.9498 60.432 67.9235 61.1732C67.9223 61.2182 67.921 61.262 67.9185 61.307C67.8835 62.212 67.8285 63.2657 67.7335 64.9345C67.5573 68.017 67.2498 65.3582 66.941 66.4395C66.0835 65.912 65.1435 65.3595 64.1385 64.792C63.9573 64.6895 63.7744 64.5866 63.5898 64.4832C61.5798 63.362 59.3348 62.187 56.991 61.0232C56.8985 60.977 56.8048 60.9307 56.7123 60.8857C51.3435 58.232 45.4835 55.6507 40.736 53.9282C39.8198 53.5957 38.9448 53.2957 38.1223 53.032C36.3898 52.4782 34.8923 52.0907 33.7398 51.9232C32.5398 51.7482 31.711 51.8107 31.376 52.172C31.3635 51.917 31.3506 51.6728 31.3373 51.4395C31.3323 51.362 31.3273 51.2857 31.3223 51.2107C31.33 51.1901 31.34 51.1705 31.3497 51.1507C31.3511 51.1478 31.3521 51.1448 31.3535 51.142C31.3559 51.1355 31.3588 51.1292 31.3623 51.1232C31.366 51.1155 31.3701 51.1079 31.3748 51.1007C31.3788 51.0919 31.3839 51.0835 31.3898 51.0757C31.401 51.0582 31.4135 51.0395 31.4273 51.022C31.4374 51.0089 31.4482 50.9963 31.4598 50.9845C31.4636 50.9785 31.4682 50.973 31.4735 50.9682C31.4785 50.9632 31.4835 50.957 31.4898 50.9507C31.4924 50.9468 31.4958 50.9434 31.4998 50.9407C31.5097 50.9294 31.5205 50.9189 31.5323 50.9095C31.5769 50.8684 31.6245 50.8308 31.6748 50.797C31.6923 50.7857 31.711 50.7745 31.7285 50.762C31.8545 50.6866 31.9871 50.623 32.1248 50.572C32.1723 50.5545 32.2198 50.5382 32.271 50.5207C32.2898 50.5157 32.3073 50.5095 32.326 50.5032C32.3535 50.4945 32.381 50.4857 32.4098 50.4795C32.5523 50.437 32.706 50.4007 32.8723 50.367C32.9223 50.357 32.9748 50.347 33.0273 50.3382C33.0698 50.3307 33.1135 50.3232 33.1573 50.3157C33.5285 50.257 33.9498 50.2132 34.4148 50.1845C34.4585 50.182 34.5023 50.1795 34.546 50.177C34.5973 50.1745 34.6485 50.172 34.701 50.1695C34.7448 50.167 34.7898 50.1657 34.8348 50.1645C34.8785 50.162 34.9235 50.1607 34.9698 50.1595C35.096 50.1557 35.226 50.152 35.3585 50.1495C35.736 50.1432 36.1335 50.1457 36.551 50.1545C36.7448 50.1582 36.9423 50.1645 37.1448 50.1732C37.1573 50.1732 37.171 50.1745 37.1835 50.1745C37.3598 50.1795 37.5385 50.1882 37.7198 50.197C37.8473 50.2032 37.976 50.2095 38.1048 50.217C38.226 50.2245 38.3485 50.232 38.4723 50.2407C38.5685 50.2457 38.6648 50.2532 38.7623 50.2595C38.8448 50.2657 38.9273 50.272 39.0098 50.277C39.1085 50.2845 39.2073 50.292 39.3073 50.2995C39.4448 50.3107 39.5823 50.322 39.7223 50.3332C39.861 50.3457 40.0023 50.3582 40.1435 50.3707C40.2848 50.3832 40.4273 50.397 40.5698 50.4107C40.5848 50.412 40.5985 50.4132 40.6123 50.4145C40.7423 50.4282 40.8723 50.4407 41.0035 50.4545C41.731 50.5282 42.4798 50.6145 43.2498 50.7132C43.7098 50.772 44.1756 50.8349 44.6473 50.902C45.3635 51.0032 46.091 51.1132 46.8235 51.2307C47.5573 51.3495 48.2952 51.4749 49.0373 51.607C49.2248 51.6407 49.4123 51.6745 49.601 51.7095C49.831 51.752 50.061 51.7953 50.291 51.8395C50.436 51.867 50.581 51.8945 50.726 51.9232C50.8985 51.957 51.0723 51.9907 51.2448 52.0245C52.381 52.2495 53.511 52.4895 54.6135 52.7407C54.7948 52.782 54.976 52.8245 55.156 52.8657C55.516 52.9495 55.8727 53.0345 56.226 53.1207C56.3235 53.1445 56.4198 53.1682 56.516 53.192C56.7573 53.252 56.996 53.312 57.2323 53.372V53.3732C57.246 53.3757 57.2598 53.3795 57.2735 53.3832C57.446 53.427 57.6173 53.4707 57.7873 53.5157C58.1885 53.6207 58.5831 53.7265 58.971 53.8332C59.2285 53.9057 59.4835 53.977 59.7348 54.0495C60.111 54.1595 60.4798 54.2695 60.8385 54.3795C60.9273 54.407 61.016 54.4345 61.1035 54.4607C61.366 54.5432 61.6235 54.6253 61.876 54.707C62.076 54.772 62.271 54.8382 62.4635 54.9045C62.656 54.9707 62.8448 55.037 63.0298 55.1032C63.1498 55.1457 63.2673 55.1895 63.3835 55.232C63.5535 55.2945 63.7185 55.357 63.881 55.4207C63.931 55.4395 63.9798 55.4595 64.0285 55.4782C64.1198 55.5132 64.2085 55.5495 64.296 55.5857C64.3548 55.6082 64.4123 55.632 64.4698 55.657C64.526 55.6795 64.5835 55.7032 64.6385 55.727C64.6948 55.7495 64.7498 55.7732 64.8048 55.7982C64.851 55.817 64.896 55.837 64.9398 55.857C65.0285 55.8957 65.1173 55.9345 65.2035 55.9745C65.246 55.9945 65.2885 56.0132 65.331 56.0332L65.4285 56.0782C65.4423 56.0857 65.456 56.092 65.4698 56.0982C65.576 56.1482 65.6785 56.1982 65.7785 56.2482C65.8723 56.2957 65.9635 56.3432 66.051 56.3895C66.1548 56.4445 66.2535 56.4982 66.3485 56.5532C66.3673 56.5632 66.386 56.5745 66.4048 56.5845C66.4685 56.6207 66.5298 56.6582 66.591 56.6945C66.711 56.7682 66.8248 56.8407 66.931 56.9132C67.036 56.9857 67.1335 57.057 67.2248 57.1282C67.2248 57.1295 67.2248 57.1295 67.226 57.1295C67.2698 57.1645 67.3123 57.1995 67.3523 57.2332C67.4173 57.2895 67.4773 57.3432 67.5323 57.3982C67.5507 57.4152 67.5682 57.4331 67.5848 57.452C67.5921 57.458 67.5988 57.4647 67.6048 57.472C67.631 57.5007 67.6573 57.5295 67.6823 57.5582C67.7123 57.5932 67.7398 57.6282 67.766 57.6632C67.7785 57.6807 67.7923 57.6982 67.8035 57.7157C67.8185 57.737 67.8335 57.7595 67.846 57.7807C67.8573 57.7982 67.8673 57.817 67.8773 57.8345C67.9038 57.8795 67.9264 57.9268 67.9448 57.9757C67.9585 58.009 67.9697 58.0433 67.9785 58.0782C67.988 58.1114 67.9951 58.1453 67.9998 58.1795Z" fill="#050606"/>
</g>
<defs>
<clipPath id="clip0_811_12402">
<rect width="98.3525" height="71.5322" fill="white" transform="translate(0 0.499023)"/>
</clipPath>
</defs>
</svg>
