<svg width="301" height="308" viewBox="0 0 301 308" fill="none" xmlns="http://www.w3.org/2000/svg">
<g clip-path="url(#clip0_811_9538)">
<path d="M189.072 291.446L179.991 307.192H198.153L189.072 291.446L179.991 307.192H198.153L189.072 291.446Z" fill="#F2F2F2"/>
<path d="M165.853 79.1216V122.316C165.851 123.488 165.385 124.61 164.558 125.439C163.73 126.267 162.609 126.733 161.439 126.735H128.343L128.647 126.345C146.059 114.708 158.398 99.1818 165.463 79.6165L165.853 79.1216Z" fill="#F2F2F2"/>
<path d="M199.39 36.1016H11.8299C8.82611 36.1052 5.9464 37.3013 3.82242 39.4276C1.69843 41.554 0.503592 44.4368 0.499969 47.4439V160.227C0.503592 163.234 1.69843 166.117 3.82242 168.243C5.9464 170.369 8.82611 171.566 11.8299 171.569H199.39C202.394 171.566 205.273 170.369 207.397 168.243C209.521 166.117 210.716 163.234 210.72 160.227V47.4439C210.716 44.4368 209.521 41.5539 207.397 39.4276C205.273 37.3013 202.394 36.1052 199.39 36.1016ZM209.721 160.227C209.721 161.585 209.454 162.93 208.935 164.185C208.416 165.44 207.655 166.58 206.696 167.541C205.736 168.501 204.597 169.263 203.344 169.783C202.09 170.302 200.747 170.57 199.39 170.569H11.8299C10.4731 170.57 9.12952 170.302 7.87596 169.783C6.62239 169.263 5.48338 168.501 4.52398 167.541C3.56458 166.58 2.8036 165.44 2.2845 164.185C1.76541 162.93 1.49837 161.585 1.49864 160.227V114.923C1.49864 112.283 1.6268 109.676 1.88312 107.1C3.81096 87.907 12.7938 70.1163 27.0877 57.1813C41.3816 44.2463 59.9668 37.0898 79.235 37.1013H199.39C202.13 37.1016 204.757 38.1914 206.695 40.1309C208.632 42.0704 209.721 44.7009 209.721 47.4439V160.227Z" fill="#E6E6E6"/>
<path d="M139.49 88.6938H41.9348C41.1356 88.6938 40.3691 89.0117 39.804 89.5774C39.2388 90.1432 38.9213 90.9105 38.9213 91.7106C38.9213 92.5107 39.2388 93.2781 39.804 93.8438C40.3691 94.4096 41.1356 94.7274 41.9348 94.7274H139.49C140.289 94.7274 141.056 94.4096 141.621 93.8438C142.186 93.2781 142.503 92.5107 142.503 91.7106C142.503 90.9105 142.186 90.1432 141.621 89.5774C141.056 89.0117 140.289 88.6938 139.49 88.6938Z" fill="#E6E6E6"/>
<path d="M72.1795 71.7729H41.9348C41.1349 71.7729 40.3678 72.0911 39.8022 72.6573C39.2366 73.2235 38.9188 73.9915 38.9188 74.7922C38.9188 75.593 39.2366 76.361 39.8022 76.9272C40.3678 77.4934 41.1349 77.8115 41.9348 77.8115H72.1795C72.9794 77.8115 73.7465 77.4934 74.3121 76.9272C74.8777 76.361 75.1955 75.593 75.1955 74.7922C75.1955 73.9915 74.8777 73.2235 74.3121 72.6573C73.7465 72.0911 72.9794 71.7729 72.1795 71.7729Z" fill="#E6E6E6"/>
<path d="M41.9348 88.6938H56.8899C55.0024 90.8584 52.9525 92.8755 50.7581 94.7274H41.9348C41.1356 94.7274 40.3691 94.4096 39.804 93.8438C39.2388 93.2781 38.9213 92.5107 38.9213 91.7106C38.9213 90.9105 39.2388 90.1432 39.804 89.5774C40.3691 89.0117 41.1356 88.6938 41.9348 88.6938Z" fill="#94C136"/>
<path d="M41.9348 71.7729H67.1762C66.3704 73.8396 65.4417 75.8561 64.3949 77.8115H41.9348C41.1349 77.8115 40.3678 77.4934 39.8022 76.9272C39.2366 76.361 38.9188 75.593 38.9188 74.7922C38.9188 73.9915 39.2366 73.2235 39.8022 72.6573C40.3678 72.0911 41.1349 71.7729 41.9348 71.7729Z" fill="#94C136"/>
<path d="M69.5979 37.6962C52.1309 39.8854 35.9225 47.942 23.6225 60.5488C11.3224 73.1556 3.65828 89.5668 1.88312 107.1C1.41874 107.01 0.959357 106.905 0.499969 106.795V47.4439C0.503592 44.4368 1.69843 41.554 3.82242 39.4276C5.9464 37.3013 8.82611 36.1052 11.8299 36.1016H69.1984C69.3432 36.6264 69.4731 37.1613 69.5979 37.6962Z" fill="#94C136"/>
<path d="M69.0333 46.498C74.2419 46.498 78.4644 42.271 78.4644 37.0566C78.4644 31.8423 74.2419 27.6152 69.0333 27.6152C63.8246 27.6152 59.6022 31.8423 59.6022 37.0566C59.6022 42.271 63.8246 46.498 69.0333 46.498Z" fill="white"/>
<path d="M69.0332 46.9982C67.0692 46.9982 65.1493 46.4151 63.5162 45.3228C61.8832 44.2304 60.6104 42.6778 59.8588 40.8613C59.1072 39.0448 58.9105 37.0459 59.2937 35.1175C59.6768 33.1891 60.6226 31.4178 62.0114 30.0274C63.4002 28.6371 65.1696 27.6903 67.0959 27.3067C69.0222 26.9232 71.0189 27.12 72.8334 27.8725C74.648 28.6249 76.1989 29.8991 77.29 31.5339C78.3812 33.1687 78.9636 35.0908 78.9636 37.057C78.9606 39.6926 77.9134 42.2195 76.0518 44.0832C74.1901 45.9469 71.666 46.9952 69.0332 46.9982ZM69.0332 28.1155C67.2667 28.1155 65.5398 28.6399 64.071 29.6224C62.6022 30.6049 61.4574 32.0014 60.7814 33.6352C60.1054 35.269 59.9285 37.0669 60.2731 38.8013C60.6178 40.5358 61.4684 42.129 62.7176 43.3795C63.9667 44.63 65.5582 45.4816 67.2907 45.8266C69.0233 46.1716 70.8192 45.9946 72.4512 45.3178C74.0833 44.641 75.4782 43.495 76.4597 42.0246C77.4411 40.5542 77.9649 38.8254 77.9649 37.057C77.9623 34.6863 77.0204 32.4136 75.346 30.7373C73.6715 29.061 71.4013 28.1181 69.0332 28.1155Z" fill="#050606"/>
<path d="M67.7466 41.9706C67.5838 41.9706 67.4232 41.9326 67.2775 41.8597C67.1318 41.7867 67.0052 41.6809 66.9075 41.5504L64.3345 38.116C64.2519 38.0057 64.1917 37.8801 64.1575 37.7465C64.1234 37.6129 64.1158 37.4739 64.1353 37.3373C64.1548 37.2008 64.2009 37.0695 64.2711 36.9508C64.3413 36.8321 64.4342 36.7285 64.5444 36.6457C64.6546 36.563 64.78 36.5028 64.9135 36.4685C65.0469 36.4343 65.1858 36.4267 65.3222 36.4462C65.4585 36.4658 65.5898 36.512 65.7083 36.5822C65.8268 36.6525 65.9304 36.7455 66.0131 36.8558L67.6964 39.1025L72.0197 32.6104C72.1743 32.3791 72.4142 32.2187 72.6868 32.1643C72.9594 32.1099 73.2424 32.1661 73.4737 32.3204C73.705 32.4748 73.8656 32.7147 73.9203 32.9876C73.9751 33.2604 73.9194 33.5438 73.7655 33.7756L68.6196 41.5029C68.5266 41.6426 68.4013 41.758 68.2545 41.8393C68.1077 41.9206 67.9436 41.9655 67.7758 41.9702L67.7466 41.9706Z" fill="#94C136"/>
<path d="M143.434 112.982C148.643 112.982 152.865 108.755 152.865 103.541C152.865 98.3267 148.643 94.0996 143.434 94.0996C138.225 94.0996 134.003 98.3267 134.003 103.541C134.003 108.755 138.225 112.982 143.434 112.982Z" fill="white"/>
<path d="M143.434 113.482C141.47 113.482 139.55 112.899 137.917 111.807C136.284 110.714 135.011 109.162 134.26 107.345C133.508 105.529 133.311 103.53 133.695 101.601C134.078 99.673 135.023 97.9016 136.412 96.5113C137.801 95.121 139.57 94.1742 141.497 93.7906C143.423 93.407 145.42 93.6039 147.234 94.3563C149.049 95.1088 150.6 96.383 151.691 98.0178C152.782 99.6526 153.364 101.575 153.364 103.541C153.361 106.176 152.314 108.703 150.453 110.567C148.591 112.431 146.067 113.479 143.434 113.482ZM143.434 94.5994C141.668 94.5994 139.941 95.1238 138.472 96.1063C137.003 97.0888 135.858 98.4853 135.182 100.119C134.506 101.753 134.329 103.551 134.674 105.285C135.019 107.02 135.869 108.613 137.118 109.863C138.368 111.114 139.959 111.965 141.692 112.31C143.424 112.656 145.22 112.478 146.852 111.802C148.484 111.125 149.879 109.979 150.861 108.508C151.842 107.038 152.366 105.309 152.366 103.541C152.363 101.17 151.421 98.8975 149.747 97.2212C148.072 95.5449 145.802 94.602 143.434 94.5994Z" fill="#E6E6E6"/>
<path d="M142.148 108.455C141.985 108.455 141.824 108.417 141.678 108.344C141.533 108.271 141.406 108.165 141.308 108.035L138.735 104.6C138.653 104.49 138.593 104.364 138.558 104.231C138.524 104.097 138.517 103.958 138.536 103.822C138.575 103.546 138.723 103.297 138.945 103.13C139.168 102.963 139.448 102.891 139.723 102.931C139.998 102.97 140.247 103.117 140.414 103.34L142.097 105.587L146.421 99.0948C146.575 98.8635 146.815 98.703 147.088 98.6487C147.36 98.5943 147.643 98.6505 147.875 98.8048C148.106 98.9592 148.267 99.1991 148.321 99.4719C148.376 99.7448 148.32 100.028 148.166 100.26L143.02 107.987C142.927 108.127 142.802 108.242 142.655 108.324C142.509 108.405 142.344 108.45 142.177 108.455L142.148 108.455Z" fill="#E6E6E6"/>
<path d="M118.03 4.67309C113.866 1.6263 108.839 -0.00923139 103.681 0.00497458C99.7782 0.0506663 95.9458 1.05386 92.52 2.92665C89.0942 4.79945 86.1794 7.48471 84.031 10.7472C83.6654 11.3063 84.465 11.9866 84.8344 11.4216C87.452 7.43227 91.2371 4.3502 95.6716 2.59718C99.238 1.22151 103.092 0.764323 106.881 1.26755C110.67 1.77078 114.272 3.21831 117.356 5.47738C117.898 5.87617 118.575 5.07422 118.03 4.67309Z" fill="#E6E6E6"/>
<path d="M78.143 7.09122L75.8042 15.7907C75.7902 15.8702 75.7945 15.9517 75.817 16.0292C75.8394 16.1067 75.8792 16.178 75.9335 16.2376C75.9877 16.2972 76.0549 16.3436 76.1298 16.3732C76.2048 16.4028 76.2855 16.4148 76.3658 16.4082L86.1534 14.8391C86.8159 14.733 86.7293 13.6865 86.0617 13.7936L76.2741 15.3626L76.8357 15.9801L79.1745 7.2806C79.3502 6.62731 78.3172 6.44317 78.143 7.09122Z" fill="#E6E6E6"/>
<path d="M83.473 123.449C87.637 126.495 92.6643 128.131 97.8219 128.117C101.725 128.071 105.557 127.068 108.983 125.195C112.409 123.322 115.324 120.637 117.472 117.374C117.838 116.815 117.038 116.135 116.669 116.7C114.051 120.689 110.266 123.771 105.832 125.524C102.265 126.9 98.4108 127.357 94.6221 126.854C90.8333 126.351 87.2314 124.903 84.1467 122.644C83.605 122.245 82.9281 123.047 83.473 123.449Z" fill="#E6E6E6"/>
<path d="M123.36 121.03L125.699 112.331C125.713 112.251 125.709 112.17 125.686 112.092C125.664 112.015 125.624 111.943 125.57 111.884C125.516 111.824 125.448 111.778 125.373 111.748C125.298 111.719 125.218 111.707 125.137 111.713L115.35 113.282C114.687 113.388 114.774 114.435 115.442 114.328L125.229 112.759L124.668 112.141L122.329 120.841C122.153 121.494 123.186 121.678 123.36 121.03Z" fill="#E6E6E6"/>
<path d="M206.416 25.2121H169.015C167.812 25.2121 166.659 24.734 165.809 23.8829C164.959 23.0319 164.481 21.8775 164.481 20.6739C164.481 19.4703 164.959 18.316 165.809 17.465C166.659 16.6139 167.812 16.1357 169.015 16.1357H206.416C207.618 16.1357 208.771 16.6139 209.621 17.465C210.471 18.316 210.949 19.4703 210.949 20.6739C210.949 21.8775 210.471 23.0319 209.621 23.8829C208.771 24.734 207.618 25.2121 206.416 25.2121Z" fill="#F2F2F2"/>
<path d="M205.556 20.6739L207.341 18.887C207.392 18.8367 207.432 18.7768 207.46 18.7109C207.487 18.645 207.501 18.5742 207.501 18.5028C207.502 18.4313 207.488 18.3605 207.46 18.2945C207.433 18.2284 207.393 18.1684 207.343 18.1179C207.292 18.0674 207.232 18.0273 207.166 18C207.1 17.9728 207.03 17.9588 206.958 17.959C206.887 17.9591 206.816 17.9734 206.75 18.001C206.685 18.0286 206.625 18.0689 206.574 18.1196L204.79 19.9065L203.005 18.1196C202.954 18.0689 202.895 18.0286 202.829 18.001C202.763 17.9734 202.692 17.9591 202.621 17.959C202.55 17.9588 202.479 17.9728 202.413 18C202.347 18.0273 202.287 18.0674 202.236 18.1179C202.186 18.1684 202.146 18.2284 202.119 18.2945C202.091 18.3605 202.078 18.4313 202.078 18.5028C202.078 18.5742 202.092 18.645 202.12 18.7109C202.147 18.7768 202.187 18.8367 202.238 18.887L204.023 20.6739L202.251 22.448C202.2 22.4983 202.16 22.5582 202.132 22.6241C202.105 22.69 202.091 22.7607 202.09 22.8322C202.09 22.9037 202.104 22.9744 202.131 23.0405C202.159 23.1065 202.199 23.1666 202.249 23.2171C202.3 23.2676 202.36 23.3077 202.426 23.3349C202.491 23.3622 202.562 23.3762 202.634 23.376C202.705 23.3758 202.776 23.3616 202.841 23.334C202.907 23.3064 202.967 23.2661 203.017 23.2154L204.79 21.4412L206.562 23.2154C206.664 23.3163 206.801 23.3729 206.945 23.3725C207.088 23.3722 207.225 23.3151 207.327 23.2136C207.428 23.1122 207.485 22.9747 207.485 22.8312C207.486 22.6877 207.429 22.55 207.328 22.448L205.556 20.6739Z" fill="white"/>
<path d="M147.005 162.593C146.939 162.593 146.873 162.58 146.812 162.554C146.75 162.529 146.695 162.491 146.648 162.443L143.799 159.527C143.708 159.434 143.657 159.308 143.657 159.178C143.657 159.047 143.708 158.922 143.799 158.828L146.648 155.913C146.694 155.865 146.749 155.827 146.809 155.8C146.87 155.774 146.935 155.76 147.001 155.759C147.067 155.758 147.132 155.77 147.194 155.794C147.255 155.819 147.311 155.855 147.358 155.901C147.405 155.947 147.443 156.003 147.468 156.063C147.494 156.124 147.508 156.19 147.508 156.256C147.508 156.322 147.496 156.387 147.471 156.448C147.446 156.509 147.409 156.565 147.362 156.612L144.855 159.178L147.362 161.744C147.431 161.814 147.477 161.903 147.496 162C147.514 162.097 147.504 162.197 147.466 162.287C147.427 162.378 147.363 162.455 147.282 162.51C147.2 162.564 147.104 162.593 147.005 162.593Z" fill="#050606"/>
<path d="M151.793 162.594C151.695 162.594 151.599 162.565 151.517 162.51C151.435 162.456 151.371 162.378 151.333 162.288C151.295 162.197 151.284 162.097 151.303 162C151.321 161.904 151.367 161.815 151.436 161.744L153.944 159.178L151.436 156.612C151.345 156.517 151.295 156.39 151.297 156.258C151.299 156.126 151.353 156.001 151.447 155.909C151.541 155.817 151.668 155.765 151.8 155.766C151.931 155.767 152.057 155.82 152.15 155.913L154.999 158.829C155.09 158.922 155.141 159.047 155.141 159.178C155.141 159.309 155.09 159.434 154.999 159.528L152.15 162.443C152.104 162.491 152.048 162.529 151.987 162.555C151.925 162.581 151.86 162.594 151.793 162.594Z" fill="#050606"/>
<path d="M161.392 110.018C161.659 109.286 162.083 108.62 162.634 108.069C163.185 107.518 163.85 107.095 164.583 106.829C165.315 106.564 166.096 106.462 166.872 106.531C167.648 106.6 168.399 106.839 169.073 107.231L216.176 94.8735L216.949 104.588L170.859 114.879C170.127 115.969 169.021 116.751 167.752 117.079C166.482 117.407 165.136 117.257 163.969 116.658C162.802 116.059 161.895 115.052 161.42 113.828C160.945 112.605 160.935 111.249 161.392 110.018Z" fill="#FCD2BB"/>
<path d="M232.407 92.9114C231.286 91.2956 229.72 90.0408 227.9 89.3C226.08 88.5592 224.083 88.3642 222.154 88.7389L204.834 92.1026C204.834 92.1026 210.796 112.085 218.347 111.644C221.53 111.458 225.557 109.586 229.152 107.483C230.364 106.779 231.417 105.832 232.246 104.701C233.074 103.57 233.66 102.279 233.966 100.91C234.271 99.5416 234.291 98.1243 234.022 96.7476C233.754 95.371 233.204 94.0648 232.407 92.9114Z" fill="#050606"/>
<path d="M215.059 297.021L210.469 296.983L208.437 278.848L215.211 278.905L215.059 297.021Z" fill="#FCD2BB"/>
<path d="M217.131 306.317L216.277 294.905L215.079 294.825L210.191 294.49L208.618 294.385L208.588 297.669L201.257 302.648C200.936 302.866 200.683 303.172 200.529 303.528C200.374 303.885 200.323 304.278 200.383 304.663C200.442 305.047 200.61 305.406 200.865 305.699C201.121 305.992 201.454 306.206 201.827 306.317C202.011 306.373 202.203 306.402 202.396 306.402L211.519 306.477L211.599 306.317L213.117 303.238L213.671 306.317L213.701 306.497L217.146 306.527L217.131 306.317Z" fill="#050606"/>
<path d="M263.38 293.665L258.993 295.014L251.587 278.339L258.062 276.347L263.38 293.665Z" fill="#FCD2BB"/>
<path d="M263.904 291.28L262.736 291.565L257.977 292.72H257.972L256.444 293.095L257.408 296.239L251.92 303.197C251.683 303.501 251.537 303.865 251.496 304.248C251.456 304.631 251.523 305.018 251.691 305.365C251.859 305.711 252.121 306.004 252.446 306.209C252.772 306.414 253.148 306.524 253.533 306.527C253.736 306.526 253.938 306.496 254.132 306.437L254.521 306.317L262.855 303.752L263.4 300.178L264.943 303.107L268.233 302.093L263.904 291.28Z" fill="#050606"/>
<path d="M205.827 144.531L197.069 170.012L196.779 172.051C194.572 174.149 197.345 174.84 196.305 175.393C195.266 175.946 194.567 177.497 195.968 177.774C197.368 178.051 201.885 277.437 207.842 281.296C213.799 285.155 217.425 287.946 216.331 282.295C215.89 280.019 216.513 267.813 217.415 254.048C217.517 252.488 219.132 250.837 217.731 249.32C216.331 247.804 217.904 246.806 217.992 245.547C219.249 227.573 220.699 209.827 220.699 209.827C220.699 209.827 229.984 241.748 232.395 239.277C234.806 236.806 233.852 242.89 234.589 244.708C235.204 246.228 232.577 249.212 236.438 249.257C240.299 249.303 249.366 280.331 250.286 280.296C252.108 280.226 257.23 280.423 260.272 279.796C261.774 279.486 255.106 255.995 249.538 235.71C249.094 234.092 246.678 234.055 248.232 230.932C249.786 227.808 242.053 207.6 242.717 206.665C244.478 204.185 245.149 203.106 243.412 202.944C241.675 202.781 241.161 203.735 241.068 201.329C240.974 198.923 240.674 192.988 240.674 192.988C240.674 192.988 239.416 169.52 230.604 156.553L229.853 148.849L205.827 144.531Z" fill="#050606"/>
<path d="M206.226 145.077C198.636 146.181 186.223 152.918 194.853 138.079L203.928 115.421C197.278 110.252 202.865 100.702 208.437 91.1568L221.376 78.2041H232.616L235.589 89.5217C239.263 97.4424 239.731 106.479 236.897 114.738C235.047 120.118 239.593 131.795 238.683 132.666C236.686 134.58 233.19 132.249 236.686 135.914C240.181 139.578 240.881 140.751 239.532 142.164C238.184 143.577 235.188 148.076 235.188 148.076L230.604 156.554L206.226 145.077Z" fill="#050606"/>
<path d="M229.691 75.5454C236.285 72.9784 239.551 65.5464 236.987 58.9456C234.423 52.3447 226.999 49.0746 220.405 51.6416C213.812 54.2086 210.545 61.6406 213.109 68.2415C215.674 74.8423 223.098 78.1124 229.691 75.5454Z" fill="#FCD2BB"/>
<path d="M242.284 80.2551C244.026 82.7507 245.191 85.6032 245.695 88.6056C244.291 89.5046 242.657 89.9768 240.99 89.965C240.934 89.7465 240.877 89.528 240.813 89.3096C240.33 87.6178 239.611 86.0025 238.679 84.5112C238.807 86.1193 238.589 87.7362 238.04 89.253C237.16 88.8523 236.216 88.6086 235.252 88.5328C234.466 88.5327 233.691 88.7156 232.989 89.0668C232.172 86.3562 231.42 83.8639 230.887 82.0757C230.871 86.5584 224.308 90.4667 217.146 89.9003C216.888 89.7384 219.482 82.367 219.232 82.1971C218.658 81.8168 218.1 81.4041 217.542 80.9995C219.886 77.3745 222.432 73.4905 221.996 72.908C222.028 73.6281 219.458 77.0913 216.661 80.3603C215.11 79.2194 223.928 60.6573 219.571 59.1523C219.498 59.8077 218.537 59.8077 217.365 59.6702C217.055 58.5888 216.596 57.5564 215.999 56.6034C216.076 57.5634 215.961 58.5291 215.659 59.4436C214.502 59.4439 213.348 59.566 212.216 59.8077C211.954 59.3952 211.665 59.0005 211.351 58.6263C211.382 59.0824 211.369 59.5404 211.311 59.9938C210.155 60.2446 209.201 60.5359 209.064 60.7706C208.158 60.4388 209.702 58.9419 209.136 58.1651C207.698 56.2232 209.832 53.3911 211.181 51.3844C213.954 47.2739 220.04 45.8497 224.348 48.3177C224.542 47.6461 225.536 47.201 226.813 46.9016C227.355 46.7822 227.908 46.7306 228.462 46.7479C233.959 46.845 241.589 51.3844 241.888 56.8786C241.912 57.4288 241.952 58.0276 241.993 58.6668C242.381 64.8164 241.904 70.4886 246.099 74.9875C247.618 76.6139 247.635 84.3171 247.053 88.282C245.541 86.6879 244.466 80.4898 242.284 80.2551Z" fill="#2F2E41"/>
<path d="M273.407 298.841C273.639 298.851 273.869 298.79 274.065 298.666C274.261 298.542 274.415 298.36 274.504 298.145C274.594 297.931 274.615 297.693 274.566 297.466C274.517 297.239 274.399 297.032 274.228 296.874L274.15 296.565C274.161 296.541 274.171 296.516 274.181 296.491C274.415 295.938 274.807 295.467 275.307 295.136C275.808 294.806 276.395 294.63 276.995 294.633C277.594 294.635 278.18 294.814 278.678 295.149C279.176 295.483 279.565 295.958 279.794 296.512C280.712 298.726 281.881 300.943 282.169 303.284C282.296 304.318 282.242 305.367 282.011 306.383C284.167 301.674 285.287 296.556 285.294 291.376C285.295 290.076 285.223 288.777 285.078 287.486C284.959 286.427 284.793 285.375 284.581 284.331C283.426 278.667 280.944 273.358 277.341 268.84C275.597 267.888 274.187 266.423 273.3 264.643C272.979 264.003 272.752 263.32 272.626 262.615C272.823 262.641 273.368 259.642 273.219 259.458C273.493 259.041 273.984 258.834 274.284 258.428C275.773 256.407 277.824 256.759 278.896 259.506C281.184 260.662 281.206 262.579 279.802 264.423C278.909 265.596 278.786 267.184 278.002 268.44C278.083 268.543 278.167 268.643 278.247 268.747C279.721 270.644 281.006 272.681 282.083 274.829C281.821 272.423 282.133 269.988 282.995 267.726C283.868 265.618 285.504 263.843 286.945 262.02C287.326 261.531 287.843 261.165 288.432 260.97C289.02 260.775 289.653 260.759 290.251 260.924C290.849 261.088 291.384 261.427 291.79 261.897C292.195 262.366 292.453 262.946 292.529 263.561C292.532 263.588 292.535 263.615 292.538 263.642C292.324 263.763 292.114 263.891 291.909 264.027C291.652 264.199 291.452 264.445 291.337 264.733C291.222 265.021 291.196 265.336 291.263 265.639C291.33 265.942 291.486 266.217 291.712 266.429C291.938 266.641 292.223 266.78 292.529 266.827L292.56 266.832C292.484 267.604 292.349 268.369 292.157 269.121C294.006 276.277 290.015 278.884 284.317 279.001C284.191 279.065 284.069 279.13 283.943 279.191C285.025 282.261 285.704 285.458 285.962 288.703C286.108 290.617 286.099 292.54 285.936 294.453L285.946 294.385C286.359 292.258 287.492 290.339 289.155 288.951C291.624 286.921 295.113 286.173 297.777 284.54C298.061 284.358 298.39 284.261 298.726 284.26C299.063 284.26 299.392 284.355 299.676 284.536C299.96 284.716 300.187 284.975 300.329 285.28C300.471 285.585 300.524 285.925 300.479 286.259L300.468 286.33C300.071 286.492 299.685 286.678 299.311 286.888C299.097 287.009 298.887 287.138 298.682 287.273C298.425 287.445 298.225 287.692 298.11 287.979C297.994 288.267 297.968 288.583 298.035 288.886C298.102 289.188 298.259 289.464 298.485 289.676C298.711 289.888 298.996 290.026 299.302 290.073L299.333 290.078C299.356 290.082 299.375 290.085 299.398 290.088C298.719 291.71 297.767 293.203 296.582 294.502C295.426 300.749 290.462 301.341 285.152 299.522H285.149C284.566 302.057 283.722 304.524 282.63 306.883H273.632C273.6 306.783 273.571 306.68 273.542 306.58C274.375 306.632 275.211 306.583 276.032 306.431C275.364 305.611 274.696 304.785 274.029 303.965C274.014 303.949 274 303.933 273.987 303.916C273.648 303.497 273.306 303.08 272.968 302.66L272.968 302.66C272.95 301.373 273.097 300.09 273.407 298.841Z" fill="#F2F2F2"/>
<path d="M172.765 306.91C172.765 306.988 172.78 307.065 172.81 307.137C172.84 307.21 172.883 307.275 172.939 307.331C172.994 307.386 173.059 307.43 173.132 307.46C173.204 307.489 173.281 307.505 173.359 307.504H299.836C299.993 307.504 300.144 307.442 300.256 307.33C300.367 307.219 300.43 307.067 300.43 306.91C300.43 306.752 300.367 306.601 300.256 306.489C300.144 306.378 299.993 306.315 299.836 306.315H173.359C173.281 306.315 173.204 306.33 173.132 306.36C173.059 306.39 172.994 306.433 172.939 306.489C172.883 306.544 172.84 306.61 172.81 306.682C172.78 306.754 172.765 306.831 172.765 306.91Z" fill="#C2C2C2"/>
<path d="M233.058 178.563L206.867 202.891L172.726 192.349L164.776 157.479L190.966 133.151L225.107 143.693L233.058 178.563Z" fill="#F2F2F2"/>
<path d="M189.516 160.508C189.132 159.829 188.901 159.075 188.84 158.297C188.779 157.52 188.889 156.738 189.162 156.008C189.436 155.278 189.865 154.617 190.422 154.071C190.978 153.525 191.647 153.107 192.381 152.848L213.556 108.952L221.441 114.667L199.353 156.451C199.706 157.716 199.584 159.066 199.009 160.246C198.434 161.426 197.447 162.354 196.234 162.854C195.022 163.354 193.668 163.391 192.43 162.959C191.191 162.526 190.155 161.654 189.516 160.508Z" fill="#FCD2BB"/>
<path d="M222.597 95.3155C220.642 95.1207 218.672 95.4992 216.928 96.405C215.184 97.3109 213.74 98.7049 212.773 100.417L204.09 115.793C204.09 115.793 223.147 124.219 227.711 118.181C229.635 115.636 230.826 111.354 231.56 107.251C231.812 105.871 231.775 104.454 231.453 103.089C231.131 101.724 230.53 100.44 229.688 99.3192C228.846 98.1981 227.782 97.2636 226.561 96.5745C225.341 95.8855 223.991 95.4568 222.597 95.3155Z" fill="#050606"/>
<path d="M168.35 89.6191V132.814C168.347 133.985 167.882 135.108 167.054 135.936C166.227 136.764 165.106 137.231 163.935 137.233H130.84L131.144 136.843C148.556 125.206 160.895 109.679 167.96 90.114L168.35 89.6191Z" fill="#94C136"/>
<path d="M28.7858 121.236L19.7044 136.983H37.8667L28.7858 121.236L19.7044 136.983H37.8667L28.7858 121.236Z" fill="#F2F2F2"/>
<path d="M97.5171 195.419C114.154 195.419 127.641 181.917 127.641 165.262C127.641 148.607 114.154 135.106 97.5171 135.106C80.8803 135.106 67.3936 148.607 67.3936 165.262C67.3936 181.917 80.8803 195.419 97.5171 195.419Z" fill="#F2F2F2"/>
</g>
<defs>
<clipPath id="clip0_811_9538">
<rect width="300" height="307.5" fill="white" transform="translate(0.5 0.00488281)"/>
</clipPath>
</defs>
</svg>
