<svg width="118" height="51" viewBox="0 0 118 51" fill="none" xmlns="http://www.w3.org/2000/svg">
<g id="Layer_1" clip-path="url(#clip0_811_12512)">
<path id="Vector" d="M1.46062 50.6861H0L5.35602 38.3931H6.57369L11.93 50.6861H10.4691L9.11262 47.4566H2.81723L1.46062 50.6861ZM3.28692 46.3105H8.62564L5.96502 39.8516L3.28692 46.3105Z" fill="#7BADD3"/>
<path id="Vector_2" d="M18.6779 49.54H24.4167V50.6861H17.4258V38.3931H18.6779L18.6779 49.54Z" fill="#7BADD3"/>
<path id="Vector_3" d="M31.1994 49.54H36.9382V50.6861H29.9473V38.3931H31.1994V49.54Z" fill="#7BADD3"/>
<path id="Vector_4" d="M43.7189 50.6861H42.4668V38.3931H43.7189V50.6861Z" fill="#7BADD3"/>
<path id="Vector_5" d="M50.6756 50.6861H49.2148L54.571 38.3931H55.7885L61.1451 50.6861H59.6839L58.3276 47.4566H52.0323L50.6756 50.6861ZM52.5018 46.3105H57.8405L55.1799 39.8516L52.5018 46.3105Z" fill="#7BADD3"/>
<path id="Vector_6" d="M75.5445 48.8107H75.5791V38.3931H76.8314V50.6861H75.2663L67.9275 40.1643H67.8925V50.6861H66.6406V38.3931H68.2058L75.5445 48.8107Z" fill="#7BADD3"/>
<path id="Vector_7" d="M94.1353 48.7416C93.9269 49.0538 93.6688 49.3497 93.3614 49.6271C93.0542 49.9047 92.7033 50.1455 92.3097 50.3477C91.915 50.5501 91.489 50.7095 91.0314 50.8254C90.5727 50.9405 90.089 50.9992 89.579 50.9992C88.663 50.9992 87.814 50.8367 87.0309 50.5128C86.2493 50.1889 85.5703 49.7399 84.9962 49.1669C84.423 48.594 83.9731 47.9139 83.6491 47.1269C83.3243 46.3399 83.1621 45.4774 83.1621 44.5401C83.1621 43.6027 83.3243 42.7402 83.6491 41.9528C83.9731 41.1657 84.423 40.4854 84.9962 39.9125C85.5703 39.3397 86.2493 38.8914 87.0309 38.5671C87.814 38.243 88.663 38.0811 89.579 38.0811C90.3439 38.0811 91.1095 38.2315 91.8748 38.5322C92.6401 38.8338 93.2948 39.3311 93.8399 40.0252L92.7442 40.8414C92.6159 40.6447 92.4425 40.4481 92.2227 40.2514C92.0024 40.0545 91.7498 39.881 91.466 39.7306C91.1817 39.5804 90.8778 39.4583 90.553 39.3655C90.2282 39.2732 89.9034 39.2268 89.579 39.2268C88.7906 39.2268 88.0838 39.3714 87.4576 39.661C86.8315 39.9507 86.301 40.3381 85.8661 40.8243C85.4312 41.3107 85.0978 41.8747 84.8664 42.5174C84.6342 43.1594 84.5185 43.8339 84.5185 44.54C84.5185 45.2462 84.6342 45.9203 84.8664 46.5629C85.0978 47.2051 85.4312 47.7695 85.8661 48.2559C86.301 48.7416 86.8315 49.1296 87.4576 49.4191C88.0838 49.7082 88.7906 49.8529 89.579 49.8529C89.9034 49.8529 90.2252 49.8241 90.5444 49.7662C90.8632 49.7082 91.1765 49.6099 91.4834 49.4705C91.7907 49.3324 92.0802 49.1437 92.3533 48.9065C92.6256 48.6697 92.8774 48.3714 93.1096 48.0126L94.1353 48.7416Z" fill="#7BADD3"/>
<path id="Vector_8" d="M101.316 49.54H107.907V50.6861H100.064V38.3931H107.699V39.5388H101.316V43.7238H107.281V44.8697H101.316L101.316 49.54Z" fill="#7BADD3"/>
<path id="Vector_9" d="M23.8831 21.9223V6.75284C23.8831 5.86007 23.1557 5.13428 22.2617 5.13428C21.383 5.13428 20.6404 5.87567 20.6404 6.75284V21.9223C20.6404 22.6544 20.6404 24.8829 19.5606 26.8907C19.0102 27.9168 18.2006 28.7505 17.1543 29.3691C15.8095 30.1367 14.0971 30.5253 12.0602 30.5253C10.0232 30.5253 8.31059 30.1367 6.96922 29.371C5.93201 28.7799 5.13194 27.9565 4.52495 26.8564C3.44344 24.8829 3.44344 22.6544 3.44344 21.9223V6.75284C3.44344 5.86007 2.7163 5.13428 1.82232 5.13428C0.943935 5.13428 0.201172 5.87567 0.201172 6.75284V21.9223C0.201172 22.8544 0.201172 25.6911 1.6707 28.4104C2.57587 30.0379 3.77827 31.2622 5.34605 32.1514C7.16642 33.2204 9.42465 33.7623 12.0602 33.7623C18.2421 33.7623 21.1023 30.8521 22.413 28.4114C23.8831 25.7262 23.8831 22.8626 23.8831 21.9223Z" fill="#54565A"/>
<path id="Vector_10" d="M53.7897 16.5096C53.7897 15.5772 53.7897 12.7398 52.3198 10.0198C51.4144 8.39304 50.2119 7.16823 48.6448 6.27914C46.8239 5.21034 44.5658 4.66895 41.9305 4.66895C35.7488 4.66895 32.8886 7.57809 31.5779 10.0198C30.1074 12.7043 30.1074 15.5681 30.1074 16.5096V31.6781C30.1074 32.5703 30.8348 33.2967 31.7288 33.2967C32.6071 33.2967 33.3501 32.5545 33.3501 31.6781V16.5096C33.3501 15.7775 33.3501 13.549 34.4299 11.5397C34.9803 10.5145 35.7899 9.6812 36.8368 9.06183C38.1815 8.29367 39.8942 7.9057 41.9305 7.9057C43.9669 7.9057 45.6797 8.29367 47.0215 9.06035C48.0585 9.65203 48.8584 10.4742 49.4661 11.5744C50.5474 13.5473 50.5474 15.7765 50.5474 16.5096V31.6781C50.5474 32.5703 51.2747 33.2967 52.1686 33.2967C53.0471 33.2967 53.7897 32.5545 53.7897 31.6781L53.7897 16.5096Z" fill="#54565A"/>
<path id="Vector_11" d="M64.031 16.7159C64.031 15.8231 63.3046 15.0972 62.41 15.0972C61.5315 15.0972 60.7891 15.8387 60.7891 16.7159V31.7073C60.7891 32.6002 61.5164 33.326 62.41 33.326C63.3189 33.326 64.031 32.6147 64.031 31.7073V16.7159Z" fill="#54565A"/>
<path id="Vector_12" d="M89.8662 5.13428H72.1823C71.2726 5.13428 70.5605 5.84559 70.5605 6.75284C70.5605 7.66009 71.2726 8.37174 72.1823 8.37174H79.4209V31.7072C79.4209 32.6146 80.1334 33.3259 81.043 33.3259C81.9363 33.3259 82.6636 32.6001 82.6636 31.7072V8.37176H89.8662C90.7751 8.37176 91.4872 7.66045 91.4872 6.75285C91.4872 5.84526 90.7751 5.13428 89.8662 5.13428Z" fill="#54565A"/>
<path id="Vector_13" d="M108.189 21.8979L108.223 21.8469L117.732 7.65989C118.224 6.90827 118.023 5.91056 117.275 5.38944C117.012 5.2184 116.702 5.12646 116.384 5.12646C115.838 5.12646 115.337 5.39576 115.043 5.84485L106.568 18.5006L98.1299 5.84594C97.836 5.39576 97.3349 5.12646 96.7899 5.12646C96.4714 5.12646 96.1607 5.2184 95.8925 5.39279C95.1495 5.91057 94.949 6.90828 95.4416 7.66192L104.947 21.8983V31.7075C104.947 32.5847 105.69 33.3263 106.568 33.3263C107.462 33.3263 108.189 32.6005 108.189 31.7075V21.8979Z" fill="#54565A"/>
<path id="Vector_14" d="M59.615 13.3731C60.0306 13.3731 60.4391 13.2207 60.764 12.9417L66.3271 7.95421C66.7036 7.61322 66.9041 7.16729 66.9041 6.66698C66.9041 6.19823 66.698 5.75473 66.326 5.4169L60.7603 0.426735C60.4389 0.151322 60.0306 -0.000976562 59.6145 -0.000976562C59.1319 -0.000976562 58.6851 0.199239 58.3549 0.562899C58.0753 0.877679 57.9141 1.28387 57.9141 1.67684C57.9141 2.16195 58.125 2.63124 58.4926 2.96461L62.6718 6.66548L58.4924 10.4442C58.1566 10.7324 57.9585 11.1317 57.9295 11.5746C57.9005 12.0261 58.0554 12.4761 58.3549 12.8091C58.6851 13.1728 59.1325 13.3731 59.615 13.3731Z" fill="#7BADD3"/>
</g>
<defs>
<clipPath id="clip0_811_12512">
<rect width="118" height="51" fill="white" transform="translate(0 -0.000976562)"/>
</clipPath>
</defs>
</svg>
