<svg width="20" height="21" viewBox="0 0 20 21" fill="none" xmlns="http://www.w3.org/2000/svg">
<g id="wb_cloudy">
<path id="Vector" d="M10 5.00505C12.175 5.00505 14.075 6.55505 14.5 8.69671L14.75 9.94671L16.0167 10.0384C17.3167 10.13 18.3333 11.2134 18.3333 12.505C18.3333 13.88 17.2083 15.005 15.8333 15.005H5C3.15833 15.005 1.66667 13.5134 1.66667 11.6717C1.66667 9.96338 2.94167 8.53838 4.63333 8.36338L5.525 8.27171L5.94167 7.48005C6.725 5.95505 8.28333 5.00505 10 5.00505ZM10 3.33838C7.59167 3.33838 5.49167 4.70505 4.45 6.70505C1.95 6.97171 0 9.09671 0 11.6717C0 14.43 2.24167 16.6717 5 16.6717H15.8333C18.1333 16.6717 20 14.805 20 12.505C20 10.305 18.2917 8.52171 16.1333 8.37171C15.5583 5.49671 13.0333 3.33838 10 3.33838Z" fill="white"/>
</g>
</svg>
